%TF.GenerationSoftware,KiCad,Pcbnew,7.0.10-7.0.10~ubuntu22.04.1*%
%TF.CreationDate,2024-01-12T08:07:30-07:00*%
%TF.ProjectId,HIDHopper_ADB,48494448-6f70-4706-9572-5f4144422e6b,rev?*%
%TF.SameCoordinates,Original*%
%TF.FileFunction,Soldermask,Bot*%
%TF.FilePolarity,Negative*%
%FSLAX46Y46*%
G04 Gerber Fmt 4.6, Leading zero omitted, Abs format (unit mm)*
G04 Created by KiCad (PCBNEW 7.0.10-7.0.10~ubuntu22.04.1) date 2024-01-12 08:07:30*
%MOMM*%
%LPD*%
G01*
G04 APERTURE LIST*
G04 Aperture macros list*
%AMRoundRect*
0 Rectangle with rounded corners*
0 $1 Rounding radius*
0 $2 $3 $4 $5 $6 $7 $8 $9 X,Y pos of 4 corners*
0 Add a 4 corners polygon primitive as box body*
4,1,4,$2,$3,$4,$5,$6,$7,$8,$9,$2,$3,0*
0 Add four circle primitives for the rounded corners*
1,1,$1+$1,$2,$3*
1,1,$1+$1,$4,$5*
1,1,$1+$1,$6,$7*
1,1,$1+$1,$8,$9*
0 Add four rect primitives between the rounded corners*
20,1,$1+$1,$2,$3,$4,$5,0*
20,1,$1+$1,$4,$5,$6,$7,0*
20,1,$1+$1,$6,$7,$8,$9,0*
20,1,$1+$1,$8,$9,$2,$3,0*%
%AMFreePoly0*
4,1,58,0.281242,0.792533,0.314585,0.788777,0.324216,0.782725,0.335306,0.780194,0.361541,0.759271,0.389950,0.741421,0.741421,0.389950,0.759271,0.361541,0.780194,0.335306,0.782725,0.324216,0.788777,0.314585,0.792533,0.281242,0.800000,0.248529,0.800000,-0.248529,0.792533,-0.281242,0.788777,-0.314585,0.782725,-0.324216,0.780194,-0.335306,0.759271,-0.361541,0.741421,-0.389950,
0.389950,-0.741421,0.361541,-0.759271,0.335306,-0.780194,0.324216,-0.782725,0.314585,-0.788777,0.281242,-0.792533,0.248529,-0.800000,0.000000,-0.800000,-0.248529,-0.800000,-0.281242,-0.792533,-0.314585,-0.788777,-0.324216,-0.782725,-0.335306,-0.780194,-0.361541,-0.759271,-0.389950,-0.741421,-0.741421,-0.389950,-0.759271,-0.361541,-0.780194,-0.335306,-0.782725,-0.324216,-0.788777,-0.314585,
-0.792533,-0.281242,-0.800000,-0.248529,-0.800000,0.248529,-0.792533,0.281242,-0.788777,0.314585,-0.782725,0.324216,-0.780194,0.335306,-0.759271,0.361541,-0.741421,0.389950,-0.389950,0.741421,-0.361541,0.759271,-0.335306,0.780194,-0.324216,0.782725,-0.314585,0.788777,-0.281242,0.792533,-0.248529,0.800000,0.248529,0.800000,0.281242,0.792533,0.281242,0.792533,$1*%
G04 Aperture macros list end*
%ADD10C,1.410000*%
%ADD11C,3.500000*%
%ADD12C,3.200000*%
%ADD13C,2.100000*%
%ADD14O,1.100000X1.800000*%
%ADD15O,1.050000X1.450000*%
%ADD16FreePoly0,180.000000*%
%ADD17C,1.600000*%
%ADD18RoundRect,0.200000X0.600000X0.600000X-0.600000X0.600000X-0.600000X-0.600000X0.600000X-0.600000X0*%
%ADD19R,1.574800X1.574800*%
%ADD20C,1.574800*%
%ADD21C,1.200000*%
%ADD22R,1.600000X1.500000*%
%ADD23C,3.000000*%
%ADD24R,1.700000X1.700000*%
%ADD25O,1.700000X1.700000*%
G04 APERTURE END LIST*
D10*
%TO.C,J3*%
X139300000Y-109280000D03*
X145820000Y-109280000D03*
X139300000Y-106740000D03*
X145820000Y-106740000D03*
D11*
X136260000Y-112050000D03*
X142560000Y-112850000D03*
X148860000Y-112050000D03*
%TD*%
D10*
%TO.C,J6*%
X145820000Y-71620000D03*
X139300000Y-71620000D03*
X145820000Y-74160000D03*
X139300000Y-74160000D03*
D11*
X148860000Y-68850000D03*
X142560000Y-68050000D03*
X136260000Y-68850000D03*
%TD*%
D12*
%TO.C,H3*%
X184000000Y-90460000D03*
%TD*%
D13*
%TO.C,REF\u002A\u002A*%
X146180000Y-95890000D03*
%TD*%
D14*
%TO.C,RP1*%
X166805000Y-115540000D03*
D15*
X166505000Y-112510000D03*
X161655000Y-112510000D03*
D14*
X161355000Y-115540000D03*
D16*
X172970000Y-115670000D03*
D17*
X172970000Y-113130000D03*
D18*
X172970000Y-110590000D03*
D17*
X172970000Y-108050000D03*
X172970000Y-105510000D03*
X172970000Y-102970000D03*
X172970000Y-100430000D03*
D18*
X172970000Y-97890000D03*
D17*
X172970000Y-95350000D03*
X172970000Y-92810000D03*
X172970000Y-90270000D03*
X172970000Y-87730000D03*
D18*
X172970000Y-85190000D03*
D17*
X172970000Y-82650000D03*
X172970000Y-80110000D03*
X172970000Y-77570000D03*
X172970000Y-75030000D03*
D18*
X172970000Y-72490000D03*
D17*
X172970000Y-69950000D03*
X172970000Y-67410000D03*
X155190000Y-67410000D03*
X155190000Y-69950000D03*
D18*
X155190000Y-72490000D03*
D17*
X155190000Y-75030000D03*
X155190000Y-77570000D03*
X155190000Y-80110000D03*
X155190000Y-82650000D03*
D18*
X155190000Y-85190000D03*
D17*
X155190000Y-87730000D03*
X155190000Y-90270000D03*
X155190000Y-92810000D03*
X155190000Y-95350000D03*
D18*
X155190000Y-97890000D03*
D17*
X155190000Y-100430000D03*
X155190000Y-102970000D03*
X155190000Y-105510000D03*
X155190000Y-108050000D03*
D18*
X155190000Y-110590000D03*
D17*
X155190000Y-113130000D03*
X155190000Y-115670000D03*
D19*
X163495800Y-85840000D03*
D20*
X160955800Y-85840000D03*
X158415800Y-85840000D03*
D21*
X163090000Y-115730000D03*
X165090000Y-115730000D03*
%TD*%
D12*
%TO.C,H2*%
X148800000Y-90250000D03*
%TD*%
D13*
%TO.C,REF\u002A\u002A*%
X184000000Y-82980000D03*
%TD*%
D12*
%TO.C,H1*%
X184000000Y-75770000D03*
%TD*%
D22*
%TO.C,J10*%
X181190000Y-105100000D03*
D17*
X183690000Y-105100000D03*
X185690000Y-105100000D03*
X188190000Y-105100000D03*
D23*
X178120000Y-107810000D03*
X191260000Y-107810000D03*
%TD*%
D24*
%TO.C,J1*%
X180630000Y-95950000D03*
D25*
X183170000Y-95950000D03*
X185710000Y-95950000D03*
X188250000Y-95950000D03*
%TD*%
M02*
