%TF.GenerationSoftware,KiCad,Pcbnew,7.0.10-7.0.10~ubuntu22.04.1*%
%TF.CreationDate,2024-01-12T08:07:30-07:00*%
%TF.ProjectId,HIDHopper_ADB,48494448-6f70-4706-9572-5f4144422e6b,rev?*%
%TF.SameCoordinates,Original*%
%TF.FileFunction,Copper,L1,Top*%
%TF.FilePolarity,Positive*%
%FSLAX46Y46*%
G04 Gerber Fmt 4.6, Leading zero omitted, Abs format (unit mm)*
G04 Created by KiCad (PCBNEW 7.0.10-7.0.10~ubuntu22.04.1) date 2024-01-12 08:07:30*
%MOMM*%
%LPD*%
G01*
G04 APERTURE LIST*
G04 Aperture macros list*
%AMRoundRect*
0 Rectangle with rounded corners*
0 $1 Rounding radius*
0 $2 $3 $4 $5 $6 $7 $8 $9 X,Y pos of 4 corners*
0 Add a 4 corners polygon primitive as box body*
4,1,4,$2,$3,$4,$5,$6,$7,$8,$9,$2,$3,0*
0 Add four circle primitives for the rounded corners*
1,1,$1+$1,$2,$3*
1,1,$1+$1,$4,$5*
1,1,$1+$1,$6,$7*
1,1,$1+$1,$8,$9*
0 Add four rect primitives between the rounded corners*
20,1,$1+$1,$2,$3,$4,$5,0*
20,1,$1+$1,$4,$5,$6,$7,0*
20,1,$1+$1,$6,$7,$8,$9,0*
20,1,$1+$1,$8,$9,$2,$3,0*%
%AMFreePoly0*
4,1,58,1.881242,0.792533,1.914585,0.788777,1.924216,0.782725,1.935306,0.780194,1.961541,0.759271,1.989950,0.741421,2.341421,0.389950,2.359271,0.361541,2.380194,0.335306,2.382725,0.324216,2.388777,0.314585,2.392533,0.281242,2.400000,0.248529,2.400000,-0.248529,2.392533,-0.281242,2.388777,-0.314585,2.382725,-0.324216,2.380194,-0.335306,2.359271,-0.361541,2.341421,-0.389950,
1.989950,-0.741421,1.961541,-0.759271,1.935306,-0.780194,1.924216,-0.782725,1.914585,-0.788777,1.881242,-0.792533,1.848529,-0.800000,0.000000,-0.800000,-0.248529,-0.800000,-0.281242,-0.792533,-0.314585,-0.788777,-0.324216,-0.782725,-0.335306,-0.780194,-0.361541,-0.759271,-0.389950,-0.741421,-0.741421,-0.389950,-0.759271,-0.361541,-0.780194,-0.335306,-0.782725,-0.324216,-0.788777,-0.314585,
-0.792533,-0.281242,-0.800000,-0.248529,-0.800000,0.248529,-0.792533,0.281242,-0.788777,0.314585,-0.782725,0.324216,-0.780194,0.335306,-0.759271,0.361541,-0.741421,0.389950,-0.389950,0.741421,-0.361541,0.759271,-0.335306,0.780194,-0.324216,0.782725,-0.314585,0.788777,-0.281242,0.792533,-0.248529,0.800000,1.848529,0.800000,1.881242,0.792533,1.881242,0.792533,$1*%
%AMFreePoly1*
4,1,58,0.281242,0.792533,0.314585,0.788777,0.324216,0.782725,0.335306,0.780194,0.361541,0.759271,0.389950,0.741421,0.741421,0.389950,0.759271,0.361541,0.780194,0.335306,0.782725,0.324216,0.788777,0.314585,0.792533,0.281242,0.800000,0.248529,0.800000,-0.248529,0.792533,-0.281242,0.788777,-0.314585,0.782725,-0.324216,0.780194,-0.335306,0.759271,-0.361541,0.741421,-0.389950,
0.389950,-0.741421,0.361541,-0.759271,0.335306,-0.780194,0.324216,-0.782725,0.314585,-0.788777,0.281242,-0.792533,0.248529,-0.800000,0.000000,-0.800000,-0.248529,-0.800000,-0.281242,-0.792533,-0.314585,-0.788777,-0.324216,-0.782725,-0.335306,-0.780194,-0.361541,-0.759271,-0.389950,-0.741421,-0.741421,-0.389950,-0.759271,-0.361541,-0.780194,-0.335306,-0.782725,-0.324216,-0.788777,-0.314585,
-0.792533,-0.281242,-0.800000,-0.248529,-0.800000,0.248529,-0.792533,0.281242,-0.788777,0.314585,-0.782725,0.324216,-0.780194,0.335306,-0.759271,0.361541,-0.741421,0.389950,-0.389950,0.741421,-0.361541,0.759271,-0.335306,0.780194,-0.324216,0.782725,-0.314585,0.788777,-0.281242,0.792533,-0.248529,0.800000,0.248529,0.800000,0.281242,0.792533,0.281242,0.792533,$1*%
G04 Aperture macros list end*
%TA.AperFunction,SMDPad,CuDef*%
%ADD10RoundRect,0.218750X-0.256250X0.218750X-0.256250X-0.218750X0.256250X-0.218750X0.256250X0.218750X0*%
%TD*%
%TA.AperFunction,SMDPad,CuDef*%
%ADD11RoundRect,0.250000X1.000000X0.650000X-1.000000X0.650000X-1.000000X-0.650000X1.000000X-0.650000X0*%
%TD*%
%TA.AperFunction,ComponentPad*%
%ADD12C,1.410000*%
%TD*%
%TA.AperFunction,ComponentPad*%
%ADD13C,3.500000*%
%TD*%
%TA.AperFunction,SMDPad,CuDef*%
%ADD14RoundRect,0.150000X-0.150000X0.587500X-0.150000X-0.587500X0.150000X-0.587500X0.150000X0.587500X0*%
%TD*%
%TA.AperFunction,SMDPad,CuDef*%
%ADD15RoundRect,0.200000X-0.200000X-0.275000X0.200000X-0.275000X0.200000X0.275000X-0.200000X0.275000X0*%
%TD*%
%TA.AperFunction,SMDPad,CuDef*%
%ADD16RoundRect,0.250000X0.650000X-0.325000X0.650000X0.325000X-0.650000X0.325000X-0.650000X-0.325000X0*%
%TD*%
%TA.AperFunction,SMDPad,CuDef*%
%ADD17RoundRect,0.243750X0.243750X0.456250X-0.243750X0.456250X-0.243750X-0.456250X0.243750X-0.456250X0*%
%TD*%
%TA.AperFunction,SMDPad,CuDef*%
%ADD18RoundRect,0.200000X0.275000X-0.200000X0.275000X0.200000X-0.275000X0.200000X-0.275000X-0.200000X0*%
%TD*%
%TA.AperFunction,SMDPad,CuDef*%
%ADD19RoundRect,0.150000X0.587500X0.150000X-0.587500X0.150000X-0.587500X-0.150000X0.587500X-0.150000X0*%
%TD*%
%TA.AperFunction,SMDPad,CuDef*%
%ADD20FreePoly0,180.000000*%
%TD*%
%TA.AperFunction,ComponentPad*%
%ADD21FreePoly1,180.000000*%
%TD*%
%TA.AperFunction,SMDPad,CuDef*%
%ADD22O,3.200000X1.600000*%
%TD*%
%TA.AperFunction,ComponentPad*%
%ADD23C,1.600000*%
%TD*%
%TA.AperFunction,SMDPad,CuDef*%
%ADD24RoundRect,0.200000X1.400000X0.600000X-1.400000X0.600000X-1.400000X-0.600000X1.400000X-0.600000X0*%
%TD*%
%TA.AperFunction,ComponentPad*%
%ADD25RoundRect,0.200000X0.600000X0.600000X-0.600000X0.600000X-0.600000X-0.600000X0.600000X-0.600000X0*%
%TD*%
%TA.AperFunction,ComponentPad*%
%ADD26R,1.574800X1.574800*%
%TD*%
%TA.AperFunction,ComponentPad*%
%ADD27C,1.574800*%
%TD*%
%TA.AperFunction,TestPad*%
%ADD28RoundRect,0.300000X0.450000X0.450000X-0.450000X0.450000X-0.450000X-0.450000X0.450000X-0.450000X0*%
%TD*%
%TA.AperFunction,ComponentPad*%
%ADD29C,1.200000*%
%TD*%
%TA.AperFunction,SMDPad,CuDef*%
%ADD30RoundRect,0.200000X-0.275000X0.200000X-0.275000X-0.200000X0.275000X-0.200000X0.275000X0.200000X0*%
%TD*%
%TA.AperFunction,SMDPad,CuDef*%
%ADD31RoundRect,0.200000X0.200000X0.275000X-0.200000X0.275000X-0.200000X-0.275000X0.200000X-0.275000X0*%
%TD*%
%TA.AperFunction,SMDPad,CuDef*%
%ADD32RoundRect,0.250000X0.250000X0.475000X-0.250000X0.475000X-0.250000X-0.475000X0.250000X-0.475000X0*%
%TD*%
%TA.AperFunction,SMDPad,CuDef*%
%ADD33RoundRect,0.187500X0.312500X0.187500X-0.312500X0.187500X-0.312500X-0.187500X0.312500X-0.187500X0*%
%TD*%
%TA.AperFunction,SMDPad,CuDef*%
%ADD34RoundRect,0.100000X-0.100000X0.637500X-0.100000X-0.637500X0.100000X-0.637500X0.100000X0.637500X0*%
%TD*%
%TA.AperFunction,SMDPad,CuDef*%
%ADD35RoundRect,0.250000X-0.250000X-0.475000X0.250000X-0.475000X0.250000X0.475000X-0.250000X0.475000X0*%
%TD*%
%TA.AperFunction,SMDPad,CuDef*%
%ADD36RoundRect,0.150000X-0.150000X0.512500X-0.150000X-0.512500X0.150000X-0.512500X0.150000X0.512500X0*%
%TD*%
%TA.AperFunction,ComponentPad*%
%ADD37R,1.600000X1.500000*%
%TD*%
%TA.AperFunction,ComponentPad*%
%ADD38C,3.000000*%
%TD*%
%TA.AperFunction,ComponentPad*%
%ADD39R,1.700000X1.700000*%
%TD*%
%TA.AperFunction,ComponentPad*%
%ADD40O,1.700000X1.700000*%
%TD*%
%TA.AperFunction,ViaPad*%
%ADD41C,0.600000*%
%TD*%
%TA.AperFunction,Conductor*%
%ADD42C,0.250000*%
%TD*%
%TA.AperFunction,Conductor*%
%ADD43C,0.330000*%
%TD*%
%TA.AperFunction,Conductor*%
%ADD44C,0.200000*%
%TD*%
%TA.AperFunction,Conductor*%
%ADD45C,0.500000*%
%TD*%
G04 APERTURE END LIST*
D10*
%TO.P,F2,1*%
%TO.N,VBUS*%
X151070000Y-96172500D03*
%TO.P,F2,2*%
%TO.N,Net-(D2-K)*%
X151070000Y-97747500D03*
%TD*%
D11*
%TO.P,D2,1,K*%
%TO.N,Net-(D2-K)*%
X150290000Y-100920000D03*
%TO.P,D2,2,A*%
%TO.N,5V_ADB_PWR*%
X146290000Y-100920000D03*
%TD*%
D12*
%TO.P,J3,1*%
%TO.N,#ADB_TURN_ON*%
X139300000Y-109280000D03*
%TO.P,J3,2*%
%TO.N,ADB_RAW*%
X145820000Y-109280000D03*
%TO.P,J3,3*%
%TO.N,GND*%
X139300000Y-106740000D03*
%TO.P,J3,4*%
%TO.N,5V_ADB_PWR*%
X145820000Y-106740000D03*
D13*
%TO.P,J3,9*%
%TO.N,GND*%
X136260000Y-112050000D03*
X142560000Y-112850000D03*
X148860000Y-112050000D03*
%TD*%
D14*
%TO.P,Q1,1,G*%
%TO.N,Net-(Q1-G)*%
X142320000Y-90865000D03*
%TO.P,Q1,2,S*%
%TO.N,#ADB_TURN_ON*%
X140420000Y-90865000D03*
%TO.P,Q1,3,D*%
%TO.N,Net-(Q1-D)*%
X141370000Y-92740000D03*
%TD*%
D12*
%TO.P,J6,1*%
%TO.N,#ADB_TURN_ON*%
X145820000Y-71620000D03*
%TO.P,J6,2*%
%TO.N,ADB_RAW*%
X139300000Y-71620000D03*
%TO.P,J6,3*%
%TO.N,GND*%
X145820000Y-74160000D03*
%TO.P,J6,4*%
%TO.N,5V_ADB_PWR*%
X139300000Y-74160000D03*
D13*
%TO.P,J6,9*%
%TO.N,GND*%
X148860000Y-68850000D03*
X142560000Y-68050000D03*
X136260000Y-68850000D03*
%TD*%
D15*
%TO.P,R3,1*%
%TO.N,Net-(Q2-B)*%
X142235000Y-87360000D03*
%TO.P,R3,2*%
%TO.N,ADB_PWR_ON*%
X143885000Y-87360000D03*
%TD*%
D16*
%TO.P,C1,1*%
%TO.N,VBUS*%
X177070000Y-101400000D03*
%TO.P,C1,2*%
%TO.N,GND*%
X177070000Y-98450000D03*
%TD*%
D17*
%TO.P,D1,1,K*%
%TO.N,GND*%
X187397500Y-65290000D03*
%TO.P,D1,2,A*%
%TO.N,Net-(D1-A)*%
X185522500Y-65290000D03*
%TD*%
D18*
%TO.P,R7,1*%
%TO.N,#ADB_TURN_ON*%
X138590000Y-91555000D03*
%TO.P,R7,2*%
%TO.N,Net-(Q1-G)*%
X138590000Y-89905000D03*
%TD*%
D19*
%TO.P,Q2,1,B*%
%TO.N,Net-(Q2-B)*%
X140505000Y-88340000D03*
%TO.P,Q2,2,E*%
%TO.N,GND*%
X140505000Y-86440000D03*
%TO.P,Q2,3,C*%
%TO.N,Net-(Q1-G)*%
X138630000Y-87390000D03*
%TD*%
D20*
%TO.P,RP1,1,G0*%
%TO.N,unconnected-(RP1-G0-Pad1)*%
X174570000Y-115670000D03*
D21*
X172970000Y-115670000D03*
D22*
%TO.P,RP1,2,G1*%
%TO.N,unconnected-(RP1-G1-Pad2)*%
X173770000Y-113130000D03*
D23*
X172970000Y-113130000D03*
D24*
%TO.P,RP1,3,GND*%
%TO.N,GND*%
X173770000Y-110590000D03*
D25*
X172970000Y-110590000D03*
D22*
%TO.P,RP1,4,G2*%
%TO.N,unconnected-(RP1-G2-Pad4)*%
X173770000Y-108050000D03*
D23*
X172970000Y-108050000D03*
D22*
%TO.P,RP1,5,G3*%
%TO.N,unconnected-(RP1-G3-Pad5)*%
X173770000Y-105510000D03*
D23*
X172970000Y-105510000D03*
D22*
%TO.P,RP1,6,G4*%
%TO.N,unconnected-(RP1-G4-Pad6)*%
X173770000Y-102970000D03*
D23*
X172970000Y-102970000D03*
D22*
%TO.P,RP1,7,G5*%
%TO.N,unconnected-(RP1-G5-Pad7)*%
X173770000Y-100430000D03*
D23*
X172970000Y-100430000D03*
D24*
%TO.P,RP1,8,GND*%
%TO.N,GND*%
X173770000Y-97890000D03*
D25*
X172970000Y-97890000D03*
D22*
%TO.P,RP1,9,G6*%
%TO.N,unconnected-(RP1-G6-Pad9)*%
X173770000Y-95350000D03*
D23*
X172970000Y-95350000D03*
D22*
%TO.P,RP1,10,G7*%
%TO.N,unconnected-(RP1-G7-Pad10)*%
X173770000Y-92810000D03*
D23*
X172970000Y-92810000D03*
D22*
%TO.P,RP1,11,G8*%
%TO.N,unconnected-(RP1-G8-Pad11)*%
X173770000Y-90270000D03*
D23*
X172970000Y-90270000D03*
D22*
%TO.P,RP1,12,G9*%
%TO.N,unconnected-(RP1-G9-Pad12)*%
X173770000Y-87730000D03*
D23*
X172970000Y-87730000D03*
D24*
%TO.P,RP1,13,GND*%
%TO.N,GND*%
X173770000Y-85190000D03*
D25*
X172970000Y-85190000D03*
D22*
%TO.P,RP1,14,G10*%
%TO.N,unconnected-(RP1-G10-Pad14)*%
X173770000Y-82650000D03*
D23*
X172970000Y-82650000D03*
D22*
%TO.P,RP1,15,G11*%
%TO.N,unconnected-(RP1-G11-Pad15)*%
X173770000Y-80110000D03*
D23*
X172970000Y-80110000D03*
D22*
%TO.P,RP1,16,G12*%
%TO.N,unconnected-(RP1-G12-Pad16)*%
X173770000Y-77570000D03*
D23*
X172970000Y-77570000D03*
D22*
%TO.P,RP1,17,G13*%
%TO.N,unconnected-(RP1-G13-Pad17)*%
X173770000Y-75030000D03*
D23*
X172970000Y-75030000D03*
D24*
%TO.P,RP1,18,GND*%
%TO.N,GND*%
X173770000Y-72490000D03*
D25*
X172970000Y-72490000D03*
D22*
%TO.P,RP1,19,G14*%
%TO.N,unconnected-(RP1-G14-Pad19)*%
X173770000Y-69950000D03*
D23*
X172970000Y-69950000D03*
D22*
%TO.P,RP1,20,G15*%
%TO.N,LED_OUT*%
X173770000Y-67410000D03*
D23*
X172970000Y-67410000D03*
%TO.P,RP1,21,G16*%
%TO.N,unconnected-(RP1-G16-Pad21)*%
X155190000Y-67410000D03*
D22*
X154390000Y-67410000D03*
D23*
%TO.P,RP1,22,G17*%
%TO.N,unconnected-(RP1-G17-Pad22)*%
X155190000Y-69950000D03*
D22*
X154390000Y-69950000D03*
D25*
%TO.P,RP1,23,GND*%
%TO.N,GND*%
X155190000Y-72490000D03*
D24*
X154390000Y-72490000D03*
D23*
%TO.P,RP1,24,G18*%
%TO.N,unconnected-(RP1-G18-Pad24)*%
X155190000Y-75030000D03*
D22*
X154390000Y-75030000D03*
D23*
%TO.P,RP1,25,G19*%
%TO.N,ADB_OUT*%
X155190000Y-77570000D03*
D22*
X154390000Y-77570000D03*
D23*
%TO.P,RP1,26,G20*%
%TO.N,ADB_IN*%
X155190000Y-80110000D03*
D22*
X154390000Y-80110000D03*
D23*
%TO.P,RP1,27,G21*%
%TO.N,ADB_PWR_ON*%
X155190000Y-82650000D03*
D22*
X154390000Y-82650000D03*
D25*
%TO.P,RP1,28,GND*%
%TO.N,GND*%
X155190000Y-85190000D03*
D24*
X154390000Y-85190000D03*
D23*
%TO.P,RP1,29,G22*%
%TO.N,unconnected-(RP1-G22-Pad29)*%
X155190000Y-87730000D03*
D22*
X154390000Y-87730000D03*
D23*
%TO.P,RP1,30,RUN*%
%TO.N,unconnected-(RP1-RUN-Pad30)*%
X155190000Y-90270000D03*
D22*
X154390000Y-90270000D03*
D23*
%TO.P,RP1,31,G26*%
%TO.N,unconnected-(RP1-G26-Pad31)*%
X155190000Y-92810000D03*
D22*
X154390000Y-92810000D03*
D23*
%TO.P,RP1,32,G27*%
%TO.N,unconnected-(RP1-G27-Pad32)*%
X155190000Y-95350000D03*
D22*
X154390000Y-95350000D03*
D25*
%TO.P,RP1,33,A_GND*%
%TO.N,GND*%
X155190000Y-97890000D03*
D24*
X154390000Y-97890000D03*
D23*
%TO.P,RP1,34,G28*%
%TO.N,unconnected-(RP1-G28-Pad34)*%
X155190000Y-100430000D03*
D22*
X154390000Y-100430000D03*
D23*
%TO.P,RP1,35,ADC_VREF*%
%TO.N,unconnected-(RP1-ADC_VREF-Pad35)*%
X155190000Y-102970000D03*
D22*
X154390000Y-102970000D03*
D23*
%TO.P,RP1,36,3v3*%
%TO.N,+3.3V*%
X155190000Y-105510000D03*
D22*
X154390000Y-105510000D03*
D23*
%TO.P,RP1,37,3v3_EN*%
%TO.N,unconnected-(RP1-3v3_EN-Pad37)*%
X155190000Y-108050000D03*
D22*
X154390000Y-108050000D03*
D25*
%TO.P,RP1,38,GND*%
%TO.N,GND*%
X155190000Y-110590000D03*
D24*
X154390000Y-110590000D03*
D23*
%TO.P,RP1,39,VSYS*%
%TO.N,unconnected-(RP1-VSYS-Pad39)*%
X155190000Y-113130000D03*
D22*
X154390000Y-113130000D03*
D23*
%TO.P,RP1,40,VBUS_5V*%
%TO.N,VBUS*%
X155190000Y-115670000D03*
D22*
X154390000Y-115670000D03*
D26*
%TO.P,RP1,41*%
%TO.N,N/C*%
X163495800Y-85840000D03*
D27*
%TO.P,RP1,42*%
X160955800Y-85840000D03*
%TO.P,RP1,43*%
X158415800Y-85840000D03*
D28*
%TO.P,RP1,51,USBGND*%
%TO.N,GND*%
X164080000Y-112540000D03*
D29*
%TO.P,RP1,52,USB_DM*%
%TO.N,USB-*%
X163090000Y-115730000D03*
D28*
X163080000Y-115840000D03*
D29*
%TO.P,RP1,53,UDB_DP*%
%TO.N,USB+*%
X165090000Y-115730000D03*
D28*
X165080000Y-115840000D03*
%TD*%
D30*
%TO.P,R4,1*%
%TO.N,ADB_OUT*%
X146500000Y-80682500D03*
%TO.P,R4,2*%
%TO.N,+3.3V*%
X146500000Y-82332500D03*
%TD*%
D15*
%TO.P,R6,1*%
%TO.N,VBUS*%
X182175000Y-69030000D03*
%TO.P,R6,2*%
%TO.N,Net-(D3-A)*%
X183825000Y-69030000D03*
%TD*%
D31*
%TO.P,R1,1*%
%TO.N,Net-(Q1-D)*%
X142010000Y-96190000D03*
%TO.P,R1,2*%
%TO.N,GND*%
X140360000Y-96190000D03*
%TD*%
D32*
%TO.P,C2,1*%
%TO.N,VBUS*%
X181210000Y-100060000D03*
%TO.P,C2,2*%
%TO.N,GND*%
X179310000Y-100060000D03*
%TD*%
D33*
%TO.P,SW1,1,1*%
%TO.N,#ADB_TURN_ON*%
X143530000Y-101515000D03*
X137530000Y-101515000D03*
%TO.P,SW1,2,2*%
%TO.N,Net-(Q1-D)*%
X143530000Y-97765000D03*
X137530000Y-97765000D03*
%TD*%
D15*
%TO.P,R2,1*%
%TO.N,GND*%
X140360000Y-94550000D03*
%TO.P,R2,2*%
%TO.N,Net-(Q1-D)*%
X142010000Y-94550000D03*
%TD*%
%TO.P,R5,1*%
%TO.N,LED_OUT*%
X182165000Y-65220000D03*
%TO.P,R5,2*%
%TO.N,Net-(D1-A)*%
X183815000Y-65220000D03*
%TD*%
D34*
%TO.P,U1,1,1/OE*%
%TO.N,GND*%
X144850000Y-78340000D03*
%TO.P,U1,2,1A*%
%TO.N,ADB_RAW*%
X144200000Y-78340000D03*
%TO.P,U1,3,1Y*%
%TO.N,ADB_IN*%
X143550000Y-78340000D03*
%TO.P,U1,4,2/OE*%
%TO.N,ADB_OUT*%
X142900000Y-78340000D03*
%TO.P,U1,5,2A*%
X142250000Y-78340000D03*
%TO.P,U1,6,2Y*%
%TO.N,ADB_RAW*%
X141600000Y-78340000D03*
%TO.P,U1,7,GND*%
%TO.N,GND*%
X140950000Y-78340000D03*
%TO.P,U1,8,3Y*%
%TO.N,unconnected-(U1-3Y-Pad8)*%
X140950000Y-84065000D03*
%TO.P,U1,9,3A*%
%TO.N,GND*%
X141600000Y-84065000D03*
%TO.P,U1,10,3/OE*%
%TO.N,+3.3V*%
X142250000Y-84065000D03*
%TO.P,U1,11,4Y*%
%TO.N,unconnected-(U1-4Y-Pad11)*%
X142900000Y-84065000D03*
%TO.P,U1,12,4A*%
%TO.N,GND*%
X143550000Y-84065000D03*
%TO.P,U1,13,4/OE*%
%TO.N,+3.3V*%
X144200000Y-84065000D03*
%TO.P,U1,14,Vcc*%
X144850000Y-84065000D03*
%TD*%
D35*
%TO.P,C7,1*%
%TO.N,+3.3V*%
X146550000Y-84102500D03*
%TO.P,C7,2*%
%TO.N,GND*%
X148450000Y-84102500D03*
%TD*%
D17*
%TO.P,D3,1,K*%
%TO.N,GND*%
X187397500Y-69040000D03*
%TO.P,D3,2,A*%
%TO.N,Net-(D3-A)*%
X185522500Y-69040000D03*
%TD*%
D36*
%TO.P,U2,1,I/O1*%
%TO.N,USB+_EF*%
X185600000Y-98922500D03*
%TO.P,U2,2,GND*%
%TO.N,GND*%
X184650000Y-98922500D03*
%TO.P,U2,3,I/O2*%
%TO.N,USB-_EF*%
X183700000Y-98922500D03*
%TO.P,U2,4,I/O2*%
%TO.N,USB-*%
X183700000Y-101197500D03*
%TO.P,U2,5,VBUS*%
%TO.N,VBUS*%
X184650000Y-101197500D03*
%TO.P,U2,6,I/O1*%
%TO.N,USB+*%
X185600000Y-101197500D03*
%TD*%
D37*
%TO.P,J10,1,VBUS*%
%TO.N,VBUS*%
X181190000Y-105100000D03*
D23*
%TO.P,J10,2,D-*%
%TO.N,USB-*%
X183690000Y-105100000D03*
%TO.P,J10,3,D+*%
%TO.N,USB+*%
X185690000Y-105100000D03*
%TO.P,J10,4,GND*%
%TO.N,GND*%
X188190000Y-105100000D03*
D38*
%TO.P,J10,5,Shield*%
X178120000Y-107810000D03*
X191260000Y-107810000D03*
%TD*%
D39*
%TO.P,J1,1,Pin_1*%
%TO.N,VBUS*%
X180630000Y-95950000D03*
D40*
%TO.P,J1,2,Pin_2*%
%TO.N,USB-_EF*%
X183170000Y-95950000D03*
%TO.P,J1,3,Pin_3*%
%TO.N,USB+_EF*%
X185710000Y-95950000D03*
%TO.P,J1,4,Pin_4*%
%TO.N,GND*%
X188250000Y-95950000D03*
%TD*%
D41*
%TO.N,GND*%
X148450000Y-85720000D03*
X144850000Y-79992500D03*
X140490000Y-87340000D03*
X184650000Y-97580000D03*
X158150000Y-103130000D03*
X141200000Y-97820000D03*
X168520000Y-116250000D03*
X143530000Y-82070000D03*
X139590000Y-84080000D03*
X171230000Y-104210000D03*
X158180000Y-100500000D03*
X178960000Y-98250000D03*
X192680000Y-65320000D03*
X148430000Y-82420000D03*
X141000000Y-80530000D03*
X177100000Y-95860000D03*
X159640000Y-116440000D03*
X144510000Y-105050000D03*
X138990000Y-93200000D03*
%TO.N,VBUS*%
X180770000Y-69020000D03*
%TO.N,ADB_IN*%
X143915000Y-79687500D03*
%TO.N,ADB_PWR_ON*%
X143750000Y-88730000D03*
%TD*%
D42*
%TO.N,GND*%
X184650000Y-99590000D02*
X185020000Y-99960000D01*
X138990000Y-93200000D02*
X138520000Y-93200000D01*
D43*
X141600000Y-81250000D02*
X141600000Y-84065000D01*
X156760000Y-85070000D02*
X156760000Y-81710000D01*
X143530000Y-82050000D02*
X142730000Y-81250000D01*
X156760000Y-81710000D02*
X156440000Y-81390000D01*
X141600000Y-85350000D02*
X141460000Y-85490000D01*
X155190000Y-85190000D02*
X156640000Y-85190000D01*
X152680000Y-81390000D02*
X152650000Y-81360000D01*
D42*
X140360000Y-96190000D02*
X140360000Y-96980000D01*
D43*
X140950000Y-80600000D02*
X141600000Y-81250000D01*
X140950000Y-78340000D02*
X140950000Y-80480000D01*
D42*
X137567500Y-92247500D02*
X137567500Y-86642500D01*
D44*
X153170000Y-97890000D02*
X152710000Y-97430000D01*
D42*
X137567500Y-86642500D02*
X137830000Y-86380000D01*
X140360000Y-96980000D02*
X141200000Y-97820000D01*
X185130000Y-100070000D02*
X186450000Y-100070000D01*
D44*
X153590000Y-97890000D02*
X153170000Y-97890000D01*
D43*
X143550000Y-82070000D02*
X143550000Y-82070000D01*
X143550000Y-82070000D02*
X143530000Y-82070000D01*
D44*
X148360000Y-81500000D02*
X145370000Y-81500000D01*
D42*
X184650000Y-98922500D02*
X184650000Y-99590000D01*
D43*
X156640000Y-85190000D02*
X156760000Y-85070000D01*
X144850000Y-79992500D02*
X144850000Y-78340000D01*
X140950000Y-80580000D02*
X140950000Y-80600000D01*
X143550000Y-84065000D02*
X143550000Y-82070000D01*
D44*
X153590000Y-97890000D02*
X152960000Y-97890000D01*
X152710000Y-97430000D02*
X152240000Y-96960000D01*
D43*
X141000000Y-80530000D02*
X140950000Y-80580000D01*
D44*
X152240000Y-96960000D02*
X149840000Y-96960000D01*
D42*
X138520000Y-93200000D02*
X137567500Y-92247500D01*
D43*
X143530000Y-82070000D02*
X143530000Y-82050000D01*
X141600000Y-84065000D02*
X141600000Y-85350000D01*
X142730000Y-81250000D02*
X141600000Y-81250000D01*
X140950000Y-80480000D02*
X141000000Y-80530000D01*
D44*
X149240000Y-82380000D02*
X148360000Y-81500000D01*
D42*
X185020000Y-99960000D02*
X185130000Y-100070000D01*
D43*
X156440000Y-81390000D02*
X152680000Y-81390000D01*
%TO.N,ADB_RAW*%
X141600000Y-77030000D02*
X140300000Y-77030000D01*
X141600000Y-77030000D02*
X141600000Y-78340000D01*
X139760000Y-97200000D02*
X139760000Y-103220000D01*
X139760000Y-103220000D02*
X145820000Y-109280000D01*
X137040000Y-80290000D02*
X137040000Y-94480000D01*
X137040000Y-94480000D02*
X139760000Y-97200000D01*
X144200000Y-77270000D02*
X144200000Y-78340000D01*
X143960000Y-77030000D02*
X144200000Y-77270000D01*
X140300000Y-77030000D02*
X137040000Y-80290000D01*
X141600000Y-75000000D02*
X141600000Y-77030000D01*
X141600000Y-75000000D02*
X141600000Y-73920000D01*
X141600000Y-77030000D02*
X143960000Y-77030000D01*
X141600000Y-73920000D02*
X139300000Y-71620000D01*
D45*
%TO.N,5V_ADB_PWR*%
X139300000Y-74160000D02*
X139340000Y-74200000D01*
X138890000Y-104240000D02*
X145310000Y-110660000D01*
X145820000Y-106740000D02*
X145820000Y-101390000D01*
X145310000Y-110660000D02*
X146660000Y-110660000D01*
X147170000Y-110150000D02*
X147170000Y-108090000D01*
X146650000Y-101280000D02*
X146290000Y-100920000D01*
X139340000Y-74200000D02*
X139340000Y-75830000D01*
X146660000Y-110660000D02*
X147170000Y-110150000D01*
X145820000Y-101390000D02*
X146290000Y-100920000D01*
X136140000Y-79030000D02*
X136140000Y-94710000D01*
X139340000Y-75830000D02*
X136140000Y-79030000D01*
X136140000Y-94710000D02*
X138890000Y-97460000D01*
X138890000Y-97460000D02*
X138890000Y-104240000D01*
X147170000Y-108090000D02*
X145820000Y-106740000D01*
D43*
%TO.N,VBUS*%
X156900000Y-101700000D02*
X156910000Y-101710000D01*
X181190000Y-101650000D02*
X181190000Y-100070000D01*
X181220000Y-100040000D02*
X183990000Y-100040000D01*
X156460000Y-96610000D02*
X152620000Y-96610000D01*
X155190000Y-115670000D02*
X156900000Y-113960000D01*
X181190000Y-101650000D02*
X181190000Y-96510000D01*
X184650000Y-100700000D02*
X184650000Y-101197500D01*
X181190000Y-100070000D02*
X181220000Y-100040000D01*
D42*
X180770000Y-69020000D02*
X180760000Y-69030000D01*
D43*
X156910000Y-101710000D02*
X181190000Y-101710000D01*
D42*
X182175000Y-69030000D02*
X180780000Y-69030000D01*
D43*
X181190000Y-101710000D02*
X181190000Y-105100000D01*
X156900000Y-97050000D02*
X156460000Y-96610000D01*
X156900000Y-101700000D02*
X156900000Y-97050000D01*
X152032500Y-96022500D02*
X151070000Y-96022500D01*
X156900000Y-113960000D02*
X156900000Y-101700000D01*
D42*
X180730000Y-69030000D02*
X180700000Y-69000000D01*
D43*
X181190000Y-96510000D02*
X180630000Y-95950000D01*
D42*
X180760000Y-69030000D02*
X180730000Y-69030000D01*
D43*
X183990000Y-100040000D02*
X184650000Y-100700000D01*
X152620000Y-96610000D02*
X152032500Y-96022500D01*
X181190000Y-105100000D02*
X181190000Y-101650000D01*
D42*
X180780000Y-69030000D02*
X180770000Y-69020000D01*
%TO.N,Net-(D1-A)*%
X185452500Y-65220000D02*
X185522500Y-65290000D01*
X183815000Y-65220000D02*
X185452500Y-65220000D01*
D43*
%TO.N,+3.3V*%
X151820000Y-105510000D02*
X155190000Y-105510000D01*
X146500000Y-84052500D02*
X146550000Y-84102500D01*
X144850000Y-85552500D02*
X144850000Y-91100000D01*
X144850000Y-91100000D02*
X148460000Y-94710000D01*
X142250000Y-85212500D02*
X142587500Y-85550000D01*
X144850000Y-84065000D02*
X144850000Y-85552500D01*
X146500000Y-82332500D02*
X146500000Y-84052500D01*
X144197500Y-85550000D02*
X144200000Y-85552500D01*
X148460000Y-94710000D02*
X148460000Y-102150000D01*
X142250000Y-84065000D02*
X142250000Y-85212500D01*
D45*
X146550000Y-84102500D02*
X144887500Y-84102500D01*
X144887500Y-84102500D02*
X144850000Y-84065000D01*
D43*
X144200000Y-85552500D02*
X144850000Y-85552500D01*
X144200000Y-84065000D02*
X144200000Y-85552500D01*
X143160000Y-85550000D02*
X144197500Y-85550000D01*
X142587500Y-85550000D02*
X143160000Y-85550000D01*
X148460000Y-102150000D02*
X151820000Y-105510000D01*
%TO.N,ADB_OUT*%
X149670000Y-77570000D02*
X153590000Y-77570000D01*
X142900000Y-80222500D02*
X142935000Y-80257500D01*
X142900000Y-78340000D02*
X142900000Y-80222500D01*
X146500000Y-80682500D02*
X146557500Y-80682500D01*
X142250000Y-78340000D02*
X142250000Y-79572500D01*
X146557500Y-80682500D02*
X149670000Y-77570000D01*
X143335000Y-80657500D02*
X146475000Y-80657500D01*
X142250000Y-79572500D02*
X142935000Y-80257500D01*
X142935000Y-80257500D02*
X143335000Y-80657500D01*
X146475000Y-80657500D02*
X146500000Y-80682500D01*
%TO.N,ADB_IN*%
X143915000Y-79687500D02*
X143550000Y-79322500D01*
X143550000Y-79322500D02*
X143550000Y-78340000D01*
D42*
%TO.N,USB-*%
X183690000Y-105100000D02*
X183690000Y-101207500D01*
X183690000Y-101207500D02*
X183700000Y-101197500D01*
X168030000Y-113730000D02*
X164965000Y-113730000D01*
X169860000Y-111900000D02*
X168030000Y-113730000D01*
X163090000Y-115605000D02*
X163000000Y-115515000D01*
X183690000Y-108440000D02*
X180230000Y-111900000D01*
X164965000Y-113730000D02*
X163090000Y-115605000D01*
X183690000Y-105100000D02*
X183690000Y-108440000D01*
X180230000Y-111900000D02*
X169860000Y-111900000D01*
%TO.N,USB+*%
X185690000Y-105100000D02*
X185690000Y-107690000D01*
X185690000Y-105100000D02*
X185690000Y-101287500D01*
X168140000Y-114360000D02*
X167990000Y-114210000D01*
X185690000Y-101287500D02*
X185600000Y-101197500D01*
X166030000Y-114210000D02*
X165080000Y-115160000D01*
X185690000Y-107690000D02*
X179020000Y-114360000D01*
X179020000Y-114360000D02*
X168140000Y-114360000D01*
X167990000Y-114210000D02*
X166030000Y-114210000D01*
X165080000Y-115160000D02*
X165080000Y-115605000D01*
D43*
%TO.N,Net-(D2-K)*%
X150290000Y-100920000D02*
X150290000Y-98677500D01*
X150290000Y-98677500D02*
X151070000Y-97897500D01*
D42*
%TO.N,ADB_PWR_ON*%
X143770000Y-88730000D02*
X143770000Y-88730000D01*
X143750000Y-88730000D02*
X143750000Y-87495000D01*
X143750000Y-88730000D02*
X143770000Y-88730000D01*
X143750000Y-87495000D02*
X143885000Y-87360000D01*
D43*
%TO.N,Net-(Q1-D)*%
X142010000Y-94550000D02*
X142010000Y-93380000D01*
X142010000Y-93380000D02*
X141370000Y-92740000D01*
X142010000Y-96245000D02*
X143530000Y-97765000D01*
X142010000Y-94550000D02*
X142010000Y-96245000D01*
D42*
%TO.N,USB-_EF*%
X183700000Y-98922500D02*
X183700000Y-96480000D01*
X183700000Y-96480000D02*
X183170000Y-95950000D01*
%TO.N,USB+_EF*%
X185600000Y-98922500D02*
X185600000Y-96060000D01*
X185600000Y-96060000D02*
X185710000Y-95950000D01*
%TO.N,LED_OUT*%
X180260000Y-65220000D02*
X182165000Y-65220000D01*
X178070000Y-67410000D02*
X180260000Y-65220000D01*
X172970000Y-67410000D02*
X178070000Y-67410000D01*
%TO.N,Net-(D3-A)*%
X185512500Y-69030000D02*
X185522500Y-69040000D01*
X183825000Y-69030000D02*
X185512500Y-69030000D01*
D43*
%TO.N,#ADB_TURN_ON*%
X135310000Y-99295000D02*
X137530000Y-101515000D01*
X136490000Y-72290000D02*
X138730000Y-70050000D01*
X136490000Y-76760000D02*
X136490000Y-72290000D01*
X140420000Y-70050000D02*
X141990000Y-71620000D01*
D42*
X143350000Y-96120000D02*
X143350000Y-93304252D01*
X138590000Y-91555000D02*
X139730000Y-91555000D01*
X144620000Y-97390000D02*
X143350000Y-96120000D01*
D43*
X137530000Y-101515000D02*
X137530000Y-107510000D01*
D42*
X143350000Y-93304252D02*
X141680000Y-91634252D01*
D43*
X138730000Y-70050000D02*
X140420000Y-70050000D01*
D42*
X141680000Y-91634252D02*
X141680000Y-91600000D01*
X139730000Y-91555000D02*
X140420000Y-90865000D01*
X143530000Y-101515000D02*
X143530000Y-99900000D01*
D43*
X135310000Y-77940000D02*
X135310000Y-99295000D01*
D42*
X144620000Y-98810000D02*
X144620000Y-97390000D01*
X143530000Y-99900000D02*
X144620000Y-98810000D01*
X141680000Y-91600000D02*
X141155000Y-91600000D01*
D43*
X141990000Y-71620000D02*
X145820000Y-71620000D01*
X137530000Y-107510000D02*
X139300000Y-109280000D01*
X136490000Y-76760000D02*
X135310000Y-77940000D01*
X136490000Y-76660000D02*
X136490000Y-76760000D01*
D42*
X141155000Y-91600000D02*
X140420000Y-90865000D01*
%TO.N,Net-(Q1-G)*%
X138630000Y-89865000D02*
X138590000Y-89905000D01*
X140715000Y-89260000D02*
X142320000Y-90865000D01*
X138630000Y-89260000D02*
X140715000Y-89260000D01*
X138630000Y-87390000D02*
X138630000Y-89260000D01*
X138630000Y-89260000D02*
X138630000Y-89865000D01*
%TO.N,Net-(Q2-B)*%
X141255000Y-88340000D02*
X142235000Y-87360000D01*
X140505000Y-88340000D02*
X141255000Y-88340000D01*
%TD*%
%TA.AperFunction,Conductor*%
%TO.N,GND*%
G36*
X199072539Y-63770185D02*
G01*
X199118294Y-63822989D01*
X199129500Y-63874500D01*
X199129500Y-117155500D01*
X199109815Y-117222539D01*
X199057011Y-117268294D01*
X199005500Y-117279500D01*
X167514500Y-117279500D01*
X167447461Y-117259815D01*
X167401706Y-117207011D01*
X167390500Y-117155500D01*
X167390500Y-116487940D01*
X167410185Y-116420901D01*
X167426819Y-116400259D01*
X167427874Y-116399204D01*
X167434816Y-116392262D01*
X167530789Y-116239522D01*
X167590368Y-116069255D01*
X167593239Y-116043779D01*
X167597934Y-116002104D01*
X167605500Y-115934954D01*
X167605500Y-115145046D01*
X167602190Y-115115675D01*
X167589589Y-115003824D01*
X167592700Y-115003473D01*
X167596008Y-114947613D01*
X167637191Y-114891171D01*
X167702351Y-114865954D01*
X167770801Y-114879968D01*
X167772425Y-114880844D01*
X167782565Y-114886418D01*
X167798827Y-114897101D01*
X167814959Y-114909614D01*
X167855625Y-114927210D01*
X167866104Y-114932344D01*
X167904940Y-114953695D01*
X167924716Y-114958772D01*
X167943123Y-114965074D01*
X167961855Y-114973181D01*
X168005630Y-114980113D01*
X168017045Y-114982478D01*
X168059970Y-114993500D01*
X168080384Y-114993500D01*
X168099783Y-114995027D01*
X168119943Y-114998220D01*
X168164057Y-114994050D01*
X168175726Y-114993500D01*
X171584433Y-114993500D01*
X171651472Y-115013185D01*
X171697227Y-115065989D01*
X171707171Y-115135147D01*
X171703512Y-115152086D01*
X171684325Y-115218144D01*
X171684319Y-115218167D01*
X171665870Y-115296201D01*
X171665866Y-115296220D01*
X171659501Y-115352722D01*
X171659501Y-115352725D01*
X171655649Y-115386899D01*
X171655648Y-115386913D01*
X171653084Y-115470628D01*
X171654439Y-115727515D01*
X171655623Y-115948438D01*
X171655648Y-115953078D01*
X171655648Y-115953088D01*
X171659501Y-115987277D01*
X171659501Y-115987278D01*
X171665867Y-116043781D01*
X171665871Y-116043805D01*
X171682005Y-116126006D01*
X171709553Y-116201709D01*
X171709555Y-116201714D01*
X171730342Y-116239522D01*
X171741395Y-116259625D01*
X171741397Y-116259628D01*
X171783524Y-116327843D01*
X171783526Y-116327845D01*
X171840437Y-116399210D01*
X171897849Y-116460245D01*
X172240790Y-116799563D01*
X172312155Y-116856474D01*
X172312164Y-116856480D01*
X172381678Y-116903184D01*
X172381679Y-116903185D01*
X172381682Y-116903186D01*
X172381683Y-116903187D01*
X172454712Y-116937250D01*
X172518159Y-116955678D01*
X172596207Y-116974131D01*
X172596214Y-116974131D01*
X172596220Y-116974133D01*
X172652722Y-116980499D01*
X172652723Y-116980499D01*
X172665796Y-116981972D01*
X172686899Y-116984350D01*
X172686904Y-116984350D01*
X172686919Y-116984352D01*
X172770617Y-116986915D01*
X174557176Y-116985612D01*
X174627574Y-116985561D01*
X174678404Y-116985288D01*
X174853081Y-116984352D01*
X174887277Y-116980499D01*
X174887278Y-116980499D01*
X174905027Y-116978499D01*
X174943793Y-116974131D01*
X175026004Y-116957995D01*
X175101714Y-116930445D01*
X175159623Y-116898606D01*
X175227845Y-116856474D01*
X175299210Y-116799563D01*
X175360245Y-116742151D01*
X175699563Y-116399210D01*
X175756474Y-116327845D01*
X175803187Y-116258317D01*
X175837250Y-116185288D01*
X175855678Y-116121841D01*
X175874131Y-116043793D01*
X175874132Y-116043783D01*
X175874133Y-116043779D01*
X175880499Y-115987278D01*
X175880499Y-115987275D01*
X175884350Y-115953100D01*
X175884351Y-115953086D01*
X175884352Y-115953081D01*
X175886915Y-115869383D01*
X175885561Y-115612479D01*
X175884352Y-115386919D01*
X175880499Y-115352723D01*
X175874131Y-115296207D01*
X175857995Y-115213996D01*
X175838311Y-115159902D01*
X175833885Y-115090173D01*
X175867860Y-115029120D01*
X175929449Y-114996127D01*
X175954836Y-114993500D01*
X178936366Y-114993500D01*
X178952113Y-114995238D01*
X178952139Y-114994968D01*
X178959905Y-114995701D01*
X178959909Y-114995702D01*
X179028017Y-114993560D01*
X179031913Y-114993500D01*
X179059858Y-114993500D01*
X179059860Y-114993499D01*
X179061262Y-114993322D01*
X179063949Y-114992983D01*
X179075608Y-114992064D01*
X179119889Y-114990673D01*
X179139481Y-114984980D01*
X179158538Y-114981032D01*
X179178797Y-114978474D01*
X179220006Y-114962157D01*
X179231043Y-114958379D01*
X179273593Y-114946018D01*
X179291165Y-114935625D01*
X179308632Y-114927068D01*
X179327617Y-114919552D01*
X179363461Y-114893508D01*
X179373230Y-114887092D01*
X179411362Y-114864542D01*
X179425802Y-114850100D01*
X179440592Y-114837470D01*
X179457107Y-114825472D01*
X179485359Y-114791319D01*
X179493203Y-114782699D01*
X186078815Y-108197087D01*
X186091180Y-108187183D01*
X186091006Y-108186973D01*
X186097009Y-108182005D01*
X186097018Y-108182000D01*
X186143677Y-108132311D01*
X186146356Y-108129546D01*
X186166134Y-108109770D01*
X186168660Y-108106512D01*
X186176246Y-108097629D01*
X186206586Y-108065321D01*
X186216423Y-108047424D01*
X186227097Y-108031174D01*
X186239613Y-108015041D01*
X186257207Y-107974380D01*
X186262341Y-107963900D01*
X186283695Y-107925060D01*
X186288774Y-107905274D01*
X186295072Y-107886882D01*
X186303181Y-107868145D01*
X186310112Y-107824375D01*
X186312476Y-107812962D01*
X186313236Y-107810001D01*
X189254891Y-107810001D01*
X189275300Y-108095362D01*
X189336109Y-108374895D01*
X189436091Y-108642958D01*
X189573191Y-108894038D01*
X189573196Y-108894046D01*
X189679882Y-109036561D01*
X189679883Y-109036562D01*
X190289438Y-108427006D01*
X190338348Y-108505999D01*
X190481931Y-108663501D01*
X190640388Y-108783163D01*
X190033436Y-109390115D01*
X190175960Y-109496807D01*
X190175961Y-109496808D01*
X190427042Y-109633908D01*
X190427041Y-109633908D01*
X190695104Y-109733890D01*
X190974637Y-109794699D01*
X191259999Y-109815109D01*
X191260001Y-109815109D01*
X191545362Y-109794699D01*
X191824895Y-109733890D01*
X192092958Y-109633908D01*
X192344047Y-109496803D01*
X192486561Y-109390116D01*
X192486562Y-109390115D01*
X191879611Y-108783163D01*
X192038069Y-108663501D01*
X192181652Y-108505999D01*
X192230560Y-108427007D01*
X192840115Y-109036562D01*
X192840116Y-109036561D01*
X192946803Y-108894047D01*
X193083908Y-108642958D01*
X193183890Y-108374895D01*
X193244699Y-108095362D01*
X193265109Y-107810001D01*
X193265109Y-107809998D01*
X193244699Y-107524637D01*
X193183890Y-107245104D01*
X193083908Y-106977041D01*
X192946808Y-106725961D01*
X192946807Y-106725960D01*
X192840115Y-106583436D01*
X192230560Y-107192991D01*
X192181652Y-107114001D01*
X192038069Y-106956499D01*
X191879610Y-106836835D01*
X192486562Y-106229883D01*
X192486561Y-106229882D01*
X192344046Y-106123196D01*
X192344038Y-106123191D01*
X192092957Y-105986091D01*
X192092958Y-105986091D01*
X191824895Y-105886109D01*
X191545362Y-105825300D01*
X191260001Y-105804891D01*
X191259999Y-105804891D01*
X190974637Y-105825300D01*
X190695104Y-105886109D01*
X190427041Y-105986091D01*
X190175961Y-106123191D01*
X190175953Y-106123196D01*
X190033437Y-106229882D01*
X190033436Y-106229883D01*
X190640389Y-106836835D01*
X190481931Y-106956499D01*
X190338348Y-107114001D01*
X190289439Y-107192992D01*
X189679883Y-106583436D01*
X189679882Y-106583437D01*
X189573196Y-106725953D01*
X189573191Y-106725961D01*
X189436091Y-106977041D01*
X189336109Y-107245104D01*
X189275300Y-107524637D01*
X189254891Y-107809998D01*
X189254891Y-107810001D01*
X186313236Y-107810001D01*
X186323500Y-107770030D01*
X186323500Y-107749609D01*
X186325027Y-107730209D01*
X186328219Y-107710057D01*
X186324050Y-107665949D01*
X186323500Y-107654281D01*
X186323500Y-106318352D01*
X186343185Y-106251313D01*
X186376373Y-106216779D01*
X186534300Y-106106198D01*
X186696198Y-105944300D01*
X186827523Y-105756749D01*
X186832305Y-105746493D01*
X186878472Y-105694054D01*
X186945665Y-105674898D01*
X187012547Y-105695110D01*
X187057067Y-105746483D01*
X187059862Y-105752477D01*
X187059863Y-105752478D01*
X187110974Y-105825472D01*
X187727064Y-105209382D01*
X187753481Y-105299351D01*
X187827327Y-105414258D01*
X187930555Y-105503705D01*
X188054801Y-105560446D01*
X188079548Y-105564004D01*
X187464526Y-106179025D01*
X187537513Y-106230132D01*
X187537521Y-106230136D01*
X187743668Y-106326264D01*
X187743682Y-106326269D01*
X187963389Y-106385139D01*
X187963400Y-106385141D01*
X188189998Y-106404966D01*
X188190002Y-106404966D01*
X188416599Y-106385141D01*
X188416610Y-106385139D01*
X188636317Y-106326269D01*
X188636331Y-106326264D01*
X188842478Y-106230136D01*
X188915471Y-106179024D01*
X188300451Y-105564004D01*
X188325199Y-105560446D01*
X188449445Y-105503705D01*
X188552673Y-105414258D01*
X188626519Y-105299351D01*
X188652935Y-105209382D01*
X189269024Y-105825471D01*
X189320136Y-105752478D01*
X189416264Y-105546331D01*
X189416269Y-105546317D01*
X189475139Y-105326610D01*
X189475141Y-105326599D01*
X189494966Y-105100002D01*
X189494966Y-105099997D01*
X189475141Y-104873400D01*
X189475139Y-104873389D01*
X189416269Y-104653682D01*
X189416264Y-104653668D01*
X189320136Y-104447521D01*
X189320132Y-104447513D01*
X189269025Y-104374526D01*
X188652935Y-104990616D01*
X188626519Y-104900649D01*
X188552673Y-104785742D01*
X188449445Y-104696295D01*
X188325199Y-104639554D01*
X188300451Y-104635995D01*
X188915472Y-104020974D01*
X188842478Y-103969863D01*
X188636331Y-103873735D01*
X188636317Y-103873730D01*
X188416610Y-103814860D01*
X188416599Y-103814858D01*
X188190002Y-103795034D01*
X188189998Y-103795034D01*
X187963400Y-103814858D01*
X187963389Y-103814860D01*
X187743682Y-103873730D01*
X187743673Y-103873734D01*
X187537516Y-103969866D01*
X187537512Y-103969868D01*
X187464526Y-104020973D01*
X187464526Y-104020974D01*
X188079548Y-104635995D01*
X188054801Y-104639554D01*
X187930555Y-104696295D01*
X187827327Y-104785742D01*
X187753481Y-104900649D01*
X187727064Y-104990616D01*
X187110974Y-104374526D01*
X187110973Y-104374526D01*
X187059868Y-104447512D01*
X187059865Y-104447518D01*
X187057070Y-104453513D01*
X187010897Y-104505951D01*
X186943703Y-104525102D01*
X186876822Y-104504885D01*
X186832307Y-104453511D01*
X186827523Y-104443251D01*
X186696198Y-104255700D01*
X186534300Y-104093802D01*
X186514330Y-104079819D01*
X186376376Y-103983221D01*
X186332751Y-103928644D01*
X186323500Y-103881647D01*
X186323500Y-102067795D01*
X186340767Y-102004675D01*
X186359145Y-101973601D01*
X186400145Y-101832476D01*
X186405561Y-101813835D01*
X186405562Y-101813829D01*
X186405676Y-101812382D01*
X186408500Y-101776502D01*
X186408500Y-100618498D01*
X186405562Y-100581169D01*
X186387798Y-100520026D01*
X186371385Y-100463530D01*
X186359145Y-100421399D01*
X186293264Y-100310000D01*
X186274455Y-100278196D01*
X186274448Y-100278187D01*
X186156811Y-100160550D01*
X186153500Y-100157982D01*
X186151567Y-100155306D01*
X186151291Y-100155030D01*
X186151335Y-100154985D01*
X186112591Y-100101341D01*
X186108799Y-100031574D01*
X186143328Y-99970832D01*
X186153500Y-99962018D01*
X186156802Y-99959455D01*
X186156807Y-99959453D01*
X186274453Y-99841807D01*
X186359145Y-99698601D01*
X186399755Y-99558820D01*
X186405561Y-99538835D01*
X186405562Y-99538829D01*
X186406154Y-99531309D01*
X186408500Y-99501502D01*
X186408500Y-98343498D01*
X186405562Y-98306169D01*
X186396708Y-98275694D01*
X186359146Y-98146403D01*
X186359145Y-98146399D01*
X186274453Y-98003193D01*
X186274451Y-98003191D01*
X186274448Y-98003187D01*
X186269819Y-97998558D01*
X186236334Y-97937235D01*
X186233500Y-97910877D01*
X186233500Y-97285258D01*
X186253185Y-97218219D01*
X186298483Y-97176203D01*
X186299533Y-97175635D01*
X186455576Y-97091189D01*
X186633240Y-96952906D01*
X186754594Y-96821082D01*
X186785715Y-96787276D01*
X186785715Y-96787275D01*
X186785722Y-96787268D01*
X186879749Y-96643347D01*
X186932894Y-96597994D01*
X187002125Y-96588570D01*
X187065461Y-96618072D01*
X187085130Y-96640048D01*
X187211890Y-96821078D01*
X187378917Y-96988105D01*
X187572421Y-97123600D01*
X187786507Y-97223429D01*
X187786516Y-97223433D01*
X188000000Y-97280634D01*
X188000000Y-96385501D01*
X188107685Y-96434680D01*
X188214237Y-96450000D01*
X188285763Y-96450000D01*
X188392315Y-96434680D01*
X188500000Y-96385501D01*
X188500000Y-97280633D01*
X188713483Y-97223433D01*
X188713492Y-97223429D01*
X188927578Y-97123600D01*
X189121082Y-96988105D01*
X189288105Y-96821082D01*
X189423600Y-96627578D01*
X189523429Y-96413492D01*
X189523432Y-96413486D01*
X189580636Y-96200000D01*
X188683686Y-96200000D01*
X188709493Y-96159844D01*
X188750000Y-96021889D01*
X188750000Y-95878111D01*
X188709493Y-95740156D01*
X188683686Y-95700000D01*
X189580636Y-95700000D01*
X189580635Y-95699999D01*
X189523432Y-95486513D01*
X189523429Y-95486507D01*
X189423600Y-95272422D01*
X189423599Y-95272420D01*
X189288113Y-95078926D01*
X189288108Y-95078920D01*
X189121082Y-94911894D01*
X188927578Y-94776399D01*
X188713492Y-94676570D01*
X188713486Y-94676567D01*
X188500000Y-94619364D01*
X188500000Y-95514498D01*
X188392315Y-95465320D01*
X188285763Y-95450000D01*
X188214237Y-95450000D01*
X188107685Y-95465320D01*
X188000000Y-95514498D01*
X188000000Y-94619364D01*
X187999999Y-94619364D01*
X187786513Y-94676567D01*
X187786507Y-94676570D01*
X187572422Y-94776399D01*
X187572420Y-94776400D01*
X187378926Y-94911886D01*
X187378920Y-94911891D01*
X187211891Y-95078920D01*
X187211890Y-95078922D01*
X187085131Y-95259952D01*
X187030554Y-95303577D01*
X186961055Y-95310769D01*
X186898701Y-95279247D01*
X186879752Y-95256656D01*
X186785722Y-95112732D01*
X186785715Y-95112725D01*
X186785715Y-95112723D01*
X186633243Y-94947097D01*
X186633238Y-94947092D01*
X186455577Y-94808812D01*
X186455572Y-94808808D01*
X186257580Y-94701661D01*
X186257577Y-94701659D01*
X186257574Y-94701658D01*
X186257571Y-94701657D01*
X186257569Y-94701656D01*
X186044637Y-94628556D01*
X185822569Y-94591500D01*
X185597431Y-94591500D01*
X185375362Y-94628556D01*
X185162430Y-94701656D01*
X185162419Y-94701661D01*
X184964427Y-94808808D01*
X184964422Y-94808812D01*
X184786761Y-94947092D01*
X184786756Y-94947097D01*
X184634284Y-95112723D01*
X184634276Y-95112734D01*
X184543808Y-95251206D01*
X184490662Y-95296562D01*
X184421431Y-95305986D01*
X184358095Y-95276484D01*
X184336192Y-95251206D01*
X184278286Y-95162576D01*
X184245722Y-95112732D01*
X184245719Y-95112729D01*
X184245715Y-95112723D01*
X184093243Y-94947097D01*
X184093238Y-94947092D01*
X183915577Y-94808812D01*
X183915572Y-94808808D01*
X183717580Y-94701661D01*
X183717577Y-94701659D01*
X183717574Y-94701658D01*
X183717571Y-94701657D01*
X183717569Y-94701656D01*
X183504637Y-94628556D01*
X183282569Y-94591500D01*
X183057431Y-94591500D01*
X182835362Y-94628556D01*
X182622430Y-94701656D01*
X182622419Y-94701661D01*
X182424427Y-94808808D01*
X182424422Y-94808812D01*
X182246761Y-94947092D01*
X182183548Y-95015760D01*
X182123661Y-95051750D01*
X182053823Y-95049649D01*
X181996207Y-95010124D01*
X181976138Y-94975110D01*
X181930889Y-94853796D01*
X181897214Y-94808812D01*
X181843261Y-94736739D01*
X181726204Y-94649111D01*
X181589203Y-94598011D01*
X181528654Y-94591500D01*
X181528638Y-94591500D01*
X179731362Y-94591500D01*
X179731345Y-94591500D01*
X179670797Y-94598011D01*
X179670795Y-94598011D01*
X179533795Y-94649111D01*
X179416739Y-94736739D01*
X179329111Y-94853795D01*
X179278011Y-94990795D01*
X179278011Y-94990797D01*
X179271500Y-95051345D01*
X179271500Y-96848654D01*
X179278011Y-96909202D01*
X179278011Y-96909204D01*
X179325916Y-97037637D01*
X179329111Y-97046204D01*
X179416739Y-97163261D01*
X179533796Y-97250889D01*
X179670799Y-97301989D01*
X179698050Y-97304918D01*
X179731345Y-97308499D01*
X179731362Y-97308500D01*
X180392500Y-97308500D01*
X180459539Y-97328185D01*
X180505294Y-97380989D01*
X180516500Y-97432500D01*
X180516500Y-98904455D01*
X180496815Y-98971494D01*
X180480182Y-98992136D01*
X180360967Y-99111351D01*
X180360541Y-99112043D01*
X180360123Y-99112418D01*
X180356489Y-99117015D01*
X180355703Y-99116393D01*
X180308591Y-99158764D01*
X180239627Y-99169983D01*
X180175547Y-99142136D01*
X180157739Y-99121578D01*
X180156798Y-99122323D01*
X180152316Y-99116655D01*
X180028345Y-98992684D01*
X179879124Y-98900643D01*
X179879119Y-98900641D01*
X179712697Y-98845494D01*
X179712690Y-98845493D01*
X179609986Y-98835000D01*
X179560000Y-98835000D01*
X179560000Y-100186000D01*
X179540315Y-100253039D01*
X179487511Y-100298794D01*
X179436000Y-100310000D01*
X178310001Y-100310000D01*
X178310001Y-100325559D01*
X178290316Y-100392598D01*
X178237512Y-100438353D01*
X178168354Y-100448297D01*
X178120905Y-100431098D01*
X178042744Y-100382888D01*
X178042739Y-100382886D01*
X178042738Y-100382885D01*
X178042735Y-100382884D01*
X177874427Y-100327113D01*
X177770545Y-100316500D01*
X176369462Y-100316500D01*
X176369446Y-100316501D01*
X176265572Y-100327113D01*
X176097264Y-100382884D01*
X176097255Y-100382888D01*
X176061634Y-100404860D01*
X175994241Y-100423300D01*
X175927578Y-100402377D01*
X175882809Y-100348735D01*
X175873010Y-100310131D01*
X175863543Y-100201913D01*
X175804284Y-99980757D01*
X175780557Y-99929875D01*
X175757274Y-99879943D01*
X175707523Y-99773251D01*
X175576198Y-99585700D01*
X175414300Y-99423802D01*
X175395214Y-99410438D01*
X175347649Y-99377132D01*
X175304024Y-99322555D01*
X175296832Y-99253057D01*
X175328355Y-99190702D01*
X175381883Y-99157172D01*
X175459400Y-99133016D01*
X175572916Y-99064393D01*
X175640471Y-99046556D01*
X175706945Y-99068073D01*
X175742606Y-99105412D01*
X175827684Y-99243345D01*
X175951654Y-99367315D01*
X176100875Y-99459356D01*
X176100880Y-99459358D01*
X176267302Y-99514505D01*
X176267309Y-99514506D01*
X176370019Y-99524999D01*
X176819999Y-99524999D01*
X176820000Y-99524998D01*
X176820000Y-98700000D01*
X177320000Y-98700000D01*
X177320000Y-99524999D01*
X177769972Y-99524999D01*
X177769986Y-99524998D01*
X177872697Y-99514505D01*
X178039119Y-99459358D01*
X178039130Y-99459353D01*
X178122456Y-99407957D01*
X178189848Y-99389516D01*
X178256512Y-99410438D01*
X178301281Y-99464080D01*
X178310911Y-99526093D01*
X178310001Y-99535001D01*
X178310000Y-99535026D01*
X178310000Y-99810000D01*
X179060000Y-99810000D01*
X179060000Y-98835000D01*
X179059999Y-98834999D01*
X179010029Y-98835000D01*
X179010011Y-98835001D01*
X178907302Y-98845494D01*
X178740880Y-98900641D01*
X178740871Y-98900645D01*
X178657542Y-98952043D01*
X178590149Y-98970483D01*
X178523486Y-98949560D01*
X178478717Y-98895918D01*
X178469089Y-98833895D01*
X178469999Y-98824990D01*
X178470000Y-98824973D01*
X178470000Y-98700000D01*
X177320000Y-98700000D01*
X176820000Y-98700000D01*
X176820000Y-97375000D01*
X177320000Y-97375000D01*
X177320000Y-98200000D01*
X178469999Y-98200000D01*
X178469999Y-98075028D01*
X178469998Y-98075013D01*
X178459505Y-97972302D01*
X178404358Y-97805880D01*
X178404356Y-97805875D01*
X178312315Y-97656654D01*
X178188345Y-97532684D01*
X178039124Y-97440643D01*
X178039119Y-97440641D01*
X177872697Y-97385494D01*
X177872690Y-97385493D01*
X177769986Y-97375000D01*
X177320000Y-97375000D01*
X176820000Y-97375000D01*
X176370028Y-97375000D01*
X176370012Y-97375001D01*
X176267302Y-97385494D01*
X176100880Y-97440641D01*
X176100866Y-97440648D01*
X176059094Y-97466413D01*
X175991702Y-97484853D01*
X175925039Y-97463930D01*
X175880270Y-97410287D01*
X175869999Y-97360874D01*
X175869999Y-97233417D01*
X175863591Y-97162897D01*
X175863590Y-97162892D01*
X175813018Y-97000603D01*
X175725072Y-96855122D01*
X175604877Y-96734927D01*
X175459396Y-96646981D01*
X175381881Y-96622826D01*
X175323734Y-96584088D01*
X175295760Y-96520063D01*
X175306842Y-96451078D01*
X175347645Y-96402870D01*
X175414300Y-96356198D01*
X175576198Y-96194300D01*
X175707523Y-96006749D01*
X175804284Y-95799243D01*
X175863543Y-95578087D01*
X175882294Y-95363767D01*
X175883498Y-95350001D01*
X175883498Y-95349998D01*
X175863543Y-95121918D01*
X175863543Y-95121917D01*
X175863543Y-95121913D01*
X175804284Y-94900757D01*
X175782385Y-94853795D01*
X175761408Y-94808808D01*
X175707523Y-94693251D01*
X175576198Y-94505700D01*
X175414300Y-94343802D01*
X175226749Y-94212477D01*
X175183655Y-94192382D01*
X175131215Y-94146210D01*
X175112063Y-94079017D01*
X175132278Y-94012136D01*
X175183655Y-93967618D01*
X175186882Y-93966112D01*
X175226749Y-93947523D01*
X175414300Y-93816198D01*
X175576198Y-93654300D01*
X175707523Y-93466749D01*
X175804284Y-93259243D01*
X175863543Y-93038087D01*
X175883498Y-92810000D01*
X175863543Y-92581913D01*
X175804284Y-92360757D01*
X175780848Y-92310499D01*
X175725281Y-92191334D01*
X175707523Y-92153251D01*
X175576198Y-91965700D01*
X175414300Y-91803802D01*
X175226749Y-91672477D01*
X175183655Y-91652382D01*
X175131215Y-91606210D01*
X175112063Y-91539017D01*
X175132278Y-91472136D01*
X175183655Y-91427618D01*
X175193672Y-91422947D01*
X175226749Y-91407523D01*
X175414300Y-91276198D01*
X175576198Y-91114300D01*
X175707523Y-90926749D01*
X175804284Y-90719243D01*
X175855591Y-90527763D01*
X182145787Y-90527763D01*
X182175413Y-90797013D01*
X182175415Y-90797024D01*
X182243926Y-91059082D01*
X182243928Y-91059088D01*
X182349870Y-91308390D01*
X182436896Y-91450987D01*
X182490979Y-91539605D01*
X182490986Y-91539615D01*
X182664253Y-91747819D01*
X182664259Y-91747824D01*
X182788682Y-91859307D01*
X182865998Y-91928582D01*
X183091910Y-92078044D01*
X183337176Y-92193020D01*
X183337183Y-92193022D01*
X183337185Y-92193023D01*
X183596557Y-92271057D01*
X183596564Y-92271058D01*
X183596569Y-92271060D01*
X183864561Y-92310500D01*
X183864566Y-92310500D01*
X184067629Y-92310500D01*
X184067631Y-92310500D01*
X184067636Y-92310499D01*
X184067648Y-92310499D01*
X184105191Y-92307750D01*
X184270156Y-92295677D01*
X184382758Y-92270593D01*
X184534546Y-92236782D01*
X184534548Y-92236781D01*
X184534553Y-92236780D01*
X184787558Y-92140014D01*
X185023777Y-92007441D01*
X185238177Y-91841888D01*
X185426186Y-91646881D01*
X185583799Y-91426579D01*
X185691767Y-91216580D01*
X185707649Y-91185690D01*
X185707651Y-91185684D01*
X185707656Y-91185675D01*
X185795118Y-90929305D01*
X185844319Y-90662933D01*
X185854212Y-90392235D01*
X185824586Y-90122982D01*
X185756072Y-89860912D01*
X185650130Y-89611610D01*
X185509018Y-89380390D01*
X185428323Y-89283424D01*
X185335746Y-89172180D01*
X185335740Y-89172175D01*
X185134002Y-88991418D01*
X184908092Y-88841957D01*
X184905771Y-88840869D01*
X184662824Y-88726980D01*
X184662819Y-88726978D01*
X184662814Y-88726976D01*
X184403442Y-88648942D01*
X184403428Y-88648939D01*
X184287791Y-88631921D01*
X184135439Y-88609500D01*
X183932369Y-88609500D01*
X183932351Y-88609500D01*
X183729844Y-88624323D01*
X183729831Y-88624325D01*
X183465453Y-88683217D01*
X183465446Y-88683220D01*
X183212439Y-88779987D01*
X182976226Y-88912557D01*
X182976224Y-88912558D01*
X182976223Y-88912559D01*
X182913893Y-88960688D01*
X182761822Y-89078112D01*
X182573822Y-89273109D01*
X182573816Y-89273116D01*
X182416202Y-89493419D01*
X182416199Y-89493424D01*
X182292350Y-89734309D01*
X182292343Y-89734327D01*
X182204884Y-89990685D01*
X182204881Y-89990699D01*
X182194469Y-90047068D01*
X182160007Y-90233649D01*
X182155681Y-90257068D01*
X182155680Y-90257075D01*
X182145787Y-90527763D01*
X175855591Y-90527763D01*
X175863543Y-90498087D01*
X175883498Y-90270000D01*
X175863543Y-90041913D01*
X175804284Y-89820757D01*
X175707523Y-89613251D01*
X175576198Y-89425700D01*
X175414300Y-89263802D01*
X175226749Y-89132477D01*
X175214958Y-89126979D01*
X175183655Y-89112382D01*
X175131215Y-89066210D01*
X175112063Y-88999017D01*
X175132278Y-88932136D01*
X175183655Y-88887618D01*
X175186882Y-88886112D01*
X175226749Y-88867523D01*
X175414300Y-88736198D01*
X175576198Y-88574300D01*
X175707523Y-88386749D01*
X175804284Y-88179243D01*
X175863543Y-87958087D01*
X175883498Y-87730000D01*
X175863543Y-87501913D01*
X175804284Y-87280757D01*
X175707523Y-87073251D01*
X175576198Y-86885700D01*
X175414300Y-86723802D01*
X175402511Y-86715547D01*
X175347649Y-86677132D01*
X175304024Y-86622555D01*
X175296832Y-86553057D01*
X175328355Y-86490702D01*
X175381883Y-86457172D01*
X175459399Y-86433017D01*
X175604877Y-86345072D01*
X175725072Y-86224877D01*
X175813019Y-86079395D01*
X175863590Y-85917106D01*
X175870000Y-85846572D01*
X175870000Y-85440000D01*
X173403686Y-85440000D01*
X173429493Y-85399844D01*
X173470000Y-85261889D01*
X173470000Y-85118111D01*
X173429493Y-84980156D01*
X173403686Y-84940000D01*
X175869999Y-84940000D01*
X175869999Y-84533417D01*
X175863591Y-84462897D01*
X175863590Y-84462892D01*
X175813018Y-84300603D01*
X175725072Y-84155122D01*
X175604877Y-84034927D01*
X175459396Y-83946981D01*
X175381881Y-83922826D01*
X175323734Y-83884088D01*
X175295760Y-83820063D01*
X175306842Y-83751078D01*
X175347645Y-83702870D01*
X175414300Y-83656198D01*
X175576198Y-83494300D01*
X175707523Y-83306749D01*
X175804284Y-83099243D01*
X175836235Y-82980001D01*
X182694532Y-82980001D01*
X182714364Y-83206686D01*
X182714366Y-83206697D01*
X182773258Y-83426488D01*
X182773261Y-83426497D01*
X182869431Y-83632732D01*
X182869432Y-83632734D01*
X182999954Y-83819141D01*
X183160858Y-83980045D01*
X183160861Y-83980047D01*
X183347266Y-84110568D01*
X183553504Y-84206739D01*
X183773308Y-84265635D01*
X183943214Y-84280499D01*
X183943215Y-84280500D01*
X183943216Y-84280500D01*
X184056785Y-84280500D01*
X184056785Y-84280499D01*
X184226692Y-84265635D01*
X184446496Y-84206739D01*
X184652734Y-84110568D01*
X184839139Y-83980047D01*
X185000047Y-83819139D01*
X185130568Y-83632734D01*
X185226739Y-83426496D01*
X185285635Y-83206692D01*
X185305468Y-82980000D01*
X185304825Y-82972655D01*
X185298117Y-82895974D01*
X185285635Y-82753308D01*
X185226739Y-82533504D01*
X185130568Y-82327266D01*
X185000047Y-82140861D01*
X185000045Y-82140858D01*
X184839141Y-81979954D01*
X184652734Y-81849432D01*
X184652732Y-81849431D01*
X184446497Y-81753261D01*
X184446488Y-81753258D01*
X184226697Y-81694366D01*
X184226687Y-81694364D01*
X184056785Y-81679500D01*
X184056784Y-81679500D01*
X183943216Y-81679500D01*
X183943215Y-81679500D01*
X183773312Y-81694364D01*
X183773302Y-81694366D01*
X183553511Y-81753258D01*
X183553502Y-81753261D01*
X183347267Y-81849431D01*
X183347265Y-81849432D01*
X183160858Y-81979954D01*
X182999954Y-82140858D01*
X182869432Y-82327265D01*
X182869431Y-82327267D01*
X182773261Y-82533502D01*
X182773258Y-82533511D01*
X182714366Y-82753302D01*
X182714364Y-82753313D01*
X182694532Y-82979998D01*
X182694532Y-82980001D01*
X175836235Y-82980001D01*
X175863543Y-82878087D01*
X175883498Y-82650000D01*
X175863543Y-82421913D01*
X175804284Y-82200757D01*
X175707523Y-81993251D01*
X175576198Y-81805700D01*
X175414300Y-81643802D01*
X175226749Y-81512477D01*
X175183655Y-81492382D01*
X175131215Y-81446210D01*
X175112063Y-81379017D01*
X175132278Y-81312136D01*
X175183655Y-81267618D01*
X175186882Y-81266112D01*
X175226749Y-81247523D01*
X175414300Y-81116198D01*
X175576198Y-80954300D01*
X175707523Y-80766749D01*
X175804284Y-80559243D01*
X175863543Y-80338087D01*
X175883498Y-80110000D01*
X175863543Y-79881913D01*
X175804284Y-79660757D01*
X175803218Y-79658472D01*
X175707524Y-79453254D01*
X175707523Y-79453252D01*
X175707523Y-79453251D01*
X175576198Y-79265700D01*
X175414300Y-79103802D01*
X175226749Y-78972477D01*
X175183655Y-78952382D01*
X175131215Y-78906210D01*
X175112063Y-78839017D01*
X175132278Y-78772136D01*
X175183655Y-78727618D01*
X175186882Y-78726112D01*
X175226749Y-78707523D01*
X175414300Y-78576198D01*
X175576198Y-78414300D01*
X175707523Y-78226749D01*
X175804284Y-78019243D01*
X175863543Y-77798087D01*
X175883498Y-77570000D01*
X175881466Y-77546779D01*
X175873161Y-77451851D01*
X175863543Y-77341913D01*
X175804284Y-77120757D01*
X175802972Y-77117944D01*
X175755232Y-77015565D01*
X175707523Y-76913251D01*
X175576198Y-76725700D01*
X175414300Y-76563802D01*
X175226749Y-76432477D01*
X175220716Y-76429664D01*
X175183655Y-76412382D01*
X175131215Y-76366210D01*
X175112063Y-76299017D01*
X175132278Y-76232136D01*
X175183655Y-76187618D01*
X175186882Y-76186112D01*
X175226749Y-76167523D01*
X175414300Y-76036198D01*
X175576198Y-75874300D01*
X175601782Y-75837763D01*
X182145787Y-75837763D01*
X182175413Y-76107013D01*
X182175415Y-76107024D01*
X182243608Y-76367865D01*
X182243928Y-76369088D01*
X182349870Y-76618390D01*
X182448113Y-76779366D01*
X182490979Y-76849605D01*
X182490986Y-76849615D01*
X182664253Y-77057819D01*
X182664259Y-77057824D01*
X182825649Y-77202429D01*
X182865998Y-77238582D01*
X183091910Y-77388044D01*
X183337176Y-77503020D01*
X183337183Y-77503022D01*
X183337185Y-77503023D01*
X183596557Y-77581057D01*
X183596564Y-77581058D01*
X183596569Y-77581060D01*
X183864561Y-77620500D01*
X183864566Y-77620500D01*
X184067629Y-77620500D01*
X184067631Y-77620500D01*
X184067636Y-77620499D01*
X184067648Y-77620499D01*
X184105191Y-77617750D01*
X184270156Y-77605677D01*
X184430311Y-77570001D01*
X184534546Y-77546782D01*
X184534548Y-77546781D01*
X184534553Y-77546780D01*
X184787558Y-77450014D01*
X185023777Y-77317441D01*
X185238177Y-77151888D01*
X185426186Y-76956881D01*
X185583799Y-76736579D01*
X185672630Y-76563802D01*
X185707649Y-76495690D01*
X185707651Y-76495684D01*
X185707656Y-76495675D01*
X185795118Y-76239305D01*
X185844319Y-75972933D01*
X185854212Y-75702235D01*
X185824586Y-75432982D01*
X185756072Y-75170912D01*
X185650130Y-74921610D01*
X185509018Y-74690390D01*
X185507845Y-74688981D01*
X185335746Y-74482180D01*
X185335740Y-74482175D01*
X185134002Y-74301418D01*
X184908092Y-74151957D01*
X184908090Y-74151956D01*
X184662824Y-74036980D01*
X184662819Y-74036978D01*
X184662814Y-74036976D01*
X184403442Y-73958942D01*
X184403428Y-73958939D01*
X184274735Y-73940000D01*
X184135439Y-73919500D01*
X183932369Y-73919500D01*
X183932351Y-73919500D01*
X183729844Y-73934323D01*
X183729831Y-73934325D01*
X183465453Y-73993217D01*
X183465446Y-73993220D01*
X183212439Y-74089987D01*
X182976226Y-74222557D01*
X182761822Y-74388112D01*
X182573822Y-74583109D01*
X182573816Y-74583116D01*
X182416202Y-74803419D01*
X182416199Y-74803424D01*
X182292350Y-75044309D01*
X182292343Y-75044327D01*
X182204884Y-75300685D01*
X182204882Y-75300695D01*
X182162252Y-75531495D01*
X182155681Y-75567068D01*
X182155680Y-75567075D01*
X182145787Y-75837763D01*
X175601782Y-75837763D01*
X175707523Y-75686749D01*
X175804284Y-75479243D01*
X175863543Y-75258087D01*
X175883498Y-75030000D01*
X175863543Y-74801913D01*
X175804284Y-74580757D01*
X175799275Y-74570016D01*
X175740392Y-74443740D01*
X175707523Y-74373251D01*
X175576198Y-74185700D01*
X175414300Y-74023802D01*
X175370625Y-73993220D01*
X175347649Y-73977132D01*
X175304024Y-73922555D01*
X175296832Y-73853057D01*
X175328355Y-73790702D01*
X175381883Y-73757172D01*
X175459399Y-73733017D01*
X175604877Y-73645072D01*
X175725072Y-73524877D01*
X175813019Y-73379395D01*
X175863590Y-73217106D01*
X175870000Y-73146572D01*
X175870000Y-72740000D01*
X173403686Y-72740000D01*
X173429493Y-72699844D01*
X173470000Y-72561889D01*
X173470000Y-72418111D01*
X173429493Y-72280156D01*
X173403686Y-72240000D01*
X175869999Y-72240000D01*
X175869999Y-71833417D01*
X175863591Y-71762897D01*
X175863590Y-71762892D01*
X175813018Y-71600603D01*
X175725072Y-71455122D01*
X175604877Y-71334927D01*
X175459396Y-71246981D01*
X175381881Y-71222826D01*
X175323734Y-71184088D01*
X175295760Y-71120063D01*
X175306842Y-71051078D01*
X175347645Y-71002870D01*
X175414300Y-70956198D01*
X175576198Y-70794300D01*
X175707523Y-70606749D01*
X175804284Y-70399243D01*
X175863543Y-70178087D01*
X175883498Y-69950000D01*
X175882382Y-69937249D01*
X175871487Y-69812714D01*
X175863543Y-69721913D01*
X175804284Y-69500757D01*
X175707523Y-69293251D01*
X175576198Y-69105700D01*
X175490501Y-69020003D01*
X179956384Y-69020003D01*
X179976781Y-69201041D01*
X179976782Y-69201046D01*
X180011408Y-69300000D01*
X180036878Y-69372790D01*
X180036958Y-69373017D01*
X180121324Y-69507284D01*
X180133889Y-69527281D01*
X180262719Y-69656111D01*
X180416985Y-69753043D01*
X180578596Y-69809593D01*
X180588953Y-69813217D01*
X180588958Y-69813218D01*
X180769996Y-69833616D01*
X180770000Y-69833616D01*
X180770004Y-69833616D01*
X180951041Y-69813218D01*
X180951044Y-69813217D01*
X180951047Y-69813217D01*
X181123015Y-69753043D01*
X181229939Y-69685857D01*
X181297175Y-69666858D01*
X181364011Y-69687226D01*
X181402027Y-69726701D01*
X181413180Y-69745150D01*
X181413182Y-69745152D01*
X181413184Y-69745155D01*
X181534845Y-69866816D01*
X181682087Y-69955827D01*
X181846351Y-70007013D01*
X181917735Y-70013500D01*
X182432264Y-70013499D01*
X182432272Y-70013499D01*
X182503645Y-70007014D01*
X182503648Y-70007013D01*
X182503649Y-70007013D01*
X182667913Y-69955827D01*
X182815155Y-69866816D01*
X182848355Y-69833616D01*
X182912319Y-69769653D01*
X182973642Y-69736168D01*
X183043334Y-69741152D01*
X183087681Y-69769653D01*
X183184841Y-69866813D01*
X183184843Y-69866814D01*
X183184845Y-69866816D01*
X183332087Y-69955827D01*
X183496351Y-70007013D01*
X183567735Y-70013500D01*
X184082264Y-70013499D01*
X184082272Y-70013499D01*
X184153645Y-70007014D01*
X184153648Y-70007013D01*
X184153649Y-70007013D01*
X184317913Y-69955827D01*
X184465155Y-69866816D01*
X184465156Y-69866814D01*
X184471574Y-69862935D01*
X184472679Y-69864763D01*
X184527614Y-69842885D01*
X184596197Y-69856232D01*
X184644717Y-69901248D01*
X184684653Y-69965994D01*
X184684656Y-69965998D01*
X184809002Y-70090344D01*
X184958671Y-70182661D01*
X185125596Y-70237974D01*
X185228625Y-70248500D01*
X185816374Y-70248499D01*
X185919404Y-70237974D01*
X186086329Y-70182661D01*
X186235998Y-70090344D01*
X186360344Y-69965998D01*
X186360347Y-69965992D01*
X186364825Y-69960331D01*
X186366155Y-69961382D01*
X186411432Y-69920647D01*
X186480393Y-69909415D01*
X186544479Y-69937249D01*
X186562306Y-69955551D01*
X186566371Y-69960692D01*
X186689308Y-70083629D01*
X186837285Y-70174903D01*
X186837290Y-70174905D01*
X187002326Y-70229592D01*
X187104184Y-70239999D01*
X187104197Y-70240000D01*
X187147500Y-70240000D01*
X187147500Y-69290000D01*
X187647500Y-69290000D01*
X187647500Y-70240000D01*
X187690803Y-70240000D01*
X187690815Y-70239999D01*
X187792673Y-70229592D01*
X187957709Y-70174905D01*
X187957714Y-70174903D01*
X188105691Y-70083629D01*
X188228629Y-69960691D01*
X188319903Y-69812714D01*
X188319905Y-69812709D01*
X188374592Y-69647673D01*
X188384999Y-69545815D01*
X188385000Y-69545802D01*
X188385000Y-69290000D01*
X187647500Y-69290000D01*
X187147500Y-69290000D01*
X187147500Y-67840000D01*
X187647500Y-67840000D01*
X187647500Y-68790000D01*
X188385000Y-68790000D01*
X188385000Y-68534197D01*
X188384999Y-68534184D01*
X188374592Y-68432326D01*
X188319905Y-68267290D01*
X188319903Y-68267285D01*
X188228629Y-68119308D01*
X188105691Y-67996370D01*
X187957714Y-67905096D01*
X187957709Y-67905094D01*
X187792673Y-67850407D01*
X187690815Y-67840000D01*
X187647500Y-67840000D01*
X187147500Y-67840000D01*
X187104184Y-67840000D01*
X187002326Y-67850407D01*
X186837290Y-67905094D01*
X186837285Y-67905096D01*
X186689308Y-67996370D01*
X186566369Y-68119309D01*
X186562303Y-68124452D01*
X186505279Y-68164827D01*
X186435480Y-68167963D01*
X186375066Y-68132866D01*
X186364879Y-68119625D01*
X186364825Y-68119669D01*
X186360343Y-68114001D01*
X186235999Y-67989657D01*
X186235998Y-67989656D01*
X186114223Y-67914544D01*
X186086331Y-67897340D01*
X186086324Y-67897337D01*
X185919401Y-67842025D01*
X185919402Y-67842025D01*
X185816376Y-67831500D01*
X185228632Y-67831500D01*
X185228616Y-67831501D01*
X185125594Y-67842026D01*
X184958673Y-67897338D01*
X184958668Y-67897340D01*
X184809000Y-67989657D01*
X184684655Y-68114002D01*
X184653034Y-68165268D01*
X184601085Y-68211992D01*
X184532123Y-68223213D01*
X184471027Y-68197784D01*
X184465158Y-68193186D01*
X184407939Y-68158596D01*
X184317913Y-68104173D01*
X184153649Y-68052987D01*
X184153647Y-68052986D01*
X184153645Y-68052986D01*
X184103667Y-68048444D01*
X184082265Y-68046500D01*
X184082262Y-68046500D01*
X183567727Y-68046500D01*
X183496354Y-68052985D01*
X183496344Y-68052988D01*
X183332090Y-68104171D01*
X183184841Y-68193186D01*
X183184840Y-68193187D01*
X183087681Y-68290347D01*
X183026358Y-68323832D01*
X182956666Y-68318848D01*
X182912319Y-68290347D01*
X182815158Y-68193186D01*
X182757939Y-68158596D01*
X182667913Y-68104173D01*
X182503649Y-68052987D01*
X182503647Y-68052986D01*
X182503645Y-68052986D01*
X182453667Y-68048444D01*
X182432265Y-68046500D01*
X182432262Y-68046500D01*
X181917727Y-68046500D01*
X181846354Y-68052985D01*
X181846344Y-68052988D01*
X181682090Y-68104171D01*
X181534843Y-68193185D01*
X181413180Y-68314849D01*
X181410786Y-68318810D01*
X181359255Y-68365994D01*
X181290395Y-68377828D01*
X181238701Y-68359647D01*
X181123017Y-68286958D01*
X181123016Y-68286957D01*
X181123015Y-68286957D01*
X181056467Y-68263671D01*
X180951046Y-68226782D01*
X180951041Y-68226781D01*
X180770004Y-68206384D01*
X180769996Y-68206384D01*
X180588958Y-68226781D01*
X180588953Y-68226782D01*
X180416982Y-68286958D01*
X180262718Y-68383889D01*
X180133889Y-68512718D01*
X180036958Y-68666982D01*
X179976782Y-68838953D01*
X179976781Y-68838958D01*
X179956384Y-69019996D01*
X179956384Y-69020003D01*
X175490501Y-69020003D01*
X175414300Y-68943802D01*
X175226749Y-68812477D01*
X175183655Y-68792382D01*
X175131215Y-68746210D01*
X175112063Y-68679017D01*
X175132278Y-68612136D01*
X175183655Y-68567618D01*
X175186882Y-68566112D01*
X175226749Y-68547523D01*
X175414300Y-68416198D01*
X175576198Y-68254300D01*
X175686779Y-68096374D01*
X175741354Y-68052751D01*
X175788352Y-68043500D01*
X177986366Y-68043500D01*
X178002113Y-68045238D01*
X178002139Y-68044968D01*
X178009905Y-68045701D01*
X178009909Y-68045702D01*
X178078017Y-68043560D01*
X178081913Y-68043500D01*
X178109858Y-68043500D01*
X178109860Y-68043499D01*
X178111262Y-68043322D01*
X178113949Y-68042983D01*
X178125608Y-68042064D01*
X178169889Y-68040673D01*
X178189481Y-68034980D01*
X178208538Y-68031032D01*
X178228797Y-68028474D01*
X178270006Y-68012157D01*
X178281043Y-68008379D01*
X178323593Y-67996018D01*
X178341165Y-67985625D01*
X178358632Y-67977068D01*
X178377617Y-67969552D01*
X178413461Y-67943508D01*
X178423230Y-67937092D01*
X178461362Y-67914542D01*
X178475802Y-67900100D01*
X178490592Y-67887470D01*
X178507107Y-67875472D01*
X178535359Y-67841319D01*
X178543203Y-67832699D01*
X180486085Y-65889819D01*
X180547408Y-65856334D01*
X180573766Y-65853500D01*
X181283885Y-65853500D01*
X181350924Y-65873185D01*
X181390002Y-65913350D01*
X181403181Y-65935151D01*
X181403182Y-65935152D01*
X181403184Y-65935155D01*
X181524845Y-66056816D01*
X181672087Y-66145827D01*
X181836351Y-66197013D01*
X181907735Y-66203500D01*
X182422264Y-66203499D01*
X182422272Y-66203499D01*
X182493645Y-66197014D01*
X182493648Y-66197013D01*
X182493649Y-66197013D01*
X182657913Y-66145827D01*
X182805155Y-66056816D01*
X182845411Y-66016560D01*
X182902319Y-65959653D01*
X182963642Y-65926168D01*
X183033334Y-65931152D01*
X183077681Y-65959653D01*
X183174841Y-66056813D01*
X183174843Y-66056814D01*
X183174845Y-66056816D01*
X183322087Y-66145827D01*
X183486351Y-66197013D01*
X183557735Y-66203500D01*
X184072264Y-66203499D01*
X184072272Y-66203499D01*
X184143645Y-66197014D01*
X184143648Y-66197013D01*
X184143649Y-66197013D01*
X184307913Y-66145827D01*
X184445635Y-66062570D01*
X184513189Y-66044735D01*
X184579662Y-66066253D01*
X184615321Y-66103589D01*
X184684656Y-66215998D01*
X184809002Y-66340344D01*
X184958671Y-66432661D01*
X185125596Y-66487974D01*
X185228625Y-66498500D01*
X185816374Y-66498499D01*
X185919404Y-66487974D01*
X186086329Y-66432661D01*
X186235998Y-66340344D01*
X186360344Y-66215998D01*
X186360347Y-66215992D01*
X186364825Y-66210331D01*
X186366155Y-66211382D01*
X186411432Y-66170647D01*
X186480393Y-66159415D01*
X186544479Y-66187249D01*
X186562306Y-66205551D01*
X186566371Y-66210692D01*
X186689308Y-66333629D01*
X186837285Y-66424903D01*
X186837290Y-66424905D01*
X187002326Y-66479592D01*
X187104184Y-66489999D01*
X187104197Y-66490000D01*
X187147500Y-66490000D01*
X187147500Y-65540000D01*
X187647500Y-65540000D01*
X187647500Y-66490000D01*
X187690803Y-66490000D01*
X187690815Y-66489999D01*
X187792673Y-66479592D01*
X187957709Y-66424905D01*
X187957714Y-66424903D01*
X188105691Y-66333629D01*
X188228629Y-66210691D01*
X188319903Y-66062714D01*
X188319905Y-66062709D01*
X188374592Y-65897673D01*
X188384999Y-65795815D01*
X188385000Y-65795802D01*
X188385000Y-65540000D01*
X187647500Y-65540000D01*
X187147500Y-65540000D01*
X187147500Y-64090000D01*
X187647500Y-64090000D01*
X187647500Y-65040000D01*
X188385000Y-65040000D01*
X188385000Y-64784197D01*
X188384999Y-64784184D01*
X188374592Y-64682326D01*
X188319905Y-64517290D01*
X188319903Y-64517285D01*
X188228629Y-64369308D01*
X188105691Y-64246370D01*
X187957714Y-64155096D01*
X187957709Y-64155094D01*
X187792673Y-64100407D01*
X187690815Y-64090000D01*
X187647500Y-64090000D01*
X187147500Y-64090000D01*
X187104184Y-64090000D01*
X187002326Y-64100407D01*
X186837290Y-64155094D01*
X186837285Y-64155096D01*
X186689308Y-64246370D01*
X186566369Y-64369309D01*
X186562303Y-64374452D01*
X186505279Y-64414827D01*
X186435480Y-64417963D01*
X186375066Y-64382866D01*
X186364879Y-64369625D01*
X186364825Y-64369669D01*
X186360343Y-64364001D01*
X186235999Y-64239657D01*
X186235998Y-64239656D01*
X186086329Y-64147339D01*
X186086327Y-64147338D01*
X186086324Y-64147337D01*
X185919401Y-64092025D01*
X185919402Y-64092025D01*
X185816376Y-64081500D01*
X185228632Y-64081500D01*
X185228616Y-64081501D01*
X185125594Y-64092026D01*
X184958673Y-64147338D01*
X184958668Y-64147340D01*
X184809000Y-64239657D01*
X184684656Y-64364001D01*
X184684653Y-64364005D01*
X184672111Y-64384339D01*
X184620162Y-64431063D01*
X184551200Y-64442283D01*
X184487118Y-64414439D01*
X184478893Y-64406921D01*
X184455158Y-64383186D01*
X184440710Y-64374452D01*
X184307913Y-64294173D01*
X184143649Y-64242987D01*
X184143647Y-64242986D01*
X184143645Y-64242986D01*
X184093667Y-64238444D01*
X184072265Y-64236500D01*
X184072262Y-64236500D01*
X183557727Y-64236500D01*
X183486354Y-64242985D01*
X183486344Y-64242988D01*
X183322090Y-64294171D01*
X183174841Y-64383186D01*
X183174840Y-64383187D01*
X183077681Y-64480347D01*
X183016358Y-64513832D01*
X182946666Y-64508848D01*
X182902319Y-64480347D01*
X182805158Y-64383186D01*
X182790710Y-64374452D01*
X182657913Y-64294173D01*
X182493649Y-64242987D01*
X182493647Y-64242986D01*
X182493645Y-64242986D01*
X182443667Y-64238444D01*
X182422265Y-64236500D01*
X182422262Y-64236500D01*
X181907727Y-64236500D01*
X181836354Y-64242985D01*
X181836344Y-64242988D01*
X181672090Y-64294171D01*
X181524843Y-64383185D01*
X181403181Y-64504848D01*
X181390002Y-64526650D01*
X181338474Y-64573837D01*
X181283885Y-64586500D01*
X180343632Y-64586500D01*
X180327880Y-64584760D01*
X180327855Y-64585032D01*
X180320093Y-64584298D01*
X180320092Y-64584298D01*
X180296738Y-64585032D01*
X180251970Y-64586439D01*
X180248075Y-64586500D01*
X180220144Y-64586500D01*
X180220141Y-64586500D01*
X180220125Y-64586501D01*
X180216032Y-64587018D01*
X180204404Y-64587933D01*
X180160113Y-64589325D01*
X180160107Y-64589326D01*
X180140500Y-64595022D01*
X180121461Y-64598965D01*
X180101211Y-64601524D01*
X180101205Y-64601525D01*
X180101203Y-64601526D01*
X180090425Y-64605792D01*
X180060006Y-64617836D01*
X180048960Y-64621617D01*
X180006413Y-64633979D01*
X180006407Y-64633981D01*
X179988833Y-64644374D01*
X179971372Y-64652928D01*
X179952386Y-64660446D01*
X179952385Y-64660446D01*
X179916535Y-64686492D01*
X179906776Y-64692902D01*
X179868637Y-64715457D01*
X179854201Y-64729894D01*
X179839415Y-64742523D01*
X179822893Y-64754528D01*
X179822891Y-64754529D01*
X179822891Y-64754530D01*
X179822888Y-64754533D01*
X179794642Y-64788674D01*
X179786783Y-64797311D01*
X177843914Y-66740181D01*
X177782591Y-66773666D01*
X177756233Y-66776500D01*
X175788352Y-66776500D01*
X175721313Y-66756815D01*
X175686779Y-66723626D01*
X175576198Y-66565700D01*
X175414300Y-66403802D01*
X175226749Y-66272477D01*
X175226745Y-66272475D01*
X175019249Y-66175718D01*
X175019238Y-66175714D01*
X174798089Y-66116457D01*
X174798081Y-66116456D01*
X174627130Y-66101500D01*
X174627127Y-66101500D01*
X173032539Y-66101500D01*
X173021733Y-66101028D01*
X172995195Y-66098706D01*
X172970001Y-66096502D01*
X172969998Y-66096502D01*
X172741918Y-66116456D01*
X172741910Y-66116457D01*
X172520761Y-66175714D01*
X172520750Y-66175718D01*
X172313254Y-66272475D01*
X172313252Y-66272476D01*
X172299565Y-66282060D01*
X172125700Y-66403802D01*
X172125698Y-66403803D01*
X172125695Y-66403806D01*
X171963806Y-66565695D01*
X171963803Y-66565698D01*
X171963802Y-66565700D01*
X171929657Y-66614464D01*
X171832476Y-66753252D01*
X171832475Y-66753254D01*
X171735718Y-66960750D01*
X171735714Y-66960761D01*
X171676457Y-67181910D01*
X171676456Y-67181918D01*
X171656502Y-67409998D01*
X171656502Y-67410001D01*
X171676456Y-67638081D01*
X171676457Y-67638089D01*
X171735714Y-67859238D01*
X171735718Y-67859249D01*
X171826059Y-68052985D01*
X171832477Y-68066749D01*
X171963802Y-68254300D01*
X172125700Y-68416198D01*
X172263546Y-68512719D01*
X172313251Y-68547523D01*
X172356345Y-68567618D01*
X172408784Y-68613791D01*
X172427936Y-68680984D01*
X172407720Y-68747865D01*
X172356345Y-68792382D01*
X172313251Y-68812476D01*
X172188126Y-68900090D01*
X172125700Y-68943802D01*
X172125698Y-68943803D01*
X172125695Y-68943806D01*
X171963806Y-69105695D01*
X171963803Y-69105698D01*
X171963802Y-69105700D01*
X171913584Y-69177419D01*
X171832476Y-69293252D01*
X171832475Y-69293254D01*
X171735718Y-69500750D01*
X171735714Y-69500761D01*
X171676457Y-69721910D01*
X171676456Y-69721918D01*
X171656502Y-69949998D01*
X171656502Y-69950001D01*
X171676456Y-70178081D01*
X171676457Y-70178089D01*
X171735714Y-70399238D01*
X171735718Y-70399249D01*
X171813039Y-70565064D01*
X171832477Y-70606749D01*
X171963802Y-70794300D01*
X172125700Y-70956198D01*
X172192351Y-71002868D01*
X172235975Y-71057444D01*
X172243167Y-71126942D01*
X172211645Y-71189297D01*
X172158118Y-71222826D01*
X172080602Y-71246981D01*
X171935122Y-71334927D01*
X171814927Y-71455122D01*
X171726980Y-71600604D01*
X171676409Y-71762893D01*
X171670000Y-71833427D01*
X171670000Y-72240000D01*
X172536314Y-72240000D01*
X172510507Y-72280156D01*
X172470000Y-72418111D01*
X172470000Y-72561889D01*
X172510507Y-72699844D01*
X172536314Y-72740000D01*
X171670001Y-72740000D01*
X171670001Y-73146582D01*
X171676408Y-73217102D01*
X171676409Y-73217107D01*
X171726981Y-73379396D01*
X171814927Y-73524877D01*
X171935122Y-73645072D01*
X172080600Y-73733017D01*
X172158117Y-73757172D01*
X172216265Y-73795910D01*
X172244239Y-73859935D01*
X172233158Y-73928920D01*
X172192351Y-73977132D01*
X172125699Y-74023802D01*
X171963806Y-74185695D01*
X171963803Y-74185698D01*
X171963802Y-74185700D01*
X171937993Y-74222559D01*
X171832476Y-74373252D01*
X171832475Y-74373254D01*
X171735718Y-74580750D01*
X171735714Y-74580761D01*
X171676457Y-74801910D01*
X171676456Y-74801918D01*
X171656502Y-75029998D01*
X171656502Y-75030001D01*
X171676456Y-75258081D01*
X171676457Y-75258089D01*
X171735714Y-75479238D01*
X171735718Y-75479249D01*
X171776669Y-75567068D01*
X171832477Y-75686749D01*
X171963802Y-75874300D01*
X172125700Y-76036198D01*
X172300999Y-76158944D01*
X172313251Y-76167523D01*
X172356345Y-76187618D01*
X172408784Y-76233791D01*
X172427936Y-76300984D01*
X172407720Y-76367865D01*
X172356345Y-76412382D01*
X172313251Y-76432476D01*
X172221527Y-76496703D01*
X172125700Y-76563802D01*
X172125698Y-76563803D01*
X172125695Y-76563806D01*
X171963806Y-76725695D01*
X171963803Y-76725698D01*
X171963802Y-76725700D01*
X171928080Y-76776716D01*
X171832476Y-76913252D01*
X171832475Y-76913254D01*
X171735718Y-77120750D01*
X171735714Y-77120761D01*
X171676457Y-77341910D01*
X171676456Y-77341918D01*
X171656502Y-77569998D01*
X171656502Y-77570001D01*
X171676456Y-77798081D01*
X171676457Y-77798089D01*
X171735714Y-78019238D01*
X171735718Y-78019249D01*
X171825827Y-78212489D01*
X171832477Y-78226749D01*
X171963802Y-78414300D01*
X172125700Y-78576198D01*
X172313251Y-78707523D01*
X172356345Y-78727618D01*
X172408784Y-78773791D01*
X172427936Y-78840984D01*
X172407720Y-78907865D01*
X172356345Y-78952382D01*
X172313251Y-78972476D01*
X172188126Y-79060090D01*
X172125700Y-79103802D01*
X172125698Y-79103803D01*
X172125695Y-79103806D01*
X171963806Y-79265695D01*
X171963803Y-79265698D01*
X171963802Y-79265700D01*
X171908849Y-79344181D01*
X171832476Y-79453252D01*
X171832475Y-79453254D01*
X171735718Y-79660750D01*
X171735714Y-79660761D01*
X171676457Y-79881910D01*
X171676456Y-79881918D01*
X171656502Y-80109998D01*
X171656502Y-80110001D01*
X171676456Y-80338081D01*
X171676457Y-80338089D01*
X171735714Y-80559238D01*
X171735718Y-80559249D01*
X171808711Y-80715782D01*
X171832477Y-80766749D01*
X171963802Y-80954300D01*
X172125700Y-81116198D01*
X172299798Y-81238103D01*
X172313251Y-81247523D01*
X172356345Y-81267618D01*
X172408784Y-81313791D01*
X172427936Y-81380984D01*
X172407720Y-81447865D01*
X172356345Y-81492382D01*
X172313251Y-81512476D01*
X172230123Y-81570684D01*
X172125700Y-81643802D01*
X172125698Y-81643803D01*
X172125695Y-81643806D01*
X171963806Y-81805695D01*
X171963803Y-81805698D01*
X171963802Y-81805700D01*
X171881767Y-81922856D01*
X171832476Y-81993252D01*
X171832475Y-81993254D01*
X171735718Y-82200750D01*
X171735714Y-82200761D01*
X171676457Y-82421910D01*
X171676456Y-82421918D01*
X171656502Y-82649998D01*
X171656502Y-82650001D01*
X171676456Y-82878081D01*
X171676457Y-82878089D01*
X171735714Y-83099238D01*
X171735718Y-83099249D01*
X171814709Y-83268646D01*
X171832477Y-83306749D01*
X171963802Y-83494300D01*
X172125700Y-83656198D01*
X172192351Y-83702868D01*
X172235975Y-83757444D01*
X172243167Y-83826942D01*
X172211645Y-83889297D01*
X172158118Y-83922826D01*
X172080602Y-83946981D01*
X171935122Y-84034927D01*
X171814927Y-84155122D01*
X171726980Y-84300604D01*
X171676409Y-84462893D01*
X171670000Y-84533427D01*
X171670000Y-84940000D01*
X172536314Y-84940000D01*
X172510507Y-84980156D01*
X172470000Y-85118111D01*
X172470000Y-85261889D01*
X172510507Y-85399844D01*
X172536314Y-85440000D01*
X171670001Y-85440000D01*
X171670001Y-85846582D01*
X171676408Y-85917102D01*
X171676409Y-85917107D01*
X171726981Y-86079396D01*
X171814927Y-86224877D01*
X171935122Y-86345072D01*
X172080600Y-86433017D01*
X172158117Y-86457172D01*
X172216265Y-86495910D01*
X172244239Y-86559935D01*
X172233158Y-86628920D01*
X172192351Y-86677132D01*
X172125699Y-86723802D01*
X171963806Y-86885695D01*
X171963803Y-86885698D01*
X171963802Y-86885700D01*
X171907177Y-86966569D01*
X171832476Y-87073252D01*
X171832475Y-87073254D01*
X171735718Y-87280750D01*
X171735714Y-87280761D01*
X171676457Y-87501910D01*
X171676456Y-87501918D01*
X171656502Y-87729998D01*
X171656502Y-87730001D01*
X171676456Y-87958081D01*
X171676457Y-87958089D01*
X171735714Y-88179238D01*
X171735718Y-88179249D01*
X171813631Y-88346333D01*
X171832477Y-88386749D01*
X171963802Y-88574300D01*
X172125700Y-88736198D01*
X172313251Y-88867523D01*
X172356345Y-88887618D01*
X172408784Y-88933791D01*
X172427936Y-89000984D01*
X172407720Y-89067865D01*
X172356345Y-89112382D01*
X172313251Y-89132476D01*
X172256549Y-89172180D01*
X172125700Y-89263802D01*
X172125698Y-89263803D01*
X172125695Y-89263806D01*
X171963806Y-89425695D01*
X171963803Y-89425698D01*
X171963802Y-89425700D01*
X171893420Y-89526216D01*
X171832476Y-89613252D01*
X171832475Y-89613254D01*
X171735718Y-89820750D01*
X171735714Y-89820761D01*
X171676457Y-90041910D01*
X171676456Y-90041918D01*
X171656502Y-90269998D01*
X171656502Y-90270001D01*
X171676456Y-90498081D01*
X171676457Y-90498089D01*
X171735714Y-90719238D01*
X171735718Y-90719249D01*
X171796263Y-90849088D01*
X171832477Y-90926749D01*
X171963802Y-91114300D01*
X172125700Y-91276198D01*
X172247324Y-91361360D01*
X172313251Y-91407523D01*
X172356345Y-91427618D01*
X172408784Y-91473791D01*
X172427936Y-91540984D01*
X172407720Y-91607865D01*
X172356345Y-91652382D01*
X172313251Y-91672476D01*
X172188126Y-91760090D01*
X172125700Y-91803802D01*
X172125698Y-91803803D01*
X172125695Y-91803806D01*
X171963806Y-91965695D01*
X171963803Y-91965698D01*
X171963802Y-91965700D01*
X171934575Y-92007441D01*
X171832476Y-92153252D01*
X171832475Y-92153254D01*
X171735718Y-92360750D01*
X171735714Y-92360761D01*
X171676457Y-92581910D01*
X171676456Y-92581918D01*
X171656502Y-92809998D01*
X171656502Y-92810001D01*
X171676456Y-93038081D01*
X171676457Y-93038089D01*
X171735714Y-93259238D01*
X171735718Y-93259249D01*
X171798557Y-93394007D01*
X171832477Y-93466749D01*
X171963802Y-93654300D01*
X172125700Y-93816198D01*
X172297716Y-93936645D01*
X172313251Y-93947523D01*
X172356345Y-93967618D01*
X172408784Y-94013791D01*
X172427936Y-94080984D01*
X172407720Y-94147865D01*
X172356345Y-94192382D01*
X172313251Y-94212476D01*
X172188256Y-94300000D01*
X172125700Y-94343802D01*
X172125698Y-94343803D01*
X172125695Y-94343806D01*
X171963806Y-94505695D01*
X171963803Y-94505698D01*
X171963802Y-94505700D01*
X171903724Y-94591500D01*
X171832476Y-94693252D01*
X171832475Y-94693254D01*
X171735718Y-94900750D01*
X171735714Y-94900761D01*
X171676457Y-95121910D01*
X171676456Y-95121918D01*
X171656502Y-95349998D01*
X171656502Y-95350001D01*
X171676456Y-95578081D01*
X171676457Y-95578089D01*
X171735714Y-95799238D01*
X171735718Y-95799249D01*
X171822776Y-95985946D01*
X171832477Y-96006749D01*
X171963802Y-96194300D01*
X172125700Y-96356198D01*
X172192351Y-96402868D01*
X172235975Y-96457444D01*
X172243167Y-96526942D01*
X172211645Y-96589297D01*
X172158118Y-96622826D01*
X172080602Y-96646981D01*
X171935122Y-96734927D01*
X171814927Y-96855122D01*
X171726980Y-97000604D01*
X171676409Y-97162893D01*
X171670000Y-97233427D01*
X171670000Y-97640000D01*
X172536314Y-97640000D01*
X172510507Y-97680156D01*
X172470000Y-97818111D01*
X172470000Y-97961889D01*
X172510507Y-98099844D01*
X172536314Y-98140000D01*
X171670001Y-98140000D01*
X171670001Y-98546582D01*
X171676408Y-98617102D01*
X171676409Y-98617107D01*
X171726981Y-98779396D01*
X171814927Y-98924877D01*
X171935122Y-99045072D01*
X172080600Y-99133017D01*
X172158117Y-99157172D01*
X172216265Y-99195910D01*
X172244239Y-99259935D01*
X172233158Y-99328920D01*
X172192351Y-99377132D01*
X172125699Y-99423802D01*
X171963806Y-99585695D01*
X171963803Y-99585698D01*
X171963802Y-99585700D01*
X171894467Y-99684720D01*
X171832476Y-99773252D01*
X171832475Y-99773254D01*
X171735718Y-99980750D01*
X171735714Y-99980761D01*
X171676457Y-100201910D01*
X171676456Y-100201918D01*
X171656502Y-100429998D01*
X171656502Y-100430001D01*
X171676456Y-100658081D01*
X171676457Y-100658088D01*
X171678036Y-100663981D01*
X171729954Y-100857740D01*
X171736028Y-100880406D01*
X171734365Y-100950256D01*
X171695203Y-101008119D01*
X171630974Y-101035623D01*
X171616253Y-101036500D01*
X157697500Y-101036500D01*
X157630461Y-101016815D01*
X157584706Y-100964011D01*
X157573500Y-100912500D01*
X157573500Y-97074117D01*
X157573726Y-97066629D01*
X157577210Y-97009037D01*
X157567347Y-96955218D01*
X157566811Y-96952293D01*
X157565684Y-96944886D01*
X157563256Y-96924889D01*
X157558733Y-96887637D01*
X157558469Y-96886942D01*
X157555435Y-96878942D01*
X157549404Y-96857308D01*
X157547728Y-96848160D01*
X157524041Y-96795531D01*
X157521183Y-96788628D01*
X157513189Y-96767549D01*
X157500735Y-96734710D01*
X157500734Y-96734708D01*
X157500733Y-96734706D01*
X157495450Y-96727053D01*
X157484421Y-96707497D01*
X157483849Y-96706226D01*
X157480603Y-96699013D01*
X157462857Y-96676362D01*
X157445023Y-96653599D01*
X157440582Y-96647564D01*
X157437807Y-96643543D01*
X157407825Y-96600106D01*
X157364627Y-96561836D01*
X157359189Y-96556716D01*
X156953282Y-96150809D01*
X156948164Y-96145373D01*
X156922750Y-96116686D01*
X156909893Y-96102173D01*
X156862436Y-96069417D01*
X156856401Y-96064977D01*
X156810987Y-96029397D01*
X156802495Y-96025575D01*
X156782953Y-96014554D01*
X156775290Y-96009265D01*
X156721360Y-95988812D01*
X156714442Y-95985946D01*
X156661842Y-95962273D01*
X156652680Y-95960594D01*
X156631073Y-95954570D01*
X156622362Y-95951266D01*
X156565097Y-95944313D01*
X156557691Y-95943185D01*
X156525974Y-95937372D01*
X156463581Y-95905925D01*
X156428095Y-95845738D01*
X156428553Y-95783310D01*
X156450876Y-95700000D01*
X156483543Y-95578087D01*
X156502294Y-95363767D01*
X156503498Y-95350001D01*
X156503498Y-95349998D01*
X156483543Y-95121918D01*
X156483543Y-95121917D01*
X156483543Y-95121913D01*
X156424284Y-94900757D01*
X156402385Y-94853795D01*
X156381408Y-94808808D01*
X156327523Y-94693251D01*
X156196198Y-94505700D01*
X156034300Y-94343802D01*
X155846749Y-94212477D01*
X155803655Y-94192382D01*
X155751215Y-94146210D01*
X155732063Y-94079017D01*
X155752278Y-94012136D01*
X155803655Y-93967618D01*
X155806882Y-93966112D01*
X155846749Y-93947523D01*
X156034300Y-93816198D01*
X156196198Y-93654300D01*
X156327523Y-93466749D01*
X156424284Y-93259243D01*
X156483543Y-93038087D01*
X156503498Y-92810000D01*
X156483543Y-92581913D01*
X156424284Y-92360757D01*
X156400848Y-92310499D01*
X156345281Y-92191334D01*
X156327523Y-92153251D01*
X156196198Y-91965700D01*
X156034300Y-91803802D01*
X155846749Y-91672477D01*
X155803655Y-91652382D01*
X155751215Y-91606210D01*
X155732063Y-91539017D01*
X155752278Y-91472136D01*
X155803655Y-91427618D01*
X155813672Y-91422947D01*
X155846749Y-91407523D01*
X156034300Y-91276198D01*
X156196198Y-91114300D01*
X156327523Y-90926749D01*
X156424284Y-90719243D01*
X156483543Y-90498087D01*
X156503498Y-90270000D01*
X156483543Y-90041913D01*
X156424284Y-89820757D01*
X156327523Y-89613251D01*
X156196198Y-89425700D01*
X156034300Y-89263802D01*
X155846749Y-89132477D01*
X155834958Y-89126979D01*
X155803655Y-89112382D01*
X155751215Y-89066210D01*
X155732063Y-88999017D01*
X155752278Y-88932136D01*
X155803655Y-88887618D01*
X155806882Y-88886112D01*
X155846749Y-88867523D01*
X156034300Y-88736198D01*
X156196198Y-88574300D01*
X156327523Y-88386749D01*
X156424284Y-88179243D01*
X156483543Y-87958087D01*
X156503498Y-87730000D01*
X156483543Y-87501913D01*
X156424284Y-87280757D01*
X156327523Y-87073251D01*
X156196198Y-86885700D01*
X156034300Y-86723802D01*
X156022511Y-86715547D01*
X155967649Y-86677132D01*
X155924024Y-86622555D01*
X155916832Y-86553057D01*
X155948355Y-86490702D01*
X156001883Y-86457172D01*
X156079399Y-86433017D01*
X156224877Y-86345072D01*
X156345072Y-86224877D01*
X156433019Y-86079395D01*
X156483590Y-85917106D01*
X156490000Y-85846572D01*
X156490000Y-85840000D01*
X157114950Y-85840000D01*
X157134712Y-86065885D01*
X157134714Y-86065895D01*
X157193398Y-86284909D01*
X157193400Y-86284913D01*
X157193401Y-86284917D01*
X157239132Y-86382987D01*
X157289231Y-86490425D01*
X157289233Y-86490429D01*
X157419287Y-86676165D01*
X157419292Y-86676171D01*
X157579628Y-86836507D01*
X157579634Y-86836512D01*
X157765370Y-86966566D01*
X157765372Y-86966567D01*
X157765375Y-86966569D01*
X157970883Y-87062399D01*
X158189910Y-87121087D01*
X158370622Y-87136897D01*
X158415799Y-87140850D01*
X158415800Y-87140850D01*
X158415801Y-87140850D01*
X158453448Y-87137556D01*
X158641690Y-87121087D01*
X158860717Y-87062399D01*
X159066225Y-86966569D01*
X159251970Y-86836509D01*
X159412309Y-86676170D01*
X159542369Y-86490425D01*
X159573418Y-86423839D01*
X159619590Y-86371400D01*
X159686783Y-86352248D01*
X159753665Y-86372463D01*
X159798182Y-86423840D01*
X159829229Y-86490421D01*
X159829233Y-86490429D01*
X159959287Y-86676165D01*
X159959292Y-86676171D01*
X160119628Y-86836507D01*
X160119634Y-86836512D01*
X160305370Y-86966566D01*
X160305372Y-86966567D01*
X160305375Y-86966569D01*
X160510883Y-87062399D01*
X160729910Y-87121087D01*
X160910622Y-87136897D01*
X160955799Y-87140850D01*
X160955800Y-87140850D01*
X160955801Y-87140850D01*
X160993448Y-87137556D01*
X161181690Y-87121087D01*
X161400717Y-87062399D01*
X161606225Y-86966569D01*
X161791970Y-86836509D01*
X161952309Y-86676170D01*
X161977416Y-86640313D01*
X162031990Y-86596689D01*
X162101488Y-86589495D01*
X162163844Y-86621016D01*
X162199258Y-86681246D01*
X162202279Y-86698178D01*
X162206411Y-86736603D01*
X162206411Y-86736604D01*
X162227106Y-86792087D01*
X162257511Y-86873604D01*
X162345139Y-86990661D01*
X162462196Y-87078289D01*
X162599199Y-87129389D01*
X162626450Y-87132318D01*
X162659745Y-87135899D01*
X162659762Y-87135900D01*
X164331838Y-87135900D01*
X164331854Y-87135899D01*
X164358892Y-87132991D01*
X164392401Y-87129389D01*
X164529404Y-87078289D01*
X164646461Y-86990661D01*
X164734089Y-86873604D01*
X164785189Y-86736601D01*
X164790199Y-86690000D01*
X164791699Y-86676054D01*
X164791700Y-86676037D01*
X164791700Y-85003962D01*
X164791699Y-85003945D01*
X164788357Y-84972870D01*
X164785189Y-84943399D01*
X164783921Y-84940000D01*
X164747923Y-84843487D01*
X164734089Y-84806396D01*
X164646461Y-84689339D01*
X164529404Y-84601711D01*
X164392403Y-84550611D01*
X164331854Y-84544100D01*
X164331838Y-84544100D01*
X162659762Y-84544100D01*
X162659745Y-84544100D01*
X162599197Y-84550611D01*
X162599195Y-84550611D01*
X162462195Y-84601711D01*
X162345139Y-84689339D01*
X162257511Y-84806395D01*
X162206411Y-84943395D01*
X162206411Y-84943396D01*
X162202279Y-84981821D01*
X162175539Y-85046371D01*
X162118145Y-85086218D01*
X162048320Y-85088709D01*
X161988232Y-85053055D01*
X161977415Y-85039685D01*
X161952312Y-85003834D01*
X161952307Y-85003828D01*
X161791971Y-84843492D01*
X161791965Y-84843487D01*
X161606229Y-84713433D01*
X161606225Y-84713431D01*
X161555977Y-84690000D01*
X161400717Y-84617601D01*
X161400713Y-84617600D01*
X161400709Y-84617598D01*
X161181695Y-84558914D01*
X161181685Y-84558912D01*
X160955801Y-84539150D01*
X160955799Y-84539150D01*
X160729914Y-84558912D01*
X160729904Y-84558914D01*
X160510890Y-84617598D01*
X160510881Y-84617602D01*
X160305374Y-84713431D01*
X160305370Y-84713433D01*
X160119634Y-84843487D01*
X160119628Y-84843492D01*
X159959292Y-85003828D01*
X159959287Y-85003834D01*
X159829233Y-85189570D01*
X159829231Y-85189574D01*
X159798182Y-85256160D01*
X159752010Y-85308599D01*
X159684816Y-85327751D01*
X159617935Y-85307535D01*
X159573418Y-85256160D01*
X159543562Y-85192134D01*
X159542369Y-85189575D01*
X159542367Y-85189572D01*
X159542366Y-85189570D01*
X159412312Y-85003834D01*
X159412307Y-85003828D01*
X159251971Y-84843492D01*
X159251965Y-84843487D01*
X159066229Y-84713433D01*
X159066225Y-84713431D01*
X159015977Y-84690000D01*
X158860717Y-84617601D01*
X158860713Y-84617600D01*
X158860709Y-84617598D01*
X158641695Y-84558914D01*
X158641685Y-84558912D01*
X158415801Y-84539150D01*
X158415799Y-84539150D01*
X158189914Y-84558912D01*
X158189904Y-84558914D01*
X157970890Y-84617598D01*
X157970881Y-84617602D01*
X157765374Y-84713431D01*
X157765370Y-84713433D01*
X157579634Y-84843487D01*
X157579628Y-84843492D01*
X157419292Y-85003828D01*
X157419287Y-85003834D01*
X157289233Y-85189570D01*
X157289231Y-85189574D01*
X157193402Y-85395081D01*
X157193398Y-85395090D01*
X157134714Y-85614104D01*
X157134712Y-85614114D01*
X157114950Y-85839999D01*
X157114950Y-85840000D01*
X156490000Y-85840000D01*
X156490000Y-85440000D01*
X155623686Y-85440000D01*
X155649493Y-85399844D01*
X155690000Y-85261889D01*
X155690000Y-85118111D01*
X155649493Y-84980156D01*
X155623686Y-84940000D01*
X156489999Y-84940000D01*
X156489999Y-84533417D01*
X156483591Y-84462897D01*
X156483590Y-84462892D01*
X156433018Y-84300603D01*
X156345072Y-84155122D01*
X156224877Y-84034927D01*
X156079396Y-83946981D01*
X156001881Y-83922826D01*
X155943734Y-83884088D01*
X155915760Y-83820063D01*
X155926842Y-83751078D01*
X155967645Y-83702870D01*
X156034300Y-83656198D01*
X156196198Y-83494300D01*
X156327523Y-83306749D01*
X156424284Y-83099243D01*
X156483543Y-82878087D01*
X156503498Y-82650000D01*
X156483543Y-82421913D01*
X156424284Y-82200757D01*
X156327523Y-81993251D01*
X156196198Y-81805700D01*
X156034300Y-81643802D01*
X155846749Y-81512477D01*
X155803655Y-81492382D01*
X155751215Y-81446210D01*
X155732063Y-81379017D01*
X155752278Y-81312136D01*
X155803655Y-81267618D01*
X155806882Y-81266112D01*
X155846749Y-81247523D01*
X156034300Y-81116198D01*
X156196198Y-80954300D01*
X156327523Y-80766749D01*
X156424284Y-80559243D01*
X156483543Y-80338087D01*
X156503498Y-80110000D01*
X156483543Y-79881913D01*
X156424284Y-79660757D01*
X156423218Y-79658472D01*
X156327524Y-79453254D01*
X156327523Y-79453252D01*
X156327523Y-79453251D01*
X156196198Y-79265700D01*
X156034300Y-79103802D01*
X155846749Y-78972477D01*
X155803655Y-78952382D01*
X155751215Y-78906210D01*
X155732063Y-78839017D01*
X155752278Y-78772136D01*
X155803655Y-78727618D01*
X155806882Y-78726112D01*
X155846749Y-78707523D01*
X156034300Y-78576198D01*
X156196198Y-78414300D01*
X156327523Y-78226749D01*
X156424284Y-78019243D01*
X156483543Y-77798087D01*
X156503498Y-77570000D01*
X156501466Y-77546779D01*
X156493161Y-77451851D01*
X156483543Y-77341913D01*
X156424284Y-77120757D01*
X156422972Y-77117944D01*
X156375232Y-77015565D01*
X156327523Y-76913251D01*
X156196198Y-76725700D01*
X156034300Y-76563802D01*
X155846749Y-76432477D01*
X155840716Y-76429664D01*
X155803655Y-76412382D01*
X155751215Y-76366210D01*
X155732063Y-76299017D01*
X155752278Y-76232136D01*
X155803655Y-76187618D01*
X155806882Y-76186112D01*
X155846749Y-76167523D01*
X156034300Y-76036198D01*
X156196198Y-75874300D01*
X156327523Y-75686749D01*
X156424284Y-75479243D01*
X156483543Y-75258087D01*
X156503498Y-75030000D01*
X156483543Y-74801913D01*
X156424284Y-74580757D01*
X156419275Y-74570016D01*
X156360392Y-74443740D01*
X156327523Y-74373251D01*
X156196198Y-74185700D01*
X156034300Y-74023802D01*
X155990625Y-73993220D01*
X155967649Y-73977132D01*
X155924024Y-73922555D01*
X155916832Y-73853057D01*
X155948355Y-73790702D01*
X156001883Y-73757172D01*
X156079399Y-73733017D01*
X156224877Y-73645072D01*
X156345072Y-73524877D01*
X156433019Y-73379395D01*
X156483590Y-73217106D01*
X156490000Y-73146572D01*
X156490000Y-72740000D01*
X155623686Y-72740000D01*
X155649493Y-72699844D01*
X155690000Y-72561889D01*
X155690000Y-72418111D01*
X155649493Y-72280156D01*
X155623686Y-72240000D01*
X156489999Y-72240000D01*
X156489999Y-71833417D01*
X156483591Y-71762897D01*
X156483590Y-71762892D01*
X156433018Y-71600603D01*
X156345072Y-71455122D01*
X156224877Y-71334927D01*
X156079396Y-71246981D01*
X156001881Y-71222826D01*
X155943734Y-71184088D01*
X155915760Y-71120063D01*
X155926842Y-71051078D01*
X155967645Y-71002870D01*
X156034300Y-70956198D01*
X156196198Y-70794300D01*
X156327523Y-70606749D01*
X156424284Y-70399243D01*
X156483543Y-70178087D01*
X156503498Y-69950000D01*
X156502382Y-69937249D01*
X156491487Y-69812714D01*
X156483543Y-69721913D01*
X156424284Y-69500757D01*
X156327523Y-69293251D01*
X156196198Y-69105700D01*
X156034300Y-68943802D01*
X155846749Y-68812477D01*
X155803655Y-68792382D01*
X155751215Y-68746210D01*
X155732063Y-68679017D01*
X155752278Y-68612136D01*
X155803655Y-68567618D01*
X155806882Y-68566112D01*
X155846749Y-68547523D01*
X156034300Y-68416198D01*
X156196198Y-68254300D01*
X156327523Y-68066749D01*
X156424284Y-67859243D01*
X156483543Y-67638087D01*
X156503498Y-67410000D01*
X156483543Y-67181913D01*
X156424284Y-66960757D01*
X156327523Y-66753251D01*
X156196198Y-66565700D01*
X156034300Y-66403802D01*
X155967107Y-66356753D01*
X157077137Y-66356753D01*
X157078378Y-66359530D01*
X157079500Y-66376170D01*
X157079500Y-73998891D01*
X157080000Y-74007795D01*
X157080000Y-74440000D01*
X157512206Y-74440000D01*
X157521105Y-74440500D01*
X157523607Y-74440500D01*
X170638895Y-74440500D01*
X170647794Y-74440000D01*
X171080000Y-74440000D01*
X171080000Y-74007795D01*
X171080500Y-73998891D01*
X171080500Y-73940000D01*
X171080787Y-73721500D01*
X171090431Y-66381763D01*
X171090500Y-66381532D01*
X171090500Y-66381336D01*
X171090570Y-66381095D01*
X171090507Y-66324166D01*
X171090461Y-66282060D01*
X171084802Y-66261126D01*
X171084296Y-66259252D01*
X171080000Y-66226895D01*
X171080000Y-66040000D01*
X170982710Y-66040000D01*
X170921658Y-66023929D01*
X170865447Y-65992132D01*
X170772567Y-65968336D01*
X170726012Y-65968900D01*
X170725376Y-65968908D01*
X170723878Y-65968917D01*
X157461645Y-65968917D01*
X157461645Y-65968907D01*
X157461228Y-65968946D01*
X157424929Y-65968867D01*
X157424564Y-65968867D01*
X157424563Y-65968867D01*
X157424562Y-65968867D01*
X157329215Y-65992916D01*
X157329214Y-65992917D01*
X157269379Y-66025160D01*
X157210557Y-66040000D01*
X157080000Y-66040000D01*
X157080000Y-66315869D01*
X157079500Y-66321348D01*
X157079500Y-66324518D01*
X157079020Y-66335417D01*
X157077137Y-66356753D01*
X155967107Y-66356753D01*
X155846749Y-66272477D01*
X155846745Y-66272475D01*
X155639249Y-66175718D01*
X155639238Y-66175714D01*
X155418089Y-66116457D01*
X155418081Y-66116456D01*
X155190002Y-66096502D01*
X155189999Y-66096502D01*
X155164804Y-66098706D01*
X155138266Y-66101028D01*
X155127461Y-66101500D01*
X153532869Y-66101500D01*
X153361918Y-66116456D01*
X153361910Y-66116457D01*
X153140761Y-66175714D01*
X153140750Y-66175718D01*
X152933254Y-66272475D01*
X152933252Y-66272476D01*
X152919565Y-66282060D01*
X152745700Y-66403802D01*
X152745698Y-66403803D01*
X152745695Y-66403806D01*
X152583806Y-66565695D01*
X152583803Y-66565698D01*
X152583802Y-66565700D01*
X152549657Y-66614464D01*
X152452476Y-66753252D01*
X152452475Y-66753254D01*
X152355718Y-66960750D01*
X152355714Y-66960761D01*
X152296457Y-67181910D01*
X152296456Y-67181918D01*
X152276502Y-67409998D01*
X152276502Y-67410001D01*
X152296456Y-67638081D01*
X152296457Y-67638089D01*
X152355714Y-67859238D01*
X152355718Y-67859249D01*
X152446059Y-68052985D01*
X152452477Y-68066749D01*
X152583802Y-68254300D01*
X152745700Y-68416198D01*
X152883546Y-68512719D01*
X152933251Y-68547523D01*
X152976345Y-68567618D01*
X153028784Y-68613791D01*
X153047936Y-68680984D01*
X153027720Y-68747865D01*
X152976345Y-68792382D01*
X152933251Y-68812476D01*
X152808126Y-68900090D01*
X152745700Y-68943802D01*
X152745698Y-68943803D01*
X152745695Y-68943806D01*
X152583806Y-69105695D01*
X152583803Y-69105698D01*
X152583802Y-69105700D01*
X152533584Y-69177419D01*
X152452476Y-69293252D01*
X152452475Y-69293254D01*
X152355718Y-69500750D01*
X152355714Y-69500761D01*
X152296457Y-69721910D01*
X152296456Y-69721918D01*
X152276502Y-69949998D01*
X152276502Y-69950001D01*
X152296456Y-70178081D01*
X152296457Y-70178089D01*
X152355714Y-70399238D01*
X152355718Y-70399249D01*
X152433039Y-70565064D01*
X152452477Y-70606749D01*
X152583802Y-70794300D01*
X152745700Y-70956198D01*
X152812351Y-71002868D01*
X152855975Y-71057444D01*
X152863167Y-71126942D01*
X152831645Y-71189297D01*
X152778118Y-71222826D01*
X152700602Y-71246981D01*
X152555122Y-71334927D01*
X152434927Y-71455122D01*
X152346980Y-71600604D01*
X152296409Y-71762893D01*
X152290000Y-71833427D01*
X152290000Y-72240000D01*
X154756314Y-72240000D01*
X154730507Y-72280156D01*
X154690000Y-72418111D01*
X154690000Y-72561889D01*
X154730507Y-72699844D01*
X154756314Y-72740000D01*
X152290001Y-72740000D01*
X152290001Y-73146582D01*
X152296408Y-73217102D01*
X152296409Y-73217107D01*
X152346981Y-73379396D01*
X152434927Y-73524877D01*
X152555122Y-73645072D01*
X152700600Y-73733017D01*
X152778117Y-73757172D01*
X152836265Y-73795910D01*
X152864239Y-73859935D01*
X152853158Y-73928920D01*
X152812351Y-73977132D01*
X152745699Y-74023802D01*
X152583806Y-74185695D01*
X152583803Y-74185698D01*
X152583802Y-74185700D01*
X152557993Y-74222559D01*
X152452476Y-74373252D01*
X152452475Y-74373254D01*
X152355718Y-74580750D01*
X152355714Y-74580761D01*
X152296457Y-74801910D01*
X152296456Y-74801918D01*
X152276502Y-75029998D01*
X152276502Y-75030001D01*
X152296456Y-75258081D01*
X152296457Y-75258089D01*
X152355714Y-75479238D01*
X152355718Y-75479249D01*
X152396669Y-75567068D01*
X152452477Y-75686749D01*
X152583802Y-75874300D01*
X152745700Y-76036198D01*
X152920999Y-76158944D01*
X152933251Y-76167523D01*
X152976345Y-76187618D01*
X153028784Y-76233791D01*
X153047936Y-76300984D01*
X153027720Y-76367865D01*
X152976345Y-76412382D01*
X152933251Y-76432476D01*
X152841527Y-76496703D01*
X152745700Y-76563802D01*
X152745698Y-76563803D01*
X152745695Y-76563806D01*
X152583802Y-76725699D01*
X152501230Y-76843624D01*
X152446653Y-76887249D01*
X152399656Y-76896500D01*
X149694117Y-76896500D01*
X149686631Y-76896274D01*
X149666734Y-76895070D01*
X149629039Y-76892790D01*
X149629033Y-76892790D01*
X149572301Y-76903186D01*
X149564900Y-76904313D01*
X149507637Y-76911266D01*
X149507634Y-76911267D01*
X149498932Y-76914568D01*
X149477317Y-76920593D01*
X149468162Y-76922270D01*
X149468161Y-76922271D01*
X149415549Y-76945948D01*
X149408636Y-76948812D01*
X149354710Y-76969265D01*
X149354705Y-76969267D01*
X149347036Y-76974560D01*
X149327512Y-76985571D01*
X149319019Y-76989394D01*
X149319009Y-76989400D01*
X149273610Y-77024967D01*
X149267581Y-77029403D01*
X149220112Y-77062169D01*
X149220100Y-77062180D01*
X149181851Y-77105354D01*
X149176718Y-77110807D01*
X146549844Y-79737681D01*
X146488521Y-79771166D01*
X146462163Y-79774000D01*
X146167727Y-79774000D01*
X146096354Y-79780485D01*
X146096344Y-79780488D01*
X145932090Y-79831671D01*
X145784841Y-79920686D01*
X145784840Y-79920687D01*
X145757847Y-79947681D01*
X145696524Y-79981166D01*
X145670166Y-79984000D01*
X144833965Y-79984000D01*
X144766926Y-79964315D01*
X144721171Y-79911511D01*
X144710745Y-79846117D01*
X144728616Y-79687503D01*
X144728616Y-79687497D01*
X144707786Y-79502625D01*
X144719840Y-79433803D01*
X144732631Y-79413254D01*
X144785633Y-79344181D01*
X144827625Y-79289456D01*
X144884053Y-79248255D01*
X144953799Y-79244100D01*
X145014719Y-79278313D01*
X145047471Y-79340030D01*
X145050000Y-79364944D01*
X145050000Y-79569510D01*
X145050001Y-79569511D01*
X145106627Y-79562057D01*
X145106633Y-79562055D01*
X145252585Y-79501600D01*
X145377924Y-79405424D01*
X145474100Y-79280086D01*
X145534554Y-79134134D01*
X145534555Y-79134130D01*
X145549999Y-79016830D01*
X145550000Y-79016816D01*
X145550000Y-78540000D01*
X145032500Y-78540000D01*
X144965461Y-78520315D01*
X144919706Y-78467511D01*
X144908500Y-78416001D01*
X144908499Y-78264001D01*
X144928183Y-78196961D01*
X144980987Y-78151206D01*
X145032499Y-78140000D01*
X145549999Y-78140000D01*
X145549999Y-77663175D01*
X145534557Y-77545871D01*
X145534555Y-77545866D01*
X145474100Y-77399914D01*
X145377924Y-77274575D01*
X145252586Y-77178399D01*
X145106631Y-77117944D01*
X145049999Y-77110487D01*
X145044661Y-77115169D01*
X144981279Y-77144570D01*
X144912062Y-77135037D01*
X144858988Y-77089596D01*
X144849829Y-77072831D01*
X144847727Y-77068160D01*
X144824048Y-77015549D01*
X144821201Y-77008677D01*
X144800735Y-76954710D01*
X144795449Y-76947052D01*
X144784420Y-76927497D01*
X144780602Y-76919013D01*
X144780249Y-76918563D01*
X144745028Y-76873606D01*
X144740589Y-76867573D01*
X144728190Y-76849610D01*
X144707825Y-76820106D01*
X144664627Y-76781836D01*
X144659189Y-76776716D01*
X144453282Y-76570809D01*
X144448164Y-76565373D01*
X144425579Y-76539880D01*
X144409893Y-76522173D01*
X144362436Y-76489417D01*
X144356401Y-76484977D01*
X144310987Y-76449397D01*
X144302495Y-76445575D01*
X144282953Y-76434554D01*
X144275290Y-76429265D01*
X144221360Y-76408812D01*
X144214442Y-76405946D01*
X144161842Y-76382273D01*
X144152680Y-76380594D01*
X144131073Y-76374570D01*
X144122362Y-76371266D01*
X144065097Y-76364313D01*
X144057694Y-76363186D01*
X144000964Y-76352790D01*
X144000960Y-76352790D01*
X143943371Y-76356274D01*
X143935883Y-76356500D01*
X142397500Y-76356500D01*
X142330461Y-76336815D01*
X142284706Y-76284011D01*
X142273500Y-76232500D01*
X142273500Y-73944104D01*
X142273726Y-73936617D01*
X142277209Y-73879036D01*
X142266813Y-73822307D01*
X142265686Y-73814901D01*
X142258733Y-73757637D01*
X142258557Y-73757172D01*
X142255431Y-73748930D01*
X142249404Y-73727314D01*
X142247727Y-73718160D01*
X142224038Y-73665526D01*
X142221201Y-73658677D01*
X142200735Y-73604710D01*
X142195449Y-73597052D01*
X142184420Y-73577497D01*
X142180602Y-73569013D01*
X142166436Y-73550932D01*
X142145028Y-73523606D01*
X142140589Y-73517573D01*
X142107826Y-73470108D01*
X142107825Y-73470106D01*
X142064627Y-73431836D01*
X142059189Y-73426716D01*
X140537649Y-71905176D01*
X140504164Y-71843853D01*
X140501802Y-71806688D01*
X140518135Y-71620001D01*
X140518135Y-71619998D01*
X140499629Y-71408478D01*
X140499629Y-71408473D01*
X140499626Y-71408463D01*
X140498688Y-71403139D01*
X140500105Y-71402889D01*
X140501604Y-71339802D01*
X140540764Y-71281938D01*
X140604991Y-71254431D01*
X140673894Y-71266014D01*
X140707399Y-71289872D01*
X141496716Y-72079189D01*
X141501836Y-72084627D01*
X141540106Y-72127825D01*
X141577789Y-72153836D01*
X141587573Y-72160589D01*
X141593606Y-72165028D01*
X141639013Y-72200602D01*
X141647497Y-72204420D01*
X141667052Y-72215449D01*
X141674710Y-72220735D01*
X141728677Y-72241201D01*
X141735526Y-72244038D01*
X141788160Y-72267727D01*
X141797314Y-72269404D01*
X141818930Y-72275431D01*
X141827637Y-72278733D01*
X141884901Y-72285686D01*
X141892308Y-72286813D01*
X141949036Y-72297209D01*
X141949037Y-72297208D01*
X141949038Y-72297209D01*
X142006619Y-72293726D01*
X142014106Y-72293500D01*
X144745630Y-72293500D01*
X144812669Y-72313185D01*
X144847205Y-72346377D01*
X144886852Y-72403000D01*
X144886853Y-72403001D01*
X144886854Y-72403002D01*
X145036998Y-72553146D01*
X145037001Y-72553148D01*
X145037002Y-72553149D01*
X145210927Y-72674933D01*
X145210929Y-72674934D01*
X145210932Y-72674936D01*
X145264348Y-72699844D01*
X145403366Y-72764669D01*
X145403368Y-72764670D01*
X145403373Y-72764672D01*
X145403376Y-72764672D01*
X145403382Y-72764675D01*
X145440212Y-72774543D01*
X145499873Y-72810907D01*
X145530403Y-72873753D01*
X145522109Y-72943129D01*
X145477624Y-72997008D01*
X145452915Y-73009944D01*
X145280592Y-73076703D01*
X145280580Y-73076708D01*
X145163040Y-73149486D01*
X145163039Y-73149487D01*
X145731768Y-73718215D01*
X145685862Y-73725135D01*
X145563643Y-73783993D01*
X145464202Y-73876260D01*
X145396375Y-73993740D01*
X145378500Y-74072052D01*
X144807569Y-73501121D01*
X144791100Y-73522931D01*
X144691558Y-73722835D01*
X144630442Y-73937633D01*
X144609838Y-74159999D01*
X144609838Y-74160000D01*
X144630442Y-74382366D01*
X144691558Y-74597164D01*
X144791102Y-74797071D01*
X144807568Y-74818877D01*
X145375550Y-74250896D01*
X145376327Y-74261265D01*
X145425887Y-74387541D01*
X145510465Y-74493599D01*
X145622547Y-74570016D01*
X145730299Y-74603253D01*
X145163039Y-75170511D01*
X145280583Y-75243292D01*
X145280584Y-75243293D01*
X145488820Y-75323963D01*
X145708342Y-75365000D01*
X145931658Y-75365000D01*
X146151179Y-75323963D01*
X146359415Y-75243293D01*
X146359419Y-75243291D01*
X146476958Y-75170512D01*
X146476958Y-75170511D01*
X145908232Y-74601784D01*
X145954138Y-74594865D01*
X146076357Y-74536007D01*
X146175798Y-74443740D01*
X146243625Y-74326260D01*
X146261499Y-74247946D01*
X146832430Y-74818877D01*
X146848898Y-74797070D01*
X146848903Y-74797062D01*
X146948440Y-74597164D01*
X147009557Y-74382366D01*
X147030162Y-74160000D01*
X147030162Y-74159999D01*
X147009557Y-73937633D01*
X146948441Y-73722835D01*
X146848903Y-73522938D01*
X146848898Y-73522931D01*
X146832429Y-73501121D01*
X146264449Y-74069101D01*
X146263673Y-74058735D01*
X146214113Y-73932459D01*
X146129535Y-73826401D01*
X146017453Y-73749984D01*
X145909700Y-73716747D01*
X146476959Y-73149487D01*
X146359416Y-73076707D01*
X146359406Y-73076702D01*
X146187085Y-73009944D01*
X146131683Y-72967372D01*
X146108093Y-72901605D01*
X146123804Y-72833524D01*
X146173828Y-72784746D01*
X146199788Y-72774543D01*
X146236614Y-72764676D01*
X146236619Y-72764674D01*
X146236627Y-72764672D01*
X146429068Y-72674936D01*
X146603002Y-72553146D01*
X146753146Y-72403002D01*
X146874936Y-72229068D01*
X146964672Y-72036627D01*
X147019629Y-71831527D01*
X147038135Y-71620000D01*
X147019629Y-71408473D01*
X146964672Y-71203373D01*
X146874936Y-71010933D01*
X146753146Y-70836998D01*
X146603002Y-70686854D01*
X146602998Y-70686851D01*
X146602997Y-70686850D01*
X146429072Y-70565066D01*
X146429064Y-70565062D01*
X146236633Y-70475330D01*
X146236622Y-70475326D01*
X146031528Y-70420371D01*
X146031521Y-70420370D01*
X145820002Y-70401865D01*
X145819998Y-70401865D01*
X145608478Y-70420370D01*
X145608471Y-70420371D01*
X145403369Y-70475329D01*
X145210934Y-70565063D01*
X145210932Y-70565064D01*
X145036995Y-70686855D01*
X144886855Y-70836995D01*
X144847205Y-70893623D01*
X144792629Y-70937248D01*
X144745630Y-70946500D01*
X142320335Y-70946500D01*
X142253296Y-70926815D01*
X142232654Y-70910181D01*
X141707624Y-70385150D01*
X141674139Y-70323827D01*
X141679123Y-70254135D01*
X141720995Y-70198202D01*
X141786459Y-70173785D01*
X141835164Y-70180050D01*
X141976400Y-70227994D01*
X141976415Y-70227998D01*
X142265675Y-70285535D01*
X142265687Y-70285537D01*
X142560000Y-70304827D01*
X142854312Y-70285537D01*
X142854324Y-70285535D01*
X143143584Y-70227998D01*
X143143599Y-70227994D01*
X143422888Y-70133187D01*
X143687406Y-70002741D01*
X143687419Y-70002734D01*
X143932648Y-69838877D01*
X143966039Y-69809593D01*
X143250125Y-69093678D01*
X143385747Y-68995144D01*
X143541239Y-68832512D01*
X143602801Y-68739248D01*
X144319593Y-69456039D01*
X144348877Y-69422648D01*
X144512734Y-69177419D01*
X144512741Y-69177406D01*
X144643187Y-68912888D01*
X144664535Y-68850000D01*
X146605172Y-68850000D01*
X146624462Y-69144312D01*
X146624464Y-69144324D01*
X146682001Y-69433584D01*
X146682005Y-69433599D01*
X146776812Y-69712888D01*
X146907258Y-69977406D01*
X146907265Y-69977419D01*
X147071123Y-70222649D01*
X147100405Y-70256040D01*
X147813664Y-69542780D01*
X147952855Y-69717320D01*
X148122299Y-69865358D01*
X148169808Y-69893743D01*
X147453958Y-70609593D01*
X147487350Y-70638876D01*
X147732580Y-70802734D01*
X147732593Y-70802741D01*
X147997111Y-70933187D01*
X148276400Y-71027994D01*
X148276415Y-71027998D01*
X148565675Y-71085535D01*
X148565687Y-71085537D01*
X148860000Y-71104827D01*
X149154312Y-71085537D01*
X149154324Y-71085535D01*
X149443584Y-71027998D01*
X149443599Y-71027994D01*
X149722888Y-70933187D01*
X149987406Y-70802741D01*
X149987419Y-70802734D01*
X150232648Y-70638877D01*
X150266039Y-70609593D01*
X149550125Y-69893678D01*
X149685747Y-69795144D01*
X149841239Y-69632512D01*
X149902801Y-69539248D01*
X150619593Y-70256039D01*
X150648877Y-70222648D01*
X150812734Y-69977419D01*
X150812741Y-69977406D01*
X150943187Y-69712888D01*
X151037994Y-69433599D01*
X151037998Y-69433584D01*
X151095535Y-69144324D01*
X151095537Y-69144312D01*
X151114827Y-68850000D01*
X151095537Y-68555687D01*
X151095535Y-68555675D01*
X151037998Y-68266415D01*
X151037994Y-68266400D01*
X150943187Y-67987111D01*
X150812741Y-67722593D01*
X150812734Y-67722580D01*
X150648876Y-67477350D01*
X150619593Y-67443958D01*
X149906333Y-68157217D01*
X149767145Y-67982680D01*
X149597701Y-67834642D01*
X149550190Y-67806255D01*
X150266040Y-67090405D01*
X150232649Y-67061123D01*
X149987419Y-66897265D01*
X149987406Y-66897258D01*
X149722888Y-66766812D01*
X149443599Y-66672005D01*
X149443584Y-66672001D01*
X149154324Y-66614464D01*
X149154312Y-66614462D01*
X148860000Y-66595172D01*
X148565687Y-66614462D01*
X148565675Y-66614464D01*
X148276415Y-66672001D01*
X148276400Y-66672005D01*
X147997111Y-66766812D01*
X147732593Y-66897258D01*
X147732580Y-66897265D01*
X147487346Y-67061126D01*
X147487339Y-67061131D01*
X147453959Y-67090403D01*
X147453959Y-67090405D01*
X148169874Y-67806320D01*
X148034253Y-67904856D01*
X147878761Y-68067488D01*
X147817197Y-68160751D01*
X147100405Y-67443959D01*
X147100403Y-67443959D01*
X147071131Y-67477339D01*
X147071126Y-67477346D01*
X146907265Y-67722580D01*
X146907258Y-67722593D01*
X146776812Y-67987111D01*
X146682005Y-68266400D01*
X146682001Y-68266415D01*
X146624464Y-68555675D01*
X146624462Y-68555687D01*
X146605172Y-68850000D01*
X144664535Y-68850000D01*
X144737994Y-68633599D01*
X144737998Y-68633584D01*
X144795535Y-68344324D01*
X144795537Y-68344312D01*
X144814827Y-68050000D01*
X144795537Y-67755687D01*
X144795535Y-67755675D01*
X144737998Y-67466415D01*
X144737994Y-67466400D01*
X144643187Y-67187111D01*
X144512741Y-66922593D01*
X144512734Y-66922580D01*
X144348876Y-66677350D01*
X144319593Y-66643958D01*
X143606333Y-67357217D01*
X143467145Y-67182680D01*
X143297701Y-67034642D01*
X143250190Y-67006255D01*
X143966040Y-66290405D01*
X143932649Y-66261123D01*
X143687419Y-66097265D01*
X143687406Y-66097258D01*
X143422888Y-65966812D01*
X143143599Y-65872005D01*
X143143584Y-65872001D01*
X142854324Y-65814464D01*
X142854312Y-65814462D01*
X142560000Y-65795172D01*
X142265687Y-65814462D01*
X142265675Y-65814464D01*
X141976415Y-65872001D01*
X141976400Y-65872005D01*
X141697111Y-65966812D01*
X141432593Y-66097258D01*
X141432580Y-66097265D01*
X141187346Y-66261126D01*
X141187339Y-66261131D01*
X141153959Y-66290403D01*
X141153959Y-66290405D01*
X141869874Y-67006320D01*
X141734253Y-67104856D01*
X141578761Y-67267488D01*
X141517198Y-67360751D01*
X140800405Y-66643959D01*
X140800403Y-66643959D01*
X140771131Y-66677339D01*
X140771126Y-66677346D01*
X140607265Y-66922580D01*
X140607258Y-66922593D01*
X140476812Y-67187111D01*
X140382005Y-67466400D01*
X140382001Y-67466415D01*
X140324464Y-67755675D01*
X140324462Y-67755687D01*
X140305172Y-68050000D01*
X140324462Y-68344312D01*
X140324464Y-68344324D01*
X140382001Y-68633584D01*
X140382005Y-68633599D01*
X140476812Y-68912888D01*
X140607258Y-69177406D01*
X140607263Y-69177415D01*
X140613610Y-69186914D01*
X140634487Y-69253592D01*
X140616002Y-69320972D01*
X140564023Y-69367661D01*
X140495053Y-69378837D01*
X140488157Y-69377773D01*
X140460966Y-69372790D01*
X140460960Y-69372790D01*
X140403371Y-69376274D01*
X140395883Y-69376500D01*
X138754106Y-69376500D01*
X138746619Y-69376274D01*
X138689038Y-69372791D01*
X138689030Y-69372791D01*
X138632313Y-69383184D01*
X138624912Y-69384311D01*
X138613383Y-69385711D01*
X138544459Y-69374251D01*
X138492673Y-69327348D01*
X138474465Y-69259892D01*
X138476818Y-69238423D01*
X138495536Y-69144321D01*
X138495537Y-69144312D01*
X138514827Y-68850000D01*
X138495537Y-68555687D01*
X138495535Y-68555675D01*
X138437998Y-68266415D01*
X138437994Y-68266400D01*
X138343187Y-67987111D01*
X138212741Y-67722593D01*
X138212734Y-67722580D01*
X138048876Y-67477350D01*
X138019593Y-67443958D01*
X137306333Y-68157217D01*
X137167145Y-67982680D01*
X136997701Y-67834642D01*
X136950190Y-67806255D01*
X137666040Y-67090405D01*
X137632649Y-67061123D01*
X137387419Y-66897265D01*
X137387406Y-66897258D01*
X137122888Y-66766812D01*
X136843599Y-66672005D01*
X136843584Y-66672001D01*
X136554324Y-66614464D01*
X136554312Y-66614462D01*
X136260000Y-66595172D01*
X135965687Y-66614462D01*
X135965675Y-66614464D01*
X135676415Y-66672001D01*
X135676400Y-66672005D01*
X135397111Y-66766812D01*
X135132593Y-66897258D01*
X135132580Y-66897265D01*
X134887346Y-67061126D01*
X134887339Y-67061131D01*
X134853959Y-67090403D01*
X134853959Y-67090405D01*
X135569874Y-67806320D01*
X135434253Y-67904856D01*
X135278761Y-68067488D01*
X135217197Y-68160751D01*
X134500405Y-67443959D01*
X134500403Y-67443959D01*
X134471131Y-67477339D01*
X134471126Y-67477346D01*
X134407602Y-67572417D01*
X134353990Y-67617222D01*
X134284665Y-67625929D01*
X134221637Y-67595774D01*
X134184918Y-67536331D01*
X134180500Y-67503526D01*
X134180500Y-63874500D01*
X134200185Y-63807461D01*
X134252989Y-63761706D01*
X134304500Y-63750500D01*
X199005500Y-63750500D01*
X199072539Y-63770185D01*
G37*
%TD.AperFunction*%
%TA.AperFunction,Conductor*%
G36*
X135352855Y-69717320D02*
G01*
X135522299Y-69865358D01*
X135569808Y-69893743D01*
X134853958Y-70609593D01*
X134887350Y-70638876D01*
X135132580Y-70802734D01*
X135132593Y-70802741D01*
X135397111Y-70933187D01*
X135676400Y-71027994D01*
X135676415Y-71027998D01*
X135965675Y-71085535D01*
X135965687Y-71085537D01*
X136260007Y-71104827D01*
X136426396Y-71093922D01*
X136494579Y-71109179D01*
X136543690Y-71158878D01*
X136558135Y-71227238D01*
X136533329Y-71292556D01*
X136522187Y-71305337D01*
X136030807Y-71796718D01*
X136025354Y-71801851D01*
X135982180Y-71840100D01*
X135982174Y-71840107D01*
X135949412Y-71887570D01*
X135944974Y-71893600D01*
X135909400Y-71939007D01*
X135909394Y-71939016D01*
X135905571Y-71947511D01*
X135894557Y-71967042D01*
X135889265Y-71974709D01*
X135868806Y-72028652D01*
X135865942Y-72035565D01*
X135842272Y-72088159D01*
X135840593Y-72097321D01*
X135834572Y-72118918D01*
X135831267Y-72127633D01*
X135831267Y-72127634D01*
X135824313Y-72184901D01*
X135823186Y-72192303D01*
X135812790Y-72249033D01*
X135812790Y-72249038D01*
X135816274Y-72306629D01*
X135816500Y-72314117D01*
X135816500Y-76429664D01*
X135796815Y-76496703D01*
X135780181Y-76517345D01*
X134850807Y-77446718D01*
X134845354Y-77451851D01*
X134802180Y-77490100D01*
X134802174Y-77490107D01*
X134769412Y-77537570D01*
X134764974Y-77543600D01*
X134729400Y-77589007D01*
X134729394Y-77589016D01*
X134725571Y-77597511D01*
X134714557Y-77617042D01*
X134709265Y-77624709D01*
X134688806Y-77678652D01*
X134685942Y-77685565D01*
X134662272Y-77738159D01*
X134660593Y-77747321D01*
X134654572Y-77768918D01*
X134651267Y-77777633D01*
X134651267Y-77777634D01*
X134644313Y-77834901D01*
X134643186Y-77842303D01*
X134632790Y-77899033D01*
X134632790Y-77899038D01*
X134636274Y-77956629D01*
X134636500Y-77964117D01*
X134636500Y-99270882D01*
X134636274Y-99278370D01*
X134634518Y-99307406D01*
X134632790Y-99335963D01*
X134636543Y-99356441D01*
X134643186Y-99392694D01*
X134644313Y-99400097D01*
X134651266Y-99457361D01*
X134651266Y-99457362D01*
X134654570Y-99466073D01*
X134660594Y-99487680D01*
X134662273Y-99496842D01*
X134685946Y-99549442D01*
X134688812Y-99556360D01*
X134709265Y-99610290D01*
X134714554Y-99617953D01*
X134725575Y-99637495D01*
X134729397Y-99645987D01*
X134764977Y-99691401D01*
X134769417Y-99697436D01*
X134802173Y-99744893D01*
X134819880Y-99760579D01*
X134845373Y-99783164D01*
X134850809Y-99788282D01*
X136485181Y-101422654D01*
X136518666Y-101483977D01*
X136521500Y-101510335D01*
X136521500Y-101758756D01*
X136522328Y-101767865D01*
X136527872Y-101828880D01*
X136578154Y-101990242D01*
X136578156Y-101990246D01*
X136665592Y-102134884D01*
X136665595Y-102134888D01*
X136785111Y-102254404D01*
X136796648Y-102261378D01*
X136843837Y-102312905D01*
X136856500Y-102367496D01*
X136856500Y-107485882D01*
X136856274Y-107493370D01*
X136853026Y-107547070D01*
X136852790Y-107550963D01*
X136861915Y-107600757D01*
X136863186Y-107607694D01*
X136864313Y-107615097D01*
X136871266Y-107672361D01*
X136871266Y-107672362D01*
X136874570Y-107681073D01*
X136880594Y-107702680D01*
X136882273Y-107711842D01*
X136905946Y-107764442D01*
X136908812Y-107771360D01*
X136929265Y-107825290D01*
X136934554Y-107832953D01*
X136945575Y-107852495D01*
X136949397Y-107860987D01*
X136984977Y-107906401D01*
X136989417Y-107912436D01*
X137022173Y-107959893D01*
X137038533Y-107974386D01*
X137065373Y-107998164D01*
X137070809Y-108003282D01*
X138062351Y-108994824D01*
X138095836Y-109056147D01*
X138098198Y-109093312D01*
X138081865Y-109279998D01*
X138081865Y-109280001D01*
X138100370Y-109491521D01*
X138100371Y-109491528D01*
X138155326Y-109696622D01*
X138155330Y-109696633D01*
X138245062Y-109889064D01*
X138245066Y-109889072D01*
X138299501Y-109966812D01*
X138366854Y-110063002D01*
X138516998Y-110213146D01*
X138585528Y-110261131D01*
X138690927Y-110334933D01*
X138690929Y-110334934D01*
X138690932Y-110334936D01*
X138806709Y-110388923D01*
X138883366Y-110424669D01*
X138883368Y-110424669D01*
X138883373Y-110424672D01*
X139088473Y-110479629D01*
X139239563Y-110492847D01*
X139299998Y-110498135D01*
X139300000Y-110498135D01*
X139300002Y-110498135D01*
X139352881Y-110493508D01*
X139511527Y-110479629D01*
X139716627Y-110424672D01*
X139909068Y-110334936D01*
X140083002Y-110213146D01*
X140233146Y-110063002D01*
X140354936Y-109889068D01*
X140444672Y-109696627D01*
X140499629Y-109491527D01*
X140518135Y-109280000D01*
X140499629Y-109068473D01*
X140444672Y-108863373D01*
X140354936Y-108670933D01*
X140234718Y-108499243D01*
X140233147Y-108496999D01*
X140233146Y-108496998D01*
X140083002Y-108346854D01*
X140082998Y-108346851D01*
X140082997Y-108346850D01*
X139909072Y-108225066D01*
X139909064Y-108225062D01*
X139716633Y-108135330D01*
X139716621Y-108135326D01*
X139679785Y-108125456D01*
X139620125Y-108089091D01*
X139589596Y-108026244D01*
X139597891Y-107956868D01*
X139642376Y-107902990D01*
X139667085Y-107890054D01*
X139839415Y-107823293D01*
X139839419Y-107823291D01*
X139956958Y-107750512D01*
X139956958Y-107750511D01*
X139388231Y-107181784D01*
X139434138Y-107174865D01*
X139556357Y-107116007D01*
X139655798Y-107023740D01*
X139723625Y-106906260D01*
X139741499Y-106827946D01*
X140312430Y-107398877D01*
X140328898Y-107377070D01*
X140328903Y-107377062D01*
X140428441Y-107177162D01*
X140442916Y-107126291D01*
X140480195Y-107067197D01*
X140543505Y-107037640D01*
X140612744Y-107047002D01*
X140649863Y-107072544D01*
X144728196Y-111150877D01*
X144739977Y-111164509D01*
X144754531Y-111184058D01*
X144792945Y-111216291D01*
X144800908Y-111223589D01*
X144804900Y-111227581D01*
X144829485Y-111247021D01*
X144832279Y-111249297D01*
X144867637Y-111278965D01*
X144890360Y-111298032D01*
X144890362Y-111298033D01*
X144896396Y-111302002D01*
X144896369Y-111302042D01*
X144902921Y-111306216D01*
X144902947Y-111306175D01*
X144909091Y-111309965D01*
X144909094Y-111309967D01*
X144977840Y-111342023D01*
X144981031Y-111343569D01*
X145048811Y-111377609D01*
X145055594Y-111380077D01*
X145055577Y-111380122D01*
X145062925Y-111382676D01*
X145062941Y-111382631D01*
X145069789Y-111384899D01*
X145069794Y-111384902D01*
X145144112Y-111400246D01*
X145147531Y-111401005D01*
X145221344Y-111418500D01*
X145221345Y-111418500D01*
X145221349Y-111418501D01*
X145228517Y-111419339D01*
X145228511Y-111419386D01*
X145236242Y-111420176D01*
X145236247Y-111420129D01*
X145243437Y-111420758D01*
X145243441Y-111420757D01*
X145243442Y-111420758D01*
X145319273Y-111418551D01*
X145322879Y-111418500D01*
X146540438Y-111418500D01*
X146607477Y-111438185D01*
X146653232Y-111490989D01*
X146663176Y-111560147D01*
X146662055Y-111566691D01*
X146624464Y-111755675D01*
X146624462Y-111755687D01*
X146605172Y-112050000D01*
X146624462Y-112344312D01*
X146624464Y-112344324D01*
X146682001Y-112633584D01*
X146682005Y-112633599D01*
X146776812Y-112912888D01*
X146907258Y-113177406D01*
X146907265Y-113177419D01*
X147071122Y-113422649D01*
X147100405Y-113456039D01*
X147100406Y-113456039D01*
X147813664Y-112742780D01*
X147952855Y-112917320D01*
X148122299Y-113065358D01*
X148169808Y-113093743D01*
X147453958Y-113809593D01*
X147487350Y-113838876D01*
X147732580Y-114002734D01*
X147732593Y-114002741D01*
X147997111Y-114133187D01*
X148276400Y-114227994D01*
X148276415Y-114227998D01*
X148565675Y-114285535D01*
X148565687Y-114285537D01*
X148860000Y-114304827D01*
X149154312Y-114285537D01*
X149154324Y-114285535D01*
X149443584Y-114227998D01*
X149443599Y-114227994D01*
X149722888Y-114133187D01*
X149987406Y-114002741D01*
X149987419Y-114002734D01*
X150232648Y-113838877D01*
X150266039Y-113809593D01*
X149550125Y-113093678D01*
X149685747Y-112995144D01*
X149841239Y-112832512D01*
X149902801Y-112739248D01*
X150619593Y-113456039D01*
X150648877Y-113422648D01*
X150812734Y-113177419D01*
X150812741Y-113177406D01*
X150943187Y-112912888D01*
X151037994Y-112633599D01*
X151037998Y-112633584D01*
X151095535Y-112344324D01*
X151095537Y-112344312D01*
X151114827Y-112050000D01*
X151095537Y-111755687D01*
X151095535Y-111755675D01*
X151037998Y-111466415D01*
X151037994Y-111466400D01*
X150943187Y-111187111D01*
X150812741Y-110922593D01*
X150812734Y-110922580D01*
X150648876Y-110677350D01*
X150619593Y-110643958D01*
X149906333Y-111357217D01*
X149767145Y-111182680D01*
X149597701Y-111034642D01*
X149550190Y-111006255D01*
X150266039Y-110290406D01*
X150266039Y-110290405D01*
X150232649Y-110261122D01*
X149987419Y-110097265D01*
X149987406Y-110097258D01*
X149722888Y-109966812D01*
X149443599Y-109872005D01*
X149443584Y-109872001D01*
X149154324Y-109814464D01*
X149154312Y-109814462D01*
X148860000Y-109795172D01*
X148565687Y-109814462D01*
X148565675Y-109814464D01*
X148276415Y-109872001D01*
X148276395Y-109872006D01*
X148092358Y-109934479D01*
X148022549Y-109937389D01*
X147962249Y-109902094D01*
X147930603Y-109839802D01*
X147928500Y-109817060D01*
X147928500Y-108154293D01*
X147929809Y-108136322D01*
X147929955Y-108135326D01*
X147933341Y-108112211D01*
X147933127Y-108109770D01*
X147928972Y-108062273D01*
X147928500Y-108051465D01*
X147928500Y-108045824D01*
X147928500Y-108045820D01*
X147924854Y-108014636D01*
X147924494Y-108011104D01*
X147917888Y-107935577D01*
X147916427Y-107928504D01*
X147916475Y-107928493D01*
X147914794Y-107920909D01*
X147914746Y-107920921D01*
X147913079Y-107913893D01*
X147913079Y-107913887D01*
X147887147Y-107842640D01*
X147885964Y-107839235D01*
X147863472Y-107771360D01*
X147862114Y-107767261D01*
X147862110Y-107767255D01*
X147859060Y-107760712D01*
X147859104Y-107760691D01*
X147855720Y-107753701D01*
X147855676Y-107753724D01*
X147852437Y-107747275D01*
X147852435Y-107747268D01*
X147827961Y-107710057D01*
X147810747Y-107683883D01*
X147808840Y-107680891D01*
X147769030Y-107616349D01*
X147769027Y-107616346D01*
X147764552Y-107610686D01*
X147764590Y-107610655D01*
X147759681Y-107604629D01*
X147759645Y-107604660D01*
X147755002Y-107599127D01*
X147699825Y-107547070D01*
X147697238Y-107544557D01*
X147067319Y-106914638D01*
X147033834Y-106853315D01*
X147031472Y-106816153D01*
X147038135Y-106740000D01*
X147019629Y-106528473D01*
X146964672Y-106323373D01*
X146874936Y-106130933D01*
X146773517Y-105986091D01*
X146753144Y-105956995D01*
X146614819Y-105818670D01*
X146581334Y-105757347D01*
X146578500Y-105730989D01*
X146578500Y-102452499D01*
X146598185Y-102385460D01*
X146650989Y-102339705D01*
X146702500Y-102328499D01*
X147340537Y-102328499D01*
X147340544Y-102328499D01*
X147444426Y-102317887D01*
X147612738Y-102262115D01*
X147622286Y-102256225D01*
X147689676Y-102237784D01*
X147756340Y-102258705D01*
X147801111Y-102312345D01*
X147803326Y-102317795D01*
X147803362Y-102317887D01*
X147804573Y-102321081D01*
X147810594Y-102342680D01*
X147812273Y-102351842D01*
X147835946Y-102404442D01*
X147838812Y-102411360D01*
X147859265Y-102465290D01*
X147864554Y-102472953D01*
X147875575Y-102492495D01*
X147879397Y-102500987D01*
X147914977Y-102546401D01*
X147919417Y-102552436D01*
X147952173Y-102599893D01*
X147969880Y-102615579D01*
X147995373Y-102638164D01*
X148000809Y-102643282D01*
X151326709Y-105969181D01*
X151331829Y-105974619D01*
X151366043Y-106013239D01*
X151370108Y-106017827D01*
X151417577Y-106050592D01*
X151423607Y-106055028D01*
X151469014Y-106090603D01*
X151477508Y-106094425D01*
X151497047Y-106105446D01*
X151504710Y-106110735D01*
X151558635Y-106131186D01*
X151565551Y-106134051D01*
X151618157Y-106157727D01*
X151618158Y-106157727D01*
X151618160Y-106157728D01*
X151627308Y-106159404D01*
X151648942Y-106165435D01*
X151657637Y-106168733D01*
X151698408Y-106173683D01*
X151714886Y-106175684D01*
X151722294Y-106176811D01*
X151779037Y-106187210D01*
X151836631Y-106183725D01*
X151844117Y-106183500D01*
X152399656Y-106183500D01*
X152466695Y-106203185D01*
X152501230Y-106236376D01*
X152564171Y-106326264D01*
X152583802Y-106354300D01*
X152745700Y-106516198D01*
X152933251Y-106647523D01*
X152976345Y-106667618D01*
X153028784Y-106713791D01*
X153047936Y-106780984D01*
X153027720Y-106847865D01*
X152976345Y-106892382D01*
X152933251Y-106912476D01*
X152841044Y-106977041D01*
X152745700Y-107043802D01*
X152745698Y-107043803D01*
X152745695Y-107043806D01*
X152583806Y-107205695D01*
X152583803Y-107205698D01*
X152583802Y-107205700D01*
X152521130Y-107295205D01*
X152452476Y-107393252D01*
X152452475Y-107393254D01*
X152355718Y-107600750D01*
X152355714Y-107600761D01*
X152296457Y-107821910D01*
X152296456Y-107821918D01*
X152276502Y-108049998D01*
X152276502Y-108050001D01*
X152296456Y-108278081D01*
X152296457Y-108278089D01*
X152355714Y-108499238D01*
X152355718Y-108499249D01*
X152358866Y-108505999D01*
X152452477Y-108706749D01*
X152583802Y-108894300D01*
X152745700Y-109056198D01*
X152812351Y-109102868D01*
X152855975Y-109157444D01*
X152863167Y-109226942D01*
X152831645Y-109289297D01*
X152778118Y-109322826D01*
X152700602Y-109346981D01*
X152555122Y-109434927D01*
X152434927Y-109555122D01*
X152346980Y-109700604D01*
X152296409Y-109862893D01*
X152290000Y-109933427D01*
X152290000Y-110340000D01*
X154516000Y-110340000D01*
X154583039Y-110359685D01*
X154628794Y-110412489D01*
X154640000Y-110464000D01*
X154640000Y-110716000D01*
X154620315Y-110783039D01*
X154567511Y-110828794D01*
X154516000Y-110840000D01*
X152290001Y-110840000D01*
X152290001Y-111246582D01*
X152296408Y-111317102D01*
X152296409Y-111317107D01*
X152346981Y-111479396D01*
X152434927Y-111624877D01*
X152555122Y-111745072D01*
X152700600Y-111833017D01*
X152778117Y-111857172D01*
X152836265Y-111895910D01*
X152864239Y-111959935D01*
X152853158Y-112028920D01*
X152812351Y-112077132D01*
X152745699Y-112123802D01*
X152583806Y-112285695D01*
X152583803Y-112285698D01*
X152583802Y-112285700D01*
X152542753Y-112344324D01*
X152452476Y-112473252D01*
X152452475Y-112473254D01*
X152355718Y-112680750D01*
X152355714Y-112680761D01*
X152296457Y-112901910D01*
X152296456Y-112901918D01*
X152276502Y-113129998D01*
X152276502Y-113130001D01*
X152296456Y-113358081D01*
X152296457Y-113358089D01*
X152355714Y-113579238D01*
X152355718Y-113579249D01*
X152446941Y-113774877D01*
X152452477Y-113786749D01*
X152583802Y-113974300D01*
X152745700Y-114136198D01*
X152876804Y-114227998D01*
X152933251Y-114267523D01*
X152976345Y-114287618D01*
X153028784Y-114333791D01*
X153047936Y-114400984D01*
X153027720Y-114467865D01*
X152976345Y-114512382D01*
X152933251Y-114532476D01*
X152823118Y-114609593D01*
X152745700Y-114663802D01*
X152745698Y-114663803D01*
X152745695Y-114663806D01*
X152583806Y-114825695D01*
X152583803Y-114825698D01*
X152583802Y-114825700D01*
X152537959Y-114891171D01*
X152452476Y-115013252D01*
X152452475Y-115013254D01*
X152355718Y-115220750D01*
X152355714Y-115220761D01*
X152296457Y-115441910D01*
X152296456Y-115441918D01*
X152276502Y-115669998D01*
X152276502Y-115670001D01*
X152296456Y-115898081D01*
X152296457Y-115898089D01*
X152355714Y-116119238D01*
X152355718Y-116119249D01*
X152421178Y-116259628D01*
X152452477Y-116326749D01*
X152583802Y-116514300D01*
X152745700Y-116676198D01*
X152933251Y-116807523D01*
X153038240Y-116856480D01*
X153140750Y-116904281D01*
X153140752Y-116904281D01*
X153140757Y-116904284D01*
X153361913Y-116963543D01*
X153532871Y-116978499D01*
X153532872Y-116978500D01*
X153532873Y-116978500D01*
X155127461Y-116978500D01*
X155138266Y-116978971D01*
X155155722Y-116980499D01*
X155172558Y-116981972D01*
X155183907Y-116986411D01*
X155207444Y-116981972D01*
X155254304Y-116977872D01*
X155418087Y-116963543D01*
X155639243Y-116904284D01*
X155846749Y-116807523D01*
X156034300Y-116676198D01*
X156196198Y-116514300D01*
X156327523Y-116326749D01*
X156424284Y-116119243D01*
X156483543Y-115898087D01*
X156503498Y-115670000D01*
X156483543Y-115441913D01*
X156478196Y-115421958D01*
X156479857Y-115352110D01*
X156510287Y-115302184D01*
X157359205Y-114453266D01*
X157364607Y-114448180D01*
X157407825Y-114409894D01*
X157440598Y-114362412D01*
X157445034Y-114356385D01*
X157480600Y-114310989D01*
X157480602Y-114310987D01*
X157484421Y-114302500D01*
X157495448Y-114282947D01*
X157500735Y-114275290D01*
X157518671Y-114227994D01*
X157521190Y-114221353D01*
X157524057Y-114214430D01*
X157547727Y-114161840D01*
X157549403Y-114152689D01*
X157555428Y-114131074D01*
X157558733Y-114122363D01*
X157565686Y-114065098D01*
X157566813Y-114057691D01*
X157577209Y-114000964D01*
X157575596Y-113974304D01*
X157573726Y-113943381D01*
X157573500Y-113935894D01*
X157573500Y-112753558D01*
X160879500Y-112753558D01*
X160894157Y-112883648D01*
X160894159Y-112883658D01*
X160947092Y-113034930D01*
X160951878Y-113048606D01*
X161044853Y-113196576D01*
X161168424Y-113320147D01*
X161316394Y-113413122D01*
X161481343Y-113470841D01*
X161481349Y-113470841D01*
X161481351Y-113470842D01*
X161654996Y-113490407D01*
X161655000Y-113490407D01*
X161655004Y-113490407D01*
X161828648Y-113470842D01*
X161828647Y-113470842D01*
X161828657Y-113470841D01*
X161993606Y-113413122D01*
X162141576Y-113320147D01*
X162265147Y-113196576D01*
X162358122Y-113048606D01*
X162415841Y-112883657D01*
X162430500Y-112753552D01*
X162430500Y-112290000D01*
X162830000Y-112290000D01*
X163830000Y-112290000D01*
X163830000Y-111290000D01*
X164330000Y-111290000D01*
X164330000Y-112290000D01*
X165330000Y-112290000D01*
X165330000Y-112045070D01*
X165329999Y-112045069D01*
X165314877Y-111910858D01*
X165255336Y-111740698D01*
X165159422Y-111588051D01*
X165031948Y-111460577D01*
X164879301Y-111364663D01*
X164709141Y-111305122D01*
X164574930Y-111290000D01*
X164330000Y-111290000D01*
X163830000Y-111290000D01*
X163585070Y-111290000D01*
X163450858Y-111305122D01*
X163280698Y-111364663D01*
X163128051Y-111460577D01*
X163000577Y-111588051D01*
X162904663Y-111740698D01*
X162845122Y-111910858D01*
X162830000Y-112045069D01*
X162830000Y-112290000D01*
X162430500Y-112290000D01*
X162430500Y-112266448D01*
X162415841Y-112136343D01*
X162358122Y-111971394D01*
X162265147Y-111823424D01*
X162141576Y-111699853D01*
X161993606Y-111606878D01*
X161993605Y-111606877D01*
X161993604Y-111606877D01*
X161828658Y-111549159D01*
X161828648Y-111549157D01*
X161655004Y-111529593D01*
X161654996Y-111529593D01*
X161481351Y-111549157D01*
X161481341Y-111549159D01*
X161316395Y-111606877D01*
X161168423Y-111699853D01*
X161044853Y-111823423D01*
X160951877Y-111971395D01*
X160894159Y-112136341D01*
X160894157Y-112136351D01*
X160879500Y-112266441D01*
X160879500Y-112753558D01*
X157573500Y-112753558D01*
X157573500Y-108230000D01*
X165790000Y-108230000D01*
X165790000Y-109830000D01*
X167390000Y-109830000D01*
X167390000Y-108230000D01*
X165790000Y-108230000D01*
X157573500Y-108230000D01*
X157573500Y-105730000D01*
X165790000Y-105730000D01*
X165790000Y-107330000D01*
X167390000Y-107330000D01*
X167390000Y-105730000D01*
X165790000Y-105730000D01*
X157573500Y-105730000D01*
X157573500Y-103230000D01*
X165790000Y-103230000D01*
X165790000Y-104830000D01*
X167390000Y-104830000D01*
X167390000Y-103230000D01*
X165790000Y-103230000D01*
X157573500Y-103230000D01*
X157573500Y-102507500D01*
X157593185Y-102440461D01*
X157645989Y-102394706D01*
X157697500Y-102383500D01*
X171610894Y-102383500D01*
X171677933Y-102403185D01*
X171723688Y-102455989D01*
X171733632Y-102525147D01*
X171730670Y-102539587D01*
X171714511Y-102599894D01*
X171676457Y-102741911D01*
X171676456Y-102741918D01*
X171656502Y-102969998D01*
X171656502Y-102970001D01*
X171676456Y-103198081D01*
X171676457Y-103198089D01*
X171735714Y-103419238D01*
X171735718Y-103419249D01*
X171832475Y-103626745D01*
X171832477Y-103626749D01*
X171963802Y-103814300D01*
X172125700Y-103976198D01*
X172307927Y-104103795D01*
X172313251Y-104107523D01*
X172356345Y-104127618D01*
X172408784Y-104173791D01*
X172427936Y-104240984D01*
X172407720Y-104307865D01*
X172356345Y-104352382D01*
X172313251Y-104372476D01*
X172206077Y-104447521D01*
X172125700Y-104503802D01*
X172125698Y-104503803D01*
X172125695Y-104503806D01*
X171963806Y-104665695D01*
X171963803Y-104665698D01*
X171963802Y-104665700D01*
X171924701Y-104721542D01*
X171832476Y-104853252D01*
X171832475Y-104853254D01*
X171735718Y-105060750D01*
X171735714Y-105060761D01*
X171676457Y-105281910D01*
X171676456Y-105281918D01*
X171656502Y-105509998D01*
X171656502Y-105510001D01*
X171676456Y-105738081D01*
X171676457Y-105738089D01*
X171735714Y-105959238D01*
X171735718Y-105959249D01*
X171831864Y-106165435D01*
X171832477Y-106166749D01*
X171963802Y-106354300D01*
X172125700Y-106516198D01*
X172313251Y-106647523D01*
X172356345Y-106667618D01*
X172408784Y-106713791D01*
X172427936Y-106780984D01*
X172407720Y-106847865D01*
X172356345Y-106892382D01*
X172313251Y-106912476D01*
X172221044Y-106977041D01*
X172125700Y-107043802D01*
X172125698Y-107043803D01*
X172125695Y-107043806D01*
X171963806Y-107205695D01*
X171963803Y-107205698D01*
X171963802Y-107205700D01*
X171901130Y-107295205D01*
X171832476Y-107393252D01*
X171832475Y-107393254D01*
X171735718Y-107600750D01*
X171735714Y-107600761D01*
X171676457Y-107821910D01*
X171676456Y-107821918D01*
X171656502Y-108049998D01*
X171656502Y-108050001D01*
X171676456Y-108278081D01*
X171676457Y-108278089D01*
X171735714Y-108499238D01*
X171735718Y-108499249D01*
X171738866Y-108505999D01*
X171832477Y-108706749D01*
X171963802Y-108894300D01*
X172125700Y-109056198D01*
X172192351Y-109102868D01*
X172235975Y-109157444D01*
X172243167Y-109226942D01*
X172211645Y-109289297D01*
X172158118Y-109322826D01*
X172080602Y-109346981D01*
X171935122Y-109434927D01*
X171814927Y-109555122D01*
X171726980Y-109700604D01*
X171676409Y-109862893D01*
X171670000Y-109933427D01*
X171670000Y-110340000D01*
X172536314Y-110340000D01*
X172510507Y-110380156D01*
X172470000Y-110518111D01*
X172470000Y-110661889D01*
X172510507Y-110799844D01*
X172536314Y-110840000D01*
X171670001Y-110840000D01*
X171670001Y-111142500D01*
X171650316Y-111209539D01*
X171597512Y-111255294D01*
X171546001Y-111266500D01*
X169943631Y-111266500D01*
X169927879Y-111264760D01*
X169927854Y-111265032D01*
X169920092Y-111264298D01*
X169920091Y-111264298D01*
X169896737Y-111265032D01*
X169851969Y-111266439D01*
X169848074Y-111266500D01*
X169820144Y-111266500D01*
X169820141Y-111266500D01*
X169820125Y-111266501D01*
X169816032Y-111267018D01*
X169804404Y-111267933D01*
X169760113Y-111269325D01*
X169760107Y-111269326D01*
X169740500Y-111275022D01*
X169721461Y-111278965D01*
X169701211Y-111281524D01*
X169701205Y-111281525D01*
X169701203Y-111281526D01*
X169690425Y-111285792D01*
X169660006Y-111297836D01*
X169648960Y-111301617D01*
X169606413Y-111313979D01*
X169606407Y-111313981D01*
X169588833Y-111324374D01*
X169571372Y-111332928D01*
X169552386Y-111340446D01*
X169552385Y-111340446D01*
X169516535Y-111366492D01*
X169506776Y-111372902D01*
X169468637Y-111395457D01*
X169454201Y-111409894D01*
X169439415Y-111422523D01*
X169422893Y-111434528D01*
X169422891Y-111434529D01*
X169422891Y-111434530D01*
X169422888Y-111434533D01*
X169394642Y-111468674D01*
X169386783Y-111477311D01*
X167803914Y-113060181D01*
X167742591Y-113093666D01*
X167716233Y-113096500D01*
X167366125Y-113096500D01*
X167299086Y-113076815D01*
X167253331Y-113024011D01*
X167243387Y-112954853D01*
X167249084Y-112931545D01*
X167265841Y-112883657D01*
X167280500Y-112753552D01*
X167280500Y-112266448D01*
X167265841Y-112136343D01*
X167208122Y-111971394D01*
X167115147Y-111823424D01*
X166991576Y-111699853D01*
X166843606Y-111606878D01*
X166843605Y-111606877D01*
X166843604Y-111606877D01*
X166678658Y-111549159D01*
X166678648Y-111549157D01*
X166505004Y-111529593D01*
X166504996Y-111529593D01*
X166331351Y-111549157D01*
X166331341Y-111549159D01*
X166166395Y-111606877D01*
X166018423Y-111699853D01*
X165894853Y-111823423D01*
X165801877Y-111971395D01*
X165744159Y-112136341D01*
X165744157Y-112136351D01*
X165729500Y-112266441D01*
X165729500Y-112753558D01*
X165744157Y-112883648D01*
X165744159Y-112883658D01*
X165760916Y-112931545D01*
X165764478Y-113001324D01*
X165729750Y-113061951D01*
X165667757Y-113094179D01*
X165643875Y-113096500D01*
X165454000Y-113096500D01*
X165386961Y-113076815D01*
X165341206Y-113024011D01*
X165330000Y-112972500D01*
X165330000Y-112790000D01*
X162830000Y-112790000D01*
X162830000Y-113034930D01*
X162845122Y-113169141D01*
X162904663Y-113339301D01*
X163000577Y-113491948D01*
X163128051Y-113619422D01*
X163280698Y-113715336D01*
X163450858Y-113774877D01*
X163585069Y-113789999D01*
X163585070Y-113790000D01*
X163709732Y-113790000D01*
X163776771Y-113809685D01*
X163822526Y-113862489D01*
X163832470Y-113931647D01*
X163803445Y-113995203D01*
X163797413Y-114001681D01*
X163253914Y-114545181D01*
X163192591Y-114578666D01*
X163166233Y-114581500D01*
X162584587Y-114581500D01*
X162448958Y-114596781D01*
X162448953Y-114596782D01*
X162276982Y-114656958D01*
X162158644Y-114731315D01*
X162091407Y-114750315D01*
X162024572Y-114729947D01*
X161987676Y-114692290D01*
X161984815Y-114687737D01*
X161857262Y-114560184D01*
X161704523Y-114464211D01*
X161534254Y-114404631D01*
X161534249Y-114404630D01*
X161355004Y-114384435D01*
X161354996Y-114384435D01*
X161175750Y-114404630D01*
X161175745Y-114404631D01*
X161005476Y-114464211D01*
X160852737Y-114560184D01*
X160725184Y-114687737D01*
X160629211Y-114840476D01*
X160569631Y-115010745D01*
X160569630Y-115010750D01*
X160554500Y-115145039D01*
X160554500Y-115934960D01*
X160569630Y-116069249D01*
X160569631Y-116069254D01*
X160629211Y-116239523D01*
X160725184Y-116392262D01*
X160753181Y-116420259D01*
X160786666Y-116481582D01*
X160789500Y-116507940D01*
X160789500Y-117105500D01*
X160769815Y-117172539D01*
X160717011Y-117218294D01*
X160665500Y-117229500D01*
X155218251Y-117229500D01*
X155194708Y-117222587D01*
X155186182Y-117227069D01*
X155161750Y-117229500D01*
X134304500Y-117229500D01*
X134237461Y-117209815D01*
X134191706Y-117157011D01*
X134180500Y-117105500D01*
X134180500Y-113396474D01*
X134200185Y-113329435D01*
X134252989Y-113283680D01*
X134322147Y-113273736D01*
X134385703Y-113302761D01*
X134407602Y-113327583D01*
X134471123Y-113422649D01*
X134500405Y-113456040D01*
X135213664Y-112742780D01*
X135352855Y-112917320D01*
X135522299Y-113065358D01*
X135569808Y-113093743D01*
X134853958Y-113809593D01*
X134887350Y-113838876D01*
X135132580Y-114002734D01*
X135132593Y-114002741D01*
X135397111Y-114133187D01*
X135676400Y-114227994D01*
X135676415Y-114227998D01*
X135965675Y-114285535D01*
X135965687Y-114285537D01*
X136260000Y-114304827D01*
X136554312Y-114285537D01*
X136554324Y-114285535D01*
X136843584Y-114227998D01*
X136843599Y-114227994D01*
X137122888Y-114133187D01*
X137387406Y-114002741D01*
X137387419Y-114002734D01*
X137632648Y-113838877D01*
X137666039Y-113809593D01*
X136950125Y-113093678D01*
X137085747Y-112995144D01*
X137241239Y-112832512D01*
X137302801Y-112739248D01*
X138019593Y-113456039D01*
X138048877Y-113422648D01*
X138212734Y-113177419D01*
X138212741Y-113177406D01*
X138343187Y-112912888D01*
X138364535Y-112850000D01*
X140305172Y-112850000D01*
X140324462Y-113144312D01*
X140324464Y-113144324D01*
X140382001Y-113433584D01*
X140382005Y-113433599D01*
X140476812Y-113712888D01*
X140607258Y-113977406D01*
X140607265Y-113977419D01*
X140771123Y-114222649D01*
X140800405Y-114256040D01*
X141513664Y-113542780D01*
X141652855Y-113717320D01*
X141822299Y-113865358D01*
X141869808Y-113893743D01*
X141153958Y-114609593D01*
X141187350Y-114638876D01*
X141432580Y-114802734D01*
X141432593Y-114802741D01*
X141697111Y-114933187D01*
X141976400Y-115027994D01*
X141976415Y-115027998D01*
X142265675Y-115085535D01*
X142265687Y-115085537D01*
X142560000Y-115104827D01*
X142854312Y-115085537D01*
X142854324Y-115085535D01*
X143143584Y-115027998D01*
X143143599Y-115027994D01*
X143422888Y-114933187D01*
X143687406Y-114802741D01*
X143687419Y-114802734D01*
X143932648Y-114638877D01*
X143966039Y-114609593D01*
X143250125Y-113893678D01*
X143385747Y-113795144D01*
X143541239Y-113632512D01*
X143602801Y-113539248D01*
X144319593Y-114256039D01*
X144348877Y-114222648D01*
X144512734Y-113977419D01*
X144512741Y-113977406D01*
X144643187Y-113712888D01*
X144737994Y-113433599D01*
X144737998Y-113433584D01*
X144795535Y-113144324D01*
X144795537Y-113144312D01*
X144814827Y-112850000D01*
X144795537Y-112555687D01*
X144795535Y-112555675D01*
X144737998Y-112266415D01*
X144737994Y-112266400D01*
X144643187Y-111987111D01*
X144512741Y-111722593D01*
X144512734Y-111722580D01*
X144348876Y-111477350D01*
X144319593Y-111443958D01*
X143606333Y-112157217D01*
X143467145Y-111982680D01*
X143297701Y-111834642D01*
X143250190Y-111806255D01*
X143966040Y-111090405D01*
X143932649Y-111061123D01*
X143687419Y-110897265D01*
X143687406Y-110897258D01*
X143422888Y-110766812D01*
X143143599Y-110672005D01*
X143143584Y-110672001D01*
X142854324Y-110614464D01*
X142854312Y-110614462D01*
X142560000Y-110595172D01*
X142265687Y-110614462D01*
X142265675Y-110614464D01*
X141976415Y-110672001D01*
X141976400Y-110672005D01*
X141697111Y-110766812D01*
X141432593Y-110897258D01*
X141432580Y-110897265D01*
X141187346Y-111061126D01*
X141187339Y-111061131D01*
X141153959Y-111090403D01*
X141153959Y-111090405D01*
X141869874Y-111806320D01*
X141734253Y-111904856D01*
X141578761Y-112067488D01*
X141517198Y-112160751D01*
X140800405Y-111443959D01*
X140800403Y-111443959D01*
X140771131Y-111477339D01*
X140771126Y-111477346D01*
X140607265Y-111722580D01*
X140607258Y-111722593D01*
X140476812Y-111987111D01*
X140382005Y-112266400D01*
X140382001Y-112266415D01*
X140324464Y-112555675D01*
X140324462Y-112555687D01*
X140305172Y-112850000D01*
X138364535Y-112850000D01*
X138437994Y-112633599D01*
X138437998Y-112633584D01*
X138495535Y-112344324D01*
X138495537Y-112344312D01*
X138514827Y-112050000D01*
X138495537Y-111755687D01*
X138495535Y-111755675D01*
X138437998Y-111466415D01*
X138437994Y-111466400D01*
X138343187Y-111187111D01*
X138212741Y-110922593D01*
X138212734Y-110922580D01*
X138048876Y-110677350D01*
X138019593Y-110643958D01*
X137306333Y-111357217D01*
X137167145Y-111182680D01*
X136997701Y-111034642D01*
X136950190Y-111006255D01*
X137666040Y-110290405D01*
X137632649Y-110261123D01*
X137387419Y-110097265D01*
X137387406Y-110097258D01*
X137122888Y-109966812D01*
X136843599Y-109872005D01*
X136843584Y-109872001D01*
X136554324Y-109814464D01*
X136554312Y-109814462D01*
X136260000Y-109795172D01*
X135965687Y-109814462D01*
X135965675Y-109814464D01*
X135676415Y-109872001D01*
X135676400Y-109872005D01*
X135397111Y-109966812D01*
X135132593Y-110097258D01*
X135132580Y-110097265D01*
X134887346Y-110261126D01*
X134887339Y-110261131D01*
X134853959Y-110290403D01*
X134853959Y-110290405D01*
X135569874Y-111006320D01*
X135434253Y-111104856D01*
X135278761Y-111267488D01*
X135217197Y-111360751D01*
X134500405Y-110643959D01*
X134500403Y-110643959D01*
X134471131Y-110677339D01*
X134471126Y-110677346D01*
X134407602Y-110772417D01*
X134353990Y-110817222D01*
X134284665Y-110825929D01*
X134221637Y-110795774D01*
X134184918Y-110736331D01*
X134180500Y-110703526D01*
X134180500Y-70196474D01*
X134200185Y-70129435D01*
X134252989Y-70083680D01*
X134322147Y-70073736D01*
X134385703Y-70102761D01*
X134407602Y-70127583D01*
X134471123Y-70222649D01*
X134500405Y-70256040D01*
X135213664Y-69542780D01*
X135352855Y-69717320D01*
G37*
%TD.AperFunction*%
%TA.AperFunction,Conductor*%
G36*
X176072694Y-102401961D02*
G01*
X176097262Y-102417115D01*
X176265574Y-102472887D01*
X176369455Y-102483500D01*
X177770544Y-102483499D01*
X177874426Y-102472887D01*
X178042738Y-102417115D01*
X178067305Y-102401961D01*
X178132402Y-102383500D01*
X180392500Y-102383500D01*
X180459539Y-102403185D01*
X180505294Y-102455989D01*
X180516500Y-102507500D01*
X180516500Y-103717500D01*
X180496815Y-103784539D01*
X180444011Y-103830294D01*
X180392500Y-103841500D01*
X180341345Y-103841500D01*
X180280797Y-103848011D01*
X180280795Y-103848011D01*
X180143795Y-103899111D01*
X180026739Y-103986739D01*
X179939111Y-104103795D01*
X179888011Y-104240795D01*
X179888011Y-104240797D01*
X179881500Y-104301345D01*
X179881500Y-105898654D01*
X179888011Y-105959202D01*
X179888011Y-105959204D01*
X179937022Y-106090603D01*
X179939111Y-106096204D01*
X180026739Y-106213261D01*
X180143796Y-106300889D01*
X180280799Y-106351989D01*
X180308050Y-106354918D01*
X180341345Y-106358499D01*
X180341362Y-106358500D01*
X182038638Y-106358500D01*
X182038654Y-106358499D01*
X182065692Y-106355591D01*
X182099201Y-106351989D01*
X182236204Y-106300889D01*
X182353261Y-106213261D01*
X182440889Y-106096204D01*
X182456246Y-106055032D01*
X182480717Y-105989424D01*
X182522588Y-105933490D01*
X182588053Y-105909074D01*
X182656326Y-105923926D01*
X182684579Y-105945077D01*
X182845700Y-106106198D01*
X183003625Y-106216779D01*
X183047249Y-106271354D01*
X183056500Y-106318352D01*
X183056500Y-108126233D01*
X183036815Y-108193272D01*
X183020181Y-108213914D01*
X180003914Y-111230181D01*
X179942591Y-111263666D01*
X179916233Y-111266500D01*
X175994000Y-111266500D01*
X175926961Y-111246815D01*
X175881206Y-111194011D01*
X175870000Y-111142500D01*
X175870000Y-110840000D01*
X173403686Y-110840000D01*
X173429493Y-110799844D01*
X173470000Y-110661889D01*
X173470000Y-110518111D01*
X173429493Y-110380156D01*
X173403686Y-110340000D01*
X175869999Y-110340000D01*
X175869999Y-109933417D01*
X175863591Y-109862897D01*
X175863590Y-109862892D01*
X175813018Y-109700603D01*
X175725072Y-109555122D01*
X175604877Y-109434927D01*
X175459396Y-109346981D01*
X175381881Y-109322826D01*
X175323734Y-109284088D01*
X175295760Y-109220063D01*
X175306842Y-109151078D01*
X175347645Y-109102870D01*
X175414300Y-109056198D01*
X175576198Y-108894300D01*
X175707523Y-108706749D01*
X175804284Y-108499243D01*
X175863543Y-108278087D01*
X175883498Y-108050000D01*
X175883498Y-108049998D01*
X175883498Y-108047708D01*
X175883171Y-108046261D01*
X175872868Y-107928504D01*
X175863543Y-107821913D01*
X175860351Y-107810001D01*
X176114891Y-107810001D01*
X176130383Y-108026608D01*
X176129718Y-108029664D01*
X176131182Y-108037778D01*
X176135300Y-108095362D01*
X176196109Y-108374895D01*
X176296091Y-108642958D01*
X176433191Y-108894038D01*
X176433196Y-108894046D01*
X176539882Y-109036561D01*
X176539883Y-109036562D01*
X177149438Y-108427006D01*
X177198348Y-108505999D01*
X177341931Y-108663501D01*
X177500388Y-108783163D01*
X176893436Y-109390115D01*
X177035960Y-109496807D01*
X177035961Y-109496808D01*
X177287042Y-109633908D01*
X177287041Y-109633908D01*
X177555104Y-109733890D01*
X177834637Y-109794699D01*
X178119999Y-109815109D01*
X178120001Y-109815109D01*
X178405362Y-109794699D01*
X178684895Y-109733890D01*
X178952958Y-109633908D01*
X179204047Y-109496803D01*
X179346561Y-109390116D01*
X179346562Y-109390115D01*
X178739611Y-108783163D01*
X178898069Y-108663501D01*
X179041652Y-108505999D01*
X179090560Y-108427007D01*
X179700115Y-109036562D01*
X179700116Y-109036561D01*
X179806803Y-108894047D01*
X179943908Y-108642958D01*
X180043890Y-108374895D01*
X180104699Y-108095362D01*
X180125109Y-107810001D01*
X180125109Y-107809998D01*
X180104699Y-107524637D01*
X180043890Y-107245104D01*
X179943908Y-106977041D01*
X179806808Y-106725961D01*
X179806807Y-106725960D01*
X179700115Y-106583436D01*
X179090560Y-107192991D01*
X179041652Y-107114001D01*
X178898069Y-106956499D01*
X178739610Y-106836835D01*
X179346562Y-106229883D01*
X179346561Y-106229882D01*
X179204046Y-106123196D01*
X179204038Y-106123191D01*
X178952957Y-105986091D01*
X178952958Y-105986091D01*
X178684895Y-105886109D01*
X178405362Y-105825300D01*
X178120001Y-105804891D01*
X178119999Y-105804891D01*
X177834637Y-105825300D01*
X177555104Y-105886109D01*
X177287041Y-105986091D01*
X177035961Y-106123191D01*
X177035953Y-106123196D01*
X176893437Y-106229882D01*
X176893436Y-106229883D01*
X177500389Y-106836835D01*
X177341931Y-106956499D01*
X177198348Y-107114001D01*
X177149439Y-107192992D01*
X176539883Y-106583436D01*
X176539882Y-106583437D01*
X176433196Y-106725953D01*
X176433191Y-106725961D01*
X176296091Y-106977041D01*
X176196109Y-107245104D01*
X176135300Y-107524637D01*
X176114891Y-107809998D01*
X176114891Y-107810001D01*
X175860351Y-107810001D01*
X175804284Y-107600757D01*
X175803523Y-107599126D01*
X175730848Y-107443272D01*
X175707523Y-107393251D01*
X175576198Y-107205700D01*
X175414300Y-107043802D01*
X175226749Y-106912477D01*
X175208368Y-106903906D01*
X175183655Y-106892382D01*
X175131215Y-106846210D01*
X175112063Y-106779017D01*
X175132278Y-106712136D01*
X175183655Y-106667618D01*
X175186882Y-106666112D01*
X175226749Y-106647523D01*
X175414300Y-106516198D01*
X175576198Y-106354300D01*
X175707523Y-106166749D01*
X175804284Y-105959243D01*
X175863543Y-105738087D01*
X175883498Y-105510000D01*
X175863543Y-105281913D01*
X175804284Y-105060757D01*
X175707523Y-104853251D01*
X175576198Y-104665700D01*
X175414300Y-104503802D01*
X175226749Y-104372477D01*
X175183655Y-104352382D01*
X175131215Y-104306210D01*
X175112063Y-104239017D01*
X175132278Y-104172136D01*
X175183655Y-104127618D01*
X175186882Y-104126112D01*
X175226749Y-104107523D01*
X175414300Y-103976198D01*
X175576198Y-103814300D01*
X175707523Y-103626749D01*
X175804284Y-103419243D01*
X175863543Y-103198087D01*
X175883498Y-102970000D01*
X175863543Y-102741913D01*
X175809331Y-102539592D01*
X175810994Y-102469744D01*
X175850156Y-102411881D01*
X175914385Y-102384377D01*
X175929106Y-102383500D01*
X176007598Y-102383500D01*
X176072694Y-102401961D01*
G37*
%TD.AperFunction*%
%TA.AperFunction,Conductor*%
G36*
X141222320Y-96895140D02*
G01*
X141266669Y-96923641D01*
X141369841Y-97026813D01*
X141369843Y-97026814D01*
X141369845Y-97026816D01*
X141517087Y-97115827D01*
X141681351Y-97167013D01*
X141752735Y-97173500D01*
X141934663Y-97173499D01*
X142001703Y-97193183D01*
X142022345Y-97209818D01*
X142485181Y-97672653D01*
X142518666Y-97733976D01*
X142521500Y-97760334D01*
X142521500Y-98008753D01*
X142527872Y-98078880D01*
X142578154Y-98240242D01*
X142578156Y-98240246D01*
X142665592Y-98384884D01*
X142665595Y-98384888D01*
X142785111Y-98504404D01*
X142785115Y-98504407D01*
X142929753Y-98591843D01*
X142929757Y-98591845D01*
X142986834Y-98609630D01*
X143091121Y-98642128D01*
X143161244Y-98648500D01*
X143586234Y-98648500D01*
X143653273Y-98668185D01*
X143699028Y-98720989D01*
X143708972Y-98790147D01*
X143679947Y-98853703D01*
X143673915Y-98860181D01*
X143141182Y-99392912D01*
X143128820Y-99402816D01*
X143128994Y-99403026D01*
X143122984Y-99407998D01*
X143076337Y-99457670D01*
X143073632Y-99460461D01*
X143053873Y-99480221D01*
X143053858Y-99480238D01*
X143051317Y-99483513D01*
X143043753Y-99492367D01*
X143013420Y-99524671D01*
X143013412Y-99524681D01*
X143003579Y-99542567D01*
X142992903Y-99558820D01*
X142980386Y-99574957D01*
X142980385Y-99574960D01*
X142962785Y-99615629D01*
X142957648Y-99626115D01*
X142936303Y-99664941D01*
X142936303Y-99664942D01*
X142931225Y-99684720D01*
X142924925Y-99703122D01*
X142916818Y-99721857D01*
X142909888Y-99765609D01*
X142907520Y-99777045D01*
X142896500Y-99819965D01*
X142896500Y-99840384D01*
X142894973Y-99859783D01*
X142891780Y-99879941D01*
X142891780Y-99879942D01*
X142895950Y-99924057D01*
X142896500Y-99935726D01*
X142896500Y-100638322D01*
X142876815Y-100705361D01*
X142836650Y-100744439D01*
X142785112Y-100775594D01*
X142665592Y-100895115D01*
X142578156Y-101039753D01*
X142578154Y-101039757D01*
X142527872Y-101201119D01*
X142527872Y-101201121D01*
X142521500Y-101271244D01*
X142521500Y-101758756D01*
X142522328Y-101767865D01*
X142527872Y-101828880D01*
X142578154Y-101990242D01*
X142578156Y-101990246D01*
X142665592Y-102134884D01*
X142665595Y-102134888D01*
X142785111Y-102254404D01*
X142785115Y-102254407D01*
X142929753Y-102341843D01*
X142929757Y-102341845D01*
X142966300Y-102353232D01*
X143091121Y-102392128D01*
X143161244Y-102398500D01*
X143161247Y-102398500D01*
X143898753Y-102398500D01*
X143898756Y-102398500D01*
X143968879Y-102392128D01*
X144130245Y-102341844D01*
X144274889Y-102254404D01*
X144394404Y-102134889D01*
X144463999Y-102019764D01*
X144515524Y-101972579D01*
X144584383Y-101960740D01*
X144648712Y-101988008D01*
X144675652Y-102018818D01*
X144676237Y-102019767D01*
X144690970Y-102043652D01*
X144816348Y-102169030D01*
X144967262Y-102262115D01*
X144967264Y-102262115D01*
X144967265Y-102262116D01*
X144976499Y-102265176D01*
X145033946Y-102304946D01*
X145060771Y-102369461D01*
X145061500Y-102382883D01*
X145061500Y-105730989D01*
X145041815Y-105798028D01*
X145025181Y-105818670D01*
X144886855Y-105956995D01*
X144765064Y-106130932D01*
X144765063Y-106130934D01*
X144675329Y-106323369D01*
X144620371Y-106528471D01*
X144620370Y-106528478D01*
X144601865Y-106739998D01*
X144601865Y-106740002D01*
X144607588Y-106805418D01*
X144593821Y-106873918D01*
X144545206Y-106924101D01*
X144477177Y-106940034D01*
X144411334Y-106916658D01*
X144396379Y-106903906D01*
X140469819Y-102977346D01*
X140436334Y-102916023D01*
X140433500Y-102889665D01*
X140433500Y-97288999D01*
X140453185Y-97221960D01*
X140505989Y-97176205D01*
X140557500Y-97164999D01*
X140616581Y-97164999D01*
X140687102Y-97158591D01*
X140687107Y-97158590D01*
X140849396Y-97108018D01*
X140994877Y-97020072D01*
X140994878Y-97020071D01*
X141091306Y-96923642D01*
X141152629Y-96890156D01*
X141222320Y-96895140D01*
G37*
%TD.AperFunction*%
%TA.AperFunction,Conductor*%
G36*
X138408703Y-104831830D02*
G01*
X138415181Y-104837862D01*
X138967264Y-105389945D01*
X139000749Y-105451268D01*
X138995765Y-105520960D01*
X138953893Y-105576893D01*
X138924377Y-105593253D01*
X138760586Y-105656705D01*
X138760580Y-105656708D01*
X138643040Y-105729486D01*
X138643039Y-105729487D01*
X139211768Y-106298215D01*
X139165862Y-106305135D01*
X139043643Y-106363993D01*
X138944202Y-106456260D01*
X138876375Y-106573740D01*
X138858500Y-106652053D01*
X138269584Y-106063136D01*
X138267836Y-106062752D01*
X138218538Y-106013239D01*
X138203500Y-105954050D01*
X138203500Y-104925543D01*
X138223185Y-104858504D01*
X138275989Y-104812749D01*
X138345147Y-104802805D01*
X138408703Y-104831830D01*
G37*
%TD.AperFunction*%
%TA.AperFunction,Conductor*%
G36*
X152466695Y-78263185D02*
G01*
X152501230Y-78296376D01*
X152583802Y-78414300D01*
X152745700Y-78576198D01*
X152933251Y-78707523D01*
X152976345Y-78727618D01*
X153028784Y-78773791D01*
X153047936Y-78840984D01*
X153027720Y-78907865D01*
X152976345Y-78952382D01*
X152933251Y-78972476D01*
X152808126Y-79060090D01*
X152745700Y-79103802D01*
X152745698Y-79103803D01*
X152745695Y-79103806D01*
X152583806Y-79265695D01*
X152583803Y-79265698D01*
X152583802Y-79265700D01*
X152528849Y-79344181D01*
X152452476Y-79453252D01*
X152452475Y-79453254D01*
X152355718Y-79660750D01*
X152355714Y-79660761D01*
X152296457Y-79881910D01*
X152296456Y-79881918D01*
X152276502Y-80109998D01*
X152276502Y-80110001D01*
X152296456Y-80338081D01*
X152296457Y-80338089D01*
X152355714Y-80559238D01*
X152355718Y-80559249D01*
X152428711Y-80715782D01*
X152452477Y-80766749D01*
X152583802Y-80954300D01*
X152745700Y-81116198D01*
X152919798Y-81238103D01*
X152933251Y-81247523D01*
X152976345Y-81267618D01*
X153028784Y-81313791D01*
X153047936Y-81380984D01*
X153027720Y-81447865D01*
X152976345Y-81492382D01*
X152933251Y-81512476D01*
X152850123Y-81570684D01*
X152745700Y-81643802D01*
X152745698Y-81643803D01*
X152745695Y-81643806D01*
X152583806Y-81805695D01*
X152583803Y-81805698D01*
X152583802Y-81805700D01*
X152501767Y-81922856D01*
X152452476Y-81993252D01*
X152452475Y-81993254D01*
X152355718Y-82200750D01*
X152355714Y-82200761D01*
X152296457Y-82421910D01*
X152296456Y-82421918D01*
X152276502Y-82649998D01*
X152276502Y-82650001D01*
X152296456Y-82878081D01*
X152296457Y-82878089D01*
X152355714Y-83099238D01*
X152355718Y-83099249D01*
X152434709Y-83268646D01*
X152452477Y-83306749D01*
X152583802Y-83494300D01*
X152745700Y-83656198D01*
X152812351Y-83702868D01*
X152855975Y-83757444D01*
X152863167Y-83826942D01*
X152831645Y-83889297D01*
X152778118Y-83922826D01*
X152700602Y-83946981D01*
X152555122Y-84034927D01*
X152434927Y-84155122D01*
X152346980Y-84300604D01*
X152296409Y-84462893D01*
X152290000Y-84533427D01*
X152290000Y-84940000D01*
X154756314Y-84940000D01*
X154730507Y-84980156D01*
X154690000Y-85118111D01*
X154690000Y-85261889D01*
X154730507Y-85399844D01*
X154756314Y-85440000D01*
X152290001Y-85440000D01*
X152290001Y-85846582D01*
X152296408Y-85917102D01*
X152296409Y-85917107D01*
X152346981Y-86079396D01*
X152434927Y-86224877D01*
X152555122Y-86345072D01*
X152700600Y-86433017D01*
X152778117Y-86457172D01*
X152836265Y-86495910D01*
X152864239Y-86559935D01*
X152853158Y-86628920D01*
X152812351Y-86677132D01*
X152745699Y-86723802D01*
X152583806Y-86885695D01*
X152583803Y-86885698D01*
X152583802Y-86885700D01*
X152527177Y-86966569D01*
X152452476Y-87073252D01*
X152452475Y-87073254D01*
X152355718Y-87280750D01*
X152355714Y-87280761D01*
X152296457Y-87501910D01*
X152296456Y-87501918D01*
X152276502Y-87729998D01*
X152276502Y-87730001D01*
X152296456Y-87958081D01*
X152296457Y-87958089D01*
X152355714Y-88179238D01*
X152355718Y-88179249D01*
X152433631Y-88346333D01*
X152452477Y-88386749D01*
X152583802Y-88574300D01*
X152745700Y-88736198D01*
X152933251Y-88867523D01*
X152976345Y-88887618D01*
X153028784Y-88933791D01*
X153047936Y-89000984D01*
X153027720Y-89067865D01*
X152976345Y-89112382D01*
X152933251Y-89132476D01*
X152876549Y-89172180D01*
X152745700Y-89263802D01*
X152745698Y-89263803D01*
X152745695Y-89263806D01*
X152583806Y-89425695D01*
X152583803Y-89425698D01*
X152583802Y-89425700D01*
X152513420Y-89526216D01*
X152452476Y-89613252D01*
X152452475Y-89613254D01*
X152355718Y-89820750D01*
X152355714Y-89820761D01*
X152296457Y-90041910D01*
X152296456Y-90041918D01*
X152276502Y-90269998D01*
X152276502Y-90270001D01*
X152296456Y-90498081D01*
X152296457Y-90498089D01*
X152355714Y-90719238D01*
X152355718Y-90719249D01*
X152416263Y-90849088D01*
X152452477Y-90926749D01*
X152583802Y-91114300D01*
X152745700Y-91276198D01*
X152867324Y-91361360D01*
X152933251Y-91407523D01*
X152976345Y-91427618D01*
X153028784Y-91473791D01*
X153047936Y-91540984D01*
X153027720Y-91607865D01*
X152976345Y-91652382D01*
X152933251Y-91672476D01*
X152808126Y-91760090D01*
X152745700Y-91803802D01*
X152745698Y-91803803D01*
X152745695Y-91803806D01*
X152583806Y-91965695D01*
X152583803Y-91965698D01*
X152583802Y-91965700D01*
X152554575Y-92007441D01*
X152452476Y-92153252D01*
X152452475Y-92153254D01*
X152355718Y-92360750D01*
X152355714Y-92360761D01*
X152296457Y-92581910D01*
X152296456Y-92581918D01*
X152276502Y-92809998D01*
X152276502Y-92810001D01*
X152296456Y-93038081D01*
X152296457Y-93038089D01*
X152355714Y-93259238D01*
X152355718Y-93259249D01*
X152418557Y-93394007D01*
X152452477Y-93466749D01*
X152583802Y-93654300D01*
X152745700Y-93816198D01*
X152917716Y-93936645D01*
X152933251Y-93947523D01*
X152976345Y-93967618D01*
X153028784Y-94013791D01*
X153047936Y-94080984D01*
X153027720Y-94147865D01*
X152976345Y-94192382D01*
X152933251Y-94212476D01*
X152808256Y-94300000D01*
X152745700Y-94343802D01*
X152745698Y-94343803D01*
X152745695Y-94343806D01*
X152583806Y-94505695D01*
X152583803Y-94505698D01*
X152583802Y-94505700D01*
X152523724Y-94591500D01*
X152452476Y-94693252D01*
X152452475Y-94693254D01*
X152355718Y-94900750D01*
X152355714Y-94900761D01*
X152296457Y-95121910D01*
X152296456Y-95121917D01*
X152285628Y-95245685D01*
X152260175Y-95310753D01*
X152203584Y-95351732D01*
X152147156Y-95357973D01*
X152137601Y-95356813D01*
X152130194Y-95355686D01*
X152073464Y-95345290D01*
X152073460Y-95345290D01*
X152015871Y-95348774D01*
X152008383Y-95349000D01*
X151766268Y-95349000D01*
X151701172Y-95330539D01*
X151635698Y-95290154D01*
X151635693Y-95290152D01*
X151635692Y-95290151D01*
X151474314Y-95236676D01*
X151474311Y-95236675D01*
X151474312Y-95236675D01*
X151374712Y-95226500D01*
X150765296Y-95226500D01*
X150765280Y-95226501D01*
X150665684Y-95236676D01*
X150504310Y-95290150D01*
X150504305Y-95290152D01*
X150359611Y-95379401D01*
X150239401Y-95499611D01*
X150150152Y-95644305D01*
X150150150Y-95644310D01*
X150096675Y-95805689D01*
X150086500Y-95905281D01*
X150086500Y-96439703D01*
X150086501Y-96439719D01*
X150096676Y-96539315D01*
X150150150Y-96700689D01*
X150150152Y-96700694D01*
X150171134Y-96734711D01*
X150234375Y-96837241D01*
X150239401Y-96845388D01*
X150266332Y-96872319D01*
X150299817Y-96933642D01*
X150294833Y-97003334D01*
X150266332Y-97047681D01*
X150239401Y-97074611D01*
X150150152Y-97219305D01*
X150150150Y-97219310D01*
X150096675Y-97380689D01*
X150086500Y-97480281D01*
X150086500Y-97877164D01*
X150066815Y-97944203D01*
X150050181Y-97964845D01*
X149830807Y-98184218D01*
X149825354Y-98189351D01*
X149782180Y-98227600D01*
X149782174Y-98227607D01*
X149749412Y-98275070D01*
X149744974Y-98281100D01*
X149709400Y-98326507D01*
X149709394Y-98326516D01*
X149705571Y-98335011D01*
X149694557Y-98354542D01*
X149689265Y-98362209D01*
X149668806Y-98416152D01*
X149665942Y-98423065D01*
X149642272Y-98475659D01*
X149640593Y-98484821D01*
X149634572Y-98506418D01*
X149631267Y-98515133D01*
X149631267Y-98515134D01*
X149624313Y-98572401D01*
X149623186Y-98579803D01*
X149612790Y-98636533D01*
X149612790Y-98636538D01*
X149616274Y-98694129D01*
X149616500Y-98701617D01*
X149616500Y-99387500D01*
X149596815Y-99454539D01*
X149544011Y-99500294D01*
X149492500Y-99511500D01*
X149257500Y-99511500D01*
X149190461Y-99491815D01*
X149144706Y-99439011D01*
X149133500Y-99387500D01*
X149133500Y-94734117D01*
X149133726Y-94726629D01*
X149137210Y-94669037D01*
X149126811Y-94612293D01*
X149125684Y-94604886D01*
X149118733Y-94547640D01*
X149118732Y-94547634D01*
X149115435Y-94538942D01*
X149109404Y-94517308D01*
X149107728Y-94508160D01*
X149084041Y-94455531D01*
X149081183Y-94448628D01*
X149060735Y-94394711D01*
X149060733Y-94394706D01*
X149055450Y-94387053D01*
X149044421Y-94367497D01*
X149040603Y-94359014D01*
X149040601Y-94359010D01*
X149005023Y-94313599D01*
X149000582Y-94307564D01*
X148995361Y-94300000D01*
X148967825Y-94260106D01*
X148924627Y-94221836D01*
X148919189Y-94216716D01*
X145559819Y-90857346D01*
X145526334Y-90796023D01*
X145523500Y-90769665D01*
X145523500Y-90317763D01*
X146945787Y-90317763D01*
X146975413Y-90587013D01*
X146975415Y-90587024D01*
X147043926Y-90849082D01*
X147043928Y-90849088D01*
X147149870Y-91098390D01*
X147249941Y-91262362D01*
X147290979Y-91329605D01*
X147290986Y-91329615D01*
X147464253Y-91537819D01*
X147464259Y-91537824D01*
X147520422Y-91588146D01*
X147665998Y-91718582D01*
X147891910Y-91868044D01*
X148137176Y-91983020D01*
X148137183Y-91983022D01*
X148137185Y-91983023D01*
X148396557Y-92061057D01*
X148396564Y-92061058D01*
X148396569Y-92061060D01*
X148664561Y-92100500D01*
X148664566Y-92100500D01*
X148867629Y-92100500D01*
X148867631Y-92100500D01*
X148867636Y-92100499D01*
X148867648Y-92100499D01*
X148905191Y-92097750D01*
X149070156Y-92085677D01*
X149182758Y-92060593D01*
X149334546Y-92026782D01*
X149334548Y-92026781D01*
X149334553Y-92026780D01*
X149587558Y-91930014D01*
X149823777Y-91797441D01*
X150038177Y-91631888D01*
X150226186Y-91436881D01*
X150383799Y-91216579D01*
X150464774Y-91059082D01*
X150507649Y-90975690D01*
X150507651Y-90975684D01*
X150507656Y-90975675D01*
X150595118Y-90719305D01*
X150644319Y-90452933D01*
X150654212Y-90182235D01*
X150624586Y-89912982D01*
X150556072Y-89650912D01*
X150450130Y-89401610D01*
X150309018Y-89170390D01*
X150236306Y-89083017D01*
X150135746Y-88962180D01*
X150135740Y-88962175D01*
X149934002Y-88781418D01*
X149708092Y-88631957D01*
X149696451Y-88626500D01*
X149462824Y-88516980D01*
X149462819Y-88516978D01*
X149462814Y-88516976D01*
X149203442Y-88438942D01*
X149203428Y-88438939D01*
X149087791Y-88421921D01*
X148935439Y-88399500D01*
X148732369Y-88399500D01*
X148732351Y-88399500D01*
X148529844Y-88414323D01*
X148529831Y-88414325D01*
X148265453Y-88473217D01*
X148265446Y-88473220D01*
X148012439Y-88569987D01*
X147776226Y-88702557D01*
X147776224Y-88702558D01*
X147776223Y-88702559D01*
X147740682Y-88730003D01*
X147561822Y-88868112D01*
X147373822Y-89063109D01*
X147373816Y-89063116D01*
X147216202Y-89283419D01*
X147216199Y-89283424D01*
X147092350Y-89524309D01*
X147092343Y-89524327D01*
X147004884Y-89780685D01*
X147004881Y-89780699D01*
X146997482Y-89820757D01*
X146961808Y-90013899D01*
X146955681Y-90047068D01*
X146955680Y-90047075D01*
X146945787Y-90317763D01*
X145523500Y-90317763D01*
X145523500Y-85173044D01*
X145543185Y-85106005D01*
X145595989Y-85060250D01*
X145665147Y-85050306D01*
X145728703Y-85079331D01*
X145735181Y-85085363D01*
X145826348Y-85176530D01*
X145977262Y-85269615D01*
X146145574Y-85325387D01*
X146249455Y-85336000D01*
X146850544Y-85335999D01*
X146954426Y-85325387D01*
X147122738Y-85269615D01*
X147273652Y-85176530D01*
X147399030Y-85051152D01*
X147399449Y-85050471D01*
X147399859Y-85050102D01*
X147403511Y-85045485D01*
X147404299Y-85046108D01*
X147451389Y-85003744D01*
X147520350Y-84992514D01*
X147584436Y-85020350D01*
X147602261Y-85040920D01*
X147603202Y-85040177D01*
X147607683Y-85045844D01*
X147731654Y-85169815D01*
X147880875Y-85261856D01*
X147880880Y-85261858D01*
X148047302Y-85317005D01*
X148047309Y-85317006D01*
X148150019Y-85327499D01*
X148199999Y-85327498D01*
X148200000Y-85327498D01*
X148200000Y-84352500D01*
X148700000Y-84352500D01*
X148700000Y-85327499D01*
X148749972Y-85327499D01*
X148749986Y-85327498D01*
X148852697Y-85317005D01*
X149019119Y-85261858D01*
X149019124Y-85261856D01*
X149168345Y-85169815D01*
X149292315Y-85045845D01*
X149384356Y-84896624D01*
X149384358Y-84896619D01*
X149439505Y-84730197D01*
X149439506Y-84730190D01*
X149449999Y-84627486D01*
X149450000Y-84627473D01*
X149450000Y-84352500D01*
X148700000Y-84352500D01*
X148200000Y-84352500D01*
X148200000Y-82877500D01*
X148700000Y-82877500D01*
X148700000Y-83852500D01*
X149449999Y-83852500D01*
X149449999Y-83577528D01*
X149449998Y-83577513D01*
X149439505Y-83474802D01*
X149384358Y-83308380D01*
X149384356Y-83308375D01*
X149292315Y-83159154D01*
X149168345Y-83035184D01*
X149019124Y-82943143D01*
X149019119Y-82943141D01*
X148852697Y-82887994D01*
X148852690Y-82887993D01*
X148749986Y-82877500D01*
X148700000Y-82877500D01*
X148200000Y-82877500D01*
X148199999Y-82877499D01*
X148150029Y-82877500D01*
X148150011Y-82877501D01*
X148047302Y-82887994D01*
X147880880Y-82943141D01*
X147880875Y-82943143D01*
X147731654Y-83035184D01*
X147607683Y-83159155D01*
X147603202Y-83164823D01*
X147601021Y-83163098D01*
X147558556Y-83201275D01*
X147489591Y-83212480D01*
X147425516Y-83184621D01*
X147403663Y-83159394D01*
X147403511Y-83159515D01*
X147400816Y-83156106D01*
X147399451Y-83154531D01*
X147399029Y-83153847D01*
X147360683Y-83115501D01*
X147327198Y-83054178D01*
X147332182Y-82984486D01*
X147342244Y-82963675D01*
X147425827Y-82825413D01*
X147477013Y-82661149D01*
X147483500Y-82589765D01*
X147483499Y-82075236D01*
X147483499Y-82075235D01*
X147483499Y-82075227D01*
X147477014Y-82003854D01*
X147477011Y-82003844D01*
X147425828Y-81839590D01*
X147425827Y-81839589D01*
X147425827Y-81839587D01*
X147336816Y-81692345D01*
X147336814Y-81692343D01*
X147336813Y-81692341D01*
X147239653Y-81595181D01*
X147206168Y-81533858D01*
X147211152Y-81464166D01*
X147239653Y-81419819D01*
X147336812Y-81322659D01*
X147336813Y-81322658D01*
X147336816Y-81322655D01*
X147425827Y-81175413D01*
X147477013Y-81011149D01*
X147483500Y-80939765D01*
X147483499Y-80760334D01*
X147503183Y-80693295D01*
X147519813Y-80672658D01*
X149912654Y-78279819D01*
X149973977Y-78246334D01*
X150000335Y-78243500D01*
X152399656Y-78243500D01*
X152466695Y-78263185D01*
G37*
%TD.AperFunction*%
%TA.AperFunction,Conductor*%
G36*
X184538703Y-96649688D02*
G01*
X184561305Y-96675574D01*
X184634278Y-96787268D01*
X184634283Y-96787273D01*
X184634284Y-96787276D01*
X184786748Y-96952893D01*
X184786760Y-96952906D01*
X184908526Y-97047681D01*
X184918663Y-97055571D01*
X184959476Y-97112281D01*
X184966500Y-97153424D01*
X184966500Y-97647001D01*
X184946815Y-97714040D01*
X184926654Y-97738073D01*
X184900000Y-97762702D01*
X184900000Y-98012467D01*
X184882732Y-98075587D01*
X184840857Y-98146394D01*
X184840853Y-98146403D01*
X184794438Y-98306164D01*
X184794437Y-98306170D01*
X184791500Y-98343492D01*
X184791500Y-99048500D01*
X184771815Y-99115539D01*
X184719011Y-99161294D01*
X184667500Y-99172500D01*
X184632500Y-99172500D01*
X184565461Y-99152815D01*
X184519706Y-99100011D01*
X184508500Y-99048500D01*
X184508500Y-98343504D01*
X184508500Y-98343498D01*
X184505562Y-98306169D01*
X184496708Y-98275694D01*
X184459146Y-98146403D01*
X184459145Y-98146399D01*
X184455361Y-98140000D01*
X184417268Y-98075587D01*
X184400000Y-98012467D01*
X184400000Y-97762702D01*
X184373346Y-97738073D01*
X184337468Y-97678118D01*
X184333500Y-97647001D01*
X184333500Y-96743401D01*
X184353185Y-96676362D01*
X184405989Y-96630607D01*
X184475147Y-96620663D01*
X184538703Y-96649688D01*
G37*
%TD.AperFunction*%
%TA.AperFunction,Conductor*%
G36*
X173963039Y-97659685D02*
G01*
X174008794Y-97712489D01*
X174020000Y-97764000D01*
X174020000Y-98016000D01*
X174000315Y-98083039D01*
X173947511Y-98128794D01*
X173896000Y-98140000D01*
X173403686Y-98140000D01*
X173429493Y-98099844D01*
X173470000Y-97961889D01*
X173470000Y-97818111D01*
X173429493Y-97680156D01*
X173403686Y-97640000D01*
X173896000Y-97640000D01*
X173963039Y-97659685D01*
G37*
%TD.AperFunction*%
%TA.AperFunction,Conductor*%
G36*
X140139049Y-92100183D02*
G01*
X140166169Y-92108062D01*
X140203498Y-92111000D01*
X140437500Y-92111000D01*
X140504539Y-92130685D01*
X140550294Y-92183489D01*
X140561500Y-92235000D01*
X140561500Y-93394007D01*
X140564437Y-93431329D01*
X140605077Y-93571213D01*
X140610000Y-93605807D01*
X140610000Y-96316000D01*
X140590315Y-96383039D01*
X140537511Y-96428794D01*
X140486000Y-96440000D01*
X140234000Y-96440000D01*
X140166961Y-96420315D01*
X140121206Y-96367511D01*
X140110000Y-96316000D01*
X140110000Y-94800000D01*
X139460001Y-94800000D01*
X139460001Y-94881582D01*
X139466408Y-94952102D01*
X139466409Y-94952107D01*
X139516981Y-95114396D01*
X139604927Y-95259877D01*
X139627369Y-95282319D01*
X139660854Y-95343642D01*
X139655870Y-95413334D01*
X139627369Y-95457681D01*
X139604928Y-95480121D01*
X139604927Y-95480122D01*
X139516981Y-95625602D01*
X139487984Y-95718656D01*
X139449246Y-95776803D01*
X139385220Y-95804776D01*
X139316235Y-95793694D01*
X139281918Y-95769445D01*
X137812473Y-94300000D01*
X139460000Y-94300000D01*
X140110000Y-94300000D01*
X140110000Y-93575000D01*
X140109999Y-93574999D01*
X140103436Y-93575000D01*
X140103417Y-93575001D01*
X140032897Y-93581408D01*
X140032892Y-93581409D01*
X139870603Y-93631981D01*
X139725122Y-93719927D01*
X139604927Y-93840122D01*
X139516980Y-93985604D01*
X139466409Y-94147893D01*
X139460000Y-94218427D01*
X139460000Y-94300000D01*
X137812473Y-94300000D01*
X137749819Y-94237346D01*
X137716334Y-94176023D01*
X137713500Y-94149665D01*
X137713500Y-92439136D01*
X137733185Y-92372097D01*
X137785989Y-92326342D01*
X137855147Y-92316398D01*
X137901645Y-92333017D01*
X138022087Y-92405827D01*
X138186351Y-92457013D01*
X138257735Y-92463500D01*
X138922264Y-92463499D01*
X138922272Y-92463499D01*
X138993645Y-92457014D01*
X138993648Y-92457013D01*
X138993649Y-92457013D01*
X139157913Y-92405827D01*
X139305155Y-92316816D01*
X139397153Y-92224817D01*
X139458474Y-92191334D01*
X139484833Y-92188500D01*
X139646366Y-92188500D01*
X139662113Y-92190238D01*
X139662139Y-92189968D01*
X139669905Y-92190701D01*
X139669909Y-92190702D01*
X139738017Y-92188560D01*
X139741913Y-92188500D01*
X139769858Y-92188500D01*
X139769860Y-92188499D01*
X139771262Y-92188322D01*
X139773949Y-92187983D01*
X139785608Y-92187064D01*
X139829889Y-92185673D01*
X139849481Y-92179980D01*
X139868538Y-92176032D01*
X139888797Y-92173474D01*
X139930006Y-92157157D01*
X139941043Y-92153379D01*
X139983593Y-92141018D01*
X140001165Y-92130625D01*
X140018632Y-92122068D01*
X140037617Y-92114552D01*
X140037617Y-92114551D01*
X140037619Y-92114551D01*
X140044451Y-92110795D01*
X140046107Y-92113807D01*
X140097073Y-92095480D01*
X140139049Y-92100183D01*
G37*
%TD.AperFunction*%
%TA.AperFunction,Conductor*%
G36*
X140834539Y-78159685D02*
G01*
X140880294Y-78212489D01*
X140891500Y-78264000D01*
X140891500Y-78416000D01*
X140871815Y-78483039D01*
X140819011Y-78528794D01*
X140767500Y-78540000D01*
X140250001Y-78540000D01*
X140250001Y-79016824D01*
X140265442Y-79134128D01*
X140265444Y-79134133D01*
X140325899Y-79280085D01*
X140422075Y-79405424D01*
X140547414Y-79501600D01*
X140693366Y-79562055D01*
X140693372Y-79562057D01*
X140749998Y-79569511D01*
X140750000Y-79569510D01*
X140750000Y-79364944D01*
X140769685Y-79297905D01*
X140822489Y-79252150D01*
X140891647Y-79242206D01*
X140955203Y-79271231D01*
X140972369Y-79289450D01*
X141066013Y-79411487D01*
X141101487Y-79438707D01*
X141142689Y-79495134D01*
X141150000Y-79537082D01*
X141150000Y-79569510D01*
X141150001Y-79569511D01*
X141206622Y-79562058D01*
X141206627Y-79562056D01*
X141216437Y-79557993D01*
X141285906Y-79550523D01*
X141311336Y-79557988D01*
X141341150Y-79570338D01*
X141460115Y-79586000D01*
X141463322Y-79585999D01*
X141530361Y-79605674D01*
X141576123Y-79658472D01*
X141586432Y-79695050D01*
X141591266Y-79734861D01*
X141591266Y-79734862D01*
X141594570Y-79743573D01*
X141600594Y-79765180D01*
X141602273Y-79774342D01*
X141625946Y-79826942D01*
X141628812Y-79833860D01*
X141649265Y-79887790D01*
X141654554Y-79895453D01*
X141665575Y-79914995D01*
X141669397Y-79923487D01*
X141704977Y-79968901D01*
X141709417Y-79974936D01*
X141742173Y-80022393D01*
X141759880Y-80038079D01*
X141785373Y-80060664D01*
X141790809Y-80065782D01*
X142372515Y-80647488D01*
X142386885Y-80664731D01*
X142392172Y-80672391D01*
X142392174Y-80672394D01*
X142435354Y-80710647D01*
X142440809Y-80715782D01*
X142841716Y-81116689D01*
X142846836Y-81122127D01*
X142885106Y-81165325D01*
X142899721Y-81175413D01*
X142932573Y-81198089D01*
X142938606Y-81202528D01*
X142984013Y-81238102D01*
X142992497Y-81241920D01*
X143012052Y-81252949D01*
X143019710Y-81258235D01*
X143073677Y-81278701D01*
X143080526Y-81281538D01*
X143133160Y-81305227D01*
X143142314Y-81306904D01*
X143163930Y-81312931D01*
X143172637Y-81316233D01*
X143229901Y-81323186D01*
X143237308Y-81324313D01*
X143294036Y-81334709D01*
X143294037Y-81334708D01*
X143294038Y-81334709D01*
X143351619Y-81331226D01*
X143359106Y-81331000D01*
X145620167Y-81331000D01*
X145687206Y-81350685D01*
X145707848Y-81367319D01*
X145760347Y-81419818D01*
X145793832Y-81481141D01*
X145788848Y-81550833D01*
X145760348Y-81595180D01*
X145663185Y-81692343D01*
X145574173Y-81839586D01*
X145522986Y-82003854D01*
X145516500Y-82075237D01*
X145516500Y-82589772D01*
X145522985Y-82661145D01*
X145522988Y-82661155D01*
X145574171Y-82825410D01*
X145602148Y-82871689D01*
X145619984Y-82939244D01*
X145598466Y-83005718D01*
X145544426Y-83050005D01*
X145475020Y-83058046D01*
X145412285Y-83027287D01*
X145397655Y-83011325D01*
X145383988Y-82993514D01*
X145383987Y-82993513D01*
X145256876Y-82895976D01*
X145256872Y-82895974D01*
X145108853Y-82834663D01*
X145108848Y-82834661D01*
X144989885Y-82819000D01*
X144710113Y-82819000D01*
X144591155Y-82834660D01*
X144591151Y-82834661D01*
X144572448Y-82842408D01*
X144502978Y-82849874D01*
X144477551Y-82842407D01*
X144458856Y-82834664D01*
X144458848Y-82834661D01*
X144339885Y-82819000D01*
X144060113Y-82819000D01*
X143941152Y-82834660D01*
X143941151Y-82834661D01*
X143911341Y-82847008D01*
X143841872Y-82854474D01*
X143816447Y-82847009D01*
X143806632Y-82842944D01*
X143750000Y-82835488D01*
X143750000Y-82867916D01*
X143730315Y-82934955D01*
X143701488Y-82966291D01*
X143666014Y-82993512D01*
X143648374Y-83016500D01*
X143591945Y-83057701D01*
X143522199Y-83061854D01*
X143461280Y-83027641D01*
X143451626Y-83016500D01*
X143443352Y-83005718D01*
X143433987Y-82993513D01*
X143406805Y-82972655D01*
X143398512Y-82966291D01*
X143357310Y-82909862D01*
X143350000Y-82867916D01*
X143350000Y-82835488D01*
X143293365Y-82842944D01*
X143283549Y-82847010D01*
X143214079Y-82854473D01*
X143188654Y-82847007D01*
X143158850Y-82834662D01*
X143158848Y-82834661D01*
X143039885Y-82819000D01*
X142760113Y-82819000D01*
X142641155Y-82834660D01*
X142641151Y-82834661D01*
X142622448Y-82842408D01*
X142552978Y-82849874D01*
X142527551Y-82842407D01*
X142508856Y-82834664D01*
X142508848Y-82834661D01*
X142389885Y-82819000D01*
X142110113Y-82819000D01*
X141991152Y-82834660D01*
X141991151Y-82834661D01*
X141961341Y-82847008D01*
X141891872Y-82854474D01*
X141866447Y-82847009D01*
X141856632Y-82842944D01*
X141800000Y-82835488D01*
X141800000Y-82867916D01*
X141780315Y-82934955D01*
X141751488Y-82966291D01*
X141716014Y-82993512D01*
X141698374Y-83016500D01*
X141641945Y-83057701D01*
X141572199Y-83061854D01*
X141511280Y-83027641D01*
X141501626Y-83016500D01*
X141493352Y-83005718D01*
X141483987Y-82993513D01*
X141456805Y-82972655D01*
X141448512Y-82966291D01*
X141407310Y-82909862D01*
X141400000Y-82867916D01*
X141400000Y-82835488D01*
X141343365Y-82842944D01*
X141333549Y-82847010D01*
X141264079Y-82854473D01*
X141238654Y-82847007D01*
X141208850Y-82834662D01*
X141208848Y-82834661D01*
X141089885Y-82819000D01*
X140810113Y-82819000D01*
X140691157Y-82834660D01*
X140691146Y-82834663D01*
X140543127Y-82895974D01*
X140543124Y-82895975D01*
X140543124Y-82895976D01*
X140416013Y-82993513D01*
X140334883Y-83099243D01*
X140318474Y-83120627D01*
X140257163Y-83268646D01*
X140257162Y-83268650D01*
X140241500Y-83387607D01*
X140241500Y-84742386D01*
X140257160Y-84861342D01*
X140257163Y-84861353D01*
X140316178Y-85003830D01*
X140318476Y-85009376D01*
X140416013Y-85136487D01*
X140543124Y-85234024D01*
X140691150Y-85295338D01*
X140810115Y-85311000D01*
X141089884Y-85310999D01*
X141208850Y-85295338D01*
X141238654Y-85282992D01*
X141308120Y-85275523D01*
X141333560Y-85282992D01*
X141343371Y-85287056D01*
X141460675Y-85302499D01*
X141478226Y-85302499D01*
X141545267Y-85322180D01*
X141591024Y-85374982D01*
X141594182Y-85382550D01*
X141594584Y-85383609D01*
X141600594Y-85405180D01*
X141602273Y-85414342D01*
X141625946Y-85466942D01*
X141628812Y-85473860D01*
X141649265Y-85527790D01*
X141654554Y-85535453D01*
X141665575Y-85554995D01*
X141669397Y-85563487D01*
X141704977Y-85608901D01*
X141709417Y-85614936D01*
X141742173Y-85662393D01*
X141756043Y-85674680D01*
X141785373Y-85700664D01*
X141790809Y-85705782D01*
X142094216Y-86009189D01*
X142099336Y-86014627D01*
X142137606Y-86057825D01*
X142168856Y-86079395D01*
X142185073Y-86090589D01*
X142191106Y-86095028D01*
X142236513Y-86130602D01*
X142244997Y-86134420D01*
X142264541Y-86145441D01*
X142271801Y-86150452D01*
X142315789Y-86204734D01*
X142323448Y-86274182D01*
X142292344Y-86336747D01*
X142232353Y-86372564D01*
X142201359Y-86376500D01*
X141977727Y-86376500D01*
X141906350Y-86382986D01*
X141903379Y-86383912D01*
X141901545Y-86383942D01*
X141899917Y-86384266D01*
X141899858Y-86383969D01*
X141833519Y-86385057D01*
X141774130Y-86348250D01*
X141744068Y-86285179D01*
X141742500Y-86265523D01*
X141742500Y-86224365D01*
X141742499Y-86224350D01*
X141739600Y-86187510D01*
X141739599Y-86187504D01*
X141693783Y-86029806D01*
X141693782Y-86029803D01*
X141610185Y-85888447D01*
X141610178Y-85888438D01*
X141494061Y-85772321D01*
X141494052Y-85772314D01*
X141352696Y-85688717D01*
X141352693Y-85688716D01*
X141194995Y-85642900D01*
X141194989Y-85642899D01*
X141158149Y-85640000D01*
X140755000Y-85640000D01*
X140755000Y-87240000D01*
X141159732Y-87240000D01*
X141226771Y-87259685D01*
X141272526Y-87312489D01*
X141282470Y-87381647D01*
X141253445Y-87445203D01*
X141247413Y-87451681D01*
X141203913Y-87495181D01*
X141142590Y-87528666D01*
X141116232Y-87531500D01*
X140000000Y-87531500D01*
X139932961Y-87511815D01*
X139887206Y-87459011D01*
X139876000Y-87407500D01*
X139876000Y-87364000D01*
X139895685Y-87296961D01*
X139948489Y-87251206D01*
X140000000Y-87240000D01*
X140255000Y-87240000D01*
X140255000Y-86690000D01*
X139615031Y-86690000D01*
X139551912Y-86672733D01*
X139481101Y-86630855D01*
X139481099Y-86630854D01*
X139481097Y-86630853D01*
X139321335Y-86584438D01*
X139321329Y-86584437D01*
X139284007Y-86581500D01*
X139284002Y-86581500D01*
X137975998Y-86581500D01*
X137975992Y-86581500D01*
X137938670Y-86584437D01*
X137938667Y-86584438D01*
X137872093Y-86603779D01*
X137802224Y-86603578D01*
X137743554Y-86565635D01*
X137714712Y-86501997D01*
X137713500Y-86484702D01*
X137713500Y-86189998D01*
X139270204Y-86189998D01*
X139270205Y-86190000D01*
X140255000Y-86190000D01*
X140255000Y-85640000D01*
X139851850Y-85640000D01*
X139815010Y-85642899D01*
X139815004Y-85642900D01*
X139657306Y-85688716D01*
X139657303Y-85688717D01*
X139515947Y-85772314D01*
X139515938Y-85772321D01*
X139399821Y-85888438D01*
X139399814Y-85888447D01*
X139316218Y-86029801D01*
X139270399Y-86187513D01*
X139270204Y-86189998D01*
X137713500Y-86189998D01*
X137713500Y-80620334D01*
X137733185Y-80553295D01*
X137749814Y-80532658D01*
X140108557Y-78173915D01*
X140169878Y-78140432D01*
X140198638Y-78142488D01*
X140198638Y-78140000D01*
X140767500Y-78140000D01*
X140834539Y-78159685D01*
G37*
%TD.AperFunction*%
%TD*%
M02*
