%TF.GenerationSoftware,KiCad,Pcbnew,7.0.10-7.0.10~ubuntu22.04.1*%
%TF.CreationDate,2024-01-12T08:07:30-07:00*%
%TF.ProjectId,HIDHopper_ADB,48494448-6f70-4706-9572-5f4144422e6b,rev?*%
%TF.SameCoordinates,Original*%
%TF.FileFunction,Soldermask,Top*%
%TF.FilePolarity,Negative*%
%FSLAX46Y46*%
G04 Gerber Fmt 4.6, Leading zero omitted, Abs format (unit mm)*
G04 Created by KiCad (PCBNEW 7.0.10-7.0.10~ubuntu22.04.1) date 2024-01-12 08:07:30*
%MOMM*%
%LPD*%
G01*
G04 APERTURE LIST*
G04 Aperture macros list*
%AMRoundRect*
0 Rectangle with rounded corners*
0 $1 Rounding radius*
0 $2 $3 $4 $5 $6 $7 $8 $9 X,Y pos of 4 corners*
0 Add a 4 corners polygon primitive as box body*
4,1,4,$2,$3,$4,$5,$6,$7,$8,$9,$2,$3,0*
0 Add four circle primitives for the rounded corners*
1,1,$1+$1,$2,$3*
1,1,$1+$1,$4,$5*
1,1,$1+$1,$6,$7*
1,1,$1+$1,$8,$9*
0 Add four rect primitives between the rounded corners*
20,1,$1+$1,$2,$3,$4,$5,0*
20,1,$1+$1,$4,$5,$6,$7,0*
20,1,$1+$1,$6,$7,$8,$9,0*
20,1,$1+$1,$8,$9,$2,$3,0*%
%AMFreePoly0*
4,1,58,1.881242,0.792533,1.914585,0.788777,1.924216,0.782725,1.935306,0.780194,1.961541,0.759271,1.989950,0.741421,2.341421,0.389950,2.359271,0.361541,2.380194,0.335306,2.382725,0.324216,2.388777,0.314585,2.392533,0.281242,2.400000,0.248529,2.400000,-0.248529,2.392533,-0.281242,2.388777,-0.314585,2.382725,-0.324216,2.380194,-0.335306,2.359271,-0.361541,2.341421,-0.389950,
1.989950,-0.741421,1.961541,-0.759271,1.935306,-0.780194,1.924216,-0.782725,1.914585,-0.788777,1.881242,-0.792533,1.848529,-0.800000,0.000000,-0.800000,-0.248529,-0.800000,-0.281242,-0.792533,-0.314585,-0.788777,-0.324216,-0.782725,-0.335306,-0.780194,-0.361541,-0.759271,-0.389950,-0.741421,-0.741421,-0.389950,-0.759271,-0.361541,-0.780194,-0.335306,-0.782725,-0.324216,-0.788777,-0.314585,
-0.792533,-0.281242,-0.800000,-0.248529,-0.800000,0.248529,-0.792533,0.281242,-0.788777,0.314585,-0.782725,0.324216,-0.780194,0.335306,-0.759271,0.361541,-0.741421,0.389950,-0.389950,0.741421,-0.361541,0.759271,-0.335306,0.780194,-0.324216,0.782725,-0.314585,0.788777,-0.281242,0.792533,-0.248529,0.800000,1.848529,0.800000,1.881242,0.792533,1.881242,0.792533,$1*%
%AMFreePoly1*
4,1,58,0.281242,0.792533,0.314585,0.788777,0.324216,0.782725,0.335306,0.780194,0.361541,0.759271,0.389950,0.741421,0.741421,0.389950,0.759271,0.361541,0.780194,0.335306,0.782725,0.324216,0.788777,0.314585,0.792533,0.281242,0.800000,0.248529,0.800000,-0.248529,0.792533,-0.281242,0.788777,-0.314585,0.782725,-0.324216,0.780194,-0.335306,0.759271,-0.361541,0.741421,-0.389950,
0.389950,-0.741421,0.361541,-0.759271,0.335306,-0.780194,0.324216,-0.782725,0.314585,-0.788777,0.281242,-0.792533,0.248529,-0.800000,0.000000,-0.800000,-0.248529,-0.800000,-0.281242,-0.792533,-0.314585,-0.788777,-0.324216,-0.782725,-0.335306,-0.780194,-0.361541,-0.759271,-0.389950,-0.741421,-0.741421,-0.389950,-0.759271,-0.361541,-0.780194,-0.335306,-0.782725,-0.324216,-0.788777,-0.314585,
-0.792533,-0.281242,-0.800000,-0.248529,-0.800000,0.248529,-0.792533,0.281242,-0.788777,0.314585,-0.782725,0.324216,-0.780194,0.335306,-0.759271,0.361541,-0.741421,0.389950,-0.389950,0.741421,-0.361541,0.759271,-0.335306,0.780194,-0.324216,0.782725,-0.314585,0.788777,-0.281242,0.792533,-0.248529,0.800000,0.248529,0.800000,0.281242,0.792533,0.281242,0.792533,$1*%
G04 Aperture macros list end*
%ADD10RoundRect,0.218750X-0.256250X0.218750X-0.256250X-0.218750X0.256250X-0.218750X0.256250X0.218750X0*%
%ADD11RoundRect,0.250000X1.000000X0.650000X-1.000000X0.650000X-1.000000X-0.650000X1.000000X-0.650000X0*%
%ADD12C,1.410000*%
%ADD13C,3.500000*%
%ADD14RoundRect,0.150000X-0.150000X0.587500X-0.150000X-0.587500X0.150000X-0.587500X0.150000X0.587500X0*%
%ADD15RoundRect,0.200000X-0.200000X-0.275000X0.200000X-0.275000X0.200000X0.275000X-0.200000X0.275000X0*%
%ADD16RoundRect,0.250000X0.650000X-0.325000X0.650000X0.325000X-0.650000X0.325000X-0.650000X-0.325000X0*%
%ADD17RoundRect,0.243750X0.243750X0.456250X-0.243750X0.456250X-0.243750X-0.456250X0.243750X-0.456250X0*%
%ADD18C,3.200000*%
%ADD19RoundRect,0.200000X0.275000X-0.200000X0.275000X0.200000X-0.275000X0.200000X-0.275000X-0.200000X0*%
%ADD20C,2.100000*%
%ADD21RoundRect,0.150000X0.587500X0.150000X-0.587500X0.150000X-0.587500X-0.150000X0.587500X-0.150000X0*%
%ADD22O,1.100000X1.800000*%
%ADD23O,1.050000X1.450000*%
%ADD24FreePoly0,180.000000*%
%ADD25FreePoly1,180.000000*%
%ADD26O,3.200000X1.600000*%
%ADD27C,1.600000*%
%ADD28RoundRect,0.200000X1.400000X0.600000X-1.400000X0.600000X-1.400000X-0.600000X1.400000X-0.600000X0*%
%ADD29RoundRect,0.200000X0.600000X0.600000X-0.600000X0.600000X-0.600000X-0.600000X0.600000X-0.600000X0*%
%ADD30R,1.574800X1.574800*%
%ADD31C,1.574800*%
%ADD32RoundRect,0.300000X0.450000X0.450000X-0.450000X0.450000X-0.450000X-0.450000X0.450000X-0.450000X0*%
%ADD33C,1.200000*%
%ADD34RoundRect,0.200000X-0.275000X0.200000X-0.275000X-0.200000X0.275000X-0.200000X0.275000X0.200000X0*%
%ADD35RoundRect,0.200000X0.200000X0.275000X-0.200000X0.275000X-0.200000X-0.275000X0.200000X-0.275000X0*%
%ADD36RoundRect,0.250000X0.250000X0.475000X-0.250000X0.475000X-0.250000X-0.475000X0.250000X-0.475000X0*%
%ADD37RoundRect,0.187500X0.312500X0.187500X-0.312500X0.187500X-0.312500X-0.187500X0.312500X-0.187500X0*%
%ADD38RoundRect,0.100000X-0.100000X0.637500X-0.100000X-0.637500X0.100000X-0.637500X0.100000X0.637500X0*%
%ADD39RoundRect,0.250000X-0.250000X-0.475000X0.250000X-0.475000X0.250000X0.475000X-0.250000X0.475000X0*%
%ADD40RoundRect,0.150000X-0.150000X0.512500X-0.150000X-0.512500X0.150000X-0.512500X0.150000X0.512500X0*%
%ADD41R,1.600000X1.500000*%
%ADD42C,3.000000*%
%ADD43R,1.700000X1.700000*%
%ADD44O,1.700000X1.700000*%
G04 APERTURE END LIST*
D10*
%TO.C,F2*%
X151070000Y-96172500D03*
X151070000Y-97747500D03*
%TD*%
D11*
%TO.C,D2*%
X150290000Y-100920000D03*
X146290000Y-100920000D03*
%TD*%
D12*
%TO.C,J3*%
X139300000Y-109280000D03*
X145820000Y-109280000D03*
X139300000Y-106740000D03*
X145820000Y-106740000D03*
D13*
X136260000Y-112050000D03*
X142560000Y-112850000D03*
X148860000Y-112050000D03*
%TD*%
D14*
%TO.C,Q1*%
X142320000Y-90865000D03*
X140420000Y-90865000D03*
X141370000Y-92740000D03*
%TD*%
D12*
%TO.C,J6*%
X145820000Y-71620000D03*
X139300000Y-71620000D03*
X145820000Y-74160000D03*
X139300000Y-74160000D03*
D13*
X148860000Y-68850000D03*
X142560000Y-68050000D03*
X136260000Y-68850000D03*
%TD*%
D15*
%TO.C,R3*%
X142235000Y-87360000D03*
X143885000Y-87360000D03*
%TD*%
D16*
%TO.C,C1*%
X177070000Y-101400000D03*
X177070000Y-98450000D03*
%TD*%
D17*
%TO.C,D1*%
X187397500Y-65290000D03*
X185522500Y-65290000D03*
%TD*%
D18*
%TO.C,H3*%
X184000000Y-90460000D03*
%TD*%
D19*
%TO.C,R7*%
X138590000Y-91555000D03*
X138590000Y-89905000D03*
%TD*%
D20*
%TO.C,REF\u002A\u002A*%
X146180000Y-95890000D03*
%TD*%
D21*
%TO.C,Q2*%
X140505000Y-88340000D03*
X140505000Y-86440000D03*
X138630000Y-87390000D03*
%TD*%
D22*
%TO.C,RP1*%
X166805000Y-115540000D03*
D23*
X166505000Y-112510000D03*
X161655000Y-112510000D03*
D22*
X161355000Y-115540000D03*
D24*
X174570000Y-115670000D03*
D25*
X172970000Y-115670000D03*
D26*
X173770000Y-113130000D03*
D27*
X172970000Y-113130000D03*
D28*
X173770000Y-110590000D03*
D29*
X172970000Y-110590000D03*
D26*
X173770000Y-108050000D03*
D27*
X172970000Y-108050000D03*
D26*
X173770000Y-105510000D03*
D27*
X172970000Y-105510000D03*
D26*
X173770000Y-102970000D03*
D27*
X172970000Y-102970000D03*
D26*
X173770000Y-100430000D03*
D27*
X172970000Y-100430000D03*
D28*
X173770000Y-97890000D03*
D29*
X172970000Y-97890000D03*
D26*
X173770000Y-95350000D03*
D27*
X172970000Y-95350000D03*
D26*
X173770000Y-92810000D03*
D27*
X172970000Y-92810000D03*
D26*
X173770000Y-90270000D03*
D27*
X172970000Y-90270000D03*
D26*
X173770000Y-87730000D03*
D27*
X172970000Y-87730000D03*
D28*
X173770000Y-85190000D03*
D29*
X172970000Y-85190000D03*
D26*
X173770000Y-82650000D03*
D27*
X172970000Y-82650000D03*
D26*
X173770000Y-80110000D03*
D27*
X172970000Y-80110000D03*
D26*
X173770000Y-77570000D03*
D27*
X172970000Y-77570000D03*
D26*
X173770000Y-75030000D03*
D27*
X172970000Y-75030000D03*
D28*
X173770000Y-72490000D03*
D29*
X172970000Y-72490000D03*
D26*
X173770000Y-69950000D03*
D27*
X172970000Y-69950000D03*
D26*
X173770000Y-67410000D03*
D27*
X172970000Y-67410000D03*
X155190000Y-67410000D03*
D26*
X154390000Y-67410000D03*
D27*
X155190000Y-69950000D03*
D26*
X154390000Y-69950000D03*
D29*
X155190000Y-72490000D03*
D28*
X154390000Y-72490000D03*
D27*
X155190000Y-75030000D03*
D26*
X154390000Y-75030000D03*
D27*
X155190000Y-77570000D03*
D26*
X154390000Y-77570000D03*
D27*
X155190000Y-80110000D03*
D26*
X154390000Y-80110000D03*
D27*
X155190000Y-82650000D03*
D26*
X154390000Y-82650000D03*
D29*
X155190000Y-85190000D03*
D28*
X154390000Y-85190000D03*
D27*
X155190000Y-87730000D03*
D26*
X154390000Y-87730000D03*
D27*
X155190000Y-90270000D03*
D26*
X154390000Y-90270000D03*
D27*
X155190000Y-92810000D03*
D26*
X154390000Y-92810000D03*
D27*
X155190000Y-95350000D03*
D26*
X154390000Y-95350000D03*
D29*
X155190000Y-97890000D03*
D28*
X154390000Y-97890000D03*
D27*
X155190000Y-100430000D03*
D26*
X154390000Y-100430000D03*
D27*
X155190000Y-102970000D03*
D26*
X154390000Y-102970000D03*
D27*
X155190000Y-105510000D03*
D26*
X154390000Y-105510000D03*
D27*
X155190000Y-108050000D03*
D26*
X154390000Y-108050000D03*
D29*
X155190000Y-110590000D03*
D28*
X154390000Y-110590000D03*
D27*
X155190000Y-113130000D03*
D26*
X154390000Y-113130000D03*
D27*
X155190000Y-115670000D03*
D26*
X154390000Y-115670000D03*
D30*
X163495800Y-85840000D03*
D31*
X160955800Y-85840000D03*
X158415800Y-85840000D03*
D32*
X164080000Y-112540000D03*
D33*
X163090000Y-115730000D03*
D32*
X163080000Y-115840000D03*
D33*
X165090000Y-115730000D03*
D32*
X165080000Y-115840000D03*
%TD*%
D34*
%TO.C,R4*%
X146500000Y-80682500D03*
X146500000Y-82332500D03*
%TD*%
D15*
%TO.C,R6*%
X182175000Y-69030000D03*
X183825000Y-69030000D03*
%TD*%
D35*
%TO.C,R1*%
X142010000Y-96190000D03*
X140360000Y-96190000D03*
%TD*%
D36*
%TO.C,C2*%
X181210000Y-100060000D03*
X179310000Y-100060000D03*
%TD*%
D18*
%TO.C,H2*%
X148800000Y-90250000D03*
%TD*%
D37*
%TO.C,SW1*%
X143530000Y-101515000D03*
X137530000Y-101515000D03*
X143530000Y-97765000D03*
X137530000Y-97765000D03*
%TD*%
D15*
%TO.C,R2*%
X140360000Y-94550000D03*
X142010000Y-94550000D03*
%TD*%
%TO.C,R5*%
X182165000Y-65220000D03*
X183815000Y-65220000D03*
%TD*%
D38*
%TO.C,U1*%
X144850000Y-78340000D03*
X144200000Y-78340000D03*
X143550000Y-78340000D03*
X142900000Y-78340000D03*
X142250000Y-78340000D03*
X141600000Y-78340000D03*
X140950000Y-78340000D03*
X140950000Y-84065000D03*
X141600000Y-84065000D03*
X142250000Y-84065000D03*
X142900000Y-84065000D03*
X143550000Y-84065000D03*
X144200000Y-84065000D03*
X144850000Y-84065000D03*
%TD*%
D20*
%TO.C,REF\u002A\u002A*%
X184000000Y-82980000D03*
%TD*%
D39*
%TO.C,C7*%
X146550000Y-84102500D03*
X148450000Y-84102500D03*
%TD*%
D18*
%TO.C,H1*%
X184000000Y-75770000D03*
%TD*%
D17*
%TO.C,D3*%
X187397500Y-69040000D03*
X185522500Y-69040000D03*
%TD*%
D40*
%TO.C,U2*%
X185600000Y-98922500D03*
X184650000Y-98922500D03*
X183700000Y-98922500D03*
X183700000Y-101197500D03*
X184650000Y-101197500D03*
X185600000Y-101197500D03*
%TD*%
D41*
%TO.C,J10*%
X181190000Y-105100000D03*
D27*
X183690000Y-105100000D03*
X185690000Y-105100000D03*
X188190000Y-105100000D03*
D42*
X178120000Y-107810000D03*
X191260000Y-107810000D03*
%TD*%
D43*
%TO.C,J1*%
X180630000Y-95950000D03*
D44*
X183170000Y-95950000D03*
X185710000Y-95950000D03*
X188250000Y-95950000D03*
%TD*%
M02*
