%TF.GenerationSoftware,KiCad,Pcbnew,7.0.10-7.0.10~ubuntu22.04.1*%
%TF.CreationDate,2024-01-12T08:07:30-07:00*%
%TF.ProjectId,HIDHopper_ADB,48494448-6f70-4706-9572-5f4144422e6b,rev?*%
%TF.SameCoordinates,Original*%
%TF.FileFunction,Copper,L2,Bot*%
%TF.FilePolarity,Positive*%
%FSLAX46Y46*%
G04 Gerber Fmt 4.6, Leading zero omitted, Abs format (unit mm)*
G04 Created by KiCad (PCBNEW 7.0.10-7.0.10~ubuntu22.04.1) date 2024-01-12 08:07:30*
%MOMM*%
%LPD*%
G01*
G04 APERTURE LIST*
G04 Aperture macros list*
%AMRoundRect*
0 Rectangle with rounded corners*
0 $1 Rounding radius*
0 $2 $3 $4 $5 $6 $7 $8 $9 X,Y pos of 4 corners*
0 Add a 4 corners polygon primitive as box body*
4,1,4,$2,$3,$4,$5,$6,$7,$8,$9,$2,$3,0*
0 Add four circle primitives for the rounded corners*
1,1,$1+$1,$2,$3*
1,1,$1+$1,$4,$5*
1,1,$1+$1,$6,$7*
1,1,$1+$1,$8,$9*
0 Add four rect primitives between the rounded corners*
20,1,$1+$1,$2,$3,$4,$5,0*
20,1,$1+$1,$4,$5,$6,$7,0*
20,1,$1+$1,$6,$7,$8,$9,0*
20,1,$1+$1,$8,$9,$2,$3,0*%
%AMFreePoly0*
4,1,58,0.281242,0.792533,0.314585,0.788777,0.324216,0.782725,0.335306,0.780194,0.361541,0.759271,0.389950,0.741421,0.741421,0.389950,0.759271,0.361541,0.780194,0.335306,0.782725,0.324216,0.788777,0.314585,0.792533,0.281242,0.800000,0.248529,0.800000,-0.248529,0.792533,-0.281242,0.788777,-0.314585,0.782725,-0.324216,0.780194,-0.335306,0.759271,-0.361541,0.741421,-0.389950,
0.389950,-0.741421,0.361541,-0.759271,0.335306,-0.780194,0.324216,-0.782725,0.314585,-0.788777,0.281242,-0.792533,0.248529,-0.800000,0.000000,-0.800000,-0.248529,-0.800000,-0.281242,-0.792533,-0.314585,-0.788777,-0.324216,-0.782725,-0.335306,-0.780194,-0.361541,-0.759271,-0.389950,-0.741421,-0.741421,-0.389950,-0.759271,-0.361541,-0.780194,-0.335306,-0.782725,-0.324216,-0.788777,-0.314585,
-0.792533,-0.281242,-0.800000,-0.248529,-0.800000,0.248529,-0.792533,0.281242,-0.788777,0.314585,-0.782725,0.324216,-0.780194,0.335306,-0.759271,0.361541,-0.741421,0.389950,-0.389950,0.741421,-0.361541,0.759271,-0.335306,0.780194,-0.324216,0.782725,-0.314585,0.788777,-0.281242,0.792533,-0.248529,0.800000,0.248529,0.800000,0.281242,0.792533,0.281242,0.792533,$1*%
G04 Aperture macros list end*
%ADD10C,0.300000*%
%TA.AperFunction,NonConductor*%
%ADD11C,0.300000*%
%TD*%
%TA.AperFunction,ComponentPad*%
%ADD12C,1.410000*%
%TD*%
%TA.AperFunction,ComponentPad*%
%ADD13C,3.500000*%
%TD*%
%TA.AperFunction,ComponentPad*%
%ADD14FreePoly0,180.000000*%
%TD*%
%TA.AperFunction,ComponentPad*%
%ADD15C,1.600000*%
%TD*%
%TA.AperFunction,ComponentPad*%
%ADD16RoundRect,0.200000X0.600000X0.600000X-0.600000X0.600000X-0.600000X-0.600000X0.600000X-0.600000X0*%
%TD*%
%TA.AperFunction,ComponentPad*%
%ADD17R,1.574800X1.574800*%
%TD*%
%TA.AperFunction,ComponentPad*%
%ADD18C,1.574800*%
%TD*%
%TA.AperFunction,ComponentPad*%
%ADD19C,1.200000*%
%TD*%
%TA.AperFunction,ComponentPad*%
%ADD20R,1.600000X1.500000*%
%TD*%
%TA.AperFunction,ComponentPad*%
%ADD21C,3.000000*%
%TD*%
%TA.AperFunction,ComponentPad*%
%ADD22R,1.700000X1.700000*%
%TD*%
%TA.AperFunction,ComponentPad*%
%ADD23O,1.700000X1.700000*%
%TD*%
%TA.AperFunction,ViaPad*%
%ADD24C,0.600000*%
%TD*%
%TA.AperFunction,Conductor*%
%ADD25C,0.330000*%
%TD*%
%TA.AperFunction,Conductor*%
%ADD26C,0.250000*%
%TD*%
G04 APERTURE END LIST*
D10*
D11*
X193794171Y-99395489D02*
X195294171Y-99395489D01*
X195294171Y-99395489D02*
X193794171Y-98538346D01*
X193794171Y-98538346D02*
X195294171Y-98538346D01*
X195294171Y-97538345D02*
X195294171Y-97252631D01*
X195294171Y-97252631D02*
X195222742Y-97109774D01*
X195222742Y-97109774D02*
X195079885Y-96966917D01*
X195079885Y-96966917D02*
X194794171Y-96895488D01*
X194794171Y-96895488D02*
X194294171Y-96895488D01*
X194294171Y-96895488D02*
X194008457Y-96966917D01*
X194008457Y-96966917D02*
X193865600Y-97109774D01*
X193865600Y-97109774D02*
X193794171Y-97252631D01*
X193794171Y-97252631D02*
X193794171Y-97538345D01*
X193794171Y-97538345D02*
X193865600Y-97681203D01*
X193865600Y-97681203D02*
X194008457Y-97824060D01*
X194008457Y-97824060D02*
X194294171Y-97895488D01*
X194294171Y-97895488D02*
X194794171Y-97895488D01*
X194794171Y-97895488D02*
X195079885Y-97824060D01*
X195079885Y-97824060D02*
X195222742Y-97681203D01*
X195222742Y-97681203D02*
X195294171Y-97538345D01*
X195294171Y-96466916D02*
X195294171Y-95609774D01*
X193794171Y-96038345D02*
X195294171Y-96038345D01*
X194579885Y-93466917D02*
X194579885Y-93966917D01*
X193794171Y-93966917D02*
X195294171Y-93966917D01*
X195294171Y-93966917D02*
X195294171Y-93252631D01*
X195294171Y-92395488D02*
X195294171Y-92109774D01*
X195294171Y-92109774D02*
X195222742Y-91966917D01*
X195222742Y-91966917D02*
X195079885Y-91824060D01*
X195079885Y-91824060D02*
X194794171Y-91752631D01*
X194794171Y-91752631D02*
X194294171Y-91752631D01*
X194294171Y-91752631D02*
X194008457Y-91824060D01*
X194008457Y-91824060D02*
X193865600Y-91966917D01*
X193865600Y-91966917D02*
X193794171Y-92109774D01*
X193794171Y-92109774D02*
X193794171Y-92395488D01*
X193794171Y-92395488D02*
X193865600Y-92538346D01*
X193865600Y-92538346D02*
X194008457Y-92681203D01*
X194008457Y-92681203D02*
X194294171Y-92752631D01*
X194294171Y-92752631D02*
X194794171Y-92752631D01*
X194794171Y-92752631D02*
X195079885Y-92681203D01*
X195079885Y-92681203D02*
X195222742Y-92538346D01*
X195222742Y-92538346D02*
X195294171Y-92395488D01*
X193794171Y-90252631D02*
X194508457Y-90752631D01*
X193794171Y-91109774D02*
X195294171Y-91109774D01*
X195294171Y-91109774D02*
X195294171Y-90538345D01*
X195294171Y-90538345D02*
X195222742Y-90395488D01*
X195222742Y-90395488D02*
X195151314Y-90324059D01*
X195151314Y-90324059D02*
X195008457Y-90252631D01*
X195008457Y-90252631D02*
X194794171Y-90252631D01*
X194794171Y-90252631D02*
X194651314Y-90324059D01*
X194651314Y-90324059D02*
X194579885Y-90395488D01*
X194579885Y-90395488D02*
X194508457Y-90538345D01*
X194508457Y-90538345D02*
X194508457Y-91109774D01*
X193937028Y-87609774D02*
X193865600Y-87681202D01*
X193865600Y-87681202D02*
X193794171Y-87895488D01*
X193794171Y-87895488D02*
X193794171Y-88038345D01*
X193794171Y-88038345D02*
X193865600Y-88252631D01*
X193865600Y-88252631D02*
X194008457Y-88395488D01*
X194008457Y-88395488D02*
X194151314Y-88466917D01*
X194151314Y-88466917D02*
X194437028Y-88538345D01*
X194437028Y-88538345D02*
X194651314Y-88538345D01*
X194651314Y-88538345D02*
X194937028Y-88466917D01*
X194937028Y-88466917D02*
X195079885Y-88395488D01*
X195079885Y-88395488D02*
X195222742Y-88252631D01*
X195222742Y-88252631D02*
X195294171Y-88038345D01*
X195294171Y-88038345D02*
X195294171Y-87895488D01*
X195294171Y-87895488D02*
X195222742Y-87681202D01*
X195222742Y-87681202D02*
X195151314Y-87609774D01*
X195294171Y-86681202D02*
X195294171Y-86395488D01*
X195294171Y-86395488D02*
X195222742Y-86252631D01*
X195222742Y-86252631D02*
X195079885Y-86109774D01*
X195079885Y-86109774D02*
X194794171Y-86038345D01*
X194794171Y-86038345D02*
X194294171Y-86038345D01*
X194294171Y-86038345D02*
X194008457Y-86109774D01*
X194008457Y-86109774D02*
X193865600Y-86252631D01*
X193865600Y-86252631D02*
X193794171Y-86395488D01*
X193794171Y-86395488D02*
X193794171Y-86681202D01*
X193794171Y-86681202D02*
X193865600Y-86824060D01*
X193865600Y-86824060D02*
X194008457Y-86966917D01*
X194008457Y-86966917D02*
X194294171Y-87038345D01*
X194294171Y-87038345D02*
X194794171Y-87038345D01*
X194794171Y-87038345D02*
X195079885Y-86966917D01*
X195079885Y-86966917D02*
X195222742Y-86824060D01*
X195222742Y-86824060D02*
X195294171Y-86681202D01*
X193794171Y-85395488D02*
X195294171Y-85395488D01*
X195294171Y-85395488D02*
X194222742Y-84895488D01*
X194222742Y-84895488D02*
X195294171Y-84395488D01*
X195294171Y-84395488D02*
X193794171Y-84395488D01*
X193794171Y-83681202D02*
X195294171Y-83681202D01*
X195294171Y-83681202D02*
X194222742Y-83181202D01*
X194222742Y-83181202D02*
X195294171Y-82681202D01*
X195294171Y-82681202D02*
X193794171Y-82681202D01*
X194579885Y-81966916D02*
X194579885Y-81466916D01*
X193794171Y-81252630D02*
X193794171Y-81966916D01*
X193794171Y-81966916D02*
X195294171Y-81966916D01*
X195294171Y-81966916D02*
X195294171Y-81252630D01*
X193794171Y-79752630D02*
X194508457Y-80252630D01*
X193794171Y-80609773D02*
X195294171Y-80609773D01*
X195294171Y-80609773D02*
X195294171Y-80038344D01*
X195294171Y-80038344D02*
X195222742Y-79895487D01*
X195222742Y-79895487D02*
X195151314Y-79824058D01*
X195151314Y-79824058D02*
X195008457Y-79752630D01*
X195008457Y-79752630D02*
X194794171Y-79752630D01*
X194794171Y-79752630D02*
X194651314Y-79824058D01*
X194651314Y-79824058D02*
X194579885Y-79895487D01*
X194579885Y-79895487D02*
X194508457Y-80038344D01*
X194508457Y-80038344D02*
X194508457Y-80609773D01*
X193937028Y-78252630D02*
X193865600Y-78324058D01*
X193865600Y-78324058D02*
X193794171Y-78538344D01*
X193794171Y-78538344D02*
X193794171Y-78681201D01*
X193794171Y-78681201D02*
X193865600Y-78895487D01*
X193865600Y-78895487D02*
X194008457Y-79038344D01*
X194008457Y-79038344D02*
X194151314Y-79109773D01*
X194151314Y-79109773D02*
X194437028Y-79181201D01*
X194437028Y-79181201D02*
X194651314Y-79181201D01*
X194651314Y-79181201D02*
X194937028Y-79109773D01*
X194937028Y-79109773D02*
X195079885Y-79038344D01*
X195079885Y-79038344D02*
X195222742Y-78895487D01*
X195222742Y-78895487D02*
X195294171Y-78681201D01*
X195294171Y-78681201D02*
X195294171Y-78538344D01*
X195294171Y-78538344D02*
X195222742Y-78324058D01*
X195222742Y-78324058D02*
X195151314Y-78252630D01*
X193794171Y-77609773D02*
X195294171Y-77609773D01*
X194222742Y-76966915D02*
X194222742Y-76252630D01*
X193794171Y-77109772D02*
X195294171Y-76609772D01*
X195294171Y-76609772D02*
X193794171Y-76109772D01*
X193794171Y-74895487D02*
X193794171Y-75609773D01*
X193794171Y-75609773D02*
X195294171Y-75609773D01*
X193865600Y-73324058D02*
X193794171Y-73109773D01*
X193794171Y-73109773D02*
X193794171Y-72752630D01*
X193794171Y-72752630D02*
X193865600Y-72609773D01*
X193865600Y-72609773D02*
X193937028Y-72538344D01*
X193937028Y-72538344D02*
X194079885Y-72466915D01*
X194079885Y-72466915D02*
X194222742Y-72466915D01*
X194222742Y-72466915D02*
X194365600Y-72538344D01*
X194365600Y-72538344D02*
X194437028Y-72609773D01*
X194437028Y-72609773D02*
X194508457Y-72752630D01*
X194508457Y-72752630D02*
X194579885Y-73038344D01*
X194579885Y-73038344D02*
X194651314Y-73181201D01*
X194651314Y-73181201D02*
X194722742Y-73252630D01*
X194722742Y-73252630D02*
X194865600Y-73324058D01*
X194865600Y-73324058D02*
X195008457Y-73324058D01*
X195008457Y-73324058D02*
X195151314Y-73252630D01*
X195151314Y-73252630D02*
X195222742Y-73181201D01*
X195222742Y-73181201D02*
X195294171Y-73038344D01*
X195294171Y-73038344D02*
X195294171Y-72681201D01*
X195294171Y-72681201D02*
X195222742Y-72466915D01*
X194222742Y-71895487D02*
X194222742Y-71181202D01*
X193794171Y-72038344D02*
X195294171Y-71538344D01*
X195294171Y-71538344D02*
X193794171Y-71038344D01*
X193794171Y-69824059D02*
X193794171Y-70538345D01*
X193794171Y-70538345D02*
X195294171Y-70538345D01*
X194579885Y-69324059D02*
X194579885Y-68824059D01*
X193794171Y-68609773D02*
X193794171Y-69324059D01*
X193794171Y-69324059D02*
X195294171Y-69324059D01*
X195294171Y-69324059D02*
X195294171Y-68609773D01*
X191379171Y-98681203D02*
X191379171Y-99395489D01*
X191379171Y-99395489D02*
X192879171Y-99395489D01*
X191379171Y-98181203D02*
X192379171Y-98181203D01*
X192879171Y-98181203D02*
X192807742Y-98252631D01*
X192807742Y-98252631D02*
X192736314Y-98181203D01*
X192736314Y-98181203D02*
X192807742Y-98109774D01*
X192807742Y-98109774D02*
X192879171Y-98181203D01*
X192879171Y-98181203D02*
X192736314Y-98181203D01*
X191450600Y-96824060D02*
X191379171Y-96966917D01*
X191379171Y-96966917D02*
X191379171Y-97252631D01*
X191379171Y-97252631D02*
X191450600Y-97395488D01*
X191450600Y-97395488D02*
X191522028Y-97466917D01*
X191522028Y-97466917D02*
X191664885Y-97538345D01*
X191664885Y-97538345D02*
X192093457Y-97538345D01*
X192093457Y-97538345D02*
X192236314Y-97466917D01*
X192236314Y-97466917D02*
X192307742Y-97395488D01*
X192307742Y-97395488D02*
X192379171Y-97252631D01*
X192379171Y-97252631D02*
X192379171Y-96966917D01*
X192379171Y-96966917D02*
X192307742Y-96824060D01*
X191450600Y-95609774D02*
X191379171Y-95752631D01*
X191379171Y-95752631D02*
X191379171Y-96038346D01*
X191379171Y-96038346D02*
X191450600Y-96181203D01*
X191450600Y-96181203D02*
X191593457Y-96252631D01*
X191593457Y-96252631D02*
X192164885Y-96252631D01*
X192164885Y-96252631D02*
X192307742Y-96181203D01*
X192307742Y-96181203D02*
X192379171Y-96038346D01*
X192379171Y-96038346D02*
X192379171Y-95752631D01*
X192379171Y-95752631D02*
X192307742Y-95609774D01*
X192307742Y-95609774D02*
X192164885Y-95538346D01*
X192164885Y-95538346D02*
X192022028Y-95538346D01*
X192022028Y-95538346D02*
X191879171Y-96252631D01*
X192379171Y-94895489D02*
X191379171Y-94895489D01*
X192236314Y-94895489D02*
X192307742Y-94824060D01*
X192307742Y-94824060D02*
X192379171Y-94681203D01*
X192379171Y-94681203D02*
X192379171Y-94466917D01*
X192379171Y-94466917D02*
X192307742Y-94324060D01*
X192307742Y-94324060D02*
X192164885Y-94252632D01*
X192164885Y-94252632D02*
X191379171Y-94252632D01*
X191450600Y-93609774D02*
X191379171Y-93466917D01*
X191379171Y-93466917D02*
X191379171Y-93181203D01*
X191379171Y-93181203D02*
X191450600Y-93038346D01*
X191450600Y-93038346D02*
X191593457Y-92966917D01*
X191593457Y-92966917D02*
X191664885Y-92966917D01*
X191664885Y-92966917D02*
X191807742Y-93038346D01*
X191807742Y-93038346D02*
X191879171Y-93181203D01*
X191879171Y-93181203D02*
X191879171Y-93395489D01*
X191879171Y-93395489D02*
X191950600Y-93538346D01*
X191950600Y-93538346D02*
X192093457Y-93609774D01*
X192093457Y-93609774D02*
X192164885Y-93609774D01*
X192164885Y-93609774D02*
X192307742Y-93538346D01*
X192307742Y-93538346D02*
X192379171Y-93395489D01*
X192379171Y-93395489D02*
X192379171Y-93181203D01*
X192379171Y-93181203D02*
X192307742Y-93038346D01*
X191450600Y-91752631D02*
X191379171Y-91895488D01*
X191379171Y-91895488D02*
X191379171Y-92181203D01*
X191379171Y-92181203D02*
X191450600Y-92324060D01*
X191450600Y-92324060D02*
X191593457Y-92395488D01*
X191593457Y-92395488D02*
X192164885Y-92395488D01*
X192164885Y-92395488D02*
X192307742Y-92324060D01*
X192307742Y-92324060D02*
X192379171Y-92181203D01*
X192379171Y-92181203D02*
X192379171Y-91895488D01*
X192379171Y-91895488D02*
X192307742Y-91752631D01*
X192307742Y-91752631D02*
X192164885Y-91681203D01*
X192164885Y-91681203D02*
X192022028Y-91681203D01*
X192022028Y-91681203D02*
X191879171Y-92395488D01*
X191379171Y-90395489D02*
X192879171Y-90395489D01*
X191450600Y-90395489D02*
X191379171Y-90538346D01*
X191379171Y-90538346D02*
X191379171Y-90824060D01*
X191379171Y-90824060D02*
X191450600Y-90966917D01*
X191450600Y-90966917D02*
X191522028Y-91038346D01*
X191522028Y-91038346D02*
X191664885Y-91109774D01*
X191664885Y-91109774D02*
X192093457Y-91109774D01*
X192093457Y-91109774D02*
X192236314Y-91038346D01*
X192236314Y-91038346D02*
X192307742Y-90966917D01*
X192307742Y-90966917D02*
X192379171Y-90824060D01*
X192379171Y-90824060D02*
X192379171Y-90538346D01*
X192379171Y-90538346D02*
X192307742Y-90395489D01*
X191522028Y-87681203D02*
X191450600Y-87752631D01*
X191450600Y-87752631D02*
X191379171Y-87966917D01*
X191379171Y-87966917D02*
X191379171Y-88109774D01*
X191379171Y-88109774D02*
X191450600Y-88324060D01*
X191450600Y-88324060D02*
X191593457Y-88466917D01*
X191593457Y-88466917D02*
X191736314Y-88538346D01*
X191736314Y-88538346D02*
X192022028Y-88609774D01*
X192022028Y-88609774D02*
X192236314Y-88609774D01*
X192236314Y-88609774D02*
X192522028Y-88538346D01*
X192522028Y-88538346D02*
X192664885Y-88466917D01*
X192664885Y-88466917D02*
X192807742Y-88324060D01*
X192807742Y-88324060D02*
X192879171Y-88109774D01*
X192879171Y-88109774D02*
X192879171Y-87966917D01*
X192879171Y-87966917D02*
X192807742Y-87752631D01*
X192807742Y-87752631D02*
X192736314Y-87681203D01*
X191522028Y-86181203D02*
X191450600Y-86252631D01*
X191450600Y-86252631D02*
X191379171Y-86466917D01*
X191379171Y-86466917D02*
X191379171Y-86609774D01*
X191379171Y-86609774D02*
X191450600Y-86824060D01*
X191450600Y-86824060D02*
X191593457Y-86966917D01*
X191593457Y-86966917D02*
X191736314Y-87038346D01*
X191736314Y-87038346D02*
X192022028Y-87109774D01*
X192022028Y-87109774D02*
X192236314Y-87109774D01*
X192236314Y-87109774D02*
X192522028Y-87038346D01*
X192522028Y-87038346D02*
X192664885Y-86966917D01*
X192664885Y-86966917D02*
X192807742Y-86824060D01*
X192807742Y-86824060D02*
X192879171Y-86609774D01*
X192879171Y-86609774D02*
X192879171Y-86466917D01*
X192879171Y-86466917D02*
X192807742Y-86252631D01*
X192807742Y-86252631D02*
X192736314Y-86181203D01*
X192164885Y-83895489D02*
X192093457Y-83681203D01*
X192093457Y-83681203D02*
X192022028Y-83609774D01*
X192022028Y-83609774D02*
X191879171Y-83538346D01*
X191879171Y-83538346D02*
X191664885Y-83538346D01*
X191664885Y-83538346D02*
X191522028Y-83609774D01*
X191522028Y-83609774D02*
X191450600Y-83681203D01*
X191450600Y-83681203D02*
X191379171Y-83824060D01*
X191379171Y-83824060D02*
X191379171Y-84395489D01*
X191379171Y-84395489D02*
X192879171Y-84395489D01*
X192879171Y-84395489D02*
X192879171Y-83895489D01*
X192879171Y-83895489D02*
X192807742Y-83752632D01*
X192807742Y-83752632D02*
X192736314Y-83681203D01*
X192736314Y-83681203D02*
X192593457Y-83609774D01*
X192593457Y-83609774D02*
X192450600Y-83609774D01*
X192450600Y-83609774D02*
X192307742Y-83681203D01*
X192307742Y-83681203D02*
X192236314Y-83752632D01*
X192236314Y-83752632D02*
X192164885Y-83895489D01*
X192164885Y-83895489D02*
X192164885Y-84395489D01*
X192093457Y-82609774D02*
X191379171Y-82609774D01*
X192879171Y-83109774D02*
X192093457Y-82609774D01*
X192093457Y-82609774D02*
X192879171Y-82109774D01*
X191950600Y-81609775D02*
X191950600Y-80466918D01*
X191379171Y-79752632D02*
X192879171Y-79752632D01*
X192879171Y-79752632D02*
X191379171Y-78895489D01*
X191379171Y-78895489D02*
X192879171Y-78895489D01*
X191522028Y-77324060D02*
X191450600Y-77395488D01*
X191450600Y-77395488D02*
X191379171Y-77609774D01*
X191379171Y-77609774D02*
X191379171Y-77752631D01*
X191379171Y-77752631D02*
X191450600Y-77966917D01*
X191450600Y-77966917D02*
X191593457Y-78109774D01*
X191593457Y-78109774D02*
X191736314Y-78181203D01*
X191736314Y-78181203D02*
X192022028Y-78252631D01*
X192022028Y-78252631D02*
X192236314Y-78252631D01*
X192236314Y-78252631D02*
X192522028Y-78181203D01*
X192522028Y-78181203D02*
X192664885Y-78109774D01*
X192664885Y-78109774D02*
X192807742Y-77966917D01*
X192807742Y-77966917D02*
X192879171Y-77752631D01*
X192879171Y-77752631D02*
X192879171Y-77609774D01*
X192879171Y-77609774D02*
X192807742Y-77395488D01*
X192807742Y-77395488D02*
X192736314Y-77324060D01*
X191950600Y-76681203D02*
X191950600Y-75538346D01*
X191450600Y-74895488D02*
X191379171Y-74681203D01*
X191379171Y-74681203D02*
X191379171Y-74324060D01*
X191379171Y-74324060D02*
X191450600Y-74181203D01*
X191450600Y-74181203D02*
X191522028Y-74109774D01*
X191522028Y-74109774D02*
X191664885Y-74038345D01*
X191664885Y-74038345D02*
X191807742Y-74038345D01*
X191807742Y-74038345D02*
X191950600Y-74109774D01*
X191950600Y-74109774D02*
X192022028Y-74181203D01*
X192022028Y-74181203D02*
X192093457Y-74324060D01*
X192093457Y-74324060D02*
X192164885Y-74609774D01*
X192164885Y-74609774D02*
X192236314Y-74752631D01*
X192236314Y-74752631D02*
X192307742Y-74824060D01*
X192307742Y-74824060D02*
X192450600Y-74895488D01*
X192450600Y-74895488D02*
X192593457Y-74895488D01*
X192593457Y-74895488D02*
X192736314Y-74824060D01*
X192736314Y-74824060D02*
X192807742Y-74752631D01*
X192807742Y-74752631D02*
X192879171Y-74609774D01*
X192879171Y-74609774D02*
X192879171Y-74252631D01*
X192879171Y-74252631D02*
X192807742Y-74038345D01*
X191807742Y-73466917D02*
X191807742Y-72752632D01*
X191379171Y-73609774D02*
X192879171Y-73109774D01*
X192879171Y-73109774D02*
X191379171Y-72609774D01*
X192379171Y-70324061D02*
X191379171Y-70324061D01*
X192950600Y-70681203D02*
X191879171Y-71038346D01*
X191879171Y-71038346D02*
X191879171Y-70109775D01*
X191522028Y-69538347D02*
X191450600Y-69466918D01*
X191450600Y-69466918D02*
X191379171Y-69538347D01*
X191379171Y-69538347D02*
X191450600Y-69609775D01*
X191450600Y-69609775D02*
X191522028Y-69538347D01*
X191522028Y-69538347D02*
X191379171Y-69538347D01*
X192879171Y-68538346D02*
X192879171Y-68395489D01*
X192879171Y-68395489D02*
X192807742Y-68252632D01*
X192807742Y-68252632D02*
X192736314Y-68181204D01*
X192736314Y-68181204D02*
X192593457Y-68109775D01*
X192593457Y-68109775D02*
X192307742Y-68038346D01*
X192307742Y-68038346D02*
X191950600Y-68038346D01*
X191950600Y-68038346D02*
X191664885Y-68109775D01*
X191664885Y-68109775D02*
X191522028Y-68181204D01*
X191522028Y-68181204D02*
X191450600Y-68252632D01*
X191450600Y-68252632D02*
X191379171Y-68395489D01*
X191379171Y-68395489D02*
X191379171Y-68538346D01*
X191379171Y-68538346D02*
X191450600Y-68681204D01*
X191450600Y-68681204D02*
X191522028Y-68752632D01*
X191522028Y-68752632D02*
X191664885Y-68824061D01*
X191664885Y-68824061D02*
X191950600Y-68895489D01*
X191950600Y-68895489D02*
X192307742Y-68895489D01*
X192307742Y-68895489D02*
X192593457Y-68824061D01*
X192593457Y-68824061D02*
X192736314Y-68752632D01*
X192736314Y-68752632D02*
X192807742Y-68681204D01*
X192807742Y-68681204D02*
X192879171Y-68538346D01*
D12*
%TO.P,J3,1*%
%TO.N,#ADB_TURN_ON*%
X139300000Y-109280000D03*
%TO.P,J3,2*%
%TO.N,ADB_RAW*%
X145820000Y-109280000D03*
%TO.P,J3,3*%
%TO.N,GND*%
X139300000Y-106740000D03*
%TO.P,J3,4*%
%TO.N,5V_ADB_PWR*%
X145820000Y-106740000D03*
D13*
%TO.P,J3,9*%
%TO.N,GND*%
X136260000Y-112050000D03*
X142560000Y-112850000D03*
X148860000Y-112050000D03*
%TD*%
D12*
%TO.P,J6,1*%
%TO.N,#ADB_TURN_ON*%
X145820000Y-71620000D03*
%TO.P,J6,2*%
%TO.N,ADB_RAW*%
X139300000Y-71620000D03*
%TO.P,J6,3*%
%TO.N,GND*%
X145820000Y-74160000D03*
%TO.P,J6,4*%
%TO.N,5V_ADB_PWR*%
X139300000Y-74160000D03*
D13*
%TO.P,J6,9*%
%TO.N,GND*%
X148860000Y-68850000D03*
X142560000Y-68050000D03*
X136260000Y-68850000D03*
%TD*%
D14*
%TO.P,RP1,1,G0*%
%TO.N,unconnected-(RP1-G0-Pad1)*%
X172970000Y-115670000D03*
D15*
%TO.P,RP1,2,G1*%
%TO.N,unconnected-(RP1-G1-Pad2)*%
X172970000Y-113130000D03*
D16*
%TO.P,RP1,3,GND*%
%TO.N,GND*%
X172970000Y-110590000D03*
D15*
%TO.P,RP1,4,G2*%
%TO.N,unconnected-(RP1-G2-Pad4)*%
X172970000Y-108050000D03*
%TO.P,RP1,5,G3*%
%TO.N,unconnected-(RP1-G3-Pad5)*%
X172970000Y-105510000D03*
%TO.P,RP1,6,G4*%
%TO.N,unconnected-(RP1-G4-Pad6)*%
X172970000Y-102970000D03*
%TO.P,RP1,7,G5*%
%TO.N,unconnected-(RP1-G5-Pad7)*%
X172970000Y-100430000D03*
D16*
%TO.P,RP1,8,GND*%
%TO.N,GND*%
X172970000Y-97890000D03*
D15*
%TO.P,RP1,9,G6*%
%TO.N,unconnected-(RP1-G6-Pad9)*%
X172970000Y-95350000D03*
%TO.P,RP1,10,G7*%
%TO.N,unconnected-(RP1-G7-Pad10)*%
X172970000Y-92810000D03*
%TO.P,RP1,11,G8*%
%TO.N,unconnected-(RP1-G8-Pad11)*%
X172970000Y-90270000D03*
%TO.P,RP1,12,G9*%
%TO.N,unconnected-(RP1-G9-Pad12)*%
X172970000Y-87730000D03*
D16*
%TO.P,RP1,13,GND*%
%TO.N,GND*%
X172970000Y-85190000D03*
D15*
%TO.P,RP1,14,G10*%
%TO.N,unconnected-(RP1-G10-Pad14)*%
X172970000Y-82650000D03*
%TO.P,RP1,15,G11*%
%TO.N,unconnected-(RP1-G11-Pad15)*%
X172970000Y-80110000D03*
%TO.P,RP1,16,G12*%
%TO.N,unconnected-(RP1-G12-Pad16)*%
X172970000Y-77570000D03*
%TO.P,RP1,17,G13*%
%TO.N,unconnected-(RP1-G13-Pad17)*%
X172970000Y-75030000D03*
D16*
%TO.P,RP1,18,GND*%
%TO.N,GND*%
X172970000Y-72490000D03*
D15*
%TO.P,RP1,19,G14*%
%TO.N,unconnected-(RP1-G14-Pad19)*%
X172970000Y-69950000D03*
%TO.P,RP1,20,G15*%
%TO.N,LED_OUT*%
X172970000Y-67410000D03*
%TO.P,RP1,21,G16*%
%TO.N,unconnected-(RP1-G16-Pad21)*%
X155190000Y-67410000D03*
%TO.P,RP1,22,G17*%
%TO.N,unconnected-(RP1-G17-Pad22)*%
X155190000Y-69950000D03*
D16*
%TO.P,RP1,23,GND*%
%TO.N,GND*%
X155190000Y-72490000D03*
D15*
%TO.P,RP1,24,G18*%
%TO.N,unconnected-(RP1-G18-Pad24)*%
X155190000Y-75030000D03*
%TO.P,RP1,25,G19*%
%TO.N,ADB_OUT*%
X155190000Y-77570000D03*
%TO.P,RP1,26,G20*%
%TO.N,ADB_IN*%
X155190000Y-80110000D03*
%TO.P,RP1,27,G21*%
%TO.N,ADB_PWR_ON*%
X155190000Y-82650000D03*
D16*
%TO.P,RP1,28,GND*%
%TO.N,GND*%
X155190000Y-85190000D03*
D15*
%TO.P,RP1,29,G22*%
%TO.N,unconnected-(RP1-G22-Pad29)*%
X155190000Y-87730000D03*
%TO.P,RP1,30,RUN*%
%TO.N,unconnected-(RP1-RUN-Pad30)*%
X155190000Y-90270000D03*
%TO.P,RP1,31,G26*%
%TO.N,unconnected-(RP1-G26-Pad31)*%
X155190000Y-92810000D03*
%TO.P,RP1,32,G27*%
%TO.N,unconnected-(RP1-G27-Pad32)*%
X155190000Y-95350000D03*
D16*
%TO.P,RP1,33,A_GND*%
%TO.N,GND*%
X155190000Y-97890000D03*
D15*
%TO.P,RP1,34,G28*%
%TO.N,unconnected-(RP1-G28-Pad34)*%
X155190000Y-100430000D03*
%TO.P,RP1,35,ADC_VREF*%
%TO.N,unconnected-(RP1-ADC_VREF-Pad35)*%
X155190000Y-102970000D03*
%TO.P,RP1,36,3v3*%
%TO.N,+3.3V*%
X155190000Y-105510000D03*
%TO.P,RP1,37,3v3_EN*%
%TO.N,unconnected-(RP1-3v3_EN-Pad37)*%
X155190000Y-108050000D03*
D16*
%TO.P,RP1,38,GND*%
%TO.N,GND*%
X155190000Y-110590000D03*
D15*
%TO.P,RP1,39,VSYS*%
%TO.N,unconnected-(RP1-VSYS-Pad39)*%
X155190000Y-113130000D03*
%TO.P,RP1,40,VBUS_5V*%
%TO.N,VBUS*%
X155190000Y-115670000D03*
D17*
%TO.P,RP1,41*%
%TO.N,N/C*%
X163495800Y-85840000D03*
D18*
%TO.P,RP1,42*%
X160955800Y-85840000D03*
%TO.P,RP1,43*%
X158415800Y-85840000D03*
D19*
%TO.P,RP1,52,USB_DM*%
%TO.N,USB-*%
X163090000Y-115730000D03*
%TO.P,RP1,53,UDB_DP*%
%TO.N,USB+*%
X165090000Y-115730000D03*
%TD*%
D20*
%TO.P,J10,1,VBUS*%
%TO.N,VBUS*%
X181190000Y-105100000D03*
D15*
%TO.P,J10,2,D-*%
%TO.N,USB-*%
X183690000Y-105100000D03*
%TO.P,J10,3,D+*%
%TO.N,USB+*%
X185690000Y-105100000D03*
%TO.P,J10,4,GND*%
%TO.N,GND*%
X188190000Y-105100000D03*
D21*
%TO.P,J10,5,Shield*%
X178120000Y-107810000D03*
X191260000Y-107810000D03*
%TD*%
D22*
%TO.P,J1,1,Pin_1*%
%TO.N,VBUS*%
X180630000Y-95950000D03*
D23*
%TO.P,J1,2,Pin_2*%
%TO.N,USB-_EF*%
X183170000Y-95950000D03*
%TO.P,J1,3,Pin_3*%
%TO.N,USB+_EF*%
X185710000Y-95950000D03*
%TO.P,J1,4,Pin_4*%
%TO.N,GND*%
X188250000Y-95950000D03*
%TD*%
D24*
%TO.N,GND*%
X148450000Y-85720000D03*
X144850000Y-79992500D03*
X140490000Y-87340000D03*
X184650000Y-97580000D03*
X158150000Y-103130000D03*
X141200000Y-97820000D03*
X168520000Y-116250000D03*
X143530000Y-82070000D03*
X139590000Y-84080000D03*
X171230000Y-104210000D03*
X158180000Y-100500000D03*
X178960000Y-98250000D03*
X192680000Y-65320000D03*
X148430000Y-82420000D03*
X141000000Y-80530000D03*
X177100000Y-95860000D03*
X159640000Y-116440000D03*
X144510000Y-105050000D03*
X138990000Y-93200000D03*
%TO.N,VBUS*%
X180770000Y-69020000D03*
%TO.N,ADB_IN*%
X143915000Y-79687500D03*
%TO.N,ADB_PWR_ON*%
X143750000Y-88730000D03*
%TD*%
D25*
%TO.N,GND*%
X158090000Y-89060000D02*
X158090000Y-88150000D01*
X156920000Y-76320000D02*
X156920000Y-75850000D01*
X156640000Y-85190000D02*
X157110000Y-84720000D01*
X153140000Y-97890000D02*
X152300000Y-97050000D01*
X153900000Y-94100000D02*
X153850000Y-94150000D01*
X156920000Y-81380000D02*
X156920000Y-78830000D01*
X158090000Y-94100000D02*
X153900000Y-94100000D01*
X175020000Y-110590000D02*
X175040000Y-110570000D01*
X158090000Y-94100000D02*
X158090000Y-91540000D01*
X152300000Y-97050000D02*
X152740000Y-96610000D01*
X175980000Y-98800000D02*
X175980000Y-101150000D01*
X172970000Y-97890000D02*
X175110000Y-97890000D01*
X154110000Y-81380000D02*
X154100000Y-81390000D01*
X172970000Y-110590000D02*
X175020000Y-110590000D01*
X156920000Y-84530000D02*
X156920000Y-81380000D01*
X175780000Y-114340000D02*
X175780000Y-115530000D01*
X153620000Y-88990000D02*
X153500000Y-88870000D01*
X155190000Y-85190000D02*
X156640000Y-85190000D01*
X158090000Y-96290000D02*
X158090000Y-94100000D01*
X156920000Y-78830000D02*
X156920000Y-76320000D01*
X156720000Y-97290000D02*
X156905000Y-97475000D01*
X175780000Y-111890000D02*
X175780000Y-114340000D01*
X156920000Y-81380000D02*
X154110000Y-81380000D01*
X153840000Y-91540000D02*
X153810000Y-91510000D01*
X171800000Y-114340000D02*
X171770000Y-114370000D01*
X171590000Y-101710000D02*
X171580000Y-101720000D01*
X175780000Y-114340000D02*
X171800000Y-114340000D01*
X158090000Y-91540000D02*
X153840000Y-91540000D01*
X175420000Y-101710000D02*
X175280000Y-101710000D01*
X156610000Y-96610000D02*
X156720000Y-96720000D01*
X158020000Y-88990000D02*
X153620000Y-88990000D01*
X155190000Y-97890000D02*
X153140000Y-97890000D01*
X175780000Y-111310000D02*
X175780000Y-111890000D01*
X171420000Y-111890000D02*
X171360000Y-111950000D01*
X175280000Y-101710000D02*
X171590000Y-101710000D01*
X156720000Y-96720000D02*
X156720000Y-97290000D01*
X175040000Y-110570000D02*
X175780000Y-111310000D01*
X158090000Y-88150000D02*
X157590000Y-87650000D01*
X175780000Y-111890000D02*
X171420000Y-111890000D01*
X175110000Y-97890000D02*
X176000000Y-98780000D01*
X175980000Y-101150000D02*
X175420000Y-101710000D01*
X157110000Y-84720000D02*
X156920000Y-84530000D01*
X158090000Y-89060000D02*
X158020000Y-88990000D01*
X156920000Y-78830000D02*
X153940000Y-78830000D01*
X153890000Y-76320000D02*
X153870000Y-76300000D01*
X176000000Y-98780000D02*
X175980000Y-98800000D01*
X156905000Y-97475000D02*
X158090000Y-96290000D01*
X153940000Y-78830000D02*
X153910000Y-78800000D01*
X152740000Y-96610000D02*
X156610000Y-96610000D01*
X158090000Y-91540000D02*
X158090000Y-89060000D01*
X156920000Y-76320000D02*
X153890000Y-76320000D01*
%TO.N,VBUS*%
X180630000Y-95950000D02*
X180630000Y-69160000D01*
X180630000Y-69160000D02*
X180770000Y-69020000D01*
%TO.N,ADB_IN*%
X150750000Y-80110000D02*
X155190000Y-80110000D01*
X144532500Y-79070000D02*
X149710000Y-79070000D01*
X149710000Y-79070000D02*
X150750000Y-80110000D01*
X143915000Y-79687500D02*
X144532500Y-79070000D01*
D26*
%TO.N,ADB_PWR_ON*%
X149830000Y-82650000D02*
X143750000Y-88730000D01*
X155190000Y-82650000D02*
X149830000Y-82650000D01*
%TD*%
%TA.AperFunction,Conductor*%
%TO.N,GND*%
G36*
X199072539Y-63770185D02*
G01*
X199118294Y-63822989D01*
X199129500Y-63874500D01*
X199129500Y-117155500D01*
X199109815Y-117222539D01*
X199057011Y-117268294D01*
X199005500Y-117279500D01*
X167514500Y-117279500D01*
X167447461Y-117259815D01*
X167401706Y-117207011D01*
X167390500Y-117155500D01*
X167390500Y-116487940D01*
X167410185Y-116420901D01*
X167426819Y-116400259D01*
X167427874Y-116399204D01*
X167434816Y-116392262D01*
X167530789Y-116239522D01*
X167590368Y-116069255D01*
X167593239Y-116043779D01*
X167597934Y-116002104D01*
X167605500Y-115934954D01*
X167605500Y-115470628D01*
X171653084Y-115470628D01*
X171654439Y-115727515D01*
X171655648Y-115953082D01*
X171655648Y-115953085D01*
X171659501Y-115987277D01*
X171659501Y-115987278D01*
X171665867Y-116043781D01*
X171665871Y-116043805D01*
X171682005Y-116126006D01*
X171709553Y-116201709D01*
X171709555Y-116201714D01*
X171730342Y-116239522D01*
X171741395Y-116259625D01*
X171741397Y-116259628D01*
X171783524Y-116327843D01*
X171783526Y-116327845D01*
X171840437Y-116399210D01*
X171897849Y-116460245D01*
X172240790Y-116799563D01*
X172312155Y-116856474D01*
X172312164Y-116856480D01*
X172381678Y-116903184D01*
X172381679Y-116903185D01*
X172381682Y-116903186D01*
X172381683Y-116903187D01*
X172454712Y-116937250D01*
X172518159Y-116955678D01*
X172596207Y-116974131D01*
X172596214Y-116974131D01*
X172596220Y-116974133D01*
X172652722Y-116980499D01*
X172652723Y-116980499D01*
X172665796Y-116981972D01*
X172686899Y-116984350D01*
X172686905Y-116984350D01*
X172686919Y-116984352D01*
X172770617Y-116986915D01*
X172770626Y-116986914D01*
X172770628Y-116986915D01*
X172936848Y-116986038D01*
X173027520Y-116985561D01*
X173253081Y-116984352D01*
X173287277Y-116980499D01*
X173287278Y-116980499D01*
X173300975Y-116978955D01*
X173343793Y-116974131D01*
X173426004Y-116957995D01*
X173501714Y-116930445D01*
X173559623Y-116898606D01*
X173627845Y-116856474D01*
X173699210Y-116799563D01*
X173760245Y-116742151D01*
X174099563Y-116399210D01*
X174156474Y-116327845D01*
X174203187Y-116258317D01*
X174237250Y-116185288D01*
X174255678Y-116121841D01*
X174274131Y-116043793D01*
X174274132Y-116043783D01*
X174274133Y-116043779D01*
X174280499Y-115987278D01*
X174280499Y-115987275D01*
X174284350Y-115953100D01*
X174284351Y-115953086D01*
X174284352Y-115953081D01*
X174286915Y-115869383D01*
X174285561Y-115612479D01*
X174284352Y-115386919D01*
X174280499Y-115352723D01*
X174274131Y-115296207D01*
X174257995Y-115213996D01*
X174230445Y-115138286D01*
X174198606Y-115080377D01*
X174156474Y-115012155D01*
X174099563Y-114940790D01*
X174042151Y-114879755D01*
X173699210Y-114540437D01*
X173627845Y-114483526D01*
X173627840Y-114483523D01*
X173627837Y-114483520D01*
X173619480Y-114477906D01*
X173574810Y-114424182D01*
X173566277Y-114354835D01*
X173596590Y-114291884D01*
X173622517Y-114270919D01*
X173622314Y-114270628D01*
X173626521Y-114267681D01*
X173626645Y-114267582D01*
X173626734Y-114267529D01*
X173626749Y-114267523D01*
X173814300Y-114136198D01*
X173976198Y-113974300D01*
X174107523Y-113786749D01*
X174204284Y-113579243D01*
X174263543Y-113358087D01*
X174283498Y-113130000D01*
X174283270Y-113127398D01*
X174273740Y-113018470D01*
X174263543Y-112901913D01*
X174204284Y-112680757D01*
X174187484Y-112644730D01*
X174165736Y-112598091D01*
X174107523Y-112473251D01*
X173976198Y-112285700D01*
X173814300Y-112123802D01*
X173747649Y-112077132D01*
X173704024Y-112022555D01*
X173696832Y-111953057D01*
X173728355Y-111890702D01*
X173781883Y-111857172D01*
X173859399Y-111833017D01*
X174004877Y-111745072D01*
X174125072Y-111624877D01*
X174213019Y-111479395D01*
X174263590Y-111317106D01*
X174270000Y-111246572D01*
X174270000Y-110840000D01*
X173403686Y-110840000D01*
X173429493Y-110799844D01*
X173470000Y-110661889D01*
X173470000Y-110518111D01*
X173429493Y-110380156D01*
X173403686Y-110340000D01*
X174269999Y-110340000D01*
X174269999Y-109933417D01*
X174263591Y-109862897D01*
X174263590Y-109862892D01*
X174213018Y-109700603D01*
X174125072Y-109555122D01*
X174004877Y-109434927D01*
X173859396Y-109346981D01*
X173781881Y-109322826D01*
X173723734Y-109284088D01*
X173695760Y-109220063D01*
X173706842Y-109151078D01*
X173747645Y-109102870D01*
X173814300Y-109056198D01*
X173976198Y-108894300D01*
X174107523Y-108706749D01*
X174204284Y-108499243D01*
X174263543Y-108278087D01*
X174283498Y-108050000D01*
X174281797Y-108030563D01*
X174270636Y-107902990D01*
X174263543Y-107821913D01*
X174260351Y-107810001D01*
X176114891Y-107810001D01*
X176135300Y-108095362D01*
X176196109Y-108374895D01*
X176296091Y-108642958D01*
X176433191Y-108894038D01*
X176433196Y-108894046D01*
X176539882Y-109036561D01*
X176539883Y-109036562D01*
X177149438Y-108427006D01*
X177198348Y-108505999D01*
X177341931Y-108663501D01*
X177500388Y-108783163D01*
X176893436Y-109390115D01*
X177035960Y-109496807D01*
X177035961Y-109496808D01*
X177287042Y-109633908D01*
X177287041Y-109633908D01*
X177555104Y-109733890D01*
X177834637Y-109794699D01*
X178119999Y-109815109D01*
X178120001Y-109815109D01*
X178405362Y-109794699D01*
X178684895Y-109733890D01*
X178952958Y-109633908D01*
X179204047Y-109496803D01*
X179346561Y-109390116D01*
X179346562Y-109390115D01*
X178739611Y-108783163D01*
X178898069Y-108663501D01*
X179041652Y-108505999D01*
X179090560Y-108427007D01*
X179700115Y-109036562D01*
X179700116Y-109036561D01*
X179806803Y-108894047D01*
X179943908Y-108642958D01*
X180043890Y-108374895D01*
X180104699Y-108095362D01*
X180125109Y-107810001D01*
X189254891Y-107810001D01*
X189275300Y-108095362D01*
X189336109Y-108374895D01*
X189436091Y-108642958D01*
X189573191Y-108894038D01*
X189573196Y-108894046D01*
X189679882Y-109036561D01*
X189679883Y-109036562D01*
X190289438Y-108427006D01*
X190338348Y-108505999D01*
X190481931Y-108663501D01*
X190640388Y-108783163D01*
X190033436Y-109390115D01*
X190175960Y-109496807D01*
X190175961Y-109496808D01*
X190427042Y-109633908D01*
X190427041Y-109633908D01*
X190695104Y-109733890D01*
X190974637Y-109794699D01*
X191259999Y-109815109D01*
X191260001Y-109815109D01*
X191545362Y-109794699D01*
X191824895Y-109733890D01*
X192092958Y-109633908D01*
X192344047Y-109496803D01*
X192486561Y-109390116D01*
X192486562Y-109390115D01*
X191879611Y-108783163D01*
X192038069Y-108663501D01*
X192181652Y-108505999D01*
X192230560Y-108427007D01*
X192840115Y-109036562D01*
X192840116Y-109036561D01*
X192946803Y-108894047D01*
X193083908Y-108642958D01*
X193183890Y-108374895D01*
X193244699Y-108095362D01*
X193265109Y-107810001D01*
X193265109Y-107809998D01*
X193244699Y-107524637D01*
X193183890Y-107245104D01*
X193083908Y-106977041D01*
X192946808Y-106725961D01*
X192946807Y-106725960D01*
X192840115Y-106583436D01*
X192230560Y-107192991D01*
X192181652Y-107114001D01*
X192038069Y-106956499D01*
X191879610Y-106836835D01*
X192486562Y-106229883D01*
X192486561Y-106229882D01*
X192344046Y-106123196D01*
X192344038Y-106123191D01*
X192092957Y-105986091D01*
X192092958Y-105986091D01*
X191824895Y-105886109D01*
X191545362Y-105825300D01*
X191260001Y-105804891D01*
X191259999Y-105804891D01*
X190974637Y-105825300D01*
X190695104Y-105886109D01*
X190427041Y-105986091D01*
X190175961Y-106123191D01*
X190175953Y-106123196D01*
X190033437Y-106229882D01*
X190033436Y-106229883D01*
X190640389Y-106836835D01*
X190481931Y-106956499D01*
X190338348Y-107114001D01*
X190289439Y-107192992D01*
X189679883Y-106583436D01*
X189679882Y-106583437D01*
X189573196Y-106725953D01*
X189573191Y-106725961D01*
X189436091Y-106977041D01*
X189336109Y-107245104D01*
X189275300Y-107524637D01*
X189254891Y-107809998D01*
X189254891Y-107810001D01*
X180125109Y-107810001D01*
X180125109Y-107809998D01*
X180104699Y-107524637D01*
X180043890Y-107245104D01*
X179943908Y-106977041D01*
X179806808Y-106725961D01*
X179806807Y-106725960D01*
X179700115Y-106583436D01*
X179090560Y-107192991D01*
X179041652Y-107114001D01*
X178898069Y-106956499D01*
X178739610Y-106836835D01*
X179346562Y-106229883D01*
X179346561Y-106229882D01*
X179204046Y-106123196D01*
X179204038Y-106123191D01*
X178952957Y-105986091D01*
X178952958Y-105986091D01*
X178718530Y-105898654D01*
X179881500Y-105898654D01*
X179888011Y-105959202D01*
X179888011Y-105959204D01*
X179933485Y-106081121D01*
X179939111Y-106096204D01*
X180026739Y-106213261D01*
X180143796Y-106300889D01*
X180280799Y-106351989D01*
X180308050Y-106354918D01*
X180341345Y-106358499D01*
X180341362Y-106358500D01*
X182038638Y-106358500D01*
X182038654Y-106358499D01*
X182065692Y-106355591D01*
X182099201Y-106351989D01*
X182236204Y-106300889D01*
X182353261Y-106213261D01*
X182440889Y-106096204D01*
X182454586Y-106059480D01*
X182480717Y-105989424D01*
X182522588Y-105933490D01*
X182588053Y-105909074D01*
X182656326Y-105923926D01*
X182684579Y-105945077D01*
X182845700Y-106106198D01*
X183033251Y-106237523D01*
X183145789Y-106290000D01*
X183240750Y-106334281D01*
X183240752Y-106334281D01*
X183240757Y-106334284D01*
X183461913Y-106393543D01*
X183608881Y-106406401D01*
X183689998Y-106413498D01*
X183690000Y-106413498D01*
X183690002Y-106413498D01*
X183747021Y-106408509D01*
X183918087Y-106393543D01*
X184139243Y-106334284D01*
X184346749Y-106237523D01*
X184534300Y-106106198D01*
X184602319Y-106038179D01*
X184663642Y-106004694D01*
X184733334Y-106009678D01*
X184777681Y-106038179D01*
X184845700Y-106106198D01*
X185033251Y-106237523D01*
X185145789Y-106290000D01*
X185240750Y-106334281D01*
X185240752Y-106334281D01*
X185240757Y-106334284D01*
X185461913Y-106393543D01*
X185608881Y-106406401D01*
X185689998Y-106413498D01*
X185690000Y-106413498D01*
X185690002Y-106413498D01*
X185747021Y-106408509D01*
X185918087Y-106393543D01*
X186139243Y-106334284D01*
X186346749Y-106237523D01*
X186534300Y-106106198D01*
X186696198Y-105944300D01*
X186827523Y-105756749D01*
X186832305Y-105746493D01*
X186878472Y-105694054D01*
X186945665Y-105674898D01*
X187012547Y-105695110D01*
X187057067Y-105746483D01*
X187059862Y-105752477D01*
X187059863Y-105752478D01*
X187110974Y-105825472D01*
X187727064Y-105209382D01*
X187753481Y-105299351D01*
X187827327Y-105414258D01*
X187930555Y-105503705D01*
X188054801Y-105560446D01*
X188079548Y-105564004D01*
X187464526Y-106179025D01*
X187537513Y-106230132D01*
X187537521Y-106230136D01*
X187743668Y-106326264D01*
X187743682Y-106326269D01*
X187963389Y-106385139D01*
X187963400Y-106385141D01*
X188189998Y-106404966D01*
X188190002Y-106404966D01*
X188416599Y-106385141D01*
X188416610Y-106385139D01*
X188636317Y-106326269D01*
X188636331Y-106326264D01*
X188842478Y-106230136D01*
X188915471Y-106179024D01*
X188300451Y-105564004D01*
X188325199Y-105560446D01*
X188449445Y-105503705D01*
X188552673Y-105414258D01*
X188626519Y-105299351D01*
X188652935Y-105209382D01*
X189269024Y-105825471D01*
X189320136Y-105752478D01*
X189416264Y-105546331D01*
X189416269Y-105546317D01*
X189475139Y-105326610D01*
X189475141Y-105326599D01*
X189494966Y-105100002D01*
X189494966Y-105099997D01*
X189475141Y-104873400D01*
X189475139Y-104873389D01*
X189416269Y-104653682D01*
X189416264Y-104653668D01*
X189320136Y-104447521D01*
X189320132Y-104447513D01*
X189269025Y-104374526D01*
X188652935Y-104990616D01*
X188626519Y-104900649D01*
X188552673Y-104785742D01*
X188449445Y-104696295D01*
X188325199Y-104639554D01*
X188300451Y-104635995D01*
X188915472Y-104020974D01*
X188842478Y-103969863D01*
X188636331Y-103873735D01*
X188636317Y-103873730D01*
X188416610Y-103814860D01*
X188416599Y-103814858D01*
X188190002Y-103795034D01*
X188189998Y-103795034D01*
X187963400Y-103814858D01*
X187963389Y-103814860D01*
X187743682Y-103873730D01*
X187743673Y-103873734D01*
X187537516Y-103969866D01*
X187537512Y-103969868D01*
X187464526Y-104020973D01*
X187464526Y-104020974D01*
X188079548Y-104635995D01*
X188054801Y-104639554D01*
X187930555Y-104696295D01*
X187827327Y-104785742D01*
X187753481Y-104900649D01*
X187727064Y-104990616D01*
X187110974Y-104374526D01*
X187110973Y-104374526D01*
X187059868Y-104447512D01*
X187059865Y-104447518D01*
X187057070Y-104453513D01*
X187010897Y-104505951D01*
X186943703Y-104525102D01*
X186876822Y-104504885D01*
X186832307Y-104453511D01*
X186827523Y-104443251D01*
X186696198Y-104255700D01*
X186534300Y-104093802D01*
X186346749Y-103962477D01*
X186346745Y-103962475D01*
X186139249Y-103865718D01*
X186139238Y-103865714D01*
X185918089Y-103806457D01*
X185918081Y-103806456D01*
X185690002Y-103786502D01*
X185689998Y-103786502D01*
X185461918Y-103806456D01*
X185461910Y-103806457D01*
X185240761Y-103865714D01*
X185240750Y-103865718D01*
X185033254Y-103962475D01*
X185033252Y-103962476D01*
X185013655Y-103976198D01*
X184845700Y-104093802D01*
X184845698Y-104093803D01*
X184845695Y-104093806D01*
X184777681Y-104161821D01*
X184716358Y-104195306D01*
X184646666Y-104190322D01*
X184602319Y-104161821D01*
X184534304Y-104093806D01*
X184534300Y-104093802D01*
X184346749Y-103962477D01*
X184346745Y-103962475D01*
X184139249Y-103865718D01*
X184139238Y-103865714D01*
X183918089Y-103806457D01*
X183918081Y-103806456D01*
X183690002Y-103786502D01*
X183689998Y-103786502D01*
X183461918Y-103806456D01*
X183461910Y-103806457D01*
X183240761Y-103865714D01*
X183240750Y-103865718D01*
X183033254Y-103962475D01*
X183033252Y-103962476D01*
X182845699Y-104093803D01*
X182684579Y-104254923D01*
X182623256Y-104288407D01*
X182553564Y-104283423D01*
X182497631Y-104241551D01*
X182480717Y-104210576D01*
X182442279Y-104107523D01*
X182440889Y-104103796D01*
X182353261Y-103986739D01*
X182236204Y-103899111D01*
X182099203Y-103848011D01*
X182038654Y-103841500D01*
X182038638Y-103841500D01*
X180341362Y-103841500D01*
X180341345Y-103841500D01*
X180280797Y-103848011D01*
X180280795Y-103848011D01*
X180143795Y-103899111D01*
X180026739Y-103986739D01*
X179939111Y-104103795D01*
X179888011Y-104240795D01*
X179888011Y-104240797D01*
X179881500Y-104301345D01*
X179881500Y-105898654D01*
X178718530Y-105898654D01*
X178684895Y-105886109D01*
X178405362Y-105825300D01*
X178120001Y-105804891D01*
X178119999Y-105804891D01*
X177834637Y-105825300D01*
X177555104Y-105886109D01*
X177287041Y-105986091D01*
X177035961Y-106123191D01*
X177035953Y-106123196D01*
X176893437Y-106229882D01*
X176893436Y-106229883D01*
X177500389Y-106836835D01*
X177341931Y-106956499D01*
X177198348Y-107114001D01*
X177149439Y-107192992D01*
X176539883Y-106583436D01*
X176539882Y-106583437D01*
X176433196Y-106725953D01*
X176433191Y-106725961D01*
X176296091Y-106977041D01*
X176196109Y-107245104D01*
X176135300Y-107524637D01*
X176114891Y-107809998D01*
X176114891Y-107810001D01*
X174260351Y-107810001D01*
X174204284Y-107600757D01*
X174168026Y-107523002D01*
X174107524Y-107393254D01*
X174107523Y-107393252D01*
X174107523Y-107393251D01*
X173976198Y-107205700D01*
X173814300Y-107043802D01*
X173626749Y-106912477D01*
X173583655Y-106892382D01*
X173531215Y-106846210D01*
X173512063Y-106779017D01*
X173532278Y-106712136D01*
X173583655Y-106667618D01*
X173586882Y-106666112D01*
X173626749Y-106647523D01*
X173814300Y-106516198D01*
X173976198Y-106354300D01*
X174107523Y-106166749D01*
X174204284Y-105959243D01*
X174263543Y-105738087D01*
X174283498Y-105510000D01*
X174263543Y-105281913D01*
X174204284Y-105060757D01*
X174107523Y-104853251D01*
X173976198Y-104665700D01*
X173814300Y-104503802D01*
X173626749Y-104372477D01*
X173583655Y-104352382D01*
X173531215Y-104306210D01*
X173512063Y-104239017D01*
X173532278Y-104172136D01*
X173583655Y-104127618D01*
X173586882Y-104126112D01*
X173626749Y-104107523D01*
X173814300Y-103976198D01*
X173976198Y-103814300D01*
X174107523Y-103626749D01*
X174204284Y-103419243D01*
X174263543Y-103198087D01*
X174283498Y-102970000D01*
X174263543Y-102741913D01*
X174204284Y-102520757D01*
X174107523Y-102313251D01*
X173976198Y-102125700D01*
X173814300Y-101963802D01*
X173626749Y-101832477D01*
X173583655Y-101812382D01*
X173531215Y-101766210D01*
X173512063Y-101699017D01*
X173532278Y-101632136D01*
X173583655Y-101587618D01*
X173586882Y-101586112D01*
X173626749Y-101567523D01*
X173814300Y-101436198D01*
X173976198Y-101274300D01*
X174107523Y-101086749D01*
X174204284Y-100879243D01*
X174263543Y-100658087D01*
X174283498Y-100430000D01*
X174263543Y-100201913D01*
X174204284Y-99980757D01*
X174107523Y-99773251D01*
X173976198Y-99585700D01*
X173814300Y-99423802D01*
X173747649Y-99377132D01*
X173704024Y-99322555D01*
X173696832Y-99253057D01*
X173728355Y-99190702D01*
X173781883Y-99157172D01*
X173859399Y-99133017D01*
X174004877Y-99045072D01*
X174125072Y-98924877D01*
X174213019Y-98779395D01*
X174263590Y-98617106D01*
X174270000Y-98546572D01*
X174270000Y-98140000D01*
X173403686Y-98140000D01*
X173429493Y-98099844D01*
X173470000Y-97961889D01*
X173470000Y-97818111D01*
X173429493Y-97680156D01*
X173403686Y-97640000D01*
X174269999Y-97640000D01*
X174269999Y-97233417D01*
X174263591Y-97162897D01*
X174263590Y-97162892D01*
X174213018Y-97000603D01*
X174125072Y-96855122D01*
X174118604Y-96848654D01*
X179271500Y-96848654D01*
X179278011Y-96909202D01*
X179278011Y-96909204D01*
X179312103Y-97000604D01*
X179329111Y-97046204D01*
X179416739Y-97163261D01*
X179533796Y-97250889D01*
X179670799Y-97301989D01*
X179698050Y-97304918D01*
X179731345Y-97308499D01*
X179731362Y-97308500D01*
X181528638Y-97308500D01*
X181528654Y-97308499D01*
X181555692Y-97305591D01*
X181589201Y-97301989D01*
X181726204Y-97250889D01*
X181843261Y-97163261D01*
X181930889Y-97046204D01*
X181976138Y-96924887D01*
X182018009Y-96868956D01*
X182083474Y-96844539D01*
X182151746Y-96859391D01*
X182183545Y-96884236D01*
X182246760Y-96952906D01*
X182424424Y-97091189D01*
X182424425Y-97091189D01*
X182424427Y-97091191D01*
X182471636Y-97116739D01*
X182622426Y-97198342D01*
X182835365Y-97271444D01*
X183057431Y-97308500D01*
X183282569Y-97308500D01*
X183504635Y-97271444D01*
X183717574Y-97198342D01*
X183915576Y-97091189D01*
X184093240Y-96952906D01*
X184214594Y-96821082D01*
X184245715Y-96787276D01*
X184245715Y-96787275D01*
X184245722Y-96787268D01*
X184336193Y-96648790D01*
X184389338Y-96603437D01*
X184458569Y-96594013D01*
X184521905Y-96623515D01*
X184543804Y-96648787D01*
X184634278Y-96787268D01*
X184634283Y-96787273D01*
X184634284Y-96787276D01*
X184760968Y-96924889D01*
X184786760Y-96952906D01*
X184964424Y-97091189D01*
X184964425Y-97091189D01*
X184964427Y-97091191D01*
X185011636Y-97116739D01*
X185162426Y-97198342D01*
X185375365Y-97271444D01*
X185597431Y-97308500D01*
X185822569Y-97308500D01*
X186044635Y-97271444D01*
X186257574Y-97198342D01*
X186455576Y-97091189D01*
X186633240Y-96952906D01*
X186754594Y-96821082D01*
X186785715Y-96787276D01*
X186785715Y-96787275D01*
X186785722Y-96787268D01*
X186879749Y-96643347D01*
X186932894Y-96597994D01*
X187002125Y-96588570D01*
X187065461Y-96618072D01*
X187085130Y-96640048D01*
X187211890Y-96821078D01*
X187378917Y-96988105D01*
X187572421Y-97123600D01*
X187786507Y-97223429D01*
X187786516Y-97223433D01*
X188000000Y-97280634D01*
X188000000Y-96385501D01*
X188107685Y-96434680D01*
X188214237Y-96450000D01*
X188285763Y-96450000D01*
X188392315Y-96434680D01*
X188500000Y-96385501D01*
X188500000Y-97280633D01*
X188713483Y-97223433D01*
X188713492Y-97223429D01*
X188927578Y-97123600D01*
X189121082Y-96988105D01*
X189288105Y-96821082D01*
X189423600Y-96627578D01*
X189523429Y-96413492D01*
X189523432Y-96413486D01*
X189580636Y-96200000D01*
X188683686Y-96200000D01*
X188709493Y-96159844D01*
X188750000Y-96021889D01*
X188750000Y-95878111D01*
X188709493Y-95740156D01*
X188683686Y-95700000D01*
X189580636Y-95700000D01*
X189580635Y-95699999D01*
X189523432Y-95486513D01*
X189523429Y-95486507D01*
X189423600Y-95272422D01*
X189423599Y-95272420D01*
X189288113Y-95078926D01*
X189288108Y-95078920D01*
X189121082Y-94911894D01*
X188927578Y-94776399D01*
X188713492Y-94676570D01*
X188713486Y-94676567D01*
X188500000Y-94619364D01*
X188500000Y-95514498D01*
X188392315Y-95465320D01*
X188285763Y-95450000D01*
X188214237Y-95450000D01*
X188107685Y-95465320D01*
X188000000Y-95514498D01*
X188000000Y-94619364D01*
X187999999Y-94619364D01*
X187786513Y-94676567D01*
X187786507Y-94676570D01*
X187572422Y-94776399D01*
X187572420Y-94776400D01*
X187378926Y-94911886D01*
X187378920Y-94911891D01*
X187211891Y-95078920D01*
X187211890Y-95078922D01*
X187085131Y-95259952D01*
X187030554Y-95303577D01*
X186961055Y-95310769D01*
X186898701Y-95279247D01*
X186879752Y-95256656D01*
X186785722Y-95112732D01*
X186785715Y-95112725D01*
X186785715Y-95112723D01*
X186633243Y-94947097D01*
X186633238Y-94947092D01*
X186455577Y-94808812D01*
X186455572Y-94808808D01*
X186257580Y-94701661D01*
X186257577Y-94701659D01*
X186257574Y-94701658D01*
X186257571Y-94701657D01*
X186257569Y-94701656D01*
X186044637Y-94628556D01*
X185822569Y-94591500D01*
X185597431Y-94591500D01*
X185375362Y-94628556D01*
X185162430Y-94701656D01*
X185162419Y-94701661D01*
X184964427Y-94808808D01*
X184964422Y-94808812D01*
X184786761Y-94947092D01*
X184786756Y-94947097D01*
X184634284Y-95112723D01*
X184634276Y-95112734D01*
X184543808Y-95251206D01*
X184490662Y-95296562D01*
X184421431Y-95305986D01*
X184358095Y-95276484D01*
X184336192Y-95251206D01*
X184278286Y-95162576D01*
X184245722Y-95112732D01*
X184245719Y-95112729D01*
X184245715Y-95112723D01*
X184093243Y-94947097D01*
X184093238Y-94947092D01*
X183915577Y-94808812D01*
X183915572Y-94808808D01*
X183717580Y-94701661D01*
X183717577Y-94701659D01*
X183717574Y-94701658D01*
X183717571Y-94701657D01*
X183717569Y-94701656D01*
X183504637Y-94628556D01*
X183282569Y-94591500D01*
X183057431Y-94591500D01*
X182835362Y-94628556D01*
X182622430Y-94701656D01*
X182622419Y-94701661D01*
X182424427Y-94808808D01*
X182424422Y-94808812D01*
X182246761Y-94947092D01*
X182183548Y-95015760D01*
X182123661Y-95051750D01*
X182053823Y-95049649D01*
X181996207Y-95010124D01*
X181976138Y-94975110D01*
X181930889Y-94853796D01*
X181897214Y-94808812D01*
X181843261Y-94736739D01*
X181726204Y-94649111D01*
X181589203Y-94598011D01*
X181528654Y-94591500D01*
X181528638Y-94591500D01*
X181427500Y-94591500D01*
X181360461Y-94571815D01*
X181314706Y-94519011D01*
X181303500Y-94467500D01*
X181303500Y-90527763D01*
X182145787Y-90527763D01*
X182175413Y-90797013D01*
X182175415Y-90797024D01*
X182243926Y-91059082D01*
X182243928Y-91059088D01*
X182349870Y-91308390D01*
X182428293Y-91436890D01*
X182490979Y-91539605D01*
X182490986Y-91539615D01*
X182664253Y-91747819D01*
X182664259Y-91747824D01*
X182726735Y-91803802D01*
X182865998Y-91928582D01*
X183091910Y-92078044D01*
X183337176Y-92193020D01*
X183337183Y-92193022D01*
X183337185Y-92193023D01*
X183596557Y-92271057D01*
X183596564Y-92271058D01*
X183596569Y-92271060D01*
X183864561Y-92310500D01*
X183864566Y-92310500D01*
X184067629Y-92310500D01*
X184067631Y-92310500D01*
X184067636Y-92310499D01*
X184067648Y-92310499D01*
X184105191Y-92307750D01*
X184270156Y-92295677D01*
X184382758Y-92270593D01*
X184534546Y-92236782D01*
X184534548Y-92236781D01*
X184534553Y-92236780D01*
X184787558Y-92140014D01*
X185023777Y-92007441D01*
X185238177Y-91841888D01*
X185426186Y-91646881D01*
X185583799Y-91426579D01*
X185691767Y-91216580D01*
X185707649Y-91185690D01*
X185707651Y-91185684D01*
X185707656Y-91185675D01*
X185795118Y-90929305D01*
X185844319Y-90662933D01*
X185854212Y-90392235D01*
X185824586Y-90122982D01*
X185756072Y-89860912D01*
X185650130Y-89611610D01*
X185509018Y-89380390D01*
X185428323Y-89283424D01*
X185335746Y-89172180D01*
X185335740Y-89172175D01*
X185134002Y-88991418D01*
X184908092Y-88841957D01*
X184801639Y-88792054D01*
X184662824Y-88726980D01*
X184662819Y-88726978D01*
X184662814Y-88726976D01*
X184403442Y-88648942D01*
X184403428Y-88648939D01*
X184287791Y-88631921D01*
X184135439Y-88609500D01*
X183932369Y-88609500D01*
X183932351Y-88609500D01*
X183729844Y-88624323D01*
X183729831Y-88624325D01*
X183465453Y-88683217D01*
X183465446Y-88683220D01*
X183212439Y-88779987D01*
X182976226Y-88912557D01*
X182976224Y-88912558D01*
X182976223Y-88912559D01*
X182913893Y-88960688D01*
X182761822Y-89078112D01*
X182573822Y-89273109D01*
X182573816Y-89273116D01*
X182416202Y-89493419D01*
X182416199Y-89493424D01*
X182292350Y-89734309D01*
X182292343Y-89734327D01*
X182204884Y-89990685D01*
X182204881Y-89990699D01*
X182155681Y-90257068D01*
X182155680Y-90257075D01*
X182145787Y-90527763D01*
X181303500Y-90527763D01*
X181303500Y-82980001D01*
X182694532Y-82980001D01*
X182714364Y-83206686D01*
X182714366Y-83206697D01*
X182773258Y-83426488D01*
X182773261Y-83426497D01*
X182869431Y-83632732D01*
X182869432Y-83632734D01*
X182999954Y-83819141D01*
X183160858Y-83980045D01*
X183160861Y-83980047D01*
X183347266Y-84110568D01*
X183553504Y-84206739D01*
X183773308Y-84265635D01*
X183943214Y-84280499D01*
X183943215Y-84280500D01*
X183943216Y-84280500D01*
X184056785Y-84280500D01*
X184056785Y-84280499D01*
X184226692Y-84265635D01*
X184446496Y-84206739D01*
X184652734Y-84110568D01*
X184839139Y-83980047D01*
X185000047Y-83819139D01*
X185130568Y-83632734D01*
X185226739Y-83426496D01*
X185285635Y-83206692D01*
X185305468Y-82980000D01*
X185285635Y-82753308D01*
X185226739Y-82533504D01*
X185130568Y-82327266D01*
X185003266Y-82145458D01*
X185000045Y-82140858D01*
X184839141Y-81979954D01*
X184652734Y-81849432D01*
X184652732Y-81849431D01*
X184446497Y-81753261D01*
X184446488Y-81753258D01*
X184226697Y-81694366D01*
X184226687Y-81694364D01*
X184056785Y-81679500D01*
X184056784Y-81679500D01*
X183943216Y-81679500D01*
X183943215Y-81679500D01*
X183773312Y-81694364D01*
X183773302Y-81694366D01*
X183553511Y-81753258D01*
X183553502Y-81753261D01*
X183347267Y-81849431D01*
X183347265Y-81849432D01*
X183160858Y-81979954D01*
X182999954Y-82140858D01*
X182869432Y-82327265D01*
X182869431Y-82327267D01*
X182773261Y-82533502D01*
X182773258Y-82533511D01*
X182714366Y-82753302D01*
X182714364Y-82753313D01*
X182694532Y-82979998D01*
X182694532Y-82980001D01*
X181303500Y-82980001D01*
X181303500Y-75837763D01*
X182145787Y-75837763D01*
X182175413Y-76107013D01*
X182175415Y-76107024D01*
X182243608Y-76367865D01*
X182243928Y-76369088D01*
X182349870Y-76618390D01*
X182415358Y-76725695D01*
X182490979Y-76849605D01*
X182490986Y-76849615D01*
X182664253Y-77057819D01*
X182664259Y-77057824D01*
X182769240Y-77151887D01*
X182865998Y-77238582D01*
X183091910Y-77388044D01*
X183337176Y-77503020D01*
X183337183Y-77503022D01*
X183337185Y-77503023D01*
X183596557Y-77581057D01*
X183596564Y-77581058D01*
X183596569Y-77581060D01*
X183864561Y-77620500D01*
X183864566Y-77620500D01*
X184067629Y-77620500D01*
X184067631Y-77620500D01*
X184067636Y-77620499D01*
X184067648Y-77620499D01*
X184105191Y-77617750D01*
X184270156Y-77605677D01*
X184430311Y-77570001D01*
X184534546Y-77546782D01*
X184534548Y-77546781D01*
X184534553Y-77546780D01*
X184787558Y-77450014D01*
X185023777Y-77317441D01*
X185238177Y-77151888D01*
X185426186Y-76956881D01*
X185583799Y-76736579D01*
X185672630Y-76563802D01*
X185707649Y-76495690D01*
X185707651Y-76495684D01*
X185707656Y-76495675D01*
X185795118Y-76239305D01*
X185844319Y-75972933D01*
X185854212Y-75702235D01*
X185824586Y-75432982D01*
X185756072Y-75170912D01*
X185650130Y-74921610D01*
X185509018Y-74690390D01*
X185507845Y-74688981D01*
X185335746Y-74482180D01*
X185335740Y-74482175D01*
X185134002Y-74301418D01*
X184908092Y-74151957D01*
X184908090Y-74151956D01*
X184662824Y-74036980D01*
X184662819Y-74036978D01*
X184662814Y-74036976D01*
X184403442Y-73958942D01*
X184403428Y-73958939D01*
X184274735Y-73940000D01*
X184135439Y-73919500D01*
X183932369Y-73919500D01*
X183932351Y-73919500D01*
X183729844Y-73934323D01*
X183729831Y-73934325D01*
X183465453Y-73993217D01*
X183465446Y-73993220D01*
X183212439Y-74089987D01*
X182976226Y-74222557D01*
X182761822Y-74388112D01*
X182573822Y-74583109D01*
X182573816Y-74583116D01*
X182416202Y-74803419D01*
X182416199Y-74803424D01*
X182292350Y-75044309D01*
X182292343Y-75044327D01*
X182204884Y-75300685D01*
X182204881Y-75300699D01*
X182155681Y-75567068D01*
X182155680Y-75567075D01*
X182145787Y-75837763D01*
X181303500Y-75837763D01*
X181303500Y-69681254D01*
X181323185Y-69614215D01*
X181339819Y-69593573D01*
X181406111Y-69527281D01*
X181503043Y-69373015D01*
X181563217Y-69201047D01*
X181565125Y-69184117D01*
X181583616Y-69020003D01*
X181583616Y-69019996D01*
X181563218Y-68838958D01*
X181563217Y-68838953D01*
X181553952Y-68812475D01*
X181503043Y-68666985D01*
X181406111Y-68512719D01*
X181277281Y-68383889D01*
X181123015Y-68286957D01*
X181064266Y-68266400D01*
X180951046Y-68226782D01*
X180951041Y-68226781D01*
X180770004Y-68206384D01*
X180769996Y-68206384D01*
X180588958Y-68226781D01*
X180588953Y-68226782D01*
X180416982Y-68286958D01*
X180262718Y-68383889D01*
X180133889Y-68512718D01*
X180036958Y-68666982D01*
X179976782Y-68838953D01*
X179976781Y-68838958D01*
X179956556Y-69018470D01*
X179956384Y-69020000D01*
X179959668Y-69049155D01*
X179959874Y-69050980D01*
X179958622Y-69087210D01*
X179952790Y-69119033D01*
X179952790Y-69119038D01*
X179956274Y-69176629D01*
X179956500Y-69184117D01*
X179956500Y-94467500D01*
X179936815Y-94534539D01*
X179884011Y-94580294D01*
X179832500Y-94591500D01*
X179731345Y-94591500D01*
X179670797Y-94598011D01*
X179670795Y-94598011D01*
X179533795Y-94649111D01*
X179416739Y-94736739D01*
X179329111Y-94853795D01*
X179278011Y-94990795D01*
X179278011Y-94990797D01*
X179271500Y-95051345D01*
X179271500Y-96848654D01*
X174118604Y-96848654D01*
X174004877Y-96734927D01*
X173859396Y-96646981D01*
X173781881Y-96622826D01*
X173723734Y-96584088D01*
X173695760Y-96520063D01*
X173706842Y-96451078D01*
X173747645Y-96402870D01*
X173814300Y-96356198D01*
X173976198Y-96194300D01*
X174107523Y-96006749D01*
X174204284Y-95799243D01*
X174263543Y-95578087D01*
X174283498Y-95350000D01*
X174263543Y-95121913D01*
X174204284Y-94900757D01*
X174182385Y-94853795D01*
X174146295Y-94776399D01*
X174107523Y-94693251D01*
X173976198Y-94505700D01*
X173814300Y-94343802D01*
X173626749Y-94212477D01*
X173583655Y-94192382D01*
X173531215Y-94146210D01*
X173512063Y-94079017D01*
X173532278Y-94012136D01*
X173583655Y-93967618D01*
X173586882Y-93966112D01*
X173626749Y-93947523D01*
X173814300Y-93816198D01*
X173976198Y-93654300D01*
X174107523Y-93466749D01*
X174204284Y-93259243D01*
X174263543Y-93038087D01*
X174283498Y-92810000D01*
X174263543Y-92581913D01*
X174204284Y-92360757D01*
X174180848Y-92310499D01*
X174107524Y-92153254D01*
X174107523Y-92153252D01*
X174107523Y-92153251D01*
X173976198Y-91965700D01*
X173814300Y-91803802D01*
X173626749Y-91672477D01*
X173583655Y-91652382D01*
X173531215Y-91606210D01*
X173512063Y-91539017D01*
X173532278Y-91472136D01*
X173583655Y-91427618D01*
X173586882Y-91426112D01*
X173626749Y-91407523D01*
X173814300Y-91276198D01*
X173976198Y-91114300D01*
X174107523Y-90926749D01*
X174204284Y-90719243D01*
X174263543Y-90498087D01*
X174283498Y-90270000D01*
X174263543Y-90041913D01*
X174204284Y-89820757D01*
X174107523Y-89613251D01*
X173976198Y-89425700D01*
X173814300Y-89263802D01*
X173626749Y-89132477D01*
X173583655Y-89112382D01*
X173531215Y-89066210D01*
X173512063Y-88999017D01*
X173532278Y-88932136D01*
X173583655Y-88887618D01*
X173586882Y-88886112D01*
X173626749Y-88867523D01*
X173814300Y-88736198D01*
X173976198Y-88574300D01*
X174107523Y-88386749D01*
X174204284Y-88179243D01*
X174263543Y-87958087D01*
X174283498Y-87730000D01*
X174263543Y-87501913D01*
X174204284Y-87280757D01*
X174107523Y-87073251D01*
X173976198Y-86885700D01*
X173814300Y-86723802D01*
X173747649Y-86677132D01*
X173704024Y-86622555D01*
X173696832Y-86553057D01*
X173728355Y-86490702D01*
X173781883Y-86457172D01*
X173859399Y-86433017D01*
X174004877Y-86345072D01*
X174125072Y-86224877D01*
X174213019Y-86079395D01*
X174263590Y-85917106D01*
X174270000Y-85846572D01*
X174270000Y-85440000D01*
X173403686Y-85440000D01*
X173429493Y-85399844D01*
X173470000Y-85261889D01*
X173470000Y-85118111D01*
X173429493Y-84980156D01*
X173403686Y-84940000D01*
X174269999Y-84940000D01*
X174269999Y-84533417D01*
X174263591Y-84462897D01*
X174263590Y-84462892D01*
X174213018Y-84300603D01*
X174125072Y-84155122D01*
X174004877Y-84034927D01*
X173859396Y-83946981D01*
X173781881Y-83922826D01*
X173723734Y-83884088D01*
X173695760Y-83820063D01*
X173706842Y-83751078D01*
X173747645Y-83702870D01*
X173814300Y-83656198D01*
X173976198Y-83494300D01*
X174107523Y-83306749D01*
X174204284Y-83099243D01*
X174263543Y-82878087D01*
X174283498Y-82650000D01*
X174263543Y-82421913D01*
X174204284Y-82200757D01*
X174196716Y-82184528D01*
X174145353Y-82074378D01*
X174107523Y-81993251D01*
X173976198Y-81805700D01*
X173814300Y-81643802D01*
X173626749Y-81512477D01*
X173583655Y-81492382D01*
X173531215Y-81446210D01*
X173512063Y-81379017D01*
X173532278Y-81312136D01*
X173583655Y-81267618D01*
X173586882Y-81266112D01*
X173626749Y-81247523D01*
X173814300Y-81116198D01*
X173976198Y-80954300D01*
X174107523Y-80766749D01*
X174204284Y-80559243D01*
X174263543Y-80338087D01*
X174283498Y-80110000D01*
X174263543Y-79881913D01*
X174204284Y-79660757D01*
X174107523Y-79453251D01*
X173976198Y-79265700D01*
X173814300Y-79103802D01*
X173626749Y-78972477D01*
X173583655Y-78952382D01*
X173531215Y-78906210D01*
X173512063Y-78839017D01*
X173532278Y-78772136D01*
X173583655Y-78727618D01*
X173586882Y-78726112D01*
X173626749Y-78707523D01*
X173814300Y-78576198D01*
X173976198Y-78414300D01*
X174107523Y-78226749D01*
X174204284Y-78019243D01*
X174263543Y-77798087D01*
X174283498Y-77570000D01*
X174281466Y-77546779D01*
X174277638Y-77503020D01*
X174263543Y-77341913D01*
X174204284Y-77120757D01*
X174107523Y-76913251D01*
X173976198Y-76725700D01*
X173814300Y-76563802D01*
X173626749Y-76432477D01*
X173583655Y-76412382D01*
X173531215Y-76366210D01*
X173512063Y-76299017D01*
X173532278Y-76232136D01*
X173583655Y-76187618D01*
X173586882Y-76186112D01*
X173626749Y-76167523D01*
X173814300Y-76036198D01*
X173976198Y-75874300D01*
X174107523Y-75686749D01*
X174204284Y-75479243D01*
X174263543Y-75258087D01*
X174283498Y-75030000D01*
X174263543Y-74801913D01*
X174204284Y-74580757D01*
X174199275Y-74570016D01*
X174140392Y-74443740D01*
X174107523Y-74373251D01*
X173976198Y-74185700D01*
X173814300Y-74023802D01*
X173770625Y-73993220D01*
X173747649Y-73977132D01*
X173704024Y-73922555D01*
X173696832Y-73853057D01*
X173728355Y-73790702D01*
X173781883Y-73757172D01*
X173859399Y-73733017D01*
X174004877Y-73645072D01*
X174125072Y-73524877D01*
X174213019Y-73379395D01*
X174263590Y-73217106D01*
X174270000Y-73146572D01*
X174270000Y-72740000D01*
X173403686Y-72740000D01*
X173429493Y-72699844D01*
X173470000Y-72561889D01*
X173470000Y-72418111D01*
X173429493Y-72280156D01*
X173403686Y-72240000D01*
X174269999Y-72240000D01*
X174269999Y-71833417D01*
X174263591Y-71762897D01*
X174263590Y-71762892D01*
X174213018Y-71600603D01*
X174125072Y-71455122D01*
X174004877Y-71334927D01*
X173859396Y-71246981D01*
X173781881Y-71222826D01*
X173723734Y-71184088D01*
X173695760Y-71120063D01*
X173706842Y-71051078D01*
X173747645Y-71002870D01*
X173814300Y-70956198D01*
X173976198Y-70794300D01*
X174107523Y-70606749D01*
X174204284Y-70399243D01*
X174263543Y-70178087D01*
X174283498Y-69950000D01*
X174263543Y-69721913D01*
X174204284Y-69500757D01*
X174107523Y-69293251D01*
X173976198Y-69105700D01*
X173814300Y-68943802D01*
X173626749Y-68812477D01*
X173583655Y-68792382D01*
X173531215Y-68746210D01*
X173512063Y-68679017D01*
X173532278Y-68612136D01*
X173583655Y-68567618D01*
X173586882Y-68566112D01*
X173626749Y-68547523D01*
X173814300Y-68416198D01*
X173976198Y-68254300D01*
X174107523Y-68066749D01*
X174204284Y-67859243D01*
X174263543Y-67638087D01*
X174283498Y-67410000D01*
X174280833Y-67379536D01*
X190715380Y-67379536D01*
X190715380Y-100059280D01*
X195957962Y-100059280D01*
X195957962Y-67379536D01*
X190715380Y-67379536D01*
X174280833Y-67379536D01*
X174263543Y-67181913D01*
X174204284Y-66960757D01*
X174107523Y-66753251D01*
X173976198Y-66565700D01*
X173814300Y-66403802D01*
X173626749Y-66272477D01*
X173626745Y-66272475D01*
X173419249Y-66175718D01*
X173419238Y-66175714D01*
X173198089Y-66116457D01*
X173198081Y-66116456D01*
X172970002Y-66096502D01*
X172969998Y-66096502D01*
X172741918Y-66116456D01*
X172741910Y-66116457D01*
X172520761Y-66175714D01*
X172520750Y-66175718D01*
X172313254Y-66272475D01*
X172313252Y-66272476D01*
X172299565Y-66282060D01*
X172125700Y-66403802D01*
X172125698Y-66403803D01*
X172125695Y-66403806D01*
X171963806Y-66565695D01*
X171963803Y-66565698D01*
X171963802Y-66565700D01*
X171929657Y-66614464D01*
X171832476Y-66753252D01*
X171832475Y-66753254D01*
X171735718Y-66960750D01*
X171735714Y-66960761D01*
X171676457Y-67181910D01*
X171676456Y-67181918D01*
X171656502Y-67409998D01*
X171656502Y-67410001D01*
X171676456Y-67638081D01*
X171676457Y-67638089D01*
X171735714Y-67859238D01*
X171735718Y-67859249D01*
X171793275Y-67982680D01*
X171832477Y-68066749D01*
X171963802Y-68254300D01*
X172125700Y-68416198D01*
X172263546Y-68512719D01*
X172313251Y-68547523D01*
X172356345Y-68567618D01*
X172408784Y-68613791D01*
X172427936Y-68680984D01*
X172407720Y-68747865D01*
X172356345Y-68792382D01*
X172313251Y-68812476D01*
X172188126Y-68900090D01*
X172125700Y-68943802D01*
X172125698Y-68943803D01*
X172125695Y-68943806D01*
X171963806Y-69105695D01*
X171963803Y-69105698D01*
X171963802Y-69105700D01*
X171954463Y-69119038D01*
X171832476Y-69293252D01*
X171832475Y-69293254D01*
X171735718Y-69500750D01*
X171735714Y-69500761D01*
X171676457Y-69721910D01*
X171676456Y-69721918D01*
X171656502Y-69949998D01*
X171656502Y-69950001D01*
X171676456Y-70178081D01*
X171676457Y-70178089D01*
X171735714Y-70399238D01*
X171735718Y-70399249D01*
X171813039Y-70565064D01*
X171832477Y-70606749D01*
X171963802Y-70794300D01*
X172125700Y-70956198D01*
X172192351Y-71002868D01*
X172235975Y-71057444D01*
X172243167Y-71126942D01*
X172211645Y-71189297D01*
X172158118Y-71222826D01*
X172080602Y-71246981D01*
X171935122Y-71334927D01*
X171814927Y-71455122D01*
X171726980Y-71600604D01*
X171676409Y-71762893D01*
X171670000Y-71833427D01*
X171670000Y-72240000D01*
X172536314Y-72240000D01*
X172510507Y-72280156D01*
X172470000Y-72418111D01*
X172470000Y-72561889D01*
X172510507Y-72699844D01*
X172536314Y-72740000D01*
X171670001Y-72740000D01*
X171670001Y-73146582D01*
X171676408Y-73217102D01*
X171676409Y-73217107D01*
X171726981Y-73379396D01*
X171814927Y-73524877D01*
X171935122Y-73645072D01*
X172080600Y-73733017D01*
X172158117Y-73757172D01*
X172216265Y-73795910D01*
X172244239Y-73859935D01*
X172233158Y-73928920D01*
X172192351Y-73977132D01*
X172125699Y-74023802D01*
X171963806Y-74185695D01*
X171963803Y-74185698D01*
X171963802Y-74185700D01*
X171937993Y-74222559D01*
X171832476Y-74373252D01*
X171832475Y-74373254D01*
X171735718Y-74580750D01*
X171735714Y-74580761D01*
X171676457Y-74801910D01*
X171676456Y-74801918D01*
X171656502Y-75029998D01*
X171656502Y-75030001D01*
X171676456Y-75258081D01*
X171676457Y-75258089D01*
X171735714Y-75479238D01*
X171735718Y-75479249D01*
X171776669Y-75567068D01*
X171832477Y-75686749D01*
X171963802Y-75874300D01*
X172125700Y-76036198D01*
X172313251Y-76167523D01*
X172356345Y-76187618D01*
X172408784Y-76233791D01*
X172427936Y-76300984D01*
X172407720Y-76367865D01*
X172356345Y-76412382D01*
X172313251Y-76432476D01*
X172188126Y-76520090D01*
X172125700Y-76563802D01*
X172125698Y-76563803D01*
X172125695Y-76563806D01*
X171963806Y-76725695D01*
X171963803Y-76725698D01*
X171963802Y-76725700D01*
X171956184Y-76736580D01*
X171832476Y-76913252D01*
X171832475Y-76913254D01*
X171735718Y-77120750D01*
X171735714Y-77120761D01*
X171676457Y-77341910D01*
X171676456Y-77341918D01*
X171656502Y-77569998D01*
X171656502Y-77570001D01*
X171676456Y-77798081D01*
X171676457Y-77798089D01*
X171735714Y-78019238D01*
X171735718Y-78019249D01*
X171832475Y-78226745D01*
X171832477Y-78226749D01*
X171963802Y-78414300D01*
X172125700Y-78576198D01*
X172313251Y-78707523D01*
X172356345Y-78727618D01*
X172408784Y-78773791D01*
X172427936Y-78840984D01*
X172407720Y-78907865D01*
X172356345Y-78952382D01*
X172313251Y-78972476D01*
X172200553Y-79051389D01*
X172125700Y-79103802D01*
X172125698Y-79103803D01*
X172125695Y-79103806D01*
X171963806Y-79265695D01*
X171832476Y-79453252D01*
X171832475Y-79453254D01*
X171735718Y-79660750D01*
X171735714Y-79660761D01*
X171676457Y-79881910D01*
X171676456Y-79881918D01*
X171656502Y-80109998D01*
X171656502Y-80110001D01*
X171676456Y-80338081D01*
X171676457Y-80338089D01*
X171735714Y-80559238D01*
X171735718Y-80559249D01*
X171828270Y-80757727D01*
X171832477Y-80766749D01*
X171963802Y-80954300D01*
X172125700Y-81116198D01*
X172313251Y-81247523D01*
X172356345Y-81267618D01*
X172408784Y-81313791D01*
X172427936Y-81380984D01*
X172407720Y-81447865D01*
X172356345Y-81492382D01*
X172313251Y-81512476D01*
X172188126Y-81600090D01*
X172125700Y-81643802D01*
X172125698Y-81643803D01*
X172125695Y-81643806D01*
X171963806Y-81805695D01*
X171963803Y-81805698D01*
X171963802Y-81805700D01*
X171881767Y-81922856D01*
X171832476Y-81993252D01*
X171832475Y-81993254D01*
X171735718Y-82200750D01*
X171735714Y-82200761D01*
X171676457Y-82421910D01*
X171676456Y-82421918D01*
X171656502Y-82649998D01*
X171656502Y-82650001D01*
X171676456Y-82878081D01*
X171676457Y-82878089D01*
X171735714Y-83099238D01*
X171735718Y-83099249D01*
X171785817Y-83206686D01*
X171832477Y-83306749D01*
X171963802Y-83494300D01*
X172125700Y-83656198D01*
X172192351Y-83702868D01*
X172235975Y-83757444D01*
X172243167Y-83826942D01*
X172211645Y-83889297D01*
X172158118Y-83922826D01*
X172080602Y-83946981D01*
X171935122Y-84034927D01*
X171814927Y-84155122D01*
X171726980Y-84300604D01*
X171676409Y-84462893D01*
X171670000Y-84533427D01*
X171670000Y-84940000D01*
X172536314Y-84940000D01*
X172510507Y-84980156D01*
X172470000Y-85118111D01*
X172470000Y-85261889D01*
X172510507Y-85399844D01*
X172536314Y-85440000D01*
X171670001Y-85440000D01*
X171670001Y-85846582D01*
X171676408Y-85917102D01*
X171676409Y-85917107D01*
X171726981Y-86079396D01*
X171814927Y-86224877D01*
X171935122Y-86345072D01*
X172080600Y-86433017D01*
X172158117Y-86457172D01*
X172216265Y-86495910D01*
X172244239Y-86559935D01*
X172233158Y-86628920D01*
X172192351Y-86677132D01*
X172125699Y-86723802D01*
X171963806Y-86885695D01*
X171963803Y-86885698D01*
X171963802Y-86885700D01*
X171907177Y-86966569D01*
X171832476Y-87073252D01*
X171832475Y-87073254D01*
X171735718Y-87280750D01*
X171735714Y-87280761D01*
X171676457Y-87501910D01*
X171676456Y-87501918D01*
X171656502Y-87729998D01*
X171656502Y-87730001D01*
X171676456Y-87958081D01*
X171676457Y-87958089D01*
X171735714Y-88179238D01*
X171735718Y-88179249D01*
X171827924Y-88376985D01*
X171832477Y-88386749D01*
X171963802Y-88574300D01*
X172125700Y-88736198D01*
X172249289Y-88822736D01*
X172313251Y-88867523D01*
X172356345Y-88887618D01*
X172408784Y-88933791D01*
X172427936Y-89000984D01*
X172407720Y-89067865D01*
X172356345Y-89112382D01*
X172313251Y-89132476D01*
X172256549Y-89172180D01*
X172125700Y-89263802D01*
X172125698Y-89263803D01*
X172125695Y-89263806D01*
X171963806Y-89425695D01*
X171963803Y-89425698D01*
X171963802Y-89425700D01*
X171881767Y-89542856D01*
X171832476Y-89613252D01*
X171832475Y-89613254D01*
X171735718Y-89820750D01*
X171735714Y-89820761D01*
X171676457Y-90041910D01*
X171676456Y-90041918D01*
X171656502Y-90269998D01*
X171656502Y-90270001D01*
X171676456Y-90498081D01*
X171676457Y-90498089D01*
X171735714Y-90719238D01*
X171735718Y-90719249D01*
X171796263Y-90849088D01*
X171832477Y-90926749D01*
X171963802Y-91114300D01*
X172125700Y-91276198D01*
X172313251Y-91407523D01*
X172356345Y-91427618D01*
X172408784Y-91473791D01*
X172427936Y-91540984D01*
X172407720Y-91607865D01*
X172356345Y-91652382D01*
X172313251Y-91672476D01*
X172188126Y-91760090D01*
X172125700Y-91803802D01*
X172125698Y-91803803D01*
X172125695Y-91803806D01*
X171963806Y-91965695D01*
X171963803Y-91965698D01*
X171963802Y-91965700D01*
X171934575Y-92007441D01*
X171832476Y-92153252D01*
X171832475Y-92153254D01*
X171735718Y-92360750D01*
X171735714Y-92360761D01*
X171676457Y-92581910D01*
X171676456Y-92581918D01*
X171656502Y-92809998D01*
X171656502Y-92810001D01*
X171676456Y-93038081D01*
X171676457Y-93038089D01*
X171735714Y-93259238D01*
X171735718Y-93259249D01*
X171832475Y-93466745D01*
X171832477Y-93466749D01*
X171963802Y-93654300D01*
X172125700Y-93816198D01*
X172313251Y-93947523D01*
X172356345Y-93967618D01*
X172408784Y-94013791D01*
X172427936Y-94080984D01*
X172407720Y-94147865D01*
X172356345Y-94192382D01*
X172313251Y-94212476D01*
X172188126Y-94300090D01*
X172125700Y-94343802D01*
X172125698Y-94343803D01*
X172125695Y-94343806D01*
X171963806Y-94505695D01*
X171963803Y-94505698D01*
X171963802Y-94505700D01*
X171903724Y-94591500D01*
X171832476Y-94693252D01*
X171832475Y-94693254D01*
X171735718Y-94900750D01*
X171735714Y-94900761D01*
X171676457Y-95121910D01*
X171676456Y-95121918D01*
X171656502Y-95349998D01*
X171656502Y-95350001D01*
X171676456Y-95578081D01*
X171676457Y-95578089D01*
X171735714Y-95799238D01*
X171735718Y-95799249D01*
X171832475Y-96006745D01*
X171832477Y-96006749D01*
X171963802Y-96194300D01*
X172125700Y-96356198D01*
X172192351Y-96402868D01*
X172235975Y-96457444D01*
X172243167Y-96526942D01*
X172211645Y-96589297D01*
X172158118Y-96622826D01*
X172080602Y-96646981D01*
X171935122Y-96734927D01*
X171814927Y-96855122D01*
X171726980Y-97000604D01*
X171676409Y-97162893D01*
X171670000Y-97233427D01*
X171670000Y-97640000D01*
X172536314Y-97640000D01*
X172510507Y-97680156D01*
X172470000Y-97818111D01*
X172470000Y-97961889D01*
X172510507Y-98099844D01*
X172536314Y-98140000D01*
X171670001Y-98140000D01*
X171670001Y-98546582D01*
X171676408Y-98617102D01*
X171676409Y-98617107D01*
X171726981Y-98779396D01*
X171814927Y-98924877D01*
X171935122Y-99045072D01*
X172080600Y-99133017D01*
X172158117Y-99157172D01*
X172216265Y-99195910D01*
X172244239Y-99259935D01*
X172233158Y-99328920D01*
X172192351Y-99377132D01*
X172125699Y-99423802D01*
X171963806Y-99585695D01*
X171832476Y-99773252D01*
X171832475Y-99773254D01*
X171735718Y-99980750D01*
X171735714Y-99980761D01*
X171676457Y-100201910D01*
X171676456Y-100201918D01*
X171656502Y-100429998D01*
X171656502Y-100430001D01*
X171676456Y-100658081D01*
X171676457Y-100658089D01*
X171735714Y-100879238D01*
X171735718Y-100879249D01*
X171832475Y-101086745D01*
X171832477Y-101086749D01*
X171963802Y-101274300D01*
X172125700Y-101436198D01*
X172313251Y-101567523D01*
X172356345Y-101587618D01*
X172408784Y-101633791D01*
X172427936Y-101700984D01*
X172407720Y-101767865D01*
X172356345Y-101812382D01*
X172313251Y-101832476D01*
X172188126Y-101920090D01*
X172125700Y-101963802D01*
X172125698Y-101963803D01*
X172125695Y-101963806D01*
X171963806Y-102125695D01*
X171832476Y-102313252D01*
X171832475Y-102313254D01*
X171735718Y-102520750D01*
X171735714Y-102520761D01*
X171676457Y-102741910D01*
X171676456Y-102741918D01*
X171656502Y-102969998D01*
X171656502Y-102970001D01*
X171676456Y-103198081D01*
X171676457Y-103198089D01*
X171735714Y-103419238D01*
X171735718Y-103419249D01*
X171832475Y-103626745D01*
X171832477Y-103626749D01*
X171963802Y-103814300D01*
X172125700Y-103976198D01*
X172293657Y-104093803D01*
X172313251Y-104107523D01*
X172356345Y-104127618D01*
X172408784Y-104173791D01*
X172427936Y-104240984D01*
X172407720Y-104307865D01*
X172356345Y-104352382D01*
X172313251Y-104372476D01*
X172206077Y-104447521D01*
X172125700Y-104503802D01*
X172125698Y-104503803D01*
X172125695Y-104503806D01*
X171963806Y-104665695D01*
X171832476Y-104853252D01*
X171832475Y-104853254D01*
X171735718Y-105060750D01*
X171735714Y-105060761D01*
X171676457Y-105281910D01*
X171676456Y-105281918D01*
X171656502Y-105509998D01*
X171656502Y-105510001D01*
X171676456Y-105738081D01*
X171676457Y-105738089D01*
X171735714Y-105959238D01*
X171735718Y-105959249D01*
X171812168Y-106123196D01*
X171832477Y-106166749D01*
X171963802Y-106354300D01*
X172125700Y-106516198D01*
X172313251Y-106647523D01*
X172356345Y-106667618D01*
X172408784Y-106713791D01*
X172427936Y-106780984D01*
X172407720Y-106847865D01*
X172356345Y-106892382D01*
X172313251Y-106912476D01*
X172221044Y-106977041D01*
X172125700Y-107043802D01*
X172125698Y-107043803D01*
X172125695Y-107043806D01*
X171963806Y-107205695D01*
X171832476Y-107393252D01*
X171832475Y-107393254D01*
X171735718Y-107600750D01*
X171735714Y-107600761D01*
X171676457Y-107821910D01*
X171676456Y-107821918D01*
X171656502Y-108049998D01*
X171656502Y-108050001D01*
X171676456Y-108278081D01*
X171676457Y-108278089D01*
X171735714Y-108499238D01*
X171735718Y-108499249D01*
X171738866Y-108505999D01*
X171832477Y-108706749D01*
X171963802Y-108894300D01*
X172125700Y-109056198D01*
X172192351Y-109102868D01*
X172235975Y-109157444D01*
X172243167Y-109226942D01*
X172211645Y-109289297D01*
X172158118Y-109322826D01*
X172080602Y-109346981D01*
X171935122Y-109434927D01*
X171814927Y-109555122D01*
X171726980Y-109700604D01*
X171676409Y-109862893D01*
X171670000Y-109933427D01*
X171670000Y-110340000D01*
X172536314Y-110340000D01*
X172510507Y-110380156D01*
X172470000Y-110518111D01*
X172470000Y-110661889D01*
X172510507Y-110799844D01*
X172536314Y-110840000D01*
X171670001Y-110840000D01*
X171670001Y-111246582D01*
X171676408Y-111317102D01*
X171676409Y-111317107D01*
X171726981Y-111479396D01*
X171814927Y-111624877D01*
X171935122Y-111745072D01*
X172080600Y-111833017D01*
X172158117Y-111857172D01*
X172216265Y-111895910D01*
X172244239Y-111959935D01*
X172233158Y-112028920D01*
X172192351Y-112077132D01*
X172125699Y-112123802D01*
X171963806Y-112285695D01*
X171963803Y-112285698D01*
X171963802Y-112285700D01*
X171922753Y-112344324D01*
X171832476Y-112473252D01*
X171832475Y-112473254D01*
X171735718Y-112680750D01*
X171735714Y-112680761D01*
X171676457Y-112901910D01*
X171676456Y-112901918D01*
X171656502Y-113129998D01*
X171656502Y-113130001D01*
X171676456Y-113358081D01*
X171676457Y-113358089D01*
X171735714Y-113579238D01*
X171735718Y-113579249D01*
X171798035Y-113712888D01*
X171832477Y-113786749D01*
X171963802Y-113974300D01*
X172125700Y-114136198D01*
X172313251Y-114267523D01*
X172313258Y-114267526D01*
X172313647Y-114267751D01*
X172313787Y-114267898D01*
X172317686Y-114270628D01*
X172317137Y-114271411D01*
X172361868Y-114318313D01*
X172375099Y-114386918D01*
X172349138Y-114451786D01*
X172316825Y-114480641D01*
X172312157Y-114483523D01*
X172312155Y-114483525D01*
X172240795Y-114540432D01*
X172179748Y-114597855D01*
X171840440Y-114940786D01*
X171840433Y-114940794D01*
X171783525Y-115012156D01*
X171783519Y-115012164D01*
X171736815Y-115081678D01*
X171736814Y-115081679D01*
X171702750Y-115154711D01*
X171702748Y-115154715D01*
X171684325Y-115218145D01*
X171684319Y-115218167D01*
X171665870Y-115296201D01*
X171665866Y-115296220D01*
X171659501Y-115352722D01*
X171659501Y-115352725D01*
X171655649Y-115386899D01*
X171655648Y-115386913D01*
X171653084Y-115470628D01*
X167605500Y-115470628D01*
X167605500Y-115145046D01*
X167592312Y-115027998D01*
X167590369Y-115010750D01*
X167590368Y-115010745D01*
X167568691Y-114948797D01*
X167530789Y-114840478D01*
X167521503Y-114825700D01*
X167434815Y-114687737D01*
X167307262Y-114560184D01*
X167154523Y-114464211D01*
X166984254Y-114404631D01*
X166984249Y-114404630D01*
X166805004Y-114384435D01*
X166804996Y-114384435D01*
X166625750Y-114404630D01*
X166625745Y-114404631D01*
X166455476Y-114464211D01*
X166302737Y-114560184D01*
X166175184Y-114687737D01*
X166079209Y-114840480D01*
X166063879Y-114884291D01*
X166023158Y-114941067D01*
X165958205Y-114966814D01*
X165889643Y-114953358D01*
X165863300Y-114934974D01*
X165802727Y-114879755D01*
X165760882Y-114841608D01*
X165586218Y-114733460D01*
X165394655Y-114659249D01*
X165192718Y-114621500D01*
X164987282Y-114621500D01*
X164785345Y-114659249D01*
X164785342Y-114659249D01*
X164785342Y-114659250D01*
X164593779Y-114733461D01*
X164419116Y-114841609D01*
X164267300Y-114980007D01*
X164188954Y-115083754D01*
X164132845Y-115125390D01*
X164063133Y-115130081D01*
X164001951Y-115096339D01*
X163991046Y-115083754D01*
X163912699Y-114980007D01*
X163760883Y-114841609D01*
X163760882Y-114841608D01*
X163586218Y-114733460D01*
X163394655Y-114659249D01*
X163192718Y-114621500D01*
X162987282Y-114621500D01*
X162785345Y-114659249D01*
X162785342Y-114659249D01*
X162785342Y-114659250D01*
X162593779Y-114733461D01*
X162419119Y-114841607D01*
X162301536Y-114948797D01*
X162238731Y-114979413D01*
X162169344Y-114971215D01*
X162115404Y-114926805D01*
X162100956Y-114898112D01*
X162080790Y-114840479D01*
X161984815Y-114687737D01*
X161857262Y-114560184D01*
X161704523Y-114464211D01*
X161534254Y-114404631D01*
X161534249Y-114404630D01*
X161355004Y-114384435D01*
X161354996Y-114384435D01*
X161175750Y-114404630D01*
X161175745Y-114404631D01*
X161005476Y-114464211D01*
X160852737Y-114560184D01*
X160725184Y-114687737D01*
X160629211Y-114840476D01*
X160569631Y-115010745D01*
X160569630Y-115010750D01*
X160554500Y-115145039D01*
X160554500Y-115934960D01*
X160569630Y-116069249D01*
X160569631Y-116069254D01*
X160629211Y-116239523D01*
X160725184Y-116392262D01*
X160753181Y-116420259D01*
X160786666Y-116481582D01*
X160789500Y-116507940D01*
X160789500Y-117105500D01*
X160769815Y-117172539D01*
X160717011Y-117218294D01*
X160665500Y-117229500D01*
X155218251Y-117229500D01*
X155194708Y-117222586D01*
X155186181Y-117227069D01*
X155161749Y-117229500D01*
X134304500Y-117229500D01*
X134237461Y-117209815D01*
X134191706Y-117157011D01*
X134180500Y-117105500D01*
X134180500Y-113396474D01*
X134200185Y-113329435D01*
X134252989Y-113283680D01*
X134322147Y-113273736D01*
X134385703Y-113302761D01*
X134407602Y-113327583D01*
X134471123Y-113422649D01*
X134500405Y-113456040D01*
X135213664Y-112742780D01*
X135352855Y-112917320D01*
X135522299Y-113065358D01*
X135569808Y-113093743D01*
X134853958Y-113809593D01*
X134887350Y-113838876D01*
X135132580Y-114002734D01*
X135132593Y-114002741D01*
X135397111Y-114133187D01*
X135676400Y-114227994D01*
X135676415Y-114227998D01*
X135965675Y-114285535D01*
X135965687Y-114285537D01*
X136260000Y-114304827D01*
X136554312Y-114285537D01*
X136554324Y-114285535D01*
X136843584Y-114227998D01*
X136843599Y-114227994D01*
X137122888Y-114133187D01*
X137387406Y-114002741D01*
X137387419Y-114002734D01*
X137632648Y-113838877D01*
X137666039Y-113809593D01*
X136950125Y-113093678D01*
X137085747Y-112995144D01*
X137241239Y-112832512D01*
X137302801Y-112739248D01*
X138019593Y-113456039D01*
X138048877Y-113422648D01*
X138212734Y-113177419D01*
X138212741Y-113177406D01*
X138343187Y-112912888D01*
X138364535Y-112850000D01*
X140305172Y-112850000D01*
X140324462Y-113144312D01*
X140324464Y-113144324D01*
X140382001Y-113433584D01*
X140382005Y-113433599D01*
X140476812Y-113712888D01*
X140607258Y-113977406D01*
X140607265Y-113977419D01*
X140771123Y-114222649D01*
X140800405Y-114256040D01*
X141513664Y-113542780D01*
X141652855Y-113717320D01*
X141822299Y-113865358D01*
X141869808Y-113893743D01*
X141153958Y-114609593D01*
X141187350Y-114638876D01*
X141432580Y-114802734D01*
X141432593Y-114802741D01*
X141697111Y-114933187D01*
X141976400Y-115027994D01*
X141976415Y-115027998D01*
X142265675Y-115085535D01*
X142265687Y-115085537D01*
X142560000Y-115104827D01*
X142854312Y-115085537D01*
X142854324Y-115085535D01*
X143143584Y-115027998D01*
X143143599Y-115027994D01*
X143422888Y-114933187D01*
X143687406Y-114802741D01*
X143687419Y-114802734D01*
X143932648Y-114638877D01*
X143966039Y-114609593D01*
X143250125Y-113893678D01*
X143385747Y-113795144D01*
X143541239Y-113632512D01*
X143602801Y-113539248D01*
X144319593Y-114256039D01*
X144348877Y-114222648D01*
X144512734Y-113977419D01*
X144512741Y-113977406D01*
X144643187Y-113712888D01*
X144737994Y-113433599D01*
X144737998Y-113433584D01*
X144795535Y-113144324D01*
X144795537Y-113144312D01*
X144814827Y-112850000D01*
X144795537Y-112555687D01*
X144795535Y-112555675D01*
X144737998Y-112266415D01*
X144737994Y-112266400D01*
X144664535Y-112050000D01*
X146605172Y-112050000D01*
X146624462Y-112344312D01*
X146624464Y-112344324D01*
X146682001Y-112633584D01*
X146682005Y-112633599D01*
X146776812Y-112912888D01*
X146907258Y-113177406D01*
X146907265Y-113177419D01*
X147071123Y-113422649D01*
X147100405Y-113456040D01*
X147813664Y-112742780D01*
X147952855Y-112917320D01*
X148122299Y-113065358D01*
X148169808Y-113093743D01*
X147453958Y-113809593D01*
X147487350Y-113838876D01*
X147732580Y-114002734D01*
X147732593Y-114002741D01*
X147997111Y-114133187D01*
X148276400Y-114227994D01*
X148276415Y-114227998D01*
X148565675Y-114285535D01*
X148565687Y-114285537D01*
X148860000Y-114304827D01*
X149154312Y-114285537D01*
X149154324Y-114285535D01*
X149443584Y-114227998D01*
X149443599Y-114227994D01*
X149722888Y-114133187D01*
X149987406Y-114002741D01*
X149987419Y-114002734D01*
X150232648Y-113838877D01*
X150266039Y-113809593D01*
X149550125Y-113093678D01*
X149685747Y-112995144D01*
X149841239Y-112832512D01*
X149902801Y-112739248D01*
X150619593Y-113456039D01*
X150648877Y-113422648D01*
X150812734Y-113177419D01*
X150812741Y-113177406D01*
X150943187Y-112912888D01*
X151037994Y-112633599D01*
X151037998Y-112633584D01*
X151095535Y-112344324D01*
X151095537Y-112344312D01*
X151114827Y-112050000D01*
X151095537Y-111755687D01*
X151095535Y-111755675D01*
X151037998Y-111466415D01*
X151037994Y-111466400D01*
X150943187Y-111187111D01*
X150812741Y-110922593D01*
X150812734Y-110922580D01*
X150648876Y-110677350D01*
X150619593Y-110643958D01*
X149906333Y-111357217D01*
X149767145Y-111182680D01*
X149597701Y-111034642D01*
X149550190Y-111006255D01*
X150266040Y-110290405D01*
X150232649Y-110261123D01*
X149987419Y-110097265D01*
X149987406Y-110097258D01*
X149722888Y-109966812D01*
X149443599Y-109872005D01*
X149443584Y-109872001D01*
X149154324Y-109814464D01*
X149154312Y-109814462D01*
X148860000Y-109795172D01*
X148565687Y-109814462D01*
X148565675Y-109814464D01*
X148276415Y-109872001D01*
X148276400Y-109872005D01*
X147997111Y-109966812D01*
X147732593Y-110097258D01*
X147732580Y-110097265D01*
X147487346Y-110261126D01*
X147487339Y-110261131D01*
X147453959Y-110290403D01*
X147453959Y-110290405D01*
X148169874Y-111006320D01*
X148034253Y-111104856D01*
X147878761Y-111267488D01*
X147817197Y-111360751D01*
X147100405Y-110643959D01*
X147100403Y-110643959D01*
X147071131Y-110677339D01*
X147071126Y-110677346D01*
X146907265Y-110922580D01*
X146907258Y-110922593D01*
X146776812Y-111187111D01*
X146682005Y-111466400D01*
X146682001Y-111466415D01*
X146624464Y-111755675D01*
X146624462Y-111755687D01*
X146605172Y-112050000D01*
X144664535Y-112050000D01*
X144643187Y-111987111D01*
X144512741Y-111722593D01*
X144512734Y-111722580D01*
X144348876Y-111477350D01*
X144319593Y-111443958D01*
X143606333Y-112157217D01*
X143467145Y-111982680D01*
X143297701Y-111834642D01*
X143250190Y-111806255D01*
X143966040Y-111090405D01*
X143932649Y-111061123D01*
X143687419Y-110897265D01*
X143687406Y-110897258D01*
X143422888Y-110766812D01*
X143143599Y-110672005D01*
X143143584Y-110672001D01*
X142854324Y-110614464D01*
X142854312Y-110614462D01*
X142560000Y-110595172D01*
X142265687Y-110614462D01*
X142265675Y-110614464D01*
X141976415Y-110672001D01*
X141976400Y-110672005D01*
X141697111Y-110766812D01*
X141432593Y-110897258D01*
X141432580Y-110897265D01*
X141187346Y-111061126D01*
X141187339Y-111061131D01*
X141153959Y-111090403D01*
X141153959Y-111090405D01*
X141869874Y-111806320D01*
X141734253Y-111904856D01*
X141578761Y-112067488D01*
X141517198Y-112160751D01*
X140800405Y-111443959D01*
X140800403Y-111443959D01*
X140771131Y-111477339D01*
X140771126Y-111477346D01*
X140607265Y-111722580D01*
X140607258Y-111722593D01*
X140476812Y-111987111D01*
X140382005Y-112266400D01*
X140382001Y-112266415D01*
X140324464Y-112555675D01*
X140324462Y-112555687D01*
X140305172Y-112850000D01*
X138364535Y-112850000D01*
X138437994Y-112633599D01*
X138437998Y-112633584D01*
X138495535Y-112344324D01*
X138495537Y-112344312D01*
X138514827Y-112050000D01*
X138495537Y-111755687D01*
X138495535Y-111755675D01*
X138437998Y-111466415D01*
X138437994Y-111466400D01*
X138343187Y-111187111D01*
X138212741Y-110922593D01*
X138212734Y-110922580D01*
X138048876Y-110677350D01*
X138019593Y-110643958D01*
X137306333Y-111357217D01*
X137167145Y-111182680D01*
X136997701Y-111034642D01*
X136950190Y-111006255D01*
X137666040Y-110290405D01*
X137632649Y-110261123D01*
X137387419Y-110097265D01*
X137387406Y-110097258D01*
X137122888Y-109966812D01*
X136843599Y-109872005D01*
X136843584Y-109872001D01*
X136554324Y-109814464D01*
X136554312Y-109814462D01*
X136260000Y-109795172D01*
X135965687Y-109814462D01*
X135965675Y-109814464D01*
X135676415Y-109872001D01*
X135676400Y-109872005D01*
X135397111Y-109966812D01*
X135132593Y-110097258D01*
X135132580Y-110097265D01*
X134887346Y-110261126D01*
X134887339Y-110261131D01*
X134853959Y-110290403D01*
X134853959Y-110290405D01*
X135569874Y-111006320D01*
X135434253Y-111104856D01*
X135278761Y-111267488D01*
X135217197Y-111360751D01*
X134500405Y-110643959D01*
X134500403Y-110643959D01*
X134471131Y-110677339D01*
X134471126Y-110677346D01*
X134407602Y-110772417D01*
X134353990Y-110817222D01*
X134284665Y-110825929D01*
X134221637Y-110795774D01*
X134184918Y-110736331D01*
X134180500Y-110703526D01*
X134180500Y-109280001D01*
X138081865Y-109280001D01*
X138100370Y-109491521D01*
X138100371Y-109491528D01*
X138155326Y-109696622D01*
X138155330Y-109696633D01*
X138245062Y-109889064D01*
X138245066Y-109889072D01*
X138299501Y-109966812D01*
X138366854Y-110063002D01*
X138516998Y-110213146D01*
X138585528Y-110261131D01*
X138690927Y-110334933D01*
X138690929Y-110334934D01*
X138690932Y-110334936D01*
X138806709Y-110388923D01*
X138883366Y-110424669D01*
X138883368Y-110424669D01*
X138883373Y-110424672D01*
X139088473Y-110479629D01*
X139239563Y-110492847D01*
X139299998Y-110498135D01*
X139300000Y-110498135D01*
X139300002Y-110498135D01*
X139352881Y-110493508D01*
X139511527Y-110479629D01*
X139716627Y-110424672D01*
X139909068Y-110334936D01*
X140083002Y-110213146D01*
X140233146Y-110063002D01*
X140354936Y-109889068D01*
X140444672Y-109696627D01*
X140499629Y-109491527D01*
X140518135Y-109280001D01*
X144601865Y-109280001D01*
X144620370Y-109491521D01*
X144620371Y-109491528D01*
X144675326Y-109696622D01*
X144675330Y-109696633D01*
X144765062Y-109889064D01*
X144765066Y-109889072D01*
X144819501Y-109966812D01*
X144886854Y-110063002D01*
X145036998Y-110213146D01*
X145105528Y-110261131D01*
X145210927Y-110334933D01*
X145210929Y-110334934D01*
X145210932Y-110334936D01*
X145326709Y-110388923D01*
X145403366Y-110424669D01*
X145403368Y-110424669D01*
X145403373Y-110424672D01*
X145608473Y-110479629D01*
X145759563Y-110492847D01*
X145819998Y-110498135D01*
X145820000Y-110498135D01*
X145820002Y-110498135D01*
X145872881Y-110493508D01*
X146031527Y-110479629D01*
X146236627Y-110424672D01*
X146429068Y-110334936D01*
X146603002Y-110213146D01*
X146753146Y-110063002D01*
X146874936Y-109889068D01*
X146964672Y-109696627D01*
X147019629Y-109491527D01*
X147038135Y-109280000D01*
X147019629Y-109068473D01*
X146964672Y-108863373D01*
X146874936Y-108670933D01*
X146754718Y-108499243D01*
X146753147Y-108496999D01*
X146753143Y-108496995D01*
X146603002Y-108346854D01*
X146602998Y-108346851D01*
X146602997Y-108346850D01*
X146429072Y-108225066D01*
X146429064Y-108225062D01*
X146236633Y-108135330D01*
X146236619Y-108135325D01*
X146215904Y-108129775D01*
X146156243Y-108093410D01*
X146125714Y-108030563D01*
X146134009Y-107961188D01*
X146178494Y-107907310D01*
X146215904Y-107890225D01*
X146228573Y-107886829D01*
X146236627Y-107884672D01*
X146429068Y-107794936D01*
X146603002Y-107673146D01*
X146753146Y-107523002D01*
X146874936Y-107349068D01*
X146964672Y-107156627D01*
X147019629Y-106951527D01*
X147038135Y-106740000D01*
X147019629Y-106528473D01*
X146964672Y-106323373D01*
X146874936Y-106130933D01*
X146754718Y-105959243D01*
X146753147Y-105956999D01*
X146682257Y-105886109D01*
X146603002Y-105806854D01*
X146602998Y-105806851D01*
X146602997Y-105806850D01*
X146429072Y-105685066D01*
X146429064Y-105685062D01*
X146236633Y-105595330D01*
X146236622Y-105595326D01*
X146031528Y-105540371D01*
X146031521Y-105540370D01*
X145820002Y-105521865D01*
X145819998Y-105521865D01*
X145608478Y-105540370D01*
X145608471Y-105540371D01*
X145403369Y-105595329D01*
X145210934Y-105685063D01*
X145210932Y-105685064D01*
X145036995Y-105806855D01*
X144886855Y-105956995D01*
X144765064Y-106130932D01*
X144765063Y-106130934D01*
X144675329Y-106323369D01*
X144620371Y-106528471D01*
X144620370Y-106528478D01*
X144601865Y-106739998D01*
X144601865Y-106740001D01*
X144620370Y-106951521D01*
X144620371Y-106951528D01*
X144675326Y-107156622D01*
X144675330Y-107156633D01*
X144765062Y-107349064D01*
X144765066Y-107349072D01*
X144840251Y-107456446D01*
X144886854Y-107523002D01*
X145036998Y-107673146D01*
X145080258Y-107703437D01*
X145210927Y-107794933D01*
X145210929Y-107794934D01*
X145210932Y-107794936D01*
X145326709Y-107848923D01*
X145403366Y-107884669D01*
X145403368Y-107884670D01*
X145403373Y-107884672D01*
X145403376Y-107884672D01*
X145403382Y-107884675D01*
X145424096Y-107890225D01*
X145483757Y-107926589D01*
X145514287Y-107989436D01*
X145505993Y-108058811D01*
X145461508Y-108112690D01*
X145424100Y-108129774D01*
X145403372Y-108135328D01*
X145210934Y-108225063D01*
X145210932Y-108225064D01*
X145036995Y-108346855D01*
X144886855Y-108496995D01*
X144765064Y-108670932D01*
X144765063Y-108670934D01*
X144675329Y-108863369D01*
X144620371Y-109068471D01*
X144620370Y-109068478D01*
X144601865Y-109279998D01*
X144601865Y-109280001D01*
X140518135Y-109280001D01*
X140518135Y-109280000D01*
X140499629Y-109068473D01*
X140444672Y-108863373D01*
X140354936Y-108670933D01*
X140234718Y-108499243D01*
X140233147Y-108496999D01*
X140233143Y-108496995D01*
X140083002Y-108346854D01*
X140082998Y-108346851D01*
X140082997Y-108346850D01*
X139909072Y-108225066D01*
X139909064Y-108225062D01*
X139716633Y-108135330D01*
X139716621Y-108135326D01*
X139679785Y-108125456D01*
X139620125Y-108089091D01*
X139589596Y-108026244D01*
X139597891Y-107956868D01*
X139642376Y-107902990D01*
X139667085Y-107890054D01*
X139839415Y-107823293D01*
X139839419Y-107823291D01*
X139956958Y-107750512D01*
X139956958Y-107750511D01*
X139388232Y-107181784D01*
X139434138Y-107174865D01*
X139556357Y-107116007D01*
X139655798Y-107023740D01*
X139723625Y-106906260D01*
X139741499Y-106827946D01*
X140312430Y-107398877D01*
X140328898Y-107377070D01*
X140328903Y-107377062D01*
X140428440Y-107177164D01*
X140489557Y-106962366D01*
X140510162Y-106740000D01*
X140510162Y-106739999D01*
X140489557Y-106517633D01*
X140428441Y-106302835D01*
X140328903Y-106102938D01*
X140328898Y-106102931D01*
X140312429Y-106081121D01*
X139744449Y-106649101D01*
X139743673Y-106638735D01*
X139694113Y-106512459D01*
X139609535Y-106406401D01*
X139497453Y-106329984D01*
X139389700Y-106296747D01*
X139956959Y-105729487D01*
X139839416Y-105656707D01*
X139839415Y-105656706D01*
X139631179Y-105576036D01*
X139411658Y-105535000D01*
X139188342Y-105535000D01*
X138968820Y-105576036D01*
X138760586Y-105656705D01*
X138760580Y-105656708D01*
X138643040Y-105729486D01*
X138643039Y-105729487D01*
X139211768Y-106298215D01*
X139165862Y-106305135D01*
X139043643Y-106363993D01*
X138944202Y-106456260D01*
X138876375Y-106573740D01*
X138858500Y-106652052D01*
X138287569Y-106081121D01*
X138271100Y-106102931D01*
X138171558Y-106302835D01*
X138110442Y-106517633D01*
X138089838Y-106739999D01*
X138089838Y-106740000D01*
X138110442Y-106962366D01*
X138171558Y-107177164D01*
X138271102Y-107377071D01*
X138287568Y-107398877D01*
X138855550Y-106830896D01*
X138856327Y-106841265D01*
X138905887Y-106967541D01*
X138990465Y-107073599D01*
X139102547Y-107150016D01*
X139210299Y-107183253D01*
X138643039Y-107750511D01*
X138760583Y-107823292D01*
X138760584Y-107823293D01*
X138932916Y-107890054D01*
X138988317Y-107932627D01*
X139011908Y-107998394D01*
X138996197Y-108066474D01*
X138946173Y-108115253D01*
X138920218Y-108125455D01*
X138883372Y-108135328D01*
X138690934Y-108225063D01*
X138690932Y-108225064D01*
X138516995Y-108346855D01*
X138366855Y-108496995D01*
X138245064Y-108670932D01*
X138245063Y-108670934D01*
X138155329Y-108863369D01*
X138100371Y-109068471D01*
X138100370Y-109068478D01*
X138081865Y-109279998D01*
X138081865Y-109280001D01*
X134180500Y-109280001D01*
X134180500Y-95890001D01*
X144874532Y-95890001D01*
X144894364Y-96116686D01*
X144894366Y-96116697D01*
X144953258Y-96336488D01*
X144953261Y-96336497D01*
X145049431Y-96542732D01*
X145049432Y-96542734D01*
X145179954Y-96729141D01*
X145340858Y-96890045D01*
X145340861Y-96890047D01*
X145527266Y-97020568D01*
X145733504Y-97116739D01*
X145733509Y-97116740D01*
X145733511Y-97116741D01*
X145786415Y-97130916D01*
X145953308Y-97175635D01*
X146123214Y-97190499D01*
X146123215Y-97190500D01*
X146123216Y-97190500D01*
X146236785Y-97190500D01*
X146236785Y-97190499D01*
X146406692Y-97175635D01*
X146626496Y-97116739D01*
X146832734Y-97020568D01*
X147019139Y-96890047D01*
X147180047Y-96729139D01*
X147310568Y-96542734D01*
X147406739Y-96336496D01*
X147465635Y-96116692D01*
X147485468Y-95890000D01*
X147465635Y-95663308D01*
X147406739Y-95443504D01*
X147310568Y-95237266D01*
X147199694Y-95078920D01*
X147180045Y-95050858D01*
X147019141Y-94889954D01*
X146832734Y-94759432D01*
X146832732Y-94759431D01*
X146626497Y-94663261D01*
X146626488Y-94663258D01*
X146406697Y-94604366D01*
X146406687Y-94604364D01*
X146236785Y-94589500D01*
X146236784Y-94589500D01*
X146123216Y-94589500D01*
X146123215Y-94589500D01*
X145953312Y-94604364D01*
X145953302Y-94604366D01*
X145733511Y-94663258D01*
X145733502Y-94663261D01*
X145527267Y-94759431D01*
X145527265Y-94759432D01*
X145340858Y-94889954D01*
X145179954Y-95050858D01*
X145049432Y-95237265D01*
X145049431Y-95237267D01*
X144953261Y-95443502D01*
X144953258Y-95443511D01*
X144894366Y-95663302D01*
X144894364Y-95663313D01*
X144874532Y-95889998D01*
X144874532Y-95890001D01*
X134180500Y-95890001D01*
X134180500Y-90317763D01*
X146945787Y-90317763D01*
X146975413Y-90587013D01*
X146975415Y-90587024D01*
X147043926Y-90849082D01*
X147043928Y-90849088D01*
X147149870Y-91098390D01*
X147203149Y-91185690D01*
X147290979Y-91329605D01*
X147290986Y-91329615D01*
X147464253Y-91537819D01*
X147464259Y-91537824D01*
X147540583Y-91606210D01*
X147665998Y-91718582D01*
X147891910Y-91868044D01*
X148137176Y-91983020D01*
X148137183Y-91983022D01*
X148137185Y-91983023D01*
X148396557Y-92061057D01*
X148396564Y-92061058D01*
X148396569Y-92061060D01*
X148664561Y-92100500D01*
X148664566Y-92100500D01*
X148867629Y-92100500D01*
X148867631Y-92100500D01*
X148867636Y-92100499D01*
X148867648Y-92100499D01*
X148905191Y-92097750D01*
X149070156Y-92085677D01*
X149182758Y-92060593D01*
X149334546Y-92026782D01*
X149334548Y-92026781D01*
X149334553Y-92026780D01*
X149587558Y-91930014D01*
X149823777Y-91797441D01*
X150038177Y-91631888D01*
X150226186Y-91436881D01*
X150383799Y-91216579D01*
X150464774Y-91059082D01*
X150507649Y-90975690D01*
X150507651Y-90975684D01*
X150507656Y-90975675D01*
X150595118Y-90719305D01*
X150644319Y-90452933D01*
X150654212Y-90182235D01*
X150624586Y-89912982D01*
X150556072Y-89650912D01*
X150450130Y-89401610D01*
X150309018Y-89170390D01*
X150236306Y-89083017D01*
X150135746Y-88962180D01*
X150135740Y-88962175D01*
X149934002Y-88781418D01*
X149708092Y-88631957D01*
X149708090Y-88631956D01*
X149462824Y-88516980D01*
X149462819Y-88516978D01*
X149462814Y-88516976D01*
X149203442Y-88438942D01*
X149203428Y-88438939D01*
X149087791Y-88421921D01*
X148935439Y-88399500D01*
X148732369Y-88399500D01*
X148732351Y-88399500D01*
X148529844Y-88414323D01*
X148529831Y-88414325D01*
X148265453Y-88473217D01*
X148265446Y-88473220D01*
X148012439Y-88569987D01*
X147776226Y-88702557D01*
X147776224Y-88702558D01*
X147776223Y-88702559D01*
X147740682Y-88730003D01*
X147561822Y-88868112D01*
X147373822Y-89063109D01*
X147373816Y-89063116D01*
X147216202Y-89283419D01*
X147216199Y-89283424D01*
X147092350Y-89524309D01*
X147092343Y-89524327D01*
X147004884Y-89780685D01*
X147004881Y-89780699D01*
X146955681Y-90047068D01*
X146955680Y-90047075D01*
X146945787Y-90317763D01*
X134180500Y-90317763D01*
X134180500Y-88730003D01*
X142936384Y-88730003D01*
X142956781Y-88911041D01*
X142956782Y-88911046D01*
X142964162Y-88932136D01*
X143015241Y-89078112D01*
X143016958Y-89083017D01*
X143048035Y-89132475D01*
X143113889Y-89237281D01*
X143242719Y-89366111D01*
X143396985Y-89463043D01*
X143568953Y-89523217D01*
X143568958Y-89523218D01*
X143749996Y-89543616D01*
X143750000Y-89543616D01*
X143750004Y-89543616D01*
X143931041Y-89523218D01*
X143931044Y-89523217D01*
X143931047Y-89523217D01*
X144103015Y-89463043D01*
X144257281Y-89366111D01*
X144386111Y-89237281D01*
X144483043Y-89083015D01*
X144543217Y-88911047D01*
X144548309Y-88865851D01*
X144575374Y-88801439D01*
X144583838Y-88792064D01*
X150056085Y-83319819D01*
X150117408Y-83286334D01*
X150143766Y-83283500D01*
X153971648Y-83283500D01*
X154038687Y-83303185D01*
X154073220Y-83336373D01*
X154183802Y-83494300D01*
X154345700Y-83656198D01*
X154412351Y-83702868D01*
X154455975Y-83757444D01*
X154463167Y-83826942D01*
X154431645Y-83889297D01*
X154378118Y-83922826D01*
X154300602Y-83946981D01*
X154155122Y-84034927D01*
X154034927Y-84155122D01*
X153946980Y-84300604D01*
X153896409Y-84462893D01*
X153890000Y-84533427D01*
X153890000Y-84940000D01*
X154756314Y-84940000D01*
X154730507Y-84980156D01*
X154690000Y-85118111D01*
X154690000Y-85261889D01*
X154730507Y-85399844D01*
X154756314Y-85440000D01*
X153890001Y-85440000D01*
X153890001Y-85846582D01*
X153896408Y-85917102D01*
X153896409Y-85917107D01*
X153946981Y-86079396D01*
X154034927Y-86224877D01*
X154155122Y-86345072D01*
X154300600Y-86433017D01*
X154378117Y-86457172D01*
X154436265Y-86495910D01*
X154464239Y-86559935D01*
X154453158Y-86628920D01*
X154412351Y-86677132D01*
X154345699Y-86723802D01*
X154183806Y-86885695D01*
X154183803Y-86885698D01*
X154183802Y-86885700D01*
X154127177Y-86966569D01*
X154052476Y-87073252D01*
X154052475Y-87073254D01*
X153955718Y-87280750D01*
X153955714Y-87280761D01*
X153896457Y-87501910D01*
X153896456Y-87501918D01*
X153876502Y-87729998D01*
X153876502Y-87730001D01*
X153896456Y-87958081D01*
X153896457Y-87958089D01*
X153955714Y-88179238D01*
X153955718Y-88179249D01*
X154047924Y-88376985D01*
X154052477Y-88386749D01*
X154183802Y-88574300D01*
X154345700Y-88736198D01*
X154469289Y-88822736D01*
X154533251Y-88867523D01*
X154576345Y-88887618D01*
X154628784Y-88933791D01*
X154647936Y-89000984D01*
X154627720Y-89067865D01*
X154576345Y-89112382D01*
X154533251Y-89132476D01*
X154476549Y-89172180D01*
X154345700Y-89263802D01*
X154345698Y-89263803D01*
X154345695Y-89263806D01*
X154183806Y-89425695D01*
X154183803Y-89425698D01*
X154183802Y-89425700D01*
X154101767Y-89542856D01*
X154052476Y-89613252D01*
X154052475Y-89613254D01*
X153955718Y-89820750D01*
X153955714Y-89820761D01*
X153896457Y-90041910D01*
X153896456Y-90041918D01*
X153876502Y-90269998D01*
X153876502Y-90270001D01*
X153896456Y-90498081D01*
X153896457Y-90498089D01*
X153955714Y-90719238D01*
X153955718Y-90719249D01*
X154016263Y-90849088D01*
X154052477Y-90926749D01*
X154183802Y-91114300D01*
X154345700Y-91276198D01*
X154533251Y-91407523D01*
X154576345Y-91427618D01*
X154628784Y-91473791D01*
X154647936Y-91540984D01*
X154627720Y-91607865D01*
X154576345Y-91652382D01*
X154533251Y-91672476D01*
X154408126Y-91760090D01*
X154345700Y-91803802D01*
X154345698Y-91803803D01*
X154345695Y-91803806D01*
X154183806Y-91965695D01*
X154183803Y-91965698D01*
X154183802Y-91965700D01*
X154154575Y-92007441D01*
X154052476Y-92153252D01*
X154052475Y-92153254D01*
X153955718Y-92360750D01*
X153955714Y-92360761D01*
X153896457Y-92581910D01*
X153896456Y-92581918D01*
X153876502Y-92809998D01*
X153876502Y-92810001D01*
X153896456Y-93038081D01*
X153896457Y-93038089D01*
X153955714Y-93259238D01*
X153955718Y-93259249D01*
X154052475Y-93466745D01*
X154052477Y-93466749D01*
X154183802Y-93654300D01*
X154345700Y-93816198D01*
X154533251Y-93947523D01*
X154576345Y-93967618D01*
X154628784Y-94013791D01*
X154647936Y-94080984D01*
X154627720Y-94147865D01*
X154576345Y-94192382D01*
X154533251Y-94212476D01*
X154408126Y-94300090D01*
X154345700Y-94343802D01*
X154345698Y-94343803D01*
X154345695Y-94343806D01*
X154183806Y-94505695D01*
X154183803Y-94505698D01*
X154183802Y-94505700D01*
X154123724Y-94591500D01*
X154052476Y-94693252D01*
X154052475Y-94693254D01*
X153955718Y-94900750D01*
X153955714Y-94900761D01*
X153896457Y-95121910D01*
X153896456Y-95121918D01*
X153876502Y-95349998D01*
X153876502Y-95350001D01*
X153896456Y-95578081D01*
X153896457Y-95578089D01*
X153955714Y-95799238D01*
X153955718Y-95799249D01*
X154052475Y-96006745D01*
X154052477Y-96006749D01*
X154183802Y-96194300D01*
X154345700Y-96356198D01*
X154412351Y-96402868D01*
X154455975Y-96457444D01*
X154463167Y-96526942D01*
X154431645Y-96589297D01*
X154378118Y-96622826D01*
X154300602Y-96646981D01*
X154155122Y-96734927D01*
X154034927Y-96855122D01*
X153946980Y-97000604D01*
X153896409Y-97162893D01*
X153890000Y-97233427D01*
X153890000Y-97640000D01*
X154756314Y-97640000D01*
X154730507Y-97680156D01*
X154690000Y-97818111D01*
X154690000Y-97961889D01*
X154730507Y-98099844D01*
X154756314Y-98140000D01*
X153890001Y-98140000D01*
X153890001Y-98546582D01*
X153896408Y-98617102D01*
X153896409Y-98617107D01*
X153946981Y-98779396D01*
X154034927Y-98924877D01*
X154155122Y-99045072D01*
X154300600Y-99133017D01*
X154378117Y-99157172D01*
X154436265Y-99195910D01*
X154464239Y-99259935D01*
X154453158Y-99328920D01*
X154412351Y-99377132D01*
X154345699Y-99423802D01*
X154183806Y-99585695D01*
X154052476Y-99773252D01*
X154052475Y-99773254D01*
X153955718Y-99980750D01*
X153955714Y-99980761D01*
X153896457Y-100201910D01*
X153896456Y-100201918D01*
X153876502Y-100429998D01*
X153876502Y-100430001D01*
X153896456Y-100658081D01*
X153896457Y-100658089D01*
X153955714Y-100879238D01*
X153955718Y-100879249D01*
X154052475Y-101086745D01*
X154052477Y-101086749D01*
X154183802Y-101274300D01*
X154345700Y-101436198D01*
X154533251Y-101567523D01*
X154576345Y-101587618D01*
X154628784Y-101633791D01*
X154647936Y-101700984D01*
X154627720Y-101767865D01*
X154576345Y-101812382D01*
X154533251Y-101832476D01*
X154408126Y-101920090D01*
X154345700Y-101963802D01*
X154345698Y-101963803D01*
X154345695Y-101963806D01*
X154183806Y-102125695D01*
X154052476Y-102313252D01*
X154052475Y-102313254D01*
X153955718Y-102520750D01*
X153955714Y-102520761D01*
X153896457Y-102741910D01*
X153896456Y-102741918D01*
X153876502Y-102969998D01*
X153876502Y-102970001D01*
X153896456Y-103198081D01*
X153896457Y-103198089D01*
X153955714Y-103419238D01*
X153955718Y-103419249D01*
X154052475Y-103626745D01*
X154052477Y-103626749D01*
X154183802Y-103814300D01*
X154345700Y-103976198D01*
X154513657Y-104093803D01*
X154533251Y-104107523D01*
X154576345Y-104127618D01*
X154628784Y-104173791D01*
X154647936Y-104240984D01*
X154627720Y-104307865D01*
X154576345Y-104352382D01*
X154533251Y-104372476D01*
X154426077Y-104447521D01*
X154345700Y-104503802D01*
X154345698Y-104503803D01*
X154345695Y-104503806D01*
X154183806Y-104665695D01*
X154052476Y-104853252D01*
X154052475Y-104853254D01*
X153955718Y-105060750D01*
X153955714Y-105060761D01*
X153896457Y-105281910D01*
X153896456Y-105281918D01*
X153876502Y-105509998D01*
X153876502Y-105510001D01*
X153896456Y-105738081D01*
X153896457Y-105738089D01*
X153955714Y-105959238D01*
X153955718Y-105959249D01*
X154032168Y-106123196D01*
X154052477Y-106166749D01*
X154183802Y-106354300D01*
X154345700Y-106516198D01*
X154533251Y-106647523D01*
X154576345Y-106667618D01*
X154628784Y-106713791D01*
X154647936Y-106780984D01*
X154627720Y-106847865D01*
X154576345Y-106892382D01*
X154533251Y-106912476D01*
X154441044Y-106977041D01*
X154345700Y-107043802D01*
X154345698Y-107043803D01*
X154345695Y-107043806D01*
X154183806Y-107205695D01*
X154052476Y-107393252D01*
X154052475Y-107393254D01*
X153955718Y-107600750D01*
X153955714Y-107600761D01*
X153896457Y-107821910D01*
X153896456Y-107821918D01*
X153876502Y-108049998D01*
X153876502Y-108050001D01*
X153896456Y-108278081D01*
X153896457Y-108278089D01*
X153955714Y-108499238D01*
X153955718Y-108499249D01*
X153958866Y-108505999D01*
X154052477Y-108706749D01*
X154183802Y-108894300D01*
X154345700Y-109056198D01*
X154412351Y-109102868D01*
X154455975Y-109157444D01*
X154463167Y-109226942D01*
X154431645Y-109289297D01*
X154378118Y-109322826D01*
X154300602Y-109346981D01*
X154155122Y-109434927D01*
X154034927Y-109555122D01*
X153946980Y-109700604D01*
X153896409Y-109862893D01*
X153890000Y-109933427D01*
X153890000Y-110340000D01*
X154756314Y-110340000D01*
X154730507Y-110380156D01*
X154690000Y-110518111D01*
X154690000Y-110661889D01*
X154730507Y-110799844D01*
X154756314Y-110840000D01*
X153890001Y-110840000D01*
X153890001Y-111246582D01*
X153896408Y-111317102D01*
X153896409Y-111317107D01*
X153946981Y-111479396D01*
X154034927Y-111624877D01*
X154155122Y-111745072D01*
X154300600Y-111833017D01*
X154378117Y-111857172D01*
X154436265Y-111895910D01*
X154464239Y-111959935D01*
X154453158Y-112028920D01*
X154412351Y-112077132D01*
X154345699Y-112123802D01*
X154183806Y-112285695D01*
X154183803Y-112285698D01*
X154183802Y-112285700D01*
X154142753Y-112344324D01*
X154052476Y-112473252D01*
X154052475Y-112473254D01*
X153955718Y-112680750D01*
X153955714Y-112680761D01*
X153896457Y-112901910D01*
X153896456Y-112901918D01*
X153876502Y-113129998D01*
X153876502Y-113130001D01*
X153896456Y-113358081D01*
X153896457Y-113358089D01*
X153955714Y-113579238D01*
X153955718Y-113579249D01*
X154018035Y-113712888D01*
X154052477Y-113786749D01*
X154183802Y-113974300D01*
X154345700Y-114136198D01*
X154476804Y-114227998D01*
X154533251Y-114267523D01*
X154576345Y-114287618D01*
X154628784Y-114333791D01*
X154647936Y-114400984D01*
X154627720Y-114467865D01*
X154576345Y-114512382D01*
X154533251Y-114532476D01*
X154423118Y-114609593D01*
X154345700Y-114663802D01*
X154345698Y-114663803D01*
X154345695Y-114663806D01*
X154183806Y-114825695D01*
X154183803Y-114825698D01*
X154183802Y-114825700D01*
X154113007Y-114926805D01*
X154052476Y-115013252D01*
X154052475Y-115013254D01*
X153955718Y-115220750D01*
X153955714Y-115220761D01*
X153896457Y-115441910D01*
X153896456Y-115441918D01*
X153876502Y-115669998D01*
X153876502Y-115670001D01*
X153896456Y-115898081D01*
X153896457Y-115898089D01*
X153955714Y-116119238D01*
X153955718Y-116119249D01*
X154021178Y-116259628D01*
X154052477Y-116326749D01*
X154183802Y-116514300D01*
X154345700Y-116676198D01*
X154533251Y-116807523D01*
X154638240Y-116856480D01*
X154740750Y-116904281D01*
X154740752Y-116904281D01*
X154740757Y-116904284D01*
X154961913Y-116963543D01*
X155118718Y-116977261D01*
X155172556Y-116981972D01*
X155183906Y-116986411D01*
X155207444Y-116981972D01*
X155254304Y-116977872D01*
X155418087Y-116963543D01*
X155639243Y-116904284D01*
X155846749Y-116807523D01*
X156034300Y-116676198D01*
X156196198Y-116514300D01*
X156327523Y-116326749D01*
X156424284Y-116119243D01*
X156483543Y-115898087D01*
X156503498Y-115670000D01*
X156483543Y-115441913D01*
X156424284Y-115220757D01*
X156423076Y-115218167D01*
X156358821Y-115080371D01*
X156327523Y-115013251D01*
X156196198Y-114825700D01*
X156034300Y-114663802D01*
X155846749Y-114532477D01*
X155803655Y-114512382D01*
X155751215Y-114466210D01*
X155732063Y-114399017D01*
X155752278Y-114332136D01*
X155803655Y-114287618D01*
X155808122Y-114285535D01*
X155846749Y-114267523D01*
X156034300Y-114136198D01*
X156196198Y-113974300D01*
X156327523Y-113786749D01*
X156424284Y-113579243D01*
X156483543Y-113358087D01*
X156503498Y-113130000D01*
X156503270Y-113127398D01*
X156493740Y-113018470D01*
X156483543Y-112901913D01*
X156443791Y-112753558D01*
X160879500Y-112753558D01*
X160894157Y-112883648D01*
X160894159Y-112883658D01*
X160951877Y-113048604D01*
X160951878Y-113048606D01*
X161044853Y-113196576D01*
X161168424Y-113320147D01*
X161316394Y-113413122D01*
X161481343Y-113470841D01*
X161481349Y-113470841D01*
X161481351Y-113470842D01*
X161654996Y-113490407D01*
X161655000Y-113490407D01*
X161655004Y-113490407D01*
X161828648Y-113470842D01*
X161828647Y-113470842D01*
X161828657Y-113470841D01*
X161993606Y-113413122D01*
X162141576Y-113320147D01*
X162265147Y-113196576D01*
X162358122Y-113048606D01*
X162415841Y-112883657D01*
X162430499Y-112753558D01*
X165729500Y-112753558D01*
X165744157Y-112883648D01*
X165744159Y-112883658D01*
X165801877Y-113048604D01*
X165801878Y-113048606D01*
X165894853Y-113196576D01*
X166018424Y-113320147D01*
X166166394Y-113413122D01*
X166331343Y-113470841D01*
X166331349Y-113470841D01*
X166331351Y-113470842D01*
X166504996Y-113490407D01*
X166505000Y-113490407D01*
X166505004Y-113490407D01*
X166678648Y-113470842D01*
X166678647Y-113470842D01*
X166678657Y-113470841D01*
X166843606Y-113413122D01*
X166991576Y-113320147D01*
X167115147Y-113196576D01*
X167208122Y-113048606D01*
X167265841Y-112883657D01*
X167280500Y-112753552D01*
X167280500Y-112266448D01*
X167265841Y-112136343D01*
X167208122Y-111971394D01*
X167115147Y-111823424D01*
X166991576Y-111699853D01*
X166843606Y-111606878D01*
X166843605Y-111606877D01*
X166843604Y-111606877D01*
X166678658Y-111549159D01*
X166678648Y-111549157D01*
X166505004Y-111529593D01*
X166504996Y-111529593D01*
X166331351Y-111549157D01*
X166331341Y-111549159D01*
X166166395Y-111606877D01*
X166018423Y-111699853D01*
X165894853Y-111823423D01*
X165801877Y-111971395D01*
X165744159Y-112136341D01*
X165744157Y-112136351D01*
X165729500Y-112266441D01*
X165729500Y-112753558D01*
X162430499Y-112753558D01*
X162430500Y-112753552D01*
X162430500Y-112266448D01*
X162415841Y-112136343D01*
X162358122Y-111971394D01*
X162265147Y-111823424D01*
X162141576Y-111699853D01*
X161993606Y-111606878D01*
X161993605Y-111606877D01*
X161993604Y-111606877D01*
X161828658Y-111549159D01*
X161828648Y-111549157D01*
X161655004Y-111529593D01*
X161654996Y-111529593D01*
X161481351Y-111549157D01*
X161481341Y-111549159D01*
X161316395Y-111606877D01*
X161168423Y-111699853D01*
X161044853Y-111823423D01*
X160951877Y-111971395D01*
X160894159Y-112136341D01*
X160894157Y-112136351D01*
X160879500Y-112266441D01*
X160879500Y-112753558D01*
X156443791Y-112753558D01*
X156424284Y-112680757D01*
X156407484Y-112644730D01*
X156385736Y-112598091D01*
X156327523Y-112473251D01*
X156196198Y-112285700D01*
X156034300Y-112123802D01*
X155967649Y-112077132D01*
X155924024Y-112022555D01*
X155916832Y-111953057D01*
X155948355Y-111890702D01*
X156001883Y-111857172D01*
X156079399Y-111833017D01*
X156224877Y-111745072D01*
X156345072Y-111624877D01*
X156433019Y-111479395D01*
X156483590Y-111317106D01*
X156490000Y-111246572D01*
X156490000Y-110840000D01*
X155623686Y-110840000D01*
X155649493Y-110799844D01*
X155690000Y-110661889D01*
X155690000Y-110518111D01*
X155649493Y-110380156D01*
X155623686Y-110340000D01*
X156489999Y-110340000D01*
X156489999Y-109933417D01*
X156483591Y-109862897D01*
X156483590Y-109862892D01*
X156433018Y-109700603D01*
X156345072Y-109555122D01*
X156224877Y-109434927D01*
X156079396Y-109346981D01*
X156001881Y-109322826D01*
X155943734Y-109284088D01*
X155915760Y-109220063D01*
X155926842Y-109151078D01*
X155967645Y-109102870D01*
X156034300Y-109056198D01*
X156196198Y-108894300D01*
X156327523Y-108706749D01*
X156424284Y-108499243D01*
X156483543Y-108278087D01*
X156503498Y-108050000D01*
X156501797Y-108030563D01*
X156490636Y-107902990D01*
X156483543Y-107821913D01*
X156424284Y-107600757D01*
X156388026Y-107523002D01*
X156327524Y-107393254D01*
X156327523Y-107393252D01*
X156327523Y-107393251D01*
X156196198Y-107205700D01*
X156034300Y-107043802D01*
X155846749Y-106912477D01*
X155803655Y-106892382D01*
X155751215Y-106846210D01*
X155732063Y-106779017D01*
X155752278Y-106712136D01*
X155803655Y-106667618D01*
X155806882Y-106666112D01*
X155846749Y-106647523D01*
X156034300Y-106516198D01*
X156196198Y-106354300D01*
X156327523Y-106166749D01*
X156424284Y-105959243D01*
X156483543Y-105738087D01*
X156503498Y-105510000D01*
X156483543Y-105281913D01*
X156424284Y-105060757D01*
X156327523Y-104853251D01*
X156196198Y-104665700D01*
X156034300Y-104503802D01*
X155846749Y-104372477D01*
X155803655Y-104352382D01*
X155751215Y-104306210D01*
X155732063Y-104239017D01*
X155752278Y-104172136D01*
X155803655Y-104127618D01*
X155806882Y-104126112D01*
X155846749Y-104107523D01*
X156034300Y-103976198D01*
X156196198Y-103814300D01*
X156327523Y-103626749D01*
X156424284Y-103419243D01*
X156483543Y-103198087D01*
X156503498Y-102970000D01*
X156483543Y-102741913D01*
X156424284Y-102520757D01*
X156327523Y-102313251D01*
X156196198Y-102125700D01*
X156034300Y-101963802D01*
X155846749Y-101832477D01*
X155803655Y-101812382D01*
X155751215Y-101766210D01*
X155732063Y-101699017D01*
X155752278Y-101632136D01*
X155803655Y-101587618D01*
X155806882Y-101586112D01*
X155846749Y-101567523D01*
X156034300Y-101436198D01*
X156196198Y-101274300D01*
X156327523Y-101086749D01*
X156424284Y-100879243D01*
X156483543Y-100658087D01*
X156503498Y-100430000D01*
X156483543Y-100201913D01*
X156424284Y-99980757D01*
X156327523Y-99773251D01*
X156196198Y-99585700D01*
X156034300Y-99423802D01*
X155967649Y-99377132D01*
X155924024Y-99322555D01*
X155916832Y-99253057D01*
X155948355Y-99190702D01*
X156001883Y-99157172D01*
X156079399Y-99133017D01*
X156224877Y-99045072D01*
X156345072Y-98924877D01*
X156433019Y-98779395D01*
X156483590Y-98617106D01*
X156490000Y-98546572D01*
X156490000Y-98140000D01*
X155623686Y-98140000D01*
X155649493Y-98099844D01*
X155690000Y-97961889D01*
X155690000Y-97818111D01*
X155649493Y-97680156D01*
X155623686Y-97640000D01*
X156489999Y-97640000D01*
X156489999Y-97233417D01*
X156483591Y-97162897D01*
X156483590Y-97162892D01*
X156433018Y-97000603D01*
X156345072Y-96855122D01*
X156224877Y-96734927D01*
X156079396Y-96646981D01*
X156001881Y-96622826D01*
X155943734Y-96584088D01*
X155915760Y-96520063D01*
X155926842Y-96451078D01*
X155967645Y-96402870D01*
X156034300Y-96356198D01*
X156196198Y-96194300D01*
X156327523Y-96006749D01*
X156424284Y-95799243D01*
X156483543Y-95578087D01*
X156503498Y-95350000D01*
X156483543Y-95121913D01*
X156424284Y-94900757D01*
X156402385Y-94853795D01*
X156366295Y-94776399D01*
X156327523Y-94693251D01*
X156196198Y-94505700D01*
X156034300Y-94343802D01*
X155846749Y-94212477D01*
X155803655Y-94192382D01*
X155751215Y-94146210D01*
X155732063Y-94079017D01*
X155752278Y-94012136D01*
X155803655Y-93967618D01*
X155806882Y-93966112D01*
X155846749Y-93947523D01*
X156034300Y-93816198D01*
X156196198Y-93654300D01*
X156327523Y-93466749D01*
X156424284Y-93259243D01*
X156483543Y-93038087D01*
X156503498Y-92810000D01*
X156483543Y-92581913D01*
X156424284Y-92360757D01*
X156400848Y-92310499D01*
X156327524Y-92153254D01*
X156327523Y-92153252D01*
X156327523Y-92153251D01*
X156196198Y-91965700D01*
X156034300Y-91803802D01*
X155846749Y-91672477D01*
X155803655Y-91652382D01*
X155751215Y-91606210D01*
X155732063Y-91539017D01*
X155752278Y-91472136D01*
X155803655Y-91427618D01*
X155806882Y-91426112D01*
X155846749Y-91407523D01*
X156034300Y-91276198D01*
X156196198Y-91114300D01*
X156327523Y-90926749D01*
X156424284Y-90719243D01*
X156483543Y-90498087D01*
X156503498Y-90270000D01*
X156483543Y-90041913D01*
X156424284Y-89820757D01*
X156327523Y-89613251D01*
X156196198Y-89425700D01*
X156034300Y-89263802D01*
X155846749Y-89132477D01*
X155803655Y-89112382D01*
X155751215Y-89066210D01*
X155732063Y-88999017D01*
X155752278Y-88932136D01*
X155803655Y-88887618D01*
X155806882Y-88886112D01*
X155846749Y-88867523D01*
X156034300Y-88736198D01*
X156196198Y-88574300D01*
X156327523Y-88386749D01*
X156424284Y-88179243D01*
X156483543Y-87958087D01*
X156503498Y-87730000D01*
X156483543Y-87501913D01*
X156424284Y-87280757D01*
X156327523Y-87073251D01*
X156196198Y-86885700D01*
X156034300Y-86723802D01*
X155967649Y-86677132D01*
X155924024Y-86622555D01*
X155916832Y-86553057D01*
X155948355Y-86490702D01*
X156001883Y-86457172D01*
X156079399Y-86433017D01*
X156224877Y-86345072D01*
X156345072Y-86224877D01*
X156433019Y-86079395D01*
X156483590Y-85917106D01*
X156490000Y-85846572D01*
X156490000Y-85840000D01*
X157114950Y-85840000D01*
X157134712Y-86065885D01*
X157134714Y-86065895D01*
X157193398Y-86284909D01*
X157193400Y-86284913D01*
X157193401Y-86284917D01*
X157254760Y-86416502D01*
X157289231Y-86490425D01*
X157289233Y-86490429D01*
X157419287Y-86676165D01*
X157419292Y-86676171D01*
X157579628Y-86836507D01*
X157579634Y-86836512D01*
X157765370Y-86966566D01*
X157765372Y-86966567D01*
X157765375Y-86966569D01*
X157970883Y-87062399D01*
X158189910Y-87121087D01*
X158359222Y-87135900D01*
X158415799Y-87140850D01*
X158415800Y-87140850D01*
X158415801Y-87140850D01*
X158472378Y-87135900D01*
X158641690Y-87121087D01*
X158860717Y-87062399D01*
X159066225Y-86966569D01*
X159251970Y-86836509D01*
X159412309Y-86676170D01*
X159542369Y-86490425D01*
X159573418Y-86423839D01*
X159619590Y-86371400D01*
X159686783Y-86352248D01*
X159753665Y-86372463D01*
X159798182Y-86423840D01*
X159829229Y-86490421D01*
X159829233Y-86490429D01*
X159959287Y-86676165D01*
X159959292Y-86676171D01*
X160119628Y-86836507D01*
X160119634Y-86836512D01*
X160305370Y-86966566D01*
X160305372Y-86966567D01*
X160305375Y-86966569D01*
X160510883Y-87062399D01*
X160729910Y-87121087D01*
X160899222Y-87135900D01*
X160955799Y-87140850D01*
X160955800Y-87140850D01*
X160955801Y-87140850D01*
X161012378Y-87135900D01*
X161181690Y-87121087D01*
X161400717Y-87062399D01*
X161606225Y-86966569D01*
X161791970Y-86836509D01*
X161952309Y-86676170D01*
X161977416Y-86640313D01*
X162031990Y-86596689D01*
X162101488Y-86589495D01*
X162163844Y-86621016D01*
X162199258Y-86681246D01*
X162202279Y-86698178D01*
X162206411Y-86736603D01*
X162206411Y-86736604D01*
X162243674Y-86836507D01*
X162257511Y-86873604D01*
X162345139Y-86990661D01*
X162462196Y-87078289D01*
X162599199Y-87129389D01*
X162626450Y-87132318D01*
X162659745Y-87135899D01*
X162659762Y-87135900D01*
X164331838Y-87135900D01*
X164331854Y-87135899D01*
X164358892Y-87132991D01*
X164392401Y-87129389D01*
X164529404Y-87078289D01*
X164646461Y-86990661D01*
X164734089Y-86873604D01*
X164785189Y-86736601D01*
X164789320Y-86698178D01*
X164791699Y-86676054D01*
X164791700Y-86676037D01*
X164791700Y-85003962D01*
X164791699Y-85003945D01*
X164788357Y-84972870D01*
X164785189Y-84943399D01*
X164783921Y-84940000D01*
X164747923Y-84843487D01*
X164734089Y-84806396D01*
X164646461Y-84689339D01*
X164529404Y-84601711D01*
X164392403Y-84550611D01*
X164331854Y-84544100D01*
X164331838Y-84544100D01*
X162659762Y-84544100D01*
X162659745Y-84544100D01*
X162599197Y-84550611D01*
X162599195Y-84550611D01*
X162462195Y-84601711D01*
X162345139Y-84689339D01*
X162257511Y-84806395D01*
X162206411Y-84943395D01*
X162206411Y-84943396D01*
X162202279Y-84981821D01*
X162175539Y-85046371D01*
X162118145Y-85086218D01*
X162048320Y-85088709D01*
X161988232Y-85053055D01*
X161977415Y-85039685D01*
X161952312Y-85003834D01*
X161952307Y-85003828D01*
X161791971Y-84843492D01*
X161791965Y-84843487D01*
X161606229Y-84713433D01*
X161606225Y-84713431D01*
X161555977Y-84690000D01*
X161400717Y-84617601D01*
X161400713Y-84617600D01*
X161400709Y-84617598D01*
X161181695Y-84558914D01*
X161181685Y-84558912D01*
X160955801Y-84539150D01*
X160955799Y-84539150D01*
X160729914Y-84558912D01*
X160729904Y-84558914D01*
X160510890Y-84617598D01*
X160510881Y-84617602D01*
X160305374Y-84713431D01*
X160305370Y-84713433D01*
X160119634Y-84843487D01*
X160119628Y-84843492D01*
X159959292Y-85003828D01*
X159959287Y-85003834D01*
X159829233Y-85189570D01*
X159829231Y-85189574D01*
X159798182Y-85256160D01*
X159752010Y-85308599D01*
X159684816Y-85327751D01*
X159617935Y-85307535D01*
X159573418Y-85256160D01*
X159542369Y-85189575D01*
X159542367Y-85189572D01*
X159542366Y-85189570D01*
X159412312Y-85003834D01*
X159412307Y-85003828D01*
X159251971Y-84843492D01*
X159251965Y-84843487D01*
X159066229Y-84713433D01*
X159066225Y-84713431D01*
X159015977Y-84690000D01*
X158860717Y-84617601D01*
X158860713Y-84617600D01*
X158860709Y-84617598D01*
X158641695Y-84558914D01*
X158641685Y-84558912D01*
X158415801Y-84539150D01*
X158415799Y-84539150D01*
X158189914Y-84558912D01*
X158189904Y-84558914D01*
X157970890Y-84617598D01*
X157970881Y-84617602D01*
X157765374Y-84713431D01*
X157765370Y-84713433D01*
X157579634Y-84843487D01*
X157579628Y-84843492D01*
X157419292Y-85003828D01*
X157419287Y-85003834D01*
X157289233Y-85189570D01*
X157289231Y-85189574D01*
X157193402Y-85395081D01*
X157193398Y-85395090D01*
X157134714Y-85614104D01*
X157134712Y-85614114D01*
X157114950Y-85839999D01*
X157114950Y-85840000D01*
X156490000Y-85840000D01*
X156490000Y-85440000D01*
X155623686Y-85440000D01*
X155649493Y-85399844D01*
X155690000Y-85261889D01*
X155690000Y-85118111D01*
X155649493Y-84980156D01*
X155623686Y-84940000D01*
X156489999Y-84940000D01*
X156489999Y-84533417D01*
X156483591Y-84462897D01*
X156483590Y-84462892D01*
X156433018Y-84300603D01*
X156345072Y-84155122D01*
X156224877Y-84034927D01*
X156079396Y-83946981D01*
X156001881Y-83922826D01*
X155943734Y-83884088D01*
X155915760Y-83820063D01*
X155926842Y-83751078D01*
X155967645Y-83702870D01*
X156034300Y-83656198D01*
X156196198Y-83494300D01*
X156327523Y-83306749D01*
X156424284Y-83099243D01*
X156483543Y-82878087D01*
X156503498Y-82650000D01*
X156483543Y-82421913D01*
X156424284Y-82200757D01*
X156416716Y-82184528D01*
X156365353Y-82074378D01*
X156327523Y-81993251D01*
X156196198Y-81805700D01*
X156034300Y-81643802D01*
X155846749Y-81512477D01*
X155803655Y-81492382D01*
X155751215Y-81446210D01*
X155732063Y-81379017D01*
X155752278Y-81312136D01*
X155803655Y-81267618D01*
X155806882Y-81266112D01*
X155846749Y-81247523D01*
X156034300Y-81116198D01*
X156196198Y-80954300D01*
X156327523Y-80766749D01*
X156424284Y-80559243D01*
X156483543Y-80338087D01*
X156503498Y-80110000D01*
X156483543Y-79881913D01*
X156424284Y-79660757D01*
X156327523Y-79453251D01*
X156196198Y-79265700D01*
X156034300Y-79103802D01*
X155846749Y-78972477D01*
X155803655Y-78952382D01*
X155751215Y-78906210D01*
X155732063Y-78839017D01*
X155752278Y-78772136D01*
X155803655Y-78727618D01*
X155806882Y-78726112D01*
X155846749Y-78707523D01*
X156034300Y-78576198D01*
X156196198Y-78414300D01*
X156327523Y-78226749D01*
X156424284Y-78019243D01*
X156483543Y-77798087D01*
X156503498Y-77570000D01*
X156501466Y-77546779D01*
X156497638Y-77503020D01*
X156483543Y-77341913D01*
X156424284Y-77120757D01*
X156327523Y-76913251D01*
X156196198Y-76725700D01*
X156034300Y-76563802D01*
X155846749Y-76432477D01*
X155803655Y-76412382D01*
X155751215Y-76366210D01*
X155732063Y-76299017D01*
X155752278Y-76232136D01*
X155803655Y-76187618D01*
X155806882Y-76186112D01*
X155846749Y-76167523D01*
X156034300Y-76036198D01*
X156196198Y-75874300D01*
X156327523Y-75686749D01*
X156424284Y-75479243D01*
X156483543Y-75258087D01*
X156503498Y-75030000D01*
X156483543Y-74801913D01*
X156424284Y-74580757D01*
X156419275Y-74570016D01*
X156360392Y-74443740D01*
X156327523Y-74373251D01*
X156196198Y-74185700D01*
X156034300Y-74023802D01*
X155990625Y-73993220D01*
X155967649Y-73977132D01*
X155924024Y-73922555D01*
X155916832Y-73853057D01*
X155948355Y-73790702D01*
X156001883Y-73757172D01*
X156079399Y-73733017D01*
X156224877Y-73645072D01*
X156345072Y-73524877D01*
X156433019Y-73379395D01*
X156483590Y-73217106D01*
X156490000Y-73146572D01*
X156490000Y-72740000D01*
X155623686Y-72740000D01*
X155649493Y-72699844D01*
X155690000Y-72561889D01*
X155690000Y-72418111D01*
X155649493Y-72280156D01*
X155623686Y-72240000D01*
X156489999Y-72240000D01*
X156489999Y-71833417D01*
X156483591Y-71762897D01*
X156483590Y-71762892D01*
X156433018Y-71600603D01*
X156345072Y-71455122D01*
X156224877Y-71334927D01*
X156079396Y-71246981D01*
X156001881Y-71222826D01*
X155943734Y-71184088D01*
X155915760Y-71120063D01*
X155926842Y-71051078D01*
X155967645Y-71002870D01*
X156034300Y-70956198D01*
X156196198Y-70794300D01*
X156327523Y-70606749D01*
X156424284Y-70399243D01*
X156483543Y-70178087D01*
X156503498Y-69950000D01*
X156483543Y-69721913D01*
X156424284Y-69500757D01*
X156327523Y-69293251D01*
X156196198Y-69105700D01*
X156034300Y-68943802D01*
X155846749Y-68812477D01*
X155803655Y-68792382D01*
X155751215Y-68746210D01*
X155732063Y-68679017D01*
X155752278Y-68612136D01*
X155803655Y-68567618D01*
X155806882Y-68566112D01*
X155846749Y-68547523D01*
X156034300Y-68416198D01*
X156196198Y-68254300D01*
X156327523Y-68066749D01*
X156424284Y-67859243D01*
X156483543Y-67638087D01*
X156503498Y-67410000D01*
X156483543Y-67181913D01*
X156424284Y-66960757D01*
X156327523Y-66753251D01*
X156196198Y-66565700D01*
X156034300Y-66403802D01*
X155967107Y-66356753D01*
X157077137Y-66356753D01*
X157078378Y-66359530D01*
X157079500Y-66376170D01*
X157079500Y-73998891D01*
X157080000Y-74007795D01*
X157080000Y-74440000D01*
X157512206Y-74440000D01*
X157521105Y-74440500D01*
X157523607Y-74440500D01*
X170638895Y-74440500D01*
X170647794Y-74440000D01*
X171080000Y-74440000D01*
X171080000Y-74007795D01*
X171080500Y-73998891D01*
X171080500Y-73940000D01*
X171081539Y-73149486D01*
X171090431Y-66381763D01*
X171090500Y-66381532D01*
X171090500Y-66381336D01*
X171090570Y-66381095D01*
X171090507Y-66324166D01*
X171090461Y-66282060D01*
X171084802Y-66261126D01*
X171084296Y-66259252D01*
X171080000Y-66226895D01*
X171080000Y-66040000D01*
X170982710Y-66040000D01*
X170921658Y-66023929D01*
X170865447Y-65992132D01*
X170772567Y-65968336D01*
X170726012Y-65968900D01*
X170725376Y-65968908D01*
X170723878Y-65968917D01*
X157461645Y-65968917D01*
X157461645Y-65968907D01*
X157461228Y-65968946D01*
X157424929Y-65968867D01*
X157424564Y-65968867D01*
X157424563Y-65968867D01*
X157424562Y-65968867D01*
X157329215Y-65992916D01*
X157329214Y-65992917D01*
X157269379Y-66025160D01*
X157210557Y-66040000D01*
X157080000Y-66040000D01*
X157080000Y-66315869D01*
X157079500Y-66321348D01*
X157079500Y-66324518D01*
X157079020Y-66335417D01*
X157077137Y-66356753D01*
X155967107Y-66356753D01*
X155846749Y-66272477D01*
X155846745Y-66272475D01*
X155639249Y-66175718D01*
X155639238Y-66175714D01*
X155418089Y-66116457D01*
X155418081Y-66116456D01*
X155190002Y-66096502D01*
X155189998Y-66096502D01*
X154961918Y-66116456D01*
X154961910Y-66116457D01*
X154740761Y-66175714D01*
X154740750Y-66175718D01*
X154533254Y-66272475D01*
X154533252Y-66272476D01*
X154519565Y-66282060D01*
X154345700Y-66403802D01*
X154345698Y-66403803D01*
X154345695Y-66403806D01*
X154183806Y-66565695D01*
X154183803Y-66565698D01*
X154183802Y-66565700D01*
X154149657Y-66614464D01*
X154052476Y-66753252D01*
X154052475Y-66753254D01*
X153955718Y-66960750D01*
X153955714Y-66960761D01*
X153896457Y-67181910D01*
X153896456Y-67181918D01*
X153876502Y-67409998D01*
X153876502Y-67410001D01*
X153896456Y-67638081D01*
X153896457Y-67638089D01*
X153955714Y-67859238D01*
X153955718Y-67859249D01*
X154013275Y-67982680D01*
X154052477Y-68066749D01*
X154183802Y-68254300D01*
X154345700Y-68416198D01*
X154483546Y-68512719D01*
X154533251Y-68547523D01*
X154576345Y-68567618D01*
X154628784Y-68613791D01*
X154647936Y-68680984D01*
X154627720Y-68747865D01*
X154576345Y-68792382D01*
X154533251Y-68812476D01*
X154408126Y-68900090D01*
X154345700Y-68943802D01*
X154345698Y-68943803D01*
X154345695Y-68943806D01*
X154183806Y-69105695D01*
X154183803Y-69105698D01*
X154183802Y-69105700D01*
X154174463Y-69119038D01*
X154052476Y-69293252D01*
X154052475Y-69293254D01*
X153955718Y-69500750D01*
X153955714Y-69500761D01*
X153896457Y-69721910D01*
X153896456Y-69721918D01*
X153876502Y-69949998D01*
X153876502Y-69950001D01*
X153896456Y-70178081D01*
X153896457Y-70178089D01*
X153955714Y-70399238D01*
X153955718Y-70399249D01*
X154033039Y-70565064D01*
X154052477Y-70606749D01*
X154183802Y-70794300D01*
X154345700Y-70956198D01*
X154412351Y-71002868D01*
X154455975Y-71057444D01*
X154463167Y-71126942D01*
X154431645Y-71189297D01*
X154378118Y-71222826D01*
X154300602Y-71246981D01*
X154155122Y-71334927D01*
X154034927Y-71455122D01*
X153946980Y-71600604D01*
X153896409Y-71762893D01*
X153890000Y-71833427D01*
X153890000Y-72240000D01*
X154756314Y-72240000D01*
X154730507Y-72280156D01*
X154690000Y-72418111D01*
X154690000Y-72561889D01*
X154730507Y-72699844D01*
X154756314Y-72740000D01*
X153890001Y-72740000D01*
X153890001Y-73146582D01*
X153896408Y-73217102D01*
X153896409Y-73217107D01*
X153946981Y-73379396D01*
X154034927Y-73524877D01*
X154155122Y-73645072D01*
X154300600Y-73733017D01*
X154378117Y-73757172D01*
X154436265Y-73795910D01*
X154464239Y-73859935D01*
X154453158Y-73928920D01*
X154412351Y-73977132D01*
X154345699Y-74023802D01*
X154183806Y-74185695D01*
X154183803Y-74185698D01*
X154183802Y-74185700D01*
X154157993Y-74222559D01*
X154052476Y-74373252D01*
X154052475Y-74373254D01*
X153955718Y-74580750D01*
X153955714Y-74580761D01*
X153896457Y-74801910D01*
X153896456Y-74801918D01*
X153876502Y-75029998D01*
X153876502Y-75030001D01*
X153896456Y-75258081D01*
X153896457Y-75258089D01*
X153955714Y-75479238D01*
X153955718Y-75479249D01*
X153996669Y-75567068D01*
X154052477Y-75686749D01*
X154183802Y-75874300D01*
X154345700Y-76036198D01*
X154533251Y-76167523D01*
X154576345Y-76187618D01*
X154628784Y-76233791D01*
X154647936Y-76300984D01*
X154627720Y-76367865D01*
X154576345Y-76412382D01*
X154533251Y-76432476D01*
X154408126Y-76520090D01*
X154345700Y-76563802D01*
X154345698Y-76563803D01*
X154345695Y-76563806D01*
X154183806Y-76725695D01*
X154183803Y-76725698D01*
X154183802Y-76725700D01*
X154176184Y-76736580D01*
X154052476Y-76913252D01*
X154052475Y-76913254D01*
X153955718Y-77120750D01*
X153955714Y-77120761D01*
X153896457Y-77341910D01*
X153896456Y-77341918D01*
X153876502Y-77569998D01*
X153876502Y-77570001D01*
X153896456Y-77798081D01*
X153896457Y-77798089D01*
X153955714Y-78019238D01*
X153955718Y-78019249D01*
X154052475Y-78226745D01*
X154052477Y-78226749D01*
X154183802Y-78414300D01*
X154345700Y-78576198D01*
X154533251Y-78707523D01*
X154576345Y-78727618D01*
X154628784Y-78773791D01*
X154647936Y-78840984D01*
X154627720Y-78907865D01*
X154576345Y-78952382D01*
X154533251Y-78972476D01*
X154420553Y-79051389D01*
X154345700Y-79103802D01*
X154345698Y-79103803D01*
X154345695Y-79103806D01*
X154183802Y-79265699D01*
X154101230Y-79383624D01*
X154046653Y-79427249D01*
X153999656Y-79436500D01*
X151080335Y-79436500D01*
X151013296Y-79416815D01*
X150992654Y-79400181D01*
X150203282Y-78610809D01*
X150198164Y-78605373D01*
X150172313Y-78576193D01*
X150159893Y-78562173D01*
X150112436Y-78529417D01*
X150106401Y-78524977D01*
X150060987Y-78489397D01*
X150052495Y-78485575D01*
X150032953Y-78474554D01*
X150025290Y-78469265D01*
X149971360Y-78448812D01*
X149964442Y-78445946D01*
X149911842Y-78422273D01*
X149902680Y-78420594D01*
X149881073Y-78414570D01*
X149872362Y-78411266D01*
X149815097Y-78404313D01*
X149807694Y-78403186D01*
X149750964Y-78392790D01*
X149750960Y-78392790D01*
X149693371Y-78396274D01*
X149685883Y-78396500D01*
X144556617Y-78396500D01*
X144549129Y-78396274D01*
X144491539Y-78392790D01*
X144491533Y-78392790D01*
X144434801Y-78403186D01*
X144427400Y-78404313D01*
X144370137Y-78411266D01*
X144370134Y-78411267D01*
X144361432Y-78414568D01*
X144339817Y-78420593D01*
X144330662Y-78422270D01*
X144330661Y-78422271D01*
X144278042Y-78445951D01*
X144271129Y-78448815D01*
X144217210Y-78469265D01*
X144209542Y-78474557D01*
X144190011Y-78485571D01*
X144181516Y-78489394D01*
X144181507Y-78489400D01*
X144136100Y-78524974D01*
X144130070Y-78529412D01*
X144082607Y-78562174D01*
X144082600Y-78562180D01*
X144044351Y-78605354D01*
X144039218Y-78610807D01*
X143787447Y-78862578D01*
X143739517Y-78889108D01*
X143740524Y-78891984D01*
X143733954Y-78894282D01*
X143733953Y-78894283D01*
X143695138Y-78907865D01*
X143561983Y-78954457D01*
X143407718Y-79051389D01*
X143278889Y-79180218D01*
X143181958Y-79334482D01*
X143121782Y-79506453D01*
X143121781Y-79506458D01*
X143101384Y-79687496D01*
X143101384Y-79687503D01*
X143121781Y-79868541D01*
X143121782Y-79868546D01*
X143162949Y-79986193D01*
X143181957Y-80040515D01*
X143278889Y-80194781D01*
X143407719Y-80323611D01*
X143561985Y-80420543D01*
X143733953Y-80480717D01*
X143733958Y-80480718D01*
X143914996Y-80501116D01*
X143915000Y-80501116D01*
X143915004Y-80501116D01*
X144096041Y-80480718D01*
X144096044Y-80480717D01*
X144096047Y-80480717D01*
X144268015Y-80420543D01*
X144422281Y-80323611D01*
X144551111Y-80194781D01*
X144648043Y-80040515D01*
X144708217Y-79868547D01*
X144708217Y-79868546D01*
X144710517Y-79861974D01*
X144713547Y-79863034D01*
X144739922Y-79815049D01*
X144775157Y-79779816D01*
X144836481Y-79746333D01*
X144862836Y-79743500D01*
X149379665Y-79743500D01*
X149446704Y-79763185D01*
X149467346Y-79779819D01*
X150256716Y-80569189D01*
X150261836Y-80574627D01*
X150300106Y-80617825D01*
X150337789Y-80643836D01*
X150347573Y-80650589D01*
X150353606Y-80655028D01*
X150399013Y-80690602D01*
X150407497Y-80694420D01*
X150427052Y-80705449D01*
X150434710Y-80710735D01*
X150488677Y-80731201D01*
X150495526Y-80734038D01*
X150548160Y-80757727D01*
X150557314Y-80759404D01*
X150578930Y-80765431D01*
X150587637Y-80768733D01*
X150587636Y-80768733D01*
X150595949Y-80769742D01*
X150644914Y-80775687D01*
X150652290Y-80776810D01*
X150709037Y-80787210D01*
X150766629Y-80783725D01*
X150774117Y-80783500D01*
X153999656Y-80783500D01*
X154066695Y-80803185D01*
X154101230Y-80836376D01*
X154183802Y-80954300D01*
X154345700Y-81116198D01*
X154533251Y-81247523D01*
X154576345Y-81267618D01*
X154628784Y-81313791D01*
X154647936Y-81380984D01*
X154627720Y-81447865D01*
X154576345Y-81492382D01*
X154533251Y-81512476D01*
X154408126Y-81600090D01*
X154345700Y-81643802D01*
X154345698Y-81643803D01*
X154345695Y-81643806D01*
X154183806Y-81805695D01*
X154183803Y-81805698D01*
X154183802Y-81805700D01*
X154073220Y-81963625D01*
X154018646Y-82007249D01*
X153971648Y-82016500D01*
X149913629Y-82016500D01*
X149897886Y-82014761D01*
X149897861Y-82015033D01*
X149890093Y-82014298D01*
X149822001Y-82016439D01*
X149818106Y-82016500D01*
X149790143Y-82016500D01*
X149786031Y-82017019D01*
X149774402Y-82017934D01*
X149730111Y-82019326D01*
X149730108Y-82019327D01*
X149710505Y-82025022D01*
X149691459Y-82028966D01*
X149671203Y-82031526D01*
X149671201Y-82031526D01*
X149630007Y-82047835D01*
X149618964Y-82051616D01*
X149576404Y-82063982D01*
X149576403Y-82063983D01*
X149558824Y-82074378D01*
X149541364Y-82082932D01*
X149522384Y-82090447D01*
X149522382Y-82090448D01*
X149486545Y-82116485D01*
X149476785Y-82122896D01*
X149438638Y-82145456D01*
X149424196Y-82159898D01*
X149409408Y-82172527D01*
X149392897Y-82184523D01*
X149392892Y-82184528D01*
X149364652Y-82218663D01*
X149356792Y-82227301D01*
X143687942Y-87896151D01*
X143626619Y-87929636D01*
X143614146Y-87931690D01*
X143568955Y-87936782D01*
X143396982Y-87996958D01*
X143242718Y-88093889D01*
X143113889Y-88222718D01*
X143016958Y-88376982D01*
X142956782Y-88548953D01*
X142956781Y-88548958D01*
X142936384Y-88729996D01*
X142936384Y-88730003D01*
X134180500Y-88730003D01*
X134180500Y-74160001D01*
X138081865Y-74160001D01*
X138100370Y-74371521D01*
X138100371Y-74371528D01*
X138155326Y-74576622D01*
X138155330Y-74576633D01*
X138245062Y-74769064D01*
X138245066Y-74769072D01*
X138342392Y-74908066D01*
X138366854Y-74943002D01*
X138516998Y-75093146D01*
X138603965Y-75154041D01*
X138690927Y-75214933D01*
X138690929Y-75214934D01*
X138690932Y-75214936D01*
X138783475Y-75258089D01*
X138883366Y-75304669D01*
X138883368Y-75304669D01*
X138883373Y-75304672D01*
X139088473Y-75359629D01*
X139239563Y-75372847D01*
X139299998Y-75378135D01*
X139300000Y-75378135D01*
X139300002Y-75378135D01*
X139352881Y-75373508D01*
X139511527Y-75359629D01*
X139716627Y-75304672D01*
X139909068Y-75214936D01*
X140083002Y-75093146D01*
X140233146Y-74943002D01*
X140354936Y-74769068D01*
X140444672Y-74576627D01*
X140499629Y-74371527D01*
X140518135Y-74160000D01*
X140499629Y-73948473D01*
X140444672Y-73743373D01*
X140354936Y-73550933D01*
X140234825Y-73379396D01*
X140233147Y-73376999D01*
X140233143Y-73376995D01*
X140083002Y-73226854D01*
X140082998Y-73226851D01*
X140082997Y-73226850D01*
X139909072Y-73105066D01*
X139909064Y-73105062D01*
X139716633Y-73015330D01*
X139716619Y-73015325D01*
X139695904Y-73009775D01*
X139636243Y-72973410D01*
X139605714Y-72910563D01*
X139614009Y-72841188D01*
X139658494Y-72787310D01*
X139695904Y-72770225D01*
X139716612Y-72764676D01*
X139716627Y-72764672D01*
X139909068Y-72674936D01*
X140083002Y-72553146D01*
X140233146Y-72403002D01*
X140354936Y-72229068D01*
X140444672Y-72036627D01*
X140499629Y-71831527D01*
X140518135Y-71620001D01*
X144601865Y-71620001D01*
X144620370Y-71831521D01*
X144620371Y-71831528D01*
X144675326Y-72036622D01*
X144675330Y-72036633D01*
X144765062Y-72229064D01*
X144765066Y-72229072D01*
X144800836Y-72280156D01*
X144886854Y-72403002D01*
X145036998Y-72553146D01*
X145123965Y-72614041D01*
X145210927Y-72674933D01*
X145210929Y-72674934D01*
X145210932Y-72674936D01*
X145264348Y-72699844D01*
X145403366Y-72764669D01*
X145403368Y-72764670D01*
X145403373Y-72764672D01*
X145403376Y-72764672D01*
X145403382Y-72764675D01*
X145440212Y-72774543D01*
X145499873Y-72810907D01*
X145530403Y-72873753D01*
X145522109Y-72943129D01*
X145477624Y-72997008D01*
X145452915Y-73009944D01*
X145280592Y-73076703D01*
X145280580Y-73076708D01*
X145163040Y-73149486D01*
X145163039Y-73149487D01*
X145731768Y-73718215D01*
X145685862Y-73725135D01*
X145563643Y-73783993D01*
X145464202Y-73876260D01*
X145396375Y-73993740D01*
X145378500Y-74072052D01*
X144807569Y-73501121D01*
X144791100Y-73522931D01*
X144691558Y-73722835D01*
X144630442Y-73937633D01*
X144609838Y-74159999D01*
X144609838Y-74160000D01*
X144630442Y-74382366D01*
X144691558Y-74597164D01*
X144791102Y-74797071D01*
X144807568Y-74818877D01*
X145375550Y-74250896D01*
X145376327Y-74261265D01*
X145425887Y-74387541D01*
X145510465Y-74493599D01*
X145622547Y-74570016D01*
X145730299Y-74603253D01*
X145163039Y-75170511D01*
X145280583Y-75243292D01*
X145280584Y-75243293D01*
X145488820Y-75323963D01*
X145708342Y-75365000D01*
X145931658Y-75365000D01*
X146151179Y-75323963D01*
X146359415Y-75243293D01*
X146359419Y-75243291D01*
X146476958Y-75170512D01*
X146476958Y-75170511D01*
X145908232Y-74601784D01*
X145954138Y-74594865D01*
X146076357Y-74536007D01*
X146175798Y-74443740D01*
X146243625Y-74326260D01*
X146261499Y-74247946D01*
X146832430Y-74818877D01*
X146848898Y-74797070D01*
X146848903Y-74797062D01*
X146948440Y-74597164D01*
X147009557Y-74382366D01*
X147030162Y-74160000D01*
X147030162Y-74159999D01*
X147009557Y-73937633D01*
X146948441Y-73722835D01*
X146848903Y-73522938D01*
X146848898Y-73522931D01*
X146832429Y-73501121D01*
X146264449Y-74069101D01*
X146263673Y-74058735D01*
X146214113Y-73932459D01*
X146129535Y-73826401D01*
X146017453Y-73749984D01*
X145909700Y-73716747D01*
X146476959Y-73149487D01*
X146359416Y-73076707D01*
X146359406Y-73076702D01*
X146187085Y-73009944D01*
X146131683Y-72967372D01*
X146108093Y-72901605D01*
X146123804Y-72833524D01*
X146173828Y-72784746D01*
X146199788Y-72774543D01*
X146236614Y-72764676D01*
X146236619Y-72764674D01*
X146236627Y-72764672D01*
X146429068Y-72674936D01*
X146603002Y-72553146D01*
X146753146Y-72403002D01*
X146874936Y-72229068D01*
X146964672Y-72036627D01*
X147019629Y-71831527D01*
X147038135Y-71620000D01*
X147019629Y-71408473D01*
X146964672Y-71203373D01*
X146874936Y-71010933D01*
X146753146Y-70836998D01*
X146603002Y-70686854D01*
X146602998Y-70686851D01*
X146602997Y-70686850D01*
X146429072Y-70565066D01*
X146429064Y-70565062D01*
X146236633Y-70475330D01*
X146236622Y-70475326D01*
X146031528Y-70420371D01*
X146031521Y-70420370D01*
X145820002Y-70401865D01*
X145819998Y-70401865D01*
X145608478Y-70420370D01*
X145608471Y-70420371D01*
X145403369Y-70475329D01*
X145210934Y-70565063D01*
X145210932Y-70565064D01*
X145036995Y-70686855D01*
X144886855Y-70836995D01*
X144765064Y-71010932D01*
X144765063Y-71010934D01*
X144675329Y-71203369D01*
X144620371Y-71408471D01*
X144620370Y-71408478D01*
X144601865Y-71619998D01*
X144601865Y-71620001D01*
X140518135Y-71620001D01*
X140518135Y-71620000D01*
X140499629Y-71408473D01*
X140444672Y-71203373D01*
X140354936Y-71010933D01*
X140233146Y-70836998D01*
X140083002Y-70686854D01*
X140082998Y-70686851D01*
X140082997Y-70686850D01*
X139909072Y-70565066D01*
X139909064Y-70565062D01*
X139716633Y-70475330D01*
X139716622Y-70475326D01*
X139511528Y-70420371D01*
X139511521Y-70420370D01*
X139300002Y-70401865D01*
X139299998Y-70401865D01*
X139088478Y-70420370D01*
X139088471Y-70420371D01*
X138883369Y-70475329D01*
X138690934Y-70565063D01*
X138690932Y-70565064D01*
X138516995Y-70686855D01*
X138366855Y-70836995D01*
X138245064Y-71010932D01*
X138245063Y-71010934D01*
X138155329Y-71203369D01*
X138100371Y-71408471D01*
X138100370Y-71408478D01*
X138081865Y-71619998D01*
X138081865Y-71620001D01*
X138100370Y-71831521D01*
X138100371Y-71831528D01*
X138155326Y-72036622D01*
X138155330Y-72036633D01*
X138245062Y-72229064D01*
X138245066Y-72229072D01*
X138280836Y-72280156D01*
X138366854Y-72403002D01*
X138516998Y-72553146D01*
X138603965Y-72614041D01*
X138690927Y-72674933D01*
X138690929Y-72674934D01*
X138690932Y-72674936D01*
X138744348Y-72699844D01*
X138883366Y-72764669D01*
X138883368Y-72764670D01*
X138883373Y-72764672D01*
X138883376Y-72764672D01*
X138883382Y-72764675D01*
X138904096Y-72770225D01*
X138963757Y-72806589D01*
X138994287Y-72869436D01*
X138985993Y-72938811D01*
X138941508Y-72992690D01*
X138904100Y-73009774D01*
X138883372Y-73015328D01*
X138690934Y-73105063D01*
X138690932Y-73105064D01*
X138516995Y-73226855D01*
X138366855Y-73376995D01*
X138245064Y-73550932D01*
X138245063Y-73550934D01*
X138155329Y-73743369D01*
X138100371Y-73948471D01*
X138100370Y-73948478D01*
X138081865Y-74159998D01*
X138081865Y-74160001D01*
X134180500Y-74160001D01*
X134180500Y-70196474D01*
X134200185Y-70129435D01*
X134252989Y-70083680D01*
X134322147Y-70073736D01*
X134385703Y-70102761D01*
X134407602Y-70127583D01*
X134471123Y-70222649D01*
X134500405Y-70256040D01*
X135213664Y-69542780D01*
X135352855Y-69717320D01*
X135522299Y-69865358D01*
X135569808Y-69893743D01*
X134853958Y-70609593D01*
X134887350Y-70638876D01*
X135132580Y-70802734D01*
X135132593Y-70802741D01*
X135397111Y-70933187D01*
X135676400Y-71027994D01*
X135676415Y-71027998D01*
X135965675Y-71085535D01*
X135965687Y-71085537D01*
X136260000Y-71104827D01*
X136554312Y-71085537D01*
X136554324Y-71085535D01*
X136843584Y-71027998D01*
X136843599Y-71027994D01*
X137122888Y-70933187D01*
X137387406Y-70802741D01*
X137387419Y-70802734D01*
X137632648Y-70638877D01*
X137666039Y-70609593D01*
X136950125Y-69893678D01*
X137085747Y-69795144D01*
X137241239Y-69632512D01*
X137302801Y-69539248D01*
X138019593Y-70256039D01*
X138048877Y-70222648D01*
X138212734Y-69977419D01*
X138212741Y-69977406D01*
X138343187Y-69712888D01*
X138437994Y-69433599D01*
X138437998Y-69433584D01*
X138495535Y-69144324D01*
X138495537Y-69144312D01*
X138514827Y-68850000D01*
X138495537Y-68555687D01*
X138495535Y-68555675D01*
X138437998Y-68266415D01*
X138437994Y-68266400D01*
X138364535Y-68050000D01*
X140305172Y-68050000D01*
X140324462Y-68344312D01*
X140324464Y-68344324D01*
X140382001Y-68633584D01*
X140382005Y-68633599D01*
X140476812Y-68912888D01*
X140607258Y-69177406D01*
X140607265Y-69177419D01*
X140771123Y-69422649D01*
X140800405Y-69456040D01*
X141513664Y-68742780D01*
X141652855Y-68917320D01*
X141822299Y-69065358D01*
X141869808Y-69093743D01*
X141153958Y-69809593D01*
X141187350Y-69838876D01*
X141432580Y-70002734D01*
X141432593Y-70002741D01*
X141697111Y-70133187D01*
X141976400Y-70227994D01*
X141976415Y-70227998D01*
X142265675Y-70285535D01*
X142265687Y-70285537D01*
X142560000Y-70304827D01*
X142854312Y-70285537D01*
X142854324Y-70285535D01*
X143143584Y-70227998D01*
X143143599Y-70227994D01*
X143422888Y-70133187D01*
X143687406Y-70002741D01*
X143687419Y-70002734D01*
X143932648Y-69838877D01*
X143966039Y-69809593D01*
X143250125Y-69093678D01*
X143385747Y-68995144D01*
X143541239Y-68832512D01*
X143602801Y-68739248D01*
X144319593Y-69456039D01*
X144348877Y-69422648D01*
X144512734Y-69177419D01*
X144512741Y-69177406D01*
X144643187Y-68912888D01*
X144664535Y-68850000D01*
X146605172Y-68850000D01*
X146624462Y-69144312D01*
X146624464Y-69144324D01*
X146682001Y-69433584D01*
X146682005Y-69433599D01*
X146776812Y-69712888D01*
X146907258Y-69977406D01*
X146907265Y-69977419D01*
X147071123Y-70222649D01*
X147100405Y-70256040D01*
X147813664Y-69542780D01*
X147952855Y-69717320D01*
X148122299Y-69865358D01*
X148169808Y-69893743D01*
X147453958Y-70609593D01*
X147487350Y-70638876D01*
X147732580Y-70802734D01*
X147732593Y-70802741D01*
X147997111Y-70933187D01*
X148276400Y-71027994D01*
X148276415Y-71027998D01*
X148565675Y-71085535D01*
X148565687Y-71085537D01*
X148860000Y-71104827D01*
X149154312Y-71085537D01*
X149154324Y-71085535D01*
X149443584Y-71027998D01*
X149443599Y-71027994D01*
X149722888Y-70933187D01*
X149987406Y-70802741D01*
X149987419Y-70802734D01*
X150232648Y-70638877D01*
X150266039Y-70609593D01*
X149550125Y-69893678D01*
X149685747Y-69795144D01*
X149841239Y-69632512D01*
X149902801Y-69539248D01*
X150619593Y-70256039D01*
X150648877Y-70222648D01*
X150812734Y-69977419D01*
X150812741Y-69977406D01*
X150943187Y-69712888D01*
X151037994Y-69433599D01*
X151037998Y-69433584D01*
X151095535Y-69144324D01*
X151095537Y-69144312D01*
X151114827Y-68850000D01*
X151095537Y-68555687D01*
X151095535Y-68555675D01*
X151037998Y-68266415D01*
X151037994Y-68266400D01*
X150943187Y-67987111D01*
X150812741Y-67722593D01*
X150812734Y-67722580D01*
X150648876Y-67477350D01*
X150619593Y-67443958D01*
X149906333Y-68157217D01*
X149767145Y-67982680D01*
X149597701Y-67834642D01*
X149550190Y-67806255D01*
X150266040Y-67090405D01*
X150232649Y-67061123D01*
X149987419Y-66897265D01*
X149987406Y-66897258D01*
X149722888Y-66766812D01*
X149443599Y-66672005D01*
X149443584Y-66672001D01*
X149154324Y-66614464D01*
X149154312Y-66614462D01*
X148860000Y-66595172D01*
X148565687Y-66614462D01*
X148565675Y-66614464D01*
X148276415Y-66672001D01*
X148276400Y-66672005D01*
X147997111Y-66766812D01*
X147732593Y-66897258D01*
X147732580Y-66897265D01*
X147487346Y-67061126D01*
X147487339Y-67061131D01*
X147453959Y-67090403D01*
X147453959Y-67090405D01*
X148169874Y-67806320D01*
X148034253Y-67904856D01*
X147878761Y-68067488D01*
X147817197Y-68160751D01*
X147100405Y-67443959D01*
X147100403Y-67443959D01*
X147071131Y-67477339D01*
X147071126Y-67477346D01*
X146907265Y-67722580D01*
X146907258Y-67722593D01*
X146776812Y-67987111D01*
X146682005Y-68266400D01*
X146682001Y-68266415D01*
X146624464Y-68555675D01*
X146624462Y-68555687D01*
X146605172Y-68850000D01*
X144664535Y-68850000D01*
X144737994Y-68633599D01*
X144737998Y-68633584D01*
X144795535Y-68344324D01*
X144795537Y-68344312D01*
X144814827Y-68050000D01*
X144795537Y-67755687D01*
X144795535Y-67755675D01*
X144737998Y-67466415D01*
X144737994Y-67466400D01*
X144643187Y-67187111D01*
X144512741Y-66922593D01*
X144512734Y-66922580D01*
X144348876Y-66677350D01*
X144319593Y-66643958D01*
X143606333Y-67357217D01*
X143467145Y-67182680D01*
X143297701Y-67034642D01*
X143250190Y-67006255D01*
X143966040Y-66290405D01*
X143932649Y-66261123D01*
X143687419Y-66097265D01*
X143687406Y-66097258D01*
X143422888Y-65966812D01*
X143143599Y-65872005D01*
X143143584Y-65872001D01*
X142854324Y-65814464D01*
X142854312Y-65814462D01*
X142560000Y-65795172D01*
X142265687Y-65814462D01*
X142265675Y-65814464D01*
X141976415Y-65872001D01*
X141976400Y-65872005D01*
X141697111Y-65966812D01*
X141432593Y-66097258D01*
X141432580Y-66097265D01*
X141187346Y-66261126D01*
X141187339Y-66261131D01*
X141153959Y-66290403D01*
X141153959Y-66290405D01*
X141869874Y-67006320D01*
X141734253Y-67104856D01*
X141578761Y-67267488D01*
X141517198Y-67360751D01*
X140800405Y-66643959D01*
X140800403Y-66643959D01*
X140771131Y-66677339D01*
X140771126Y-66677346D01*
X140607265Y-66922580D01*
X140607258Y-66922593D01*
X140476812Y-67187111D01*
X140382005Y-67466400D01*
X140382001Y-67466415D01*
X140324464Y-67755675D01*
X140324462Y-67755687D01*
X140305172Y-68050000D01*
X138364535Y-68050000D01*
X138343187Y-67987111D01*
X138212741Y-67722593D01*
X138212734Y-67722580D01*
X138048876Y-67477350D01*
X138019593Y-67443958D01*
X137306333Y-68157217D01*
X137167145Y-67982680D01*
X136997701Y-67834642D01*
X136950190Y-67806255D01*
X137666040Y-67090405D01*
X137632649Y-67061123D01*
X137387419Y-66897265D01*
X137387406Y-66897258D01*
X137122888Y-66766812D01*
X136843599Y-66672005D01*
X136843584Y-66672001D01*
X136554324Y-66614464D01*
X136554312Y-66614462D01*
X136260000Y-66595172D01*
X135965687Y-66614462D01*
X135965675Y-66614464D01*
X135676415Y-66672001D01*
X135676400Y-66672005D01*
X135397111Y-66766812D01*
X135132593Y-66897258D01*
X135132580Y-66897265D01*
X134887346Y-67061126D01*
X134887339Y-67061131D01*
X134853959Y-67090403D01*
X134853959Y-67090405D01*
X135569874Y-67806320D01*
X135434253Y-67904856D01*
X135278761Y-68067488D01*
X135217197Y-68160751D01*
X134500405Y-67443959D01*
X134500403Y-67443959D01*
X134471131Y-67477339D01*
X134471126Y-67477346D01*
X134407602Y-67572417D01*
X134353990Y-67617222D01*
X134284665Y-67625929D01*
X134221637Y-67595774D01*
X134184918Y-67536331D01*
X134180500Y-67503526D01*
X134180500Y-63874500D01*
X134200185Y-63807461D01*
X134252989Y-63761706D01*
X134304500Y-63750500D01*
X199005500Y-63750500D01*
X199072539Y-63770185D01*
G37*
%TD.AperFunction*%
%TD*%
M02*
