%TF.GenerationSoftware,KiCad,Pcbnew,7.0.10-7.0.10~ubuntu22.04.1*%
%TF.CreationDate,2024-01-12T08:07:30-07:00*%
%TF.ProjectId,HIDHopper_ADB,48494448-6f70-4706-9572-5f4144422e6b,rev?*%
%TF.SameCoordinates,Original*%
%TF.FileFunction,Paste,Top*%
%TF.FilePolarity,Positive*%
%FSLAX46Y46*%
G04 Gerber Fmt 4.6, Leading zero omitted, Abs format (unit mm)*
G04 Created by KiCad (PCBNEW 7.0.10-7.0.10~ubuntu22.04.1) date 2024-01-12 08:07:30*
%MOMM*%
%LPD*%
G01*
G04 APERTURE LIST*
G04 Aperture macros list*
%AMRoundRect*
0 Rectangle with rounded corners*
0 $1 Rounding radius*
0 $2 $3 $4 $5 $6 $7 $8 $9 X,Y pos of 4 corners*
0 Add a 4 corners polygon primitive as box body*
4,1,4,$2,$3,$4,$5,$6,$7,$8,$9,$2,$3,0*
0 Add four circle primitives for the rounded corners*
1,1,$1+$1,$2,$3*
1,1,$1+$1,$4,$5*
1,1,$1+$1,$6,$7*
1,1,$1+$1,$8,$9*
0 Add four rect primitives between the rounded corners*
20,1,$1+$1,$2,$3,$4,$5,0*
20,1,$1+$1,$4,$5,$6,$7,0*
20,1,$1+$1,$6,$7,$8,$9,0*
20,1,$1+$1,$8,$9,$2,$3,0*%
G04 Aperture macros list end*
%ADD10RoundRect,0.218750X-0.256250X0.218750X-0.256250X-0.218750X0.256250X-0.218750X0.256250X0.218750X0*%
%ADD11RoundRect,0.250000X1.000000X0.650000X-1.000000X0.650000X-1.000000X-0.650000X1.000000X-0.650000X0*%
%ADD12RoundRect,0.150000X-0.150000X0.587500X-0.150000X-0.587500X0.150000X-0.587500X0.150000X0.587500X0*%
%ADD13RoundRect,0.200000X-0.200000X-0.275000X0.200000X-0.275000X0.200000X0.275000X-0.200000X0.275000X0*%
%ADD14RoundRect,0.250000X0.650000X-0.325000X0.650000X0.325000X-0.650000X0.325000X-0.650000X-0.325000X0*%
%ADD15RoundRect,0.243750X0.243750X0.456250X-0.243750X0.456250X-0.243750X-0.456250X0.243750X-0.456250X0*%
%ADD16RoundRect,0.200000X0.275000X-0.200000X0.275000X0.200000X-0.275000X0.200000X-0.275000X-0.200000X0*%
%ADD17RoundRect,0.150000X0.587500X0.150000X-0.587500X0.150000X-0.587500X-0.150000X0.587500X-0.150000X0*%
%ADD18RoundRect,0.200000X-0.275000X0.200000X-0.275000X-0.200000X0.275000X-0.200000X0.275000X0.200000X0*%
%ADD19RoundRect,0.200000X0.200000X0.275000X-0.200000X0.275000X-0.200000X-0.275000X0.200000X-0.275000X0*%
%ADD20RoundRect,0.250000X0.250000X0.475000X-0.250000X0.475000X-0.250000X-0.475000X0.250000X-0.475000X0*%
%ADD21RoundRect,0.187500X0.312500X0.187500X-0.312500X0.187500X-0.312500X-0.187500X0.312500X-0.187500X0*%
%ADD22RoundRect,0.100000X-0.100000X0.637500X-0.100000X-0.637500X0.100000X-0.637500X0.100000X0.637500X0*%
%ADD23RoundRect,0.250000X-0.250000X-0.475000X0.250000X-0.475000X0.250000X0.475000X-0.250000X0.475000X0*%
%ADD24RoundRect,0.150000X-0.150000X0.512500X-0.150000X-0.512500X0.150000X-0.512500X0.150000X0.512500X0*%
G04 APERTURE END LIST*
D10*
%TO.C,F2*%
X151070000Y-96172500D03*
X151070000Y-97747500D03*
%TD*%
D11*
%TO.C,D2*%
X150290000Y-100920000D03*
X146290000Y-100920000D03*
%TD*%
D12*
%TO.C,Q1*%
X142320000Y-90865000D03*
X140420000Y-90865000D03*
X141370000Y-92740000D03*
%TD*%
D13*
%TO.C,R3*%
X142235000Y-87360000D03*
X143885000Y-87360000D03*
%TD*%
D14*
%TO.C,C1*%
X177070000Y-101400000D03*
X177070000Y-98450000D03*
%TD*%
D15*
%TO.C,D1*%
X187397500Y-65290000D03*
X185522500Y-65290000D03*
%TD*%
D16*
%TO.C,R7*%
X138590000Y-91555000D03*
X138590000Y-89905000D03*
%TD*%
D17*
%TO.C,Q2*%
X140505000Y-88340000D03*
X140505000Y-86440000D03*
X138630000Y-87390000D03*
%TD*%
D18*
%TO.C,R4*%
X146500000Y-80682500D03*
X146500000Y-82332500D03*
%TD*%
D13*
%TO.C,R6*%
X182175000Y-69030000D03*
X183825000Y-69030000D03*
%TD*%
D19*
%TO.C,R1*%
X142010000Y-96190000D03*
X140360000Y-96190000D03*
%TD*%
D20*
%TO.C,C2*%
X181210000Y-100060000D03*
X179310000Y-100060000D03*
%TD*%
D21*
%TO.C,SW1*%
X143530000Y-101515000D03*
X137530000Y-101515000D03*
X143530000Y-97765000D03*
X137530000Y-97765000D03*
%TD*%
D13*
%TO.C,R2*%
X140360000Y-94550000D03*
X142010000Y-94550000D03*
%TD*%
%TO.C,R5*%
X182165000Y-65220000D03*
X183815000Y-65220000D03*
%TD*%
D22*
%TO.C,U1*%
X144850000Y-78340000D03*
X144200000Y-78340000D03*
X143550000Y-78340000D03*
X142900000Y-78340000D03*
X142250000Y-78340000D03*
X141600000Y-78340000D03*
X140950000Y-78340000D03*
X140950000Y-84065000D03*
X141600000Y-84065000D03*
X142250000Y-84065000D03*
X142900000Y-84065000D03*
X143550000Y-84065000D03*
X144200000Y-84065000D03*
X144850000Y-84065000D03*
%TD*%
D23*
%TO.C,C7*%
X146550000Y-84102500D03*
X148450000Y-84102500D03*
%TD*%
D15*
%TO.C,D3*%
X187397500Y-69040000D03*
X185522500Y-69040000D03*
%TD*%
D24*
%TO.C,U2*%
X185600000Y-98922500D03*
X184650000Y-98922500D03*
X183700000Y-98922500D03*
X183700000Y-101197500D03*
X184650000Y-101197500D03*
X185600000Y-101197500D03*
%TD*%
M02*
