M48
; DRILL file {KiCad 7.0.10-7.0.10~ubuntu22.04.1} date Fri 12 Jan 2024 08:07:31 AM MST
; FORMAT={-:-/ absolute / inch / decimal}
; #@! TF.CreationDate,2024-01-12T08:07:31-07:00
; #@! TF.GenerationSoftware,Kicad,Pcbnew,7.0.10-7.0.10~ubuntu22.04.1
; #@! TF.FileFunction,Plated,1,2,PTH
FMAT,2
INCH
; #@! TA.AperFunction,Plated,PTH,ViaDrill
T1C0.0157
; #@! TA.AperFunction,Plated,PTH,ComponentDrill
T2C0.0315
; #@! TA.AperFunction,Plated,PTH,ComponentDrill
T3C0.0354
; #@! TA.AperFunction,Plated,PTH,ComponentDrill
T4C0.0374
; #@! TA.AperFunction,Plated,PTH,ComponentDrill
T5C0.0394
; #@! TA.AperFunction,Plated,PTH,ComponentDrill
T6C0.0906
; #@! TA.AperFunction,Plated,PTH,ComponentDrill
T7C0.0984
%
G90
G05
T1
X5.472Y-3.6693
X5.4957Y-3.3102
X5.5311Y-3.4386
X5.5512Y-3.1705
X5.5591Y-3.8512
X5.6508Y-3.2311
X5.6594Y-3.4933
X5.6659Y-3.1373
X5.6894Y-4.1358
X5.7028Y-3.1493
X5.8437Y-3.2449
X5.8445Y-3.3748
X6.2264Y-4.0602
X6.2276Y-3.9567
X6.285Y-4.5843
X6.6346Y-4.5768
X6.7413Y-4.1028
X6.9724Y-3.774
X7.0457Y-3.8681
X7.1169Y-2.7173
X7.2697Y-3.8417
X7.5858Y-2.5717
T2
X6.4209Y-4.5563
X6.4996Y-4.5563
T3
X5.4843Y-2.8197
X5.4843Y-2.9197
X5.4843Y-4.2024
X5.4843Y-4.3024
X5.7409Y-2.8197
X5.7409Y-2.9197
X5.7409Y-4.2024
X5.7409Y-4.3024
T4
X7.1335Y-4.1378
X7.2319Y-4.1378
X7.3106Y-4.1378
X7.4091Y-4.1378
T5
X6.1098Y-2.6539
X6.1098Y-2.7539
X6.1098Y-2.8539
X6.1098Y-2.9539
X6.1098Y-3.0539
X6.1098Y-3.1539
X6.1098Y-3.2539
X6.1098Y-3.3539
X6.1098Y-3.4539
X6.1098Y-3.5539
X6.1098Y-3.6539
X6.1098Y-3.7539
X6.1098Y-3.8539
X6.1098Y-3.9539
X6.1098Y-4.0539
X6.1098Y-4.1539
X6.1098Y-4.2539
X6.1098Y-4.3539
X6.1098Y-4.4539
X6.1098Y-4.5539
X6.2368Y-3.3795
X6.3368Y-3.3795
X6.4368Y-3.3795
X6.8098Y-2.6539
X6.8098Y-2.7539
X6.8098Y-2.8539
X6.8098Y-2.9539
X6.8098Y-3.0539
X6.8098Y-3.1539
X6.8098Y-3.2539
X6.8098Y-3.3539
X6.8098Y-3.4539
X6.8098Y-3.5539
X6.8098Y-3.6539
X6.8098Y-3.7539
X6.8098Y-3.8539
X6.8098Y-3.9539
X6.8098Y-4.0539
X6.8098Y-4.1539
X6.8098Y-4.2539
X6.8098Y-4.3539
X6.8098Y-4.4539
X6.8098Y-4.5539
X7.1114Y-3.7776
X7.2114Y-3.7776
X7.3114Y-3.7776
X7.4114Y-3.7776
T6
X7.0126Y-4.2445
X7.5299Y-4.2445
T7
X5.3646Y-2.7106
X5.3646Y-4.4114
X5.6126Y-2.6791
X5.6126Y-4.4429
X5.8606Y-2.7106
X5.8606Y-4.4114
M30
