M48
; DRILL file {KiCad 7.0.10-7.0.10~ubuntu22.04.1} date Sat 13 Jan 2024 04:47:41 AM MST
; FORMAT={-:-/ absolute / inch / decimal}
; #@! TF.CreationDate,2024-01-13T04:47:41-07:00
; #@! TF.GenerationSoftware,Kicad,Pcbnew,7.0.10-7.0.10~ubuntu22.04.1
; #@! TF.FileFunction,Plated,1,2,PTH
FMAT,2
INCH
; #@! TA.AperFunction,Plated,PTH,ViaDrill
T1C0.0157
; #@! TA.AperFunction,Plated,PTH,ComponentDrill
T2C0.0236
; #@! TA.AperFunction,Plated,PTH,ComponentDrill
T3C0.0362
; #@! TA.AperFunction,Plated,PTH,ComponentDrill
T4C0.0394
; #@! TA.AperFunction,Plated,PTH,ComponentDrill
T5C0.0906
%
G90
G05
T1
X5.9146Y-3.8626
X5.9654Y-3.4854
X5.9669Y-3.3996
X6.011Y-3.6524
X6.024Y-3.9075
X6.0835Y-3.7165
X6.1213Y-3.4449
X6.152Y-3.4453
X6.1555Y-3.5008
X6.1579Y-3.6827
X6.1744Y-3.5941
X6.2429Y-3.7492
X6.2909Y-3.4783
X6.2972Y-3.2843
X6.3122Y-3.6819
X6.3193Y-3.7567
X6.3591Y-3.2618
X6.3724Y-2.6807
X6.4075Y-3.7587
X6.4325Y-3.476
X6.5067Y-3.3894
X6.5126Y-3.2634
X6.5573Y-3.4803
X6.565Y-3.6831
X6.5654Y-3.2394
X6.578Y-3.5531
X6.5858Y-3.8524
X6.6002Y-3.7425
X6.6291Y-3.5996
X6.6299Y-3.715
X6.6469Y-3.7594
X6.7614Y-3.8488
X6.8358Y-3.3516
X6.8362Y-3.9114
X6.8484Y-3.498
X6.8803Y-3.9224
X7.5303Y-2.972
T3
X5.8596Y-3.0126
X5.8596Y-3.1157
X5.958Y-3.0126
X5.958Y-3.1157
X6.0368Y-3.0126
X6.0368Y-3.1157
X6.1352Y-3.0126
X6.1352Y-3.1157
X6.5957Y-3.0126
X6.5957Y-3.1157
X6.6941Y-3.0126
X6.6941Y-3.1157
X6.7728Y-3.0126
X6.7728Y-3.1157
X6.8713Y-3.0126
X6.8713Y-3.1157
T4
X6.8524Y-3.7965
X6.9524Y-3.7965
X7.0524Y-3.7965
X7.1524Y-3.7965
T5
X5.7387Y-2.9059
X5.7387Y-3.1295
X6.2561Y-2.9059
X6.2561Y-3.1295
X6.4748Y-2.9059
X6.4748Y-3.1295
X6.9921Y-2.9059
X6.9921Y-3.1295
T2
G00X7.2012Y-2.6106
M15
G01X7.2012Y-2.587
M16
G05
G00X7.2012Y-2.785
M15
G01X7.2012Y-2.7417
M16
G05
G00X7.5413Y-2.6106
M15
G01X7.5413Y-2.587
M16
G05
G00X7.5413Y-2.785
M15
G01X7.5413Y-2.7417
M16
G05
M30
