%TF.GenerationSoftware,KiCad,Pcbnew,7.0.10-7.0.10~ubuntu22.04.1*%
%TF.CreationDate,2024-01-13T04:47:40-07:00*%
%TF.ProjectId,HIDHopper_Hub_Hat,48494448-6f70-4706-9572-5f4875625f48,rev?*%
%TF.SameCoordinates,Original*%
%TF.FileFunction,Legend,Bot*%
%TF.FilePolarity,Positive*%
%FSLAX46Y46*%
G04 Gerber Fmt 4.6, Leading zero omitted, Abs format (unit mm)*
G04 Created by KiCad (PCBNEW 7.0.10-7.0.10~ubuntu22.04.1) date 2024-01-13 04:47:40*
%MOMM*%
%LPD*%
G01*
G04 APERTURE LIST*
%ADD10C,0.150000*%
G04 APERTURE END LIST*
D10*
X190063220Y-90409819D02*
X190063220Y-89409819D01*
X190063220Y-89409819D02*
X189491792Y-90409819D01*
X189491792Y-90409819D02*
X189491792Y-89409819D01*
X188825125Y-89409819D02*
X188634649Y-89409819D01*
X188634649Y-89409819D02*
X188539411Y-89457438D01*
X188539411Y-89457438D02*
X188444173Y-89552676D01*
X188444173Y-89552676D02*
X188396554Y-89743152D01*
X188396554Y-89743152D02*
X188396554Y-90076485D01*
X188396554Y-90076485D02*
X188444173Y-90266961D01*
X188444173Y-90266961D02*
X188539411Y-90362200D01*
X188539411Y-90362200D02*
X188634649Y-90409819D01*
X188634649Y-90409819D02*
X188825125Y-90409819D01*
X188825125Y-90409819D02*
X188920363Y-90362200D01*
X188920363Y-90362200D02*
X189015601Y-90266961D01*
X189015601Y-90266961D02*
X189063220Y-90076485D01*
X189063220Y-90076485D02*
X189063220Y-89743152D01*
X189063220Y-89743152D02*
X189015601Y-89552676D01*
X189015601Y-89552676D02*
X188920363Y-89457438D01*
X188920363Y-89457438D02*
X188825125Y-89409819D01*
X188110839Y-89409819D02*
X187539411Y-89409819D01*
X187825125Y-90409819D02*
X187825125Y-89409819D01*
X186110839Y-89886009D02*
X186444172Y-89886009D01*
X186444172Y-90409819D02*
X186444172Y-89409819D01*
X186444172Y-89409819D02*
X185967982Y-89409819D01*
X185396553Y-89409819D02*
X185206077Y-89409819D01*
X185206077Y-89409819D02*
X185110839Y-89457438D01*
X185110839Y-89457438D02*
X185015601Y-89552676D01*
X185015601Y-89552676D02*
X184967982Y-89743152D01*
X184967982Y-89743152D02*
X184967982Y-90076485D01*
X184967982Y-90076485D02*
X185015601Y-90266961D01*
X185015601Y-90266961D02*
X185110839Y-90362200D01*
X185110839Y-90362200D02*
X185206077Y-90409819D01*
X185206077Y-90409819D02*
X185396553Y-90409819D01*
X185396553Y-90409819D02*
X185491791Y-90362200D01*
X185491791Y-90362200D02*
X185587029Y-90266961D01*
X185587029Y-90266961D02*
X185634648Y-90076485D01*
X185634648Y-90076485D02*
X185634648Y-89743152D01*
X185634648Y-89743152D02*
X185587029Y-89552676D01*
X185587029Y-89552676D02*
X185491791Y-89457438D01*
X185491791Y-89457438D02*
X185396553Y-89409819D01*
X183967982Y-90409819D02*
X184301315Y-89933628D01*
X184539410Y-90409819D02*
X184539410Y-89409819D01*
X184539410Y-89409819D02*
X184158458Y-89409819D01*
X184158458Y-89409819D02*
X184063220Y-89457438D01*
X184063220Y-89457438D02*
X184015601Y-89505057D01*
X184015601Y-89505057D02*
X183967982Y-89600295D01*
X183967982Y-89600295D02*
X183967982Y-89743152D01*
X183967982Y-89743152D02*
X184015601Y-89838390D01*
X184015601Y-89838390D02*
X184063220Y-89886009D01*
X184063220Y-89886009D02*
X184158458Y-89933628D01*
X184158458Y-89933628D02*
X184539410Y-89933628D01*
X189491792Y-91924580D02*
X189539411Y-91972200D01*
X189539411Y-91972200D02*
X189682268Y-92019819D01*
X189682268Y-92019819D02*
X189777506Y-92019819D01*
X189777506Y-92019819D02*
X189920363Y-91972200D01*
X189920363Y-91972200D02*
X190015601Y-91876961D01*
X190015601Y-91876961D02*
X190063220Y-91781723D01*
X190063220Y-91781723D02*
X190110839Y-91591247D01*
X190110839Y-91591247D02*
X190110839Y-91448390D01*
X190110839Y-91448390D02*
X190063220Y-91257914D01*
X190063220Y-91257914D02*
X190015601Y-91162676D01*
X190015601Y-91162676D02*
X189920363Y-91067438D01*
X189920363Y-91067438D02*
X189777506Y-91019819D01*
X189777506Y-91019819D02*
X189682268Y-91019819D01*
X189682268Y-91019819D02*
X189539411Y-91067438D01*
X189539411Y-91067438D02*
X189491792Y-91115057D01*
X188872744Y-91019819D02*
X188682268Y-91019819D01*
X188682268Y-91019819D02*
X188587030Y-91067438D01*
X188587030Y-91067438D02*
X188491792Y-91162676D01*
X188491792Y-91162676D02*
X188444173Y-91353152D01*
X188444173Y-91353152D02*
X188444173Y-91686485D01*
X188444173Y-91686485D02*
X188491792Y-91876961D01*
X188491792Y-91876961D02*
X188587030Y-91972200D01*
X188587030Y-91972200D02*
X188682268Y-92019819D01*
X188682268Y-92019819D02*
X188872744Y-92019819D01*
X188872744Y-92019819D02*
X188967982Y-91972200D01*
X188967982Y-91972200D02*
X189063220Y-91876961D01*
X189063220Y-91876961D02*
X189110839Y-91686485D01*
X189110839Y-91686485D02*
X189110839Y-91353152D01*
X189110839Y-91353152D02*
X189063220Y-91162676D01*
X189063220Y-91162676D02*
X188967982Y-91067438D01*
X188967982Y-91067438D02*
X188872744Y-91019819D01*
X188015601Y-92019819D02*
X188015601Y-91019819D01*
X188015601Y-91019819D02*
X187682268Y-91734104D01*
X187682268Y-91734104D02*
X187348935Y-91019819D01*
X187348935Y-91019819D02*
X187348935Y-92019819D01*
X186872744Y-92019819D02*
X186872744Y-91019819D01*
X186872744Y-91019819D02*
X186539411Y-91734104D01*
X186539411Y-91734104D02*
X186206078Y-91019819D01*
X186206078Y-91019819D02*
X186206078Y-92019819D01*
X185729887Y-91496009D02*
X185396554Y-91496009D01*
X185253697Y-92019819D02*
X185729887Y-92019819D01*
X185729887Y-92019819D02*
X185729887Y-91019819D01*
X185729887Y-91019819D02*
X185253697Y-91019819D01*
X184253697Y-92019819D02*
X184587030Y-91543628D01*
X184825125Y-92019819D02*
X184825125Y-91019819D01*
X184825125Y-91019819D02*
X184444173Y-91019819D01*
X184444173Y-91019819D02*
X184348935Y-91067438D01*
X184348935Y-91067438D02*
X184301316Y-91115057D01*
X184301316Y-91115057D02*
X184253697Y-91210295D01*
X184253697Y-91210295D02*
X184253697Y-91353152D01*
X184253697Y-91353152D02*
X184301316Y-91448390D01*
X184301316Y-91448390D02*
X184348935Y-91496009D01*
X184348935Y-91496009D02*
X184444173Y-91543628D01*
X184444173Y-91543628D02*
X184825125Y-91543628D01*
X183253697Y-91924580D02*
X183301316Y-91972200D01*
X183301316Y-91972200D02*
X183444173Y-92019819D01*
X183444173Y-92019819D02*
X183539411Y-92019819D01*
X183539411Y-92019819D02*
X183682268Y-91972200D01*
X183682268Y-91972200D02*
X183777506Y-91876961D01*
X183777506Y-91876961D02*
X183825125Y-91781723D01*
X183825125Y-91781723D02*
X183872744Y-91591247D01*
X183872744Y-91591247D02*
X183872744Y-91448390D01*
X183872744Y-91448390D02*
X183825125Y-91257914D01*
X183825125Y-91257914D02*
X183777506Y-91162676D01*
X183777506Y-91162676D02*
X183682268Y-91067438D01*
X183682268Y-91067438D02*
X183539411Y-91019819D01*
X183539411Y-91019819D02*
X183444173Y-91019819D01*
X183444173Y-91019819D02*
X183301316Y-91067438D01*
X183301316Y-91067438D02*
X183253697Y-91115057D01*
X182825125Y-92019819D02*
X182825125Y-91019819D01*
X182396554Y-91734104D02*
X181920364Y-91734104D01*
X182491792Y-92019819D02*
X182158459Y-91019819D01*
X182158459Y-91019819D02*
X181825126Y-92019819D01*
X181015602Y-92019819D02*
X181491792Y-92019819D01*
X181491792Y-92019819D02*
X181491792Y-91019819D01*
X179967982Y-91972200D02*
X179825125Y-92019819D01*
X179825125Y-92019819D02*
X179587030Y-92019819D01*
X179587030Y-92019819D02*
X179491792Y-91972200D01*
X179491792Y-91972200D02*
X179444173Y-91924580D01*
X179444173Y-91924580D02*
X179396554Y-91829342D01*
X179396554Y-91829342D02*
X179396554Y-91734104D01*
X179396554Y-91734104D02*
X179444173Y-91638866D01*
X179444173Y-91638866D02*
X179491792Y-91591247D01*
X179491792Y-91591247D02*
X179587030Y-91543628D01*
X179587030Y-91543628D02*
X179777506Y-91496009D01*
X179777506Y-91496009D02*
X179872744Y-91448390D01*
X179872744Y-91448390D02*
X179920363Y-91400771D01*
X179920363Y-91400771D02*
X179967982Y-91305533D01*
X179967982Y-91305533D02*
X179967982Y-91210295D01*
X179967982Y-91210295D02*
X179920363Y-91115057D01*
X179920363Y-91115057D02*
X179872744Y-91067438D01*
X179872744Y-91067438D02*
X179777506Y-91019819D01*
X179777506Y-91019819D02*
X179539411Y-91019819D01*
X179539411Y-91019819D02*
X179396554Y-91067438D01*
X179015601Y-91734104D02*
X178539411Y-91734104D01*
X179110839Y-92019819D02*
X178777506Y-91019819D01*
X178777506Y-91019819D02*
X178444173Y-92019819D01*
X177634649Y-92019819D02*
X178110839Y-92019819D01*
X178110839Y-92019819D02*
X178110839Y-91019819D01*
X177301315Y-91496009D02*
X176967982Y-91496009D01*
X176825125Y-92019819D02*
X177301315Y-92019819D01*
X177301315Y-92019819D02*
X177301315Y-91019819D01*
X177301315Y-91019819D02*
X176825125Y-91019819D01*
X189491792Y-93534580D02*
X189539411Y-93582200D01*
X189539411Y-93582200D02*
X189682268Y-93629819D01*
X189682268Y-93629819D02*
X189777506Y-93629819D01*
X189777506Y-93629819D02*
X189920363Y-93582200D01*
X189920363Y-93582200D02*
X190015601Y-93486961D01*
X190015601Y-93486961D02*
X190063220Y-93391723D01*
X190063220Y-93391723D02*
X190110839Y-93201247D01*
X190110839Y-93201247D02*
X190110839Y-93058390D01*
X190110839Y-93058390D02*
X190063220Y-92867914D01*
X190063220Y-92867914D02*
X190015601Y-92772676D01*
X190015601Y-92772676D02*
X189920363Y-92677438D01*
X189920363Y-92677438D02*
X189777506Y-92629819D01*
X189777506Y-92629819D02*
X189682268Y-92629819D01*
X189682268Y-92629819D02*
X189539411Y-92677438D01*
X189539411Y-92677438D02*
X189491792Y-92725057D01*
X188491792Y-93534580D02*
X188539411Y-93582200D01*
X188539411Y-93582200D02*
X188682268Y-93629819D01*
X188682268Y-93629819D02*
X188777506Y-93629819D01*
X188777506Y-93629819D02*
X188920363Y-93582200D01*
X188920363Y-93582200D02*
X189015601Y-93486961D01*
X189015601Y-93486961D02*
X189063220Y-93391723D01*
X189063220Y-93391723D02*
X189110839Y-93201247D01*
X189110839Y-93201247D02*
X189110839Y-93058390D01*
X189110839Y-93058390D02*
X189063220Y-92867914D01*
X189063220Y-92867914D02*
X189015601Y-92772676D01*
X189015601Y-92772676D02*
X188920363Y-92677438D01*
X188920363Y-92677438D02*
X188777506Y-92629819D01*
X188777506Y-92629819D02*
X188682268Y-92629819D01*
X188682268Y-92629819D02*
X188539411Y-92677438D01*
X188539411Y-92677438D02*
X188491792Y-92725057D01*
X186967982Y-93106009D02*
X186825125Y-93153628D01*
X186825125Y-93153628D02*
X186777506Y-93201247D01*
X186777506Y-93201247D02*
X186729887Y-93296485D01*
X186729887Y-93296485D02*
X186729887Y-93439342D01*
X186729887Y-93439342D02*
X186777506Y-93534580D01*
X186777506Y-93534580D02*
X186825125Y-93582200D01*
X186825125Y-93582200D02*
X186920363Y-93629819D01*
X186920363Y-93629819D02*
X187301315Y-93629819D01*
X187301315Y-93629819D02*
X187301315Y-92629819D01*
X187301315Y-92629819D02*
X186967982Y-92629819D01*
X186967982Y-92629819D02*
X186872744Y-92677438D01*
X186872744Y-92677438D02*
X186825125Y-92725057D01*
X186825125Y-92725057D02*
X186777506Y-92820295D01*
X186777506Y-92820295D02*
X186777506Y-92915533D01*
X186777506Y-92915533D02*
X186825125Y-93010771D01*
X186825125Y-93010771D02*
X186872744Y-93058390D01*
X186872744Y-93058390D02*
X186967982Y-93106009D01*
X186967982Y-93106009D02*
X187301315Y-93106009D01*
X186110839Y-93153628D02*
X186110839Y-93629819D01*
X186444172Y-92629819D02*
X186110839Y-93153628D01*
X186110839Y-93153628D02*
X185777506Y-92629819D01*
X185444172Y-93248866D02*
X184682268Y-93248866D01*
X184206077Y-93629819D02*
X184206077Y-92629819D01*
X184206077Y-92629819D02*
X183634649Y-93629819D01*
X183634649Y-93629819D02*
X183634649Y-92629819D01*
X182587030Y-93534580D02*
X182634649Y-93582200D01*
X182634649Y-93582200D02*
X182777506Y-93629819D01*
X182777506Y-93629819D02*
X182872744Y-93629819D01*
X182872744Y-93629819D02*
X183015601Y-93582200D01*
X183015601Y-93582200D02*
X183110839Y-93486961D01*
X183110839Y-93486961D02*
X183158458Y-93391723D01*
X183158458Y-93391723D02*
X183206077Y-93201247D01*
X183206077Y-93201247D02*
X183206077Y-93058390D01*
X183206077Y-93058390D02*
X183158458Y-92867914D01*
X183158458Y-92867914D02*
X183110839Y-92772676D01*
X183110839Y-92772676D02*
X183015601Y-92677438D01*
X183015601Y-92677438D02*
X182872744Y-92629819D01*
X182872744Y-92629819D02*
X182777506Y-92629819D01*
X182777506Y-92629819D02*
X182634649Y-92677438D01*
X182634649Y-92677438D02*
X182587030Y-92725057D01*
X182158458Y-93248866D02*
X181396554Y-93248866D01*
X180967982Y-93582200D02*
X180825125Y-93629819D01*
X180825125Y-93629819D02*
X180587030Y-93629819D01*
X180587030Y-93629819D02*
X180491792Y-93582200D01*
X180491792Y-93582200D02*
X180444173Y-93534580D01*
X180444173Y-93534580D02*
X180396554Y-93439342D01*
X180396554Y-93439342D02*
X180396554Y-93344104D01*
X180396554Y-93344104D02*
X180444173Y-93248866D01*
X180444173Y-93248866D02*
X180491792Y-93201247D01*
X180491792Y-93201247D02*
X180587030Y-93153628D01*
X180587030Y-93153628D02*
X180777506Y-93106009D01*
X180777506Y-93106009D02*
X180872744Y-93058390D01*
X180872744Y-93058390D02*
X180920363Y-93010771D01*
X180920363Y-93010771D02*
X180967982Y-92915533D01*
X180967982Y-92915533D02*
X180967982Y-92820295D01*
X180967982Y-92820295D02*
X180920363Y-92725057D01*
X180920363Y-92725057D02*
X180872744Y-92677438D01*
X180872744Y-92677438D02*
X180777506Y-92629819D01*
X180777506Y-92629819D02*
X180539411Y-92629819D01*
X180539411Y-92629819D02*
X180396554Y-92677438D01*
X180015601Y-93344104D02*
X179539411Y-93344104D01*
X180110839Y-93629819D02*
X179777506Y-92629819D01*
X179777506Y-92629819D02*
X179444173Y-93629819D01*
X177920363Y-92963152D02*
X177920363Y-93629819D01*
X178158458Y-92582200D02*
X178396553Y-93296485D01*
X178396553Y-93296485D02*
X177777506Y-93296485D01*
X177396553Y-93534580D02*
X177348934Y-93582200D01*
X177348934Y-93582200D02*
X177396553Y-93629819D01*
X177396553Y-93629819D02*
X177444172Y-93582200D01*
X177444172Y-93582200D02*
X177396553Y-93534580D01*
X177396553Y-93534580D02*
X177396553Y-93629819D01*
X176729887Y-92629819D02*
X176634649Y-92629819D01*
X176634649Y-92629819D02*
X176539411Y-92677438D01*
X176539411Y-92677438D02*
X176491792Y-92725057D01*
X176491792Y-92725057D02*
X176444173Y-92820295D01*
X176444173Y-92820295D02*
X176396554Y-93010771D01*
X176396554Y-93010771D02*
X176396554Y-93248866D01*
X176396554Y-93248866D02*
X176444173Y-93439342D01*
X176444173Y-93439342D02*
X176491792Y-93534580D01*
X176491792Y-93534580D02*
X176539411Y-93582200D01*
X176539411Y-93582200D02*
X176634649Y-93629819D01*
X176634649Y-93629819D02*
X176729887Y-93629819D01*
X176729887Y-93629819D02*
X176825125Y-93582200D01*
X176825125Y-93582200D02*
X176872744Y-93534580D01*
X176872744Y-93534580D02*
X176920363Y-93439342D01*
X176920363Y-93439342D02*
X176967982Y-93248866D01*
X176967982Y-93248866D02*
X176967982Y-93010771D01*
X176967982Y-93010771D02*
X176920363Y-92820295D01*
X176920363Y-92820295D02*
X176872744Y-92725057D01*
X176872744Y-92725057D02*
X176825125Y-92677438D01*
X176825125Y-92677438D02*
X176729887Y-92629819D01*
M02*
