%TF.GenerationSoftware,KiCad,Pcbnew,7.0.10-7.0.10~ubuntu22.04.1*%
%TF.CreationDate,2024-01-13T04:47:40-07:00*%
%TF.ProjectId,HIDHopper_Hub_Hat,48494448-6f70-4706-9572-5f4875625f48,rev?*%
%TF.SameCoordinates,Original*%
%TF.FileFunction,Legend,Top*%
%TF.FilePolarity,Positive*%
%FSLAX46Y46*%
G04 Gerber Fmt 4.6, Leading zero omitted, Abs format (unit mm)*
G04 Created by KiCad (PCBNEW 7.0.10-7.0.10~ubuntu22.04.1) date 2024-01-13 04:47:40*
%MOMM*%
%LPD*%
G01*
G04 APERTURE LIST*
%ADD10C,0.150000*%
%ADD11C,0.120000*%
G04 APERTURE END LIST*
D10*
X147622493Y-68049819D02*
X147622493Y-68764104D01*
X147622493Y-68764104D02*
X147574874Y-68906961D01*
X147574874Y-68906961D02*
X147479636Y-69002200D01*
X147479636Y-69002200D02*
X147336779Y-69049819D01*
X147336779Y-69049819D02*
X147241541Y-69049819D01*
X148574874Y-69049819D02*
X148098684Y-69049819D01*
X148098684Y-69049819D02*
X148098684Y-68049819D01*
X149479636Y-68954580D02*
X149432017Y-69002200D01*
X149432017Y-69002200D02*
X149289160Y-69049819D01*
X149289160Y-69049819D02*
X149193922Y-69049819D01*
X149193922Y-69049819D02*
X149051065Y-69002200D01*
X149051065Y-69002200D02*
X148955827Y-68906961D01*
X148955827Y-68906961D02*
X148908208Y-68811723D01*
X148908208Y-68811723D02*
X148860589Y-68621247D01*
X148860589Y-68621247D02*
X148860589Y-68478390D01*
X148860589Y-68478390D02*
X148908208Y-68287914D01*
X148908208Y-68287914D02*
X148955827Y-68192676D01*
X148955827Y-68192676D02*
X149051065Y-68097438D01*
X149051065Y-68097438D02*
X149193922Y-68049819D01*
X149193922Y-68049819D02*
X149289160Y-68049819D01*
X149289160Y-68049819D02*
X149432017Y-68097438D01*
X149432017Y-68097438D02*
X149479636Y-68145057D01*
X150193922Y-68049819D02*
X150193922Y-68764104D01*
X150193922Y-68764104D02*
X150146303Y-68906961D01*
X150146303Y-68906961D02*
X150051065Y-69002200D01*
X150051065Y-69002200D02*
X149908208Y-69049819D01*
X149908208Y-69049819D02*
X149812970Y-69049819D01*
X151146303Y-69049819D02*
X150670113Y-69049819D01*
X150670113Y-69049819D02*
X150670113Y-68049819D01*
X152051065Y-68954580D02*
X152003446Y-69002200D01*
X152003446Y-69002200D02*
X151860589Y-69049819D01*
X151860589Y-69049819D02*
X151765351Y-69049819D01*
X151765351Y-69049819D02*
X151622494Y-69002200D01*
X151622494Y-69002200D02*
X151527256Y-68906961D01*
X151527256Y-68906961D02*
X151479637Y-68811723D01*
X151479637Y-68811723D02*
X151432018Y-68621247D01*
X151432018Y-68621247D02*
X151432018Y-68478390D01*
X151432018Y-68478390D02*
X151479637Y-68287914D01*
X151479637Y-68287914D02*
X151527256Y-68192676D01*
X151527256Y-68192676D02*
X151622494Y-68097438D01*
X151622494Y-68097438D02*
X151765351Y-68049819D01*
X151765351Y-68049819D02*
X151860589Y-68049819D01*
X151860589Y-68049819D02*
X152003446Y-68097438D01*
X152003446Y-68097438D02*
X152051065Y-68145057D01*
X152765351Y-68049819D02*
X152765351Y-68764104D01*
X152765351Y-68764104D02*
X152717732Y-68906961D01*
X152717732Y-68906961D02*
X152622494Y-69002200D01*
X152622494Y-69002200D02*
X152479637Y-69049819D01*
X152479637Y-69049819D02*
X152384399Y-69049819D01*
X153717732Y-69049819D02*
X153241542Y-69049819D01*
X153241542Y-69049819D02*
X153241542Y-68049819D01*
X154622494Y-68954580D02*
X154574875Y-69002200D01*
X154574875Y-69002200D02*
X154432018Y-69049819D01*
X154432018Y-69049819D02*
X154336780Y-69049819D01*
X154336780Y-69049819D02*
X154193923Y-69002200D01*
X154193923Y-69002200D02*
X154098685Y-68906961D01*
X154098685Y-68906961D02*
X154051066Y-68811723D01*
X154051066Y-68811723D02*
X154003447Y-68621247D01*
X154003447Y-68621247D02*
X154003447Y-68478390D01*
X154003447Y-68478390D02*
X154051066Y-68287914D01*
X154051066Y-68287914D02*
X154098685Y-68192676D01*
X154098685Y-68192676D02*
X154193923Y-68097438D01*
X154193923Y-68097438D02*
X154336780Y-68049819D01*
X154336780Y-68049819D02*
X154432018Y-68049819D01*
X154432018Y-68049819D02*
X154574875Y-68097438D01*
X154574875Y-68097438D02*
X154622494Y-68145057D01*
X155336780Y-68049819D02*
X155336780Y-68764104D01*
X155336780Y-68764104D02*
X155289161Y-68906961D01*
X155289161Y-68906961D02*
X155193923Y-69002200D01*
X155193923Y-69002200D02*
X155051066Y-69049819D01*
X155051066Y-69049819D02*
X154955828Y-69049819D01*
X156289161Y-69049819D02*
X155812971Y-69049819D01*
X155812971Y-69049819D02*
X155812971Y-68049819D01*
X157193923Y-68954580D02*
X157146304Y-69002200D01*
X157146304Y-69002200D02*
X157003447Y-69049819D01*
X157003447Y-69049819D02*
X156908209Y-69049819D01*
X156908209Y-69049819D02*
X156765352Y-69002200D01*
X156765352Y-69002200D02*
X156670114Y-68906961D01*
X156670114Y-68906961D02*
X156622495Y-68811723D01*
X156622495Y-68811723D02*
X156574876Y-68621247D01*
X156574876Y-68621247D02*
X156574876Y-68478390D01*
X156574876Y-68478390D02*
X156622495Y-68287914D01*
X156622495Y-68287914D02*
X156670114Y-68192676D01*
X156670114Y-68192676D02*
X156765352Y-68097438D01*
X156765352Y-68097438D02*
X156908209Y-68049819D01*
X156908209Y-68049819D02*
X157003447Y-68049819D01*
X157003447Y-68049819D02*
X157146304Y-68097438D01*
X157146304Y-68097438D02*
X157193923Y-68145057D01*
X176236779Y-86379819D02*
X176236779Y-85379819D01*
X176236779Y-85856009D02*
X176808207Y-85856009D01*
X176808207Y-86379819D02*
X176808207Y-85379819D01*
X177284398Y-86379819D02*
X177284398Y-85379819D01*
X177760588Y-86379819D02*
X177760588Y-85379819D01*
X177760588Y-85379819D02*
X177998683Y-85379819D01*
X177998683Y-85379819D02*
X178141540Y-85427438D01*
X178141540Y-85427438D02*
X178236778Y-85522676D01*
X178236778Y-85522676D02*
X178284397Y-85617914D01*
X178284397Y-85617914D02*
X178332016Y-85808390D01*
X178332016Y-85808390D02*
X178332016Y-85951247D01*
X178332016Y-85951247D02*
X178284397Y-86141723D01*
X178284397Y-86141723D02*
X178236778Y-86236961D01*
X178236778Y-86236961D02*
X178141540Y-86332200D01*
X178141540Y-86332200D02*
X177998683Y-86379819D01*
X177998683Y-86379819D02*
X177760588Y-86379819D01*
X178760588Y-86379819D02*
X178760588Y-85379819D01*
X178760588Y-85856009D02*
X179332016Y-85856009D01*
X179332016Y-86379819D02*
X179332016Y-85379819D01*
X179951064Y-86379819D02*
X179855826Y-86332200D01*
X179855826Y-86332200D02*
X179808207Y-86284580D01*
X179808207Y-86284580D02*
X179760588Y-86189342D01*
X179760588Y-86189342D02*
X179760588Y-85903628D01*
X179760588Y-85903628D02*
X179808207Y-85808390D01*
X179808207Y-85808390D02*
X179855826Y-85760771D01*
X179855826Y-85760771D02*
X179951064Y-85713152D01*
X179951064Y-85713152D02*
X180093921Y-85713152D01*
X180093921Y-85713152D02*
X180189159Y-85760771D01*
X180189159Y-85760771D02*
X180236778Y-85808390D01*
X180236778Y-85808390D02*
X180284397Y-85903628D01*
X180284397Y-85903628D02*
X180284397Y-86189342D01*
X180284397Y-86189342D02*
X180236778Y-86284580D01*
X180236778Y-86284580D02*
X180189159Y-86332200D01*
X180189159Y-86332200D02*
X180093921Y-86379819D01*
X180093921Y-86379819D02*
X179951064Y-86379819D01*
X180712969Y-85713152D02*
X180712969Y-86713152D01*
X180712969Y-85760771D02*
X180808207Y-85713152D01*
X180808207Y-85713152D02*
X180998683Y-85713152D01*
X180998683Y-85713152D02*
X181093921Y-85760771D01*
X181093921Y-85760771D02*
X181141540Y-85808390D01*
X181141540Y-85808390D02*
X181189159Y-85903628D01*
X181189159Y-85903628D02*
X181189159Y-86189342D01*
X181189159Y-86189342D02*
X181141540Y-86284580D01*
X181141540Y-86284580D02*
X181093921Y-86332200D01*
X181093921Y-86332200D02*
X180998683Y-86379819D01*
X180998683Y-86379819D02*
X180808207Y-86379819D01*
X180808207Y-86379819D02*
X180712969Y-86332200D01*
X181617731Y-85713152D02*
X181617731Y-86713152D01*
X181617731Y-85760771D02*
X181712969Y-85713152D01*
X181712969Y-85713152D02*
X181903445Y-85713152D01*
X181903445Y-85713152D02*
X181998683Y-85760771D01*
X181998683Y-85760771D02*
X182046302Y-85808390D01*
X182046302Y-85808390D02*
X182093921Y-85903628D01*
X182093921Y-85903628D02*
X182093921Y-86189342D01*
X182093921Y-86189342D02*
X182046302Y-86284580D01*
X182046302Y-86284580D02*
X181998683Y-86332200D01*
X181998683Y-86332200D02*
X181903445Y-86379819D01*
X181903445Y-86379819D02*
X181712969Y-86379819D01*
X181712969Y-86379819D02*
X181617731Y-86332200D01*
X182903445Y-86332200D02*
X182808207Y-86379819D01*
X182808207Y-86379819D02*
X182617731Y-86379819D01*
X182617731Y-86379819D02*
X182522493Y-86332200D01*
X182522493Y-86332200D02*
X182474874Y-86236961D01*
X182474874Y-86236961D02*
X182474874Y-85856009D01*
X182474874Y-85856009D02*
X182522493Y-85760771D01*
X182522493Y-85760771D02*
X182617731Y-85713152D01*
X182617731Y-85713152D02*
X182808207Y-85713152D01*
X182808207Y-85713152D02*
X182903445Y-85760771D01*
X182903445Y-85760771D02*
X182951064Y-85856009D01*
X182951064Y-85856009D02*
X182951064Y-85951247D01*
X182951064Y-85951247D02*
X182474874Y-86046485D01*
X183379636Y-86379819D02*
X183379636Y-85713152D01*
X183379636Y-85903628D02*
X183427255Y-85808390D01*
X183427255Y-85808390D02*
X183474874Y-85760771D01*
X183474874Y-85760771D02*
X183570112Y-85713152D01*
X183570112Y-85713152D02*
X183665350Y-85713152D01*
X184712970Y-86332200D02*
X184855827Y-86379819D01*
X184855827Y-86379819D02*
X185093922Y-86379819D01*
X185093922Y-86379819D02*
X185189160Y-86332200D01*
X185189160Y-86332200D02*
X185236779Y-86284580D01*
X185236779Y-86284580D02*
X185284398Y-86189342D01*
X185284398Y-86189342D02*
X185284398Y-86094104D01*
X185284398Y-86094104D02*
X185236779Y-85998866D01*
X185236779Y-85998866D02*
X185189160Y-85951247D01*
X185189160Y-85951247D02*
X185093922Y-85903628D01*
X185093922Y-85903628D02*
X184903446Y-85856009D01*
X184903446Y-85856009D02*
X184808208Y-85808390D01*
X184808208Y-85808390D02*
X184760589Y-85760771D01*
X184760589Y-85760771D02*
X184712970Y-85665533D01*
X184712970Y-85665533D02*
X184712970Y-85570295D01*
X184712970Y-85570295D02*
X184760589Y-85475057D01*
X184760589Y-85475057D02*
X184808208Y-85427438D01*
X184808208Y-85427438D02*
X184903446Y-85379819D01*
X184903446Y-85379819D02*
X185141541Y-85379819D01*
X185141541Y-85379819D02*
X185284398Y-85427438D01*
X185570113Y-85713152D02*
X185951065Y-85713152D01*
X185712970Y-85379819D02*
X185712970Y-86236961D01*
X185712970Y-86236961D02*
X185760589Y-86332200D01*
X185760589Y-86332200D02*
X185855827Y-86379819D01*
X185855827Y-86379819D02*
X185951065Y-86379819D01*
X186712970Y-86379819D02*
X186712970Y-85856009D01*
X186712970Y-85856009D02*
X186665351Y-85760771D01*
X186665351Y-85760771D02*
X186570113Y-85713152D01*
X186570113Y-85713152D02*
X186379637Y-85713152D01*
X186379637Y-85713152D02*
X186284399Y-85760771D01*
X186712970Y-86332200D02*
X186617732Y-86379819D01*
X186617732Y-86379819D02*
X186379637Y-86379819D01*
X186379637Y-86379819D02*
X186284399Y-86332200D01*
X186284399Y-86332200D02*
X186236780Y-86236961D01*
X186236780Y-86236961D02*
X186236780Y-86141723D01*
X186236780Y-86141723D02*
X186284399Y-86046485D01*
X186284399Y-86046485D02*
X186379637Y-85998866D01*
X186379637Y-85998866D02*
X186617732Y-85998866D01*
X186617732Y-85998866D02*
X186712970Y-85951247D01*
X187617732Y-86332200D02*
X187522494Y-86379819D01*
X187522494Y-86379819D02*
X187332018Y-86379819D01*
X187332018Y-86379819D02*
X187236780Y-86332200D01*
X187236780Y-86332200D02*
X187189161Y-86284580D01*
X187189161Y-86284580D02*
X187141542Y-86189342D01*
X187141542Y-86189342D02*
X187141542Y-85903628D01*
X187141542Y-85903628D02*
X187189161Y-85808390D01*
X187189161Y-85808390D02*
X187236780Y-85760771D01*
X187236780Y-85760771D02*
X187332018Y-85713152D01*
X187332018Y-85713152D02*
X187522494Y-85713152D01*
X187522494Y-85713152D02*
X187617732Y-85760771D01*
X188046304Y-86379819D02*
X188046304Y-85379819D01*
X188141542Y-85998866D02*
X188427256Y-86379819D01*
X188427256Y-85713152D02*
X188046304Y-86094104D01*
X189284399Y-86379819D02*
X189284399Y-85856009D01*
X189284399Y-85856009D02*
X189236780Y-85760771D01*
X189236780Y-85760771D02*
X189141542Y-85713152D01*
X189141542Y-85713152D02*
X188951066Y-85713152D01*
X188951066Y-85713152D02*
X188855828Y-85760771D01*
X189284399Y-86332200D02*
X189189161Y-86379819D01*
X189189161Y-86379819D02*
X188951066Y-86379819D01*
X188951066Y-86379819D02*
X188855828Y-86332200D01*
X188855828Y-86332200D02*
X188808209Y-86236961D01*
X188808209Y-86236961D02*
X188808209Y-86141723D01*
X188808209Y-86141723D02*
X188855828Y-86046485D01*
X188855828Y-86046485D02*
X188951066Y-85998866D01*
X188951066Y-85998866D02*
X189189161Y-85998866D01*
X189189161Y-85998866D02*
X189284399Y-85951247D01*
X189760590Y-86379819D02*
X189760590Y-85379819D01*
X189760590Y-85760771D02*
X189855828Y-85713152D01*
X189855828Y-85713152D02*
X190046304Y-85713152D01*
X190046304Y-85713152D02*
X190141542Y-85760771D01*
X190141542Y-85760771D02*
X190189161Y-85808390D01*
X190189161Y-85808390D02*
X190236780Y-85903628D01*
X190236780Y-85903628D02*
X190236780Y-86189342D01*
X190236780Y-86189342D02*
X190189161Y-86284580D01*
X190189161Y-86284580D02*
X190141542Y-86332200D01*
X190141542Y-86332200D02*
X190046304Y-86379819D01*
X190046304Y-86379819D02*
X189855828Y-86379819D01*
X189855828Y-86379819D02*
X189760590Y-86332200D01*
X190808209Y-86379819D02*
X190712971Y-86332200D01*
X190712971Y-86332200D02*
X190665352Y-86236961D01*
X190665352Y-86236961D02*
X190665352Y-85379819D01*
X191570114Y-86332200D02*
X191474876Y-86379819D01*
X191474876Y-86379819D02*
X191284400Y-86379819D01*
X191284400Y-86379819D02*
X191189162Y-86332200D01*
X191189162Y-86332200D02*
X191141543Y-86236961D01*
X191141543Y-86236961D02*
X191141543Y-85856009D01*
X191141543Y-85856009D02*
X191189162Y-85760771D01*
X191189162Y-85760771D02*
X191284400Y-85713152D01*
X191284400Y-85713152D02*
X191474876Y-85713152D01*
X191474876Y-85713152D02*
X191570114Y-85760771D01*
X191570114Y-85760771D02*
X191617733Y-85856009D01*
X191617733Y-85856009D02*
X191617733Y-85951247D01*
X191617733Y-85951247D02*
X191141543Y-86046485D01*
X176236779Y-86989819D02*
X176236779Y-87799342D01*
X176236779Y-87799342D02*
X176284398Y-87894580D01*
X176284398Y-87894580D02*
X176332017Y-87942200D01*
X176332017Y-87942200D02*
X176427255Y-87989819D01*
X176427255Y-87989819D02*
X176617731Y-87989819D01*
X176617731Y-87989819D02*
X176712969Y-87942200D01*
X176712969Y-87942200D02*
X176760588Y-87894580D01*
X176760588Y-87894580D02*
X176808207Y-87799342D01*
X176808207Y-87799342D02*
X176808207Y-86989819D01*
X177236779Y-87942200D02*
X177379636Y-87989819D01*
X177379636Y-87989819D02*
X177617731Y-87989819D01*
X177617731Y-87989819D02*
X177712969Y-87942200D01*
X177712969Y-87942200D02*
X177760588Y-87894580D01*
X177760588Y-87894580D02*
X177808207Y-87799342D01*
X177808207Y-87799342D02*
X177808207Y-87704104D01*
X177808207Y-87704104D02*
X177760588Y-87608866D01*
X177760588Y-87608866D02*
X177712969Y-87561247D01*
X177712969Y-87561247D02*
X177617731Y-87513628D01*
X177617731Y-87513628D02*
X177427255Y-87466009D01*
X177427255Y-87466009D02*
X177332017Y-87418390D01*
X177332017Y-87418390D02*
X177284398Y-87370771D01*
X177284398Y-87370771D02*
X177236779Y-87275533D01*
X177236779Y-87275533D02*
X177236779Y-87180295D01*
X177236779Y-87180295D02*
X177284398Y-87085057D01*
X177284398Y-87085057D02*
X177332017Y-87037438D01*
X177332017Y-87037438D02*
X177427255Y-86989819D01*
X177427255Y-86989819D02*
X177665350Y-86989819D01*
X177665350Y-86989819D02*
X177808207Y-87037438D01*
X178570112Y-87466009D02*
X178712969Y-87513628D01*
X178712969Y-87513628D02*
X178760588Y-87561247D01*
X178760588Y-87561247D02*
X178808207Y-87656485D01*
X178808207Y-87656485D02*
X178808207Y-87799342D01*
X178808207Y-87799342D02*
X178760588Y-87894580D01*
X178760588Y-87894580D02*
X178712969Y-87942200D01*
X178712969Y-87942200D02*
X178617731Y-87989819D01*
X178617731Y-87989819D02*
X178236779Y-87989819D01*
X178236779Y-87989819D02*
X178236779Y-86989819D01*
X178236779Y-86989819D02*
X178570112Y-86989819D01*
X178570112Y-86989819D02*
X178665350Y-87037438D01*
X178665350Y-87037438D02*
X178712969Y-87085057D01*
X178712969Y-87085057D02*
X178760588Y-87180295D01*
X178760588Y-87180295D02*
X178760588Y-87275533D01*
X178760588Y-87275533D02*
X178712969Y-87370771D01*
X178712969Y-87370771D02*
X178665350Y-87418390D01*
X178665350Y-87418390D02*
X178570112Y-87466009D01*
X178570112Y-87466009D02*
X178236779Y-87466009D01*
X179998684Y-87989819D02*
X179998684Y-86989819D01*
X179998684Y-87466009D02*
X180570112Y-87466009D01*
X180570112Y-87989819D02*
X180570112Y-86989819D01*
X181474874Y-87323152D02*
X181474874Y-87989819D01*
X181046303Y-87323152D02*
X181046303Y-87846961D01*
X181046303Y-87846961D02*
X181093922Y-87942200D01*
X181093922Y-87942200D02*
X181189160Y-87989819D01*
X181189160Y-87989819D02*
X181332017Y-87989819D01*
X181332017Y-87989819D02*
X181427255Y-87942200D01*
X181427255Y-87942200D02*
X181474874Y-87894580D01*
X181951065Y-87989819D02*
X181951065Y-86989819D01*
X181951065Y-87370771D02*
X182046303Y-87323152D01*
X182046303Y-87323152D02*
X182236779Y-87323152D01*
X182236779Y-87323152D02*
X182332017Y-87370771D01*
X182332017Y-87370771D02*
X182379636Y-87418390D01*
X182379636Y-87418390D02*
X182427255Y-87513628D01*
X182427255Y-87513628D02*
X182427255Y-87799342D01*
X182427255Y-87799342D02*
X182379636Y-87894580D01*
X182379636Y-87894580D02*
X182332017Y-87942200D01*
X182332017Y-87942200D02*
X182236779Y-87989819D01*
X182236779Y-87989819D02*
X182046303Y-87989819D01*
X182046303Y-87989819D02*
X181951065Y-87942200D01*
X176236779Y-89599819D02*
X176236779Y-88599819D01*
X176236779Y-88599819D02*
X176808207Y-89599819D01*
X176808207Y-89599819D02*
X176808207Y-88599819D01*
X177474874Y-88599819D02*
X177665350Y-88599819D01*
X177665350Y-88599819D02*
X177760588Y-88647438D01*
X177760588Y-88647438D02*
X177855826Y-88742676D01*
X177855826Y-88742676D02*
X177903445Y-88933152D01*
X177903445Y-88933152D02*
X177903445Y-89266485D01*
X177903445Y-89266485D02*
X177855826Y-89456961D01*
X177855826Y-89456961D02*
X177760588Y-89552200D01*
X177760588Y-89552200D02*
X177665350Y-89599819D01*
X177665350Y-89599819D02*
X177474874Y-89599819D01*
X177474874Y-89599819D02*
X177379636Y-89552200D01*
X177379636Y-89552200D02*
X177284398Y-89456961D01*
X177284398Y-89456961D02*
X177236779Y-89266485D01*
X177236779Y-89266485D02*
X177236779Y-88933152D01*
X177236779Y-88933152D02*
X177284398Y-88742676D01*
X177284398Y-88742676D02*
X177379636Y-88647438D01*
X177379636Y-88647438D02*
X177474874Y-88599819D01*
X178189160Y-88599819D02*
X178760588Y-88599819D01*
X178474874Y-89599819D02*
X178474874Y-88599819D01*
X180189160Y-89076009D02*
X179855827Y-89076009D01*
X179855827Y-89599819D02*
X179855827Y-88599819D01*
X179855827Y-88599819D02*
X180332017Y-88599819D01*
X180903446Y-88599819D02*
X181093922Y-88599819D01*
X181093922Y-88599819D02*
X181189160Y-88647438D01*
X181189160Y-88647438D02*
X181284398Y-88742676D01*
X181284398Y-88742676D02*
X181332017Y-88933152D01*
X181332017Y-88933152D02*
X181332017Y-89266485D01*
X181332017Y-89266485D02*
X181284398Y-89456961D01*
X181284398Y-89456961D02*
X181189160Y-89552200D01*
X181189160Y-89552200D02*
X181093922Y-89599819D01*
X181093922Y-89599819D02*
X180903446Y-89599819D01*
X180903446Y-89599819D02*
X180808208Y-89552200D01*
X180808208Y-89552200D02*
X180712970Y-89456961D01*
X180712970Y-89456961D02*
X180665351Y-89266485D01*
X180665351Y-89266485D02*
X180665351Y-88933152D01*
X180665351Y-88933152D02*
X180712970Y-88742676D01*
X180712970Y-88742676D02*
X180808208Y-88647438D01*
X180808208Y-88647438D02*
X180903446Y-88599819D01*
X182332017Y-89599819D02*
X181998684Y-89123628D01*
X181760589Y-89599819D02*
X181760589Y-88599819D01*
X181760589Y-88599819D02*
X182141541Y-88599819D01*
X182141541Y-88599819D02*
X182236779Y-88647438D01*
X182236779Y-88647438D02*
X182284398Y-88695057D01*
X182284398Y-88695057D02*
X182332017Y-88790295D01*
X182332017Y-88790295D02*
X182332017Y-88933152D01*
X182332017Y-88933152D02*
X182284398Y-89028390D01*
X182284398Y-89028390D02*
X182236779Y-89076009D01*
X182236779Y-89076009D02*
X182141541Y-89123628D01*
X182141541Y-89123628D02*
X181760589Y-89123628D01*
X176808207Y-91114580D02*
X176760588Y-91162200D01*
X176760588Y-91162200D02*
X176617731Y-91209819D01*
X176617731Y-91209819D02*
X176522493Y-91209819D01*
X176522493Y-91209819D02*
X176379636Y-91162200D01*
X176379636Y-91162200D02*
X176284398Y-91066961D01*
X176284398Y-91066961D02*
X176236779Y-90971723D01*
X176236779Y-90971723D02*
X176189160Y-90781247D01*
X176189160Y-90781247D02*
X176189160Y-90638390D01*
X176189160Y-90638390D02*
X176236779Y-90447914D01*
X176236779Y-90447914D02*
X176284398Y-90352676D01*
X176284398Y-90352676D02*
X176379636Y-90257438D01*
X176379636Y-90257438D02*
X176522493Y-90209819D01*
X176522493Y-90209819D02*
X176617731Y-90209819D01*
X176617731Y-90209819D02*
X176760588Y-90257438D01*
X176760588Y-90257438D02*
X176808207Y-90305057D01*
X177427255Y-90209819D02*
X177617731Y-90209819D01*
X177617731Y-90209819D02*
X177712969Y-90257438D01*
X177712969Y-90257438D02*
X177808207Y-90352676D01*
X177808207Y-90352676D02*
X177855826Y-90543152D01*
X177855826Y-90543152D02*
X177855826Y-90876485D01*
X177855826Y-90876485D02*
X177808207Y-91066961D01*
X177808207Y-91066961D02*
X177712969Y-91162200D01*
X177712969Y-91162200D02*
X177617731Y-91209819D01*
X177617731Y-91209819D02*
X177427255Y-91209819D01*
X177427255Y-91209819D02*
X177332017Y-91162200D01*
X177332017Y-91162200D02*
X177236779Y-91066961D01*
X177236779Y-91066961D02*
X177189160Y-90876485D01*
X177189160Y-90876485D02*
X177189160Y-90543152D01*
X177189160Y-90543152D02*
X177236779Y-90352676D01*
X177236779Y-90352676D02*
X177332017Y-90257438D01*
X177332017Y-90257438D02*
X177427255Y-90209819D01*
X178284398Y-91209819D02*
X178284398Y-90209819D01*
X178284398Y-90209819D02*
X178617731Y-90924104D01*
X178617731Y-90924104D02*
X178951064Y-90209819D01*
X178951064Y-90209819D02*
X178951064Y-91209819D01*
X179427255Y-91209819D02*
X179427255Y-90209819D01*
X179427255Y-90209819D02*
X179760588Y-90924104D01*
X179760588Y-90924104D02*
X180093921Y-90209819D01*
X180093921Y-90209819D02*
X180093921Y-91209819D01*
X180570112Y-90686009D02*
X180903445Y-90686009D01*
X181046302Y-91209819D02*
X180570112Y-91209819D01*
X180570112Y-91209819D02*
X180570112Y-90209819D01*
X180570112Y-90209819D02*
X181046302Y-90209819D01*
X182046302Y-91209819D02*
X181712969Y-90733628D01*
X181474874Y-91209819D02*
X181474874Y-90209819D01*
X181474874Y-90209819D02*
X181855826Y-90209819D01*
X181855826Y-90209819D02*
X181951064Y-90257438D01*
X181951064Y-90257438D02*
X181998683Y-90305057D01*
X181998683Y-90305057D02*
X182046302Y-90400295D01*
X182046302Y-90400295D02*
X182046302Y-90543152D01*
X182046302Y-90543152D02*
X181998683Y-90638390D01*
X181998683Y-90638390D02*
X181951064Y-90686009D01*
X181951064Y-90686009D02*
X181855826Y-90733628D01*
X181855826Y-90733628D02*
X181474874Y-90733628D01*
X183046302Y-91114580D02*
X182998683Y-91162200D01*
X182998683Y-91162200D02*
X182855826Y-91209819D01*
X182855826Y-91209819D02*
X182760588Y-91209819D01*
X182760588Y-91209819D02*
X182617731Y-91162200D01*
X182617731Y-91162200D02*
X182522493Y-91066961D01*
X182522493Y-91066961D02*
X182474874Y-90971723D01*
X182474874Y-90971723D02*
X182427255Y-90781247D01*
X182427255Y-90781247D02*
X182427255Y-90638390D01*
X182427255Y-90638390D02*
X182474874Y-90447914D01*
X182474874Y-90447914D02*
X182522493Y-90352676D01*
X182522493Y-90352676D02*
X182617731Y-90257438D01*
X182617731Y-90257438D02*
X182760588Y-90209819D01*
X182760588Y-90209819D02*
X182855826Y-90209819D01*
X182855826Y-90209819D02*
X182998683Y-90257438D01*
X182998683Y-90257438D02*
X183046302Y-90305057D01*
X183474874Y-91209819D02*
X183474874Y-90209819D01*
X183903445Y-90924104D02*
X184379635Y-90924104D01*
X183808207Y-91209819D02*
X184141540Y-90209819D01*
X184141540Y-90209819D02*
X184474873Y-91209819D01*
X185284397Y-91209819D02*
X184808207Y-91209819D01*
X184808207Y-91209819D02*
X184808207Y-90209819D01*
X186332017Y-91162200D02*
X186474874Y-91209819D01*
X186474874Y-91209819D02*
X186712969Y-91209819D01*
X186712969Y-91209819D02*
X186808207Y-91162200D01*
X186808207Y-91162200D02*
X186855826Y-91114580D01*
X186855826Y-91114580D02*
X186903445Y-91019342D01*
X186903445Y-91019342D02*
X186903445Y-90924104D01*
X186903445Y-90924104D02*
X186855826Y-90828866D01*
X186855826Y-90828866D02*
X186808207Y-90781247D01*
X186808207Y-90781247D02*
X186712969Y-90733628D01*
X186712969Y-90733628D02*
X186522493Y-90686009D01*
X186522493Y-90686009D02*
X186427255Y-90638390D01*
X186427255Y-90638390D02*
X186379636Y-90590771D01*
X186379636Y-90590771D02*
X186332017Y-90495533D01*
X186332017Y-90495533D02*
X186332017Y-90400295D01*
X186332017Y-90400295D02*
X186379636Y-90305057D01*
X186379636Y-90305057D02*
X186427255Y-90257438D01*
X186427255Y-90257438D02*
X186522493Y-90209819D01*
X186522493Y-90209819D02*
X186760588Y-90209819D01*
X186760588Y-90209819D02*
X186903445Y-90257438D01*
X187284398Y-90924104D02*
X187760588Y-90924104D01*
X187189160Y-91209819D02*
X187522493Y-90209819D01*
X187522493Y-90209819D02*
X187855826Y-91209819D01*
X188665350Y-91209819D02*
X188189160Y-91209819D01*
X188189160Y-91209819D02*
X188189160Y-90209819D01*
X188998684Y-90686009D02*
X189332017Y-90686009D01*
X189474874Y-91209819D02*
X188998684Y-91209819D01*
X188998684Y-91209819D02*
X188998684Y-90209819D01*
X188998684Y-90209819D02*
X189474874Y-90209819D01*
X176808207Y-92724580D02*
X176760588Y-92772200D01*
X176760588Y-92772200D02*
X176617731Y-92819819D01*
X176617731Y-92819819D02*
X176522493Y-92819819D01*
X176522493Y-92819819D02*
X176379636Y-92772200D01*
X176379636Y-92772200D02*
X176284398Y-92676961D01*
X176284398Y-92676961D02*
X176236779Y-92581723D01*
X176236779Y-92581723D02*
X176189160Y-92391247D01*
X176189160Y-92391247D02*
X176189160Y-92248390D01*
X176189160Y-92248390D02*
X176236779Y-92057914D01*
X176236779Y-92057914D02*
X176284398Y-91962676D01*
X176284398Y-91962676D02*
X176379636Y-91867438D01*
X176379636Y-91867438D02*
X176522493Y-91819819D01*
X176522493Y-91819819D02*
X176617731Y-91819819D01*
X176617731Y-91819819D02*
X176760588Y-91867438D01*
X176760588Y-91867438D02*
X176808207Y-91915057D01*
X177808207Y-92724580D02*
X177760588Y-92772200D01*
X177760588Y-92772200D02*
X177617731Y-92819819D01*
X177617731Y-92819819D02*
X177522493Y-92819819D01*
X177522493Y-92819819D02*
X177379636Y-92772200D01*
X177379636Y-92772200D02*
X177284398Y-92676961D01*
X177284398Y-92676961D02*
X177236779Y-92581723D01*
X177236779Y-92581723D02*
X177189160Y-92391247D01*
X177189160Y-92391247D02*
X177189160Y-92248390D01*
X177189160Y-92248390D02*
X177236779Y-92057914D01*
X177236779Y-92057914D02*
X177284398Y-91962676D01*
X177284398Y-91962676D02*
X177379636Y-91867438D01*
X177379636Y-91867438D02*
X177522493Y-91819819D01*
X177522493Y-91819819D02*
X177617731Y-91819819D01*
X177617731Y-91819819D02*
X177760588Y-91867438D01*
X177760588Y-91867438D02*
X177808207Y-91915057D01*
X179332017Y-92296009D02*
X179474874Y-92343628D01*
X179474874Y-92343628D02*
X179522493Y-92391247D01*
X179522493Y-92391247D02*
X179570112Y-92486485D01*
X179570112Y-92486485D02*
X179570112Y-92629342D01*
X179570112Y-92629342D02*
X179522493Y-92724580D01*
X179522493Y-92724580D02*
X179474874Y-92772200D01*
X179474874Y-92772200D02*
X179379636Y-92819819D01*
X179379636Y-92819819D02*
X178998684Y-92819819D01*
X178998684Y-92819819D02*
X178998684Y-91819819D01*
X178998684Y-91819819D02*
X179332017Y-91819819D01*
X179332017Y-91819819D02*
X179427255Y-91867438D01*
X179427255Y-91867438D02*
X179474874Y-91915057D01*
X179474874Y-91915057D02*
X179522493Y-92010295D01*
X179522493Y-92010295D02*
X179522493Y-92105533D01*
X179522493Y-92105533D02*
X179474874Y-92200771D01*
X179474874Y-92200771D02*
X179427255Y-92248390D01*
X179427255Y-92248390D02*
X179332017Y-92296009D01*
X179332017Y-92296009D02*
X178998684Y-92296009D01*
X180189160Y-92343628D02*
X180189160Y-92819819D01*
X179855827Y-91819819D02*
X180189160Y-92343628D01*
X180189160Y-92343628D02*
X180522493Y-91819819D01*
X180855827Y-92438866D02*
X181617732Y-92438866D01*
X182093922Y-92819819D02*
X182093922Y-91819819D01*
X182093922Y-91819819D02*
X182665350Y-92819819D01*
X182665350Y-92819819D02*
X182665350Y-91819819D01*
X183712969Y-92724580D02*
X183665350Y-92772200D01*
X183665350Y-92772200D02*
X183522493Y-92819819D01*
X183522493Y-92819819D02*
X183427255Y-92819819D01*
X183427255Y-92819819D02*
X183284398Y-92772200D01*
X183284398Y-92772200D02*
X183189160Y-92676961D01*
X183189160Y-92676961D02*
X183141541Y-92581723D01*
X183141541Y-92581723D02*
X183093922Y-92391247D01*
X183093922Y-92391247D02*
X183093922Y-92248390D01*
X183093922Y-92248390D02*
X183141541Y-92057914D01*
X183141541Y-92057914D02*
X183189160Y-91962676D01*
X183189160Y-91962676D02*
X183284398Y-91867438D01*
X183284398Y-91867438D02*
X183427255Y-91819819D01*
X183427255Y-91819819D02*
X183522493Y-91819819D01*
X183522493Y-91819819D02*
X183665350Y-91867438D01*
X183665350Y-91867438D02*
X183712969Y-91915057D01*
X184141541Y-92438866D02*
X184903446Y-92438866D01*
X185332017Y-92772200D02*
X185474874Y-92819819D01*
X185474874Y-92819819D02*
X185712969Y-92819819D01*
X185712969Y-92819819D02*
X185808207Y-92772200D01*
X185808207Y-92772200D02*
X185855826Y-92724580D01*
X185855826Y-92724580D02*
X185903445Y-92629342D01*
X185903445Y-92629342D02*
X185903445Y-92534104D01*
X185903445Y-92534104D02*
X185855826Y-92438866D01*
X185855826Y-92438866D02*
X185808207Y-92391247D01*
X185808207Y-92391247D02*
X185712969Y-92343628D01*
X185712969Y-92343628D02*
X185522493Y-92296009D01*
X185522493Y-92296009D02*
X185427255Y-92248390D01*
X185427255Y-92248390D02*
X185379636Y-92200771D01*
X185379636Y-92200771D02*
X185332017Y-92105533D01*
X185332017Y-92105533D02*
X185332017Y-92010295D01*
X185332017Y-92010295D02*
X185379636Y-91915057D01*
X185379636Y-91915057D02*
X185427255Y-91867438D01*
X185427255Y-91867438D02*
X185522493Y-91819819D01*
X185522493Y-91819819D02*
X185760588Y-91819819D01*
X185760588Y-91819819D02*
X185903445Y-91867438D01*
X186284398Y-92534104D02*
X186760588Y-92534104D01*
X186189160Y-92819819D02*
X186522493Y-91819819D01*
X186522493Y-91819819D02*
X186855826Y-92819819D01*
X188379636Y-92153152D02*
X188379636Y-92819819D01*
X188141541Y-91772200D02*
X187903446Y-92486485D01*
X187903446Y-92486485D02*
X188522493Y-92486485D01*
X188903446Y-92724580D02*
X188951065Y-92772200D01*
X188951065Y-92772200D02*
X188903446Y-92819819D01*
X188903446Y-92819819D02*
X188855827Y-92772200D01*
X188855827Y-92772200D02*
X188903446Y-92724580D01*
X188903446Y-92724580D02*
X188903446Y-92819819D01*
X189570112Y-91819819D02*
X189665350Y-91819819D01*
X189665350Y-91819819D02*
X189760588Y-91867438D01*
X189760588Y-91867438D02*
X189808207Y-91915057D01*
X189808207Y-91915057D02*
X189855826Y-92010295D01*
X189855826Y-92010295D02*
X189903445Y-92200771D01*
X189903445Y-92200771D02*
X189903445Y-92438866D01*
X189903445Y-92438866D02*
X189855826Y-92629342D01*
X189855826Y-92629342D02*
X189808207Y-92724580D01*
X189808207Y-92724580D02*
X189760588Y-92772200D01*
X189760588Y-92772200D02*
X189665350Y-92819819D01*
X189665350Y-92819819D02*
X189570112Y-92819819D01*
X189570112Y-92819819D02*
X189474874Y-92772200D01*
X189474874Y-92772200D02*
X189427255Y-92724580D01*
X189427255Y-92724580D02*
X189379636Y-92629342D01*
X189379636Y-92629342D02*
X189332017Y-92438866D01*
X189332017Y-92438866D02*
X189332017Y-92200771D01*
X189332017Y-92200771D02*
X189379636Y-92010295D01*
X189379636Y-92010295D02*
X189427255Y-91915057D01*
X189427255Y-91915057D02*
X189474874Y-91867438D01*
X189474874Y-91867438D02*
X189570112Y-91819819D01*
X180386009Y-83853220D02*
X180386009Y-83519887D01*
X180909819Y-83377030D02*
X180909819Y-83853220D01*
X180909819Y-83853220D02*
X179909819Y-83853220D01*
X179909819Y-83853220D02*
X179909819Y-83377030D01*
X180909819Y-83043696D02*
X180243152Y-82519887D01*
X180243152Y-83043696D02*
X180909819Y-82519887D01*
X180243152Y-82281791D02*
X180243152Y-81900839D01*
X179909819Y-82138934D02*
X180766961Y-82138934D01*
X180766961Y-82138934D02*
X180862200Y-82091315D01*
X180862200Y-82091315D02*
X180909819Y-81996077D01*
X180909819Y-81996077D02*
X180909819Y-81900839D01*
X180862200Y-81186553D02*
X180909819Y-81281791D01*
X180909819Y-81281791D02*
X180909819Y-81472267D01*
X180909819Y-81472267D02*
X180862200Y-81567505D01*
X180862200Y-81567505D02*
X180766961Y-81615124D01*
X180766961Y-81615124D02*
X180386009Y-81615124D01*
X180386009Y-81615124D02*
X180290771Y-81567505D01*
X180290771Y-81567505D02*
X180243152Y-81472267D01*
X180243152Y-81472267D02*
X180243152Y-81281791D01*
X180243152Y-81281791D02*
X180290771Y-81186553D01*
X180290771Y-81186553D02*
X180386009Y-81138934D01*
X180386009Y-81138934D02*
X180481247Y-81138934D01*
X180481247Y-81138934D02*
X180576485Y-81615124D01*
X180909819Y-80710362D02*
X180243152Y-80710362D01*
X180433628Y-80710362D02*
X180338390Y-80662743D01*
X180338390Y-80662743D02*
X180290771Y-80615124D01*
X180290771Y-80615124D02*
X180243152Y-80519886D01*
X180243152Y-80519886D02*
X180243152Y-80424648D01*
X180243152Y-80091314D02*
X180909819Y-80091314D01*
X180338390Y-80091314D02*
X180290771Y-80043695D01*
X180290771Y-80043695D02*
X180243152Y-79948457D01*
X180243152Y-79948457D02*
X180243152Y-79805600D01*
X180243152Y-79805600D02*
X180290771Y-79710362D01*
X180290771Y-79710362D02*
X180386009Y-79662743D01*
X180386009Y-79662743D02*
X180909819Y-79662743D01*
X180909819Y-78757981D02*
X180386009Y-78757981D01*
X180386009Y-78757981D02*
X180290771Y-78805600D01*
X180290771Y-78805600D02*
X180243152Y-78900838D01*
X180243152Y-78900838D02*
X180243152Y-79091314D01*
X180243152Y-79091314D02*
X180290771Y-79186552D01*
X180862200Y-78757981D02*
X180909819Y-78853219D01*
X180909819Y-78853219D02*
X180909819Y-79091314D01*
X180909819Y-79091314D02*
X180862200Y-79186552D01*
X180862200Y-79186552D02*
X180766961Y-79234171D01*
X180766961Y-79234171D02*
X180671723Y-79234171D01*
X180671723Y-79234171D02*
X180576485Y-79186552D01*
X180576485Y-79186552D02*
X180528866Y-79091314D01*
X180528866Y-79091314D02*
X180528866Y-78853219D01*
X180528866Y-78853219D02*
X180481247Y-78757981D01*
X180909819Y-78138933D02*
X180862200Y-78234171D01*
X180862200Y-78234171D02*
X180766961Y-78281790D01*
X180766961Y-78281790D02*
X179909819Y-78281790D01*
X179909819Y-76996075D02*
X180719342Y-76996075D01*
X180719342Y-76996075D02*
X180814580Y-76948456D01*
X180814580Y-76948456D02*
X180862200Y-76900837D01*
X180862200Y-76900837D02*
X180909819Y-76805599D01*
X180909819Y-76805599D02*
X180909819Y-76615123D01*
X180909819Y-76615123D02*
X180862200Y-76519885D01*
X180862200Y-76519885D02*
X180814580Y-76472266D01*
X180814580Y-76472266D02*
X180719342Y-76424647D01*
X180719342Y-76424647D02*
X179909819Y-76424647D01*
X180862200Y-75996075D02*
X180909819Y-75853218D01*
X180909819Y-75853218D02*
X180909819Y-75615123D01*
X180909819Y-75615123D02*
X180862200Y-75519885D01*
X180862200Y-75519885D02*
X180814580Y-75472266D01*
X180814580Y-75472266D02*
X180719342Y-75424647D01*
X180719342Y-75424647D02*
X180624104Y-75424647D01*
X180624104Y-75424647D02*
X180528866Y-75472266D01*
X180528866Y-75472266D02*
X180481247Y-75519885D01*
X180481247Y-75519885D02*
X180433628Y-75615123D01*
X180433628Y-75615123D02*
X180386009Y-75805599D01*
X180386009Y-75805599D02*
X180338390Y-75900837D01*
X180338390Y-75900837D02*
X180290771Y-75948456D01*
X180290771Y-75948456D02*
X180195533Y-75996075D01*
X180195533Y-75996075D02*
X180100295Y-75996075D01*
X180100295Y-75996075D02*
X180005057Y-75948456D01*
X180005057Y-75948456D02*
X179957438Y-75900837D01*
X179957438Y-75900837D02*
X179909819Y-75805599D01*
X179909819Y-75805599D02*
X179909819Y-75567504D01*
X179909819Y-75567504D02*
X179957438Y-75424647D01*
X180386009Y-74662742D02*
X180433628Y-74519885D01*
X180433628Y-74519885D02*
X180481247Y-74472266D01*
X180481247Y-74472266D02*
X180576485Y-74424647D01*
X180576485Y-74424647D02*
X180719342Y-74424647D01*
X180719342Y-74424647D02*
X180814580Y-74472266D01*
X180814580Y-74472266D02*
X180862200Y-74519885D01*
X180862200Y-74519885D02*
X180909819Y-74615123D01*
X180909819Y-74615123D02*
X180909819Y-74996075D01*
X180909819Y-74996075D02*
X179909819Y-74996075D01*
X179909819Y-74996075D02*
X179909819Y-74662742D01*
X179909819Y-74662742D02*
X179957438Y-74567504D01*
X179957438Y-74567504D02*
X180005057Y-74519885D01*
X180005057Y-74519885D02*
X180100295Y-74472266D01*
X180100295Y-74472266D02*
X180195533Y-74472266D01*
X180195533Y-74472266D02*
X180290771Y-74519885D01*
X180290771Y-74519885D02*
X180338390Y-74567504D01*
X180338390Y-74567504D02*
X180386009Y-74662742D01*
X180386009Y-74662742D02*
X180386009Y-74996075D01*
X180528866Y-73996075D02*
X180528866Y-73234171D01*
X180814580Y-72186552D02*
X180862200Y-72234171D01*
X180862200Y-72234171D02*
X180909819Y-72377028D01*
X180909819Y-72377028D02*
X180909819Y-72472266D01*
X180909819Y-72472266D02*
X180862200Y-72615123D01*
X180862200Y-72615123D02*
X180766961Y-72710361D01*
X180766961Y-72710361D02*
X180671723Y-72757980D01*
X180671723Y-72757980D02*
X180481247Y-72805599D01*
X180481247Y-72805599D02*
X180338390Y-72805599D01*
X180338390Y-72805599D02*
X180147914Y-72757980D01*
X180147914Y-72757980D02*
X180052676Y-72710361D01*
X180052676Y-72710361D02*
X179957438Y-72615123D01*
X179957438Y-72615123D02*
X179909819Y-72472266D01*
X179909819Y-72472266D02*
X179909819Y-72377028D01*
X179909819Y-72377028D02*
X179957438Y-72234171D01*
X179957438Y-72234171D02*
X180005057Y-72186552D01*
X182519819Y-83853220D02*
X181519819Y-83853220D01*
X181519819Y-83853220D02*
X181519819Y-83472268D01*
X181519819Y-83472268D02*
X181567438Y-83377030D01*
X181567438Y-83377030D02*
X181615057Y-83329411D01*
X181615057Y-83329411D02*
X181710295Y-83281792D01*
X181710295Y-83281792D02*
X181853152Y-83281792D01*
X181853152Y-83281792D02*
X181948390Y-83329411D01*
X181948390Y-83329411D02*
X181996009Y-83377030D01*
X181996009Y-83377030D02*
X182043628Y-83472268D01*
X182043628Y-83472268D02*
X182043628Y-83853220D01*
X182519819Y-82710363D02*
X182472200Y-82805601D01*
X182472200Y-82805601D02*
X182424580Y-82853220D01*
X182424580Y-82853220D02*
X182329342Y-82900839D01*
X182329342Y-82900839D02*
X182043628Y-82900839D01*
X182043628Y-82900839D02*
X181948390Y-82853220D01*
X181948390Y-82853220D02*
X181900771Y-82805601D01*
X181900771Y-82805601D02*
X181853152Y-82710363D01*
X181853152Y-82710363D02*
X181853152Y-82567506D01*
X181853152Y-82567506D02*
X181900771Y-82472268D01*
X181900771Y-82472268D02*
X181948390Y-82424649D01*
X181948390Y-82424649D02*
X182043628Y-82377030D01*
X182043628Y-82377030D02*
X182329342Y-82377030D01*
X182329342Y-82377030D02*
X182424580Y-82424649D01*
X182424580Y-82424649D02*
X182472200Y-82472268D01*
X182472200Y-82472268D02*
X182519819Y-82567506D01*
X182519819Y-82567506D02*
X182519819Y-82710363D01*
X181853152Y-82043696D02*
X182519819Y-81853220D01*
X182519819Y-81853220D02*
X182043628Y-81662744D01*
X182043628Y-81662744D02*
X182519819Y-81472268D01*
X182519819Y-81472268D02*
X181853152Y-81281792D01*
X182472200Y-80519887D02*
X182519819Y-80615125D01*
X182519819Y-80615125D02*
X182519819Y-80805601D01*
X182519819Y-80805601D02*
X182472200Y-80900839D01*
X182472200Y-80900839D02*
X182376961Y-80948458D01*
X182376961Y-80948458D02*
X181996009Y-80948458D01*
X181996009Y-80948458D02*
X181900771Y-80900839D01*
X181900771Y-80900839D02*
X181853152Y-80805601D01*
X181853152Y-80805601D02*
X181853152Y-80615125D01*
X181853152Y-80615125D02*
X181900771Y-80519887D01*
X181900771Y-80519887D02*
X181996009Y-80472268D01*
X181996009Y-80472268D02*
X182091247Y-80472268D01*
X182091247Y-80472268D02*
X182186485Y-80948458D01*
X182519819Y-80043696D02*
X181853152Y-80043696D01*
X182043628Y-80043696D02*
X181948390Y-79996077D01*
X181948390Y-79996077D02*
X181900771Y-79948458D01*
X181900771Y-79948458D02*
X181853152Y-79853220D01*
X181853152Y-79853220D02*
X181853152Y-79757982D01*
X181519819Y-78519886D02*
X181757914Y-78519886D01*
X181662676Y-78757981D02*
X181757914Y-78519886D01*
X181757914Y-78519886D02*
X181662676Y-78281791D01*
X181948390Y-78662743D02*
X181757914Y-78519886D01*
X181757914Y-78519886D02*
X181948390Y-78377029D01*
X182519819Y-77329410D02*
X182043628Y-77662743D01*
X182519819Y-77900838D02*
X181519819Y-77900838D01*
X181519819Y-77900838D02*
X181519819Y-77519886D01*
X181519819Y-77519886D02*
X181567438Y-77424648D01*
X181567438Y-77424648D02*
X181615057Y-77377029D01*
X181615057Y-77377029D02*
X181710295Y-77329410D01*
X181710295Y-77329410D02*
X181853152Y-77329410D01*
X181853152Y-77329410D02*
X181948390Y-77377029D01*
X181948390Y-77377029D02*
X181996009Y-77424648D01*
X181996009Y-77424648D02*
X182043628Y-77519886D01*
X182043628Y-77519886D02*
X182043628Y-77900838D01*
X182472200Y-76519886D02*
X182519819Y-76615124D01*
X182519819Y-76615124D02*
X182519819Y-76805600D01*
X182519819Y-76805600D02*
X182472200Y-76900838D01*
X182472200Y-76900838D02*
X182376961Y-76948457D01*
X182376961Y-76948457D02*
X181996009Y-76948457D01*
X181996009Y-76948457D02*
X181900771Y-76900838D01*
X181900771Y-76900838D02*
X181853152Y-76805600D01*
X181853152Y-76805600D02*
X181853152Y-76615124D01*
X181853152Y-76615124D02*
X181900771Y-76519886D01*
X181900771Y-76519886D02*
X181996009Y-76472267D01*
X181996009Y-76472267D02*
X182091247Y-76472267D01*
X182091247Y-76472267D02*
X182186485Y-76948457D01*
X181853152Y-75615124D02*
X182853152Y-75615124D01*
X182472200Y-75615124D02*
X182519819Y-75710362D01*
X182519819Y-75710362D02*
X182519819Y-75900838D01*
X182519819Y-75900838D02*
X182472200Y-75996076D01*
X182472200Y-75996076D02*
X182424580Y-76043695D01*
X182424580Y-76043695D02*
X182329342Y-76091314D01*
X182329342Y-76091314D02*
X182043628Y-76091314D01*
X182043628Y-76091314D02*
X181948390Y-76043695D01*
X181948390Y-76043695D02*
X181900771Y-75996076D01*
X181900771Y-75996076D02*
X181853152Y-75900838D01*
X181853152Y-75900838D02*
X181853152Y-75710362D01*
X181853152Y-75710362D02*
X181900771Y-75615124D01*
X181853152Y-74710362D02*
X182519819Y-74710362D01*
X181853152Y-75138933D02*
X182376961Y-75138933D01*
X182376961Y-75138933D02*
X182472200Y-75091314D01*
X182472200Y-75091314D02*
X182519819Y-74996076D01*
X182519819Y-74996076D02*
X182519819Y-74853219D01*
X182519819Y-74853219D02*
X182472200Y-74757981D01*
X182472200Y-74757981D02*
X182424580Y-74710362D01*
X182519819Y-74234171D02*
X181853152Y-74234171D01*
X181519819Y-74234171D02*
X181567438Y-74281790D01*
X181567438Y-74281790D02*
X181615057Y-74234171D01*
X181615057Y-74234171D02*
X181567438Y-74186552D01*
X181567438Y-74186552D02*
X181519819Y-74234171D01*
X181519819Y-74234171D02*
X181615057Y-74234171D01*
X182519819Y-73757981D02*
X181853152Y-73757981D01*
X182043628Y-73757981D02*
X181948390Y-73710362D01*
X181948390Y-73710362D02*
X181900771Y-73662743D01*
X181900771Y-73662743D02*
X181853152Y-73567505D01*
X181853152Y-73567505D02*
X181853152Y-73472267D01*
X182472200Y-72757981D02*
X182519819Y-72853219D01*
X182519819Y-72853219D02*
X182519819Y-73043695D01*
X182519819Y-73043695D02*
X182472200Y-73138933D01*
X182472200Y-73138933D02*
X182376961Y-73186552D01*
X182376961Y-73186552D02*
X181996009Y-73186552D01*
X181996009Y-73186552D02*
X181900771Y-73138933D01*
X181900771Y-73138933D02*
X181853152Y-73043695D01*
X181853152Y-73043695D02*
X181853152Y-72853219D01*
X181853152Y-72853219D02*
X181900771Y-72757981D01*
X181900771Y-72757981D02*
X181996009Y-72710362D01*
X181996009Y-72710362D02*
X182091247Y-72710362D01*
X182091247Y-72710362D02*
X182186485Y-73186552D01*
X182519819Y-71853219D02*
X181519819Y-71853219D01*
X182472200Y-71853219D02*
X182519819Y-71948457D01*
X182519819Y-71948457D02*
X182519819Y-72138933D01*
X182519819Y-72138933D02*
X182472200Y-72234171D01*
X182472200Y-72234171D02*
X182424580Y-72281790D01*
X182424580Y-72281790D02*
X182329342Y-72329409D01*
X182329342Y-72329409D02*
X182043628Y-72329409D01*
X182043628Y-72329409D02*
X181948390Y-72281790D01*
X181948390Y-72281790D02*
X181900771Y-72234171D01*
X181900771Y-72234171D02*
X181853152Y-72138933D01*
X181853152Y-72138933D02*
X181853152Y-71948457D01*
X181853152Y-71948457D02*
X181900771Y-71853219D01*
X181519819Y-71234171D02*
X181757914Y-71234171D01*
X181662676Y-71472266D02*
X181757914Y-71234171D01*
X181757914Y-71234171D02*
X181662676Y-70996076D01*
X181948390Y-71377028D02*
X181757914Y-71234171D01*
X181757914Y-71234171D02*
X181948390Y-71091314D01*
X173380951Y-98069819D02*
X173952379Y-98069819D01*
X173666665Y-99069819D02*
X173666665Y-98069819D01*
X174666665Y-99022200D02*
X174571427Y-99069819D01*
X174571427Y-99069819D02*
X174380951Y-99069819D01*
X174380951Y-99069819D02*
X174285713Y-99022200D01*
X174285713Y-99022200D02*
X174238094Y-98926961D01*
X174238094Y-98926961D02*
X174238094Y-98546009D01*
X174238094Y-98546009D02*
X174285713Y-98450771D01*
X174285713Y-98450771D02*
X174380951Y-98403152D01*
X174380951Y-98403152D02*
X174571427Y-98403152D01*
X174571427Y-98403152D02*
X174666665Y-98450771D01*
X174666665Y-98450771D02*
X174714284Y-98546009D01*
X174714284Y-98546009D02*
X174714284Y-98641247D01*
X174714284Y-98641247D02*
X174238094Y-98736485D01*
X175571427Y-99022200D02*
X175476189Y-99069819D01*
X175476189Y-99069819D02*
X175285713Y-99069819D01*
X175285713Y-99069819D02*
X175190475Y-99022200D01*
X175190475Y-99022200D02*
X175142856Y-98974580D01*
X175142856Y-98974580D02*
X175095237Y-98879342D01*
X175095237Y-98879342D02*
X175095237Y-98593628D01*
X175095237Y-98593628D02*
X175142856Y-98498390D01*
X175142856Y-98498390D02*
X175190475Y-98450771D01*
X175190475Y-98450771D02*
X175285713Y-98403152D01*
X175285713Y-98403152D02*
X175476189Y-98403152D01*
X175476189Y-98403152D02*
X175571427Y-98450771D01*
X175999999Y-99069819D02*
X175999999Y-98069819D01*
X176428570Y-99069819D02*
X176428570Y-98546009D01*
X176428570Y-98546009D02*
X176380951Y-98450771D01*
X176380951Y-98450771D02*
X176285713Y-98403152D01*
X176285713Y-98403152D02*
X176142856Y-98403152D01*
X176142856Y-98403152D02*
X176047618Y-98450771D01*
X176047618Y-98450771D02*
X175999999Y-98498390D01*
X177666666Y-99069819D02*
X177666666Y-98069819D01*
X177666666Y-98450771D02*
X177761904Y-98403152D01*
X177761904Y-98403152D02*
X177952380Y-98403152D01*
X177952380Y-98403152D02*
X178047618Y-98450771D01*
X178047618Y-98450771D02*
X178095237Y-98498390D01*
X178095237Y-98498390D02*
X178142856Y-98593628D01*
X178142856Y-98593628D02*
X178142856Y-98879342D01*
X178142856Y-98879342D02*
X178095237Y-98974580D01*
X178095237Y-98974580D02*
X178047618Y-99022200D01*
X178047618Y-99022200D02*
X177952380Y-99069819D01*
X177952380Y-99069819D02*
X177761904Y-99069819D01*
X177761904Y-99069819D02*
X177666666Y-99022200D01*
X178476190Y-98403152D02*
X178714285Y-99069819D01*
X178952380Y-98403152D02*
X178714285Y-99069819D01*
X178714285Y-99069819D02*
X178619047Y-99307914D01*
X178619047Y-99307914D02*
X178571428Y-99355533D01*
X178571428Y-99355533D02*
X178476190Y-99403152D01*
X180047619Y-98784104D02*
X180523809Y-98784104D01*
X179952381Y-99069819D02*
X180285714Y-98069819D01*
X180285714Y-98069819D02*
X180619047Y-99069819D01*
X180952381Y-98403152D02*
X180952381Y-99069819D01*
X180952381Y-98498390D02*
X181000000Y-98450771D01*
X181000000Y-98450771D02*
X181095238Y-98403152D01*
X181095238Y-98403152D02*
X181238095Y-98403152D01*
X181238095Y-98403152D02*
X181333333Y-98450771D01*
X181333333Y-98450771D02*
X181380952Y-98546009D01*
X181380952Y-98546009D02*
X181380952Y-99069819D01*
X182285714Y-99069819D02*
X182285714Y-98069819D01*
X182285714Y-99022200D02*
X182190476Y-99069819D01*
X182190476Y-99069819D02*
X182000000Y-99069819D01*
X182000000Y-99069819D02*
X181904762Y-99022200D01*
X181904762Y-99022200D02*
X181857143Y-98974580D01*
X181857143Y-98974580D02*
X181809524Y-98879342D01*
X181809524Y-98879342D02*
X181809524Y-98593628D01*
X181809524Y-98593628D02*
X181857143Y-98498390D01*
X181857143Y-98498390D02*
X181904762Y-98450771D01*
X181904762Y-98450771D02*
X182000000Y-98403152D01*
X182000000Y-98403152D02*
X182190476Y-98403152D01*
X182190476Y-98403152D02*
X182285714Y-98450771D01*
X182761905Y-99069819D02*
X182761905Y-98403152D01*
X182761905Y-98593628D02*
X182809524Y-98498390D01*
X182809524Y-98498390D02*
X182857143Y-98450771D01*
X182857143Y-98450771D02*
X182952381Y-98403152D01*
X182952381Y-98403152D02*
X183047619Y-98403152D01*
X183523810Y-99069819D02*
X183428572Y-99022200D01*
X183428572Y-99022200D02*
X183380953Y-98974580D01*
X183380953Y-98974580D02*
X183333334Y-98879342D01*
X183333334Y-98879342D02*
X183333334Y-98593628D01*
X183333334Y-98593628D02*
X183380953Y-98498390D01*
X183380953Y-98498390D02*
X183428572Y-98450771D01*
X183428572Y-98450771D02*
X183523810Y-98403152D01*
X183523810Y-98403152D02*
X183666667Y-98403152D01*
X183666667Y-98403152D02*
X183761905Y-98450771D01*
X183761905Y-98450771D02*
X183809524Y-98498390D01*
X183809524Y-98498390D02*
X183857143Y-98593628D01*
X183857143Y-98593628D02*
X183857143Y-98879342D01*
X183857143Y-98879342D02*
X183809524Y-98974580D01*
X183809524Y-98974580D02*
X183761905Y-99022200D01*
X183761905Y-99022200D02*
X183666667Y-99069819D01*
X183666667Y-99069819D02*
X183523810Y-99069819D01*
X184714286Y-99069819D02*
X184714286Y-98069819D01*
X184714286Y-99022200D02*
X184619048Y-99069819D01*
X184619048Y-99069819D02*
X184428572Y-99069819D01*
X184428572Y-99069819D02*
X184333334Y-99022200D01*
X184333334Y-99022200D02*
X184285715Y-98974580D01*
X184285715Y-98974580D02*
X184238096Y-98879342D01*
X184238096Y-98879342D02*
X184238096Y-98593628D01*
X184238096Y-98593628D02*
X184285715Y-98498390D01*
X184285715Y-98498390D02*
X184333334Y-98450771D01*
X184333334Y-98450771D02*
X184428572Y-98403152D01*
X184428572Y-98403152D02*
X184619048Y-98403152D01*
X184619048Y-98403152D02*
X184714286Y-98450771D01*
X185619048Y-99069819D02*
X185619048Y-98546009D01*
X185619048Y-98546009D02*
X185571429Y-98450771D01*
X185571429Y-98450771D02*
X185476191Y-98403152D01*
X185476191Y-98403152D02*
X185285715Y-98403152D01*
X185285715Y-98403152D02*
X185190477Y-98450771D01*
X185619048Y-99022200D02*
X185523810Y-99069819D01*
X185523810Y-99069819D02*
X185285715Y-99069819D01*
X185285715Y-99069819D02*
X185190477Y-99022200D01*
X185190477Y-99022200D02*
X185142858Y-98926961D01*
X185142858Y-98926961D02*
X185142858Y-98831723D01*
X185142858Y-98831723D02*
X185190477Y-98736485D01*
X185190477Y-98736485D02*
X185285715Y-98688866D01*
X185285715Y-98688866D02*
X185523810Y-98688866D01*
X185523810Y-98688866D02*
X185619048Y-98641247D01*
X186142858Y-99022200D02*
X186142858Y-99069819D01*
X186142858Y-99069819D02*
X186095239Y-99165057D01*
X186095239Y-99165057D02*
X186047620Y-99212676D01*
X187809524Y-99069819D02*
X187333334Y-99069819D01*
X187333334Y-99069819D02*
X187333334Y-98069819D01*
X188619048Y-99069819D02*
X188142858Y-99069819D01*
X188142858Y-99069819D02*
X188142858Y-98069819D01*
X189523810Y-98974580D02*
X189476191Y-99022200D01*
X189476191Y-99022200D02*
X189333334Y-99069819D01*
X189333334Y-99069819D02*
X189238096Y-99069819D01*
X189238096Y-99069819D02*
X189095239Y-99022200D01*
X189095239Y-99022200D02*
X189000001Y-98926961D01*
X189000001Y-98926961D02*
X188952382Y-98831723D01*
X188952382Y-98831723D02*
X188904763Y-98641247D01*
X188904763Y-98641247D02*
X188904763Y-98498390D01*
X188904763Y-98498390D02*
X188952382Y-98307914D01*
X188952382Y-98307914D02*
X189000001Y-98212676D01*
X189000001Y-98212676D02*
X189095239Y-98117438D01*
X189095239Y-98117438D02*
X189238096Y-98069819D01*
X189238096Y-98069819D02*
X189333334Y-98069819D01*
X189333334Y-98069819D02*
X189476191Y-98117438D01*
X189476191Y-98117438D02*
X189523810Y-98165057D01*
X175809523Y-100679819D02*
X175809523Y-99679819D01*
X175809523Y-99679819D02*
X176380951Y-100679819D01*
X176380951Y-100679819D02*
X176380951Y-99679819D01*
X176999999Y-100679819D02*
X176904761Y-100632200D01*
X176904761Y-100632200D02*
X176857142Y-100584580D01*
X176857142Y-100584580D02*
X176809523Y-100489342D01*
X176809523Y-100489342D02*
X176809523Y-100203628D01*
X176809523Y-100203628D02*
X176857142Y-100108390D01*
X176857142Y-100108390D02*
X176904761Y-100060771D01*
X176904761Y-100060771D02*
X176999999Y-100013152D01*
X176999999Y-100013152D02*
X177142856Y-100013152D01*
X177142856Y-100013152D02*
X177238094Y-100060771D01*
X177238094Y-100060771D02*
X177285713Y-100108390D01*
X177285713Y-100108390D02*
X177333332Y-100203628D01*
X177333332Y-100203628D02*
X177333332Y-100489342D01*
X177333332Y-100489342D02*
X177285713Y-100584580D01*
X177285713Y-100584580D02*
X177238094Y-100632200D01*
X177238094Y-100632200D02*
X177142856Y-100679819D01*
X177142856Y-100679819D02*
X176999999Y-100679819D01*
X177666666Y-100013152D02*
X177904761Y-100679819D01*
X177904761Y-100679819D02*
X178142856Y-100013152D01*
X178904761Y-100632200D02*
X178809523Y-100679819D01*
X178809523Y-100679819D02*
X178619047Y-100679819D01*
X178619047Y-100679819D02*
X178523809Y-100632200D01*
X178523809Y-100632200D02*
X178476190Y-100536961D01*
X178476190Y-100536961D02*
X178476190Y-100156009D01*
X178476190Y-100156009D02*
X178523809Y-100060771D01*
X178523809Y-100060771D02*
X178619047Y-100013152D01*
X178619047Y-100013152D02*
X178809523Y-100013152D01*
X178809523Y-100013152D02*
X178904761Y-100060771D01*
X178904761Y-100060771D02*
X178952380Y-100156009D01*
X178952380Y-100156009D02*
X178952380Y-100251247D01*
X178952380Y-100251247D02*
X178476190Y-100346485D01*
X179380952Y-100679819D02*
X179380952Y-100013152D01*
X179380952Y-100108390D02*
X179428571Y-100060771D01*
X179428571Y-100060771D02*
X179523809Y-100013152D01*
X179523809Y-100013152D02*
X179666666Y-100013152D01*
X179666666Y-100013152D02*
X179761904Y-100060771D01*
X179761904Y-100060771D02*
X179809523Y-100156009D01*
X179809523Y-100156009D02*
X179809523Y-100679819D01*
X179809523Y-100156009D02*
X179857142Y-100060771D01*
X179857142Y-100060771D02*
X179952380Y-100013152D01*
X179952380Y-100013152D02*
X180095237Y-100013152D01*
X180095237Y-100013152D02*
X180190476Y-100060771D01*
X180190476Y-100060771D02*
X180238095Y-100156009D01*
X180238095Y-100156009D02*
X180238095Y-100679819D01*
X180714285Y-100679819D02*
X180714285Y-99679819D01*
X180714285Y-100060771D02*
X180809523Y-100013152D01*
X180809523Y-100013152D02*
X180999999Y-100013152D01*
X180999999Y-100013152D02*
X181095237Y-100060771D01*
X181095237Y-100060771D02*
X181142856Y-100108390D01*
X181142856Y-100108390D02*
X181190475Y-100203628D01*
X181190475Y-100203628D02*
X181190475Y-100489342D01*
X181190475Y-100489342D02*
X181142856Y-100584580D01*
X181142856Y-100584580D02*
X181095237Y-100632200D01*
X181095237Y-100632200D02*
X180999999Y-100679819D01*
X180999999Y-100679819D02*
X180809523Y-100679819D01*
X180809523Y-100679819D02*
X180714285Y-100632200D01*
X181999999Y-100632200D02*
X181904761Y-100679819D01*
X181904761Y-100679819D02*
X181714285Y-100679819D01*
X181714285Y-100679819D02*
X181619047Y-100632200D01*
X181619047Y-100632200D02*
X181571428Y-100536961D01*
X181571428Y-100536961D02*
X181571428Y-100156009D01*
X181571428Y-100156009D02*
X181619047Y-100060771D01*
X181619047Y-100060771D02*
X181714285Y-100013152D01*
X181714285Y-100013152D02*
X181904761Y-100013152D01*
X181904761Y-100013152D02*
X181999999Y-100060771D01*
X181999999Y-100060771D02*
X182047618Y-100156009D01*
X182047618Y-100156009D02*
X182047618Y-100251247D01*
X182047618Y-100251247D02*
X181571428Y-100346485D01*
X182476190Y-100679819D02*
X182476190Y-100013152D01*
X182476190Y-100203628D02*
X182523809Y-100108390D01*
X182523809Y-100108390D02*
X182571428Y-100060771D01*
X182571428Y-100060771D02*
X182666666Y-100013152D01*
X182666666Y-100013152D02*
X182761904Y-100013152D01*
X183809524Y-99775057D02*
X183857143Y-99727438D01*
X183857143Y-99727438D02*
X183952381Y-99679819D01*
X183952381Y-99679819D02*
X184190476Y-99679819D01*
X184190476Y-99679819D02*
X184285714Y-99727438D01*
X184285714Y-99727438D02*
X184333333Y-99775057D01*
X184333333Y-99775057D02*
X184380952Y-99870295D01*
X184380952Y-99870295D02*
X184380952Y-99965533D01*
X184380952Y-99965533D02*
X184333333Y-100108390D01*
X184333333Y-100108390D02*
X183761905Y-100679819D01*
X183761905Y-100679819D02*
X184380952Y-100679819D01*
X185000000Y-99679819D02*
X185095238Y-99679819D01*
X185095238Y-99679819D02*
X185190476Y-99727438D01*
X185190476Y-99727438D02*
X185238095Y-99775057D01*
X185238095Y-99775057D02*
X185285714Y-99870295D01*
X185285714Y-99870295D02*
X185333333Y-100060771D01*
X185333333Y-100060771D02*
X185333333Y-100298866D01*
X185333333Y-100298866D02*
X185285714Y-100489342D01*
X185285714Y-100489342D02*
X185238095Y-100584580D01*
X185238095Y-100584580D02*
X185190476Y-100632200D01*
X185190476Y-100632200D02*
X185095238Y-100679819D01*
X185095238Y-100679819D02*
X185000000Y-100679819D01*
X185000000Y-100679819D02*
X184904762Y-100632200D01*
X184904762Y-100632200D02*
X184857143Y-100584580D01*
X184857143Y-100584580D02*
X184809524Y-100489342D01*
X184809524Y-100489342D02*
X184761905Y-100298866D01*
X184761905Y-100298866D02*
X184761905Y-100060771D01*
X184761905Y-100060771D02*
X184809524Y-99870295D01*
X184809524Y-99870295D02*
X184857143Y-99775057D01*
X184857143Y-99775057D02*
X184904762Y-99727438D01*
X184904762Y-99727438D02*
X185000000Y-99679819D01*
X185714286Y-99775057D02*
X185761905Y-99727438D01*
X185761905Y-99727438D02*
X185857143Y-99679819D01*
X185857143Y-99679819D02*
X186095238Y-99679819D01*
X186095238Y-99679819D02*
X186190476Y-99727438D01*
X186190476Y-99727438D02*
X186238095Y-99775057D01*
X186238095Y-99775057D02*
X186285714Y-99870295D01*
X186285714Y-99870295D02*
X186285714Y-99965533D01*
X186285714Y-99965533D02*
X186238095Y-100108390D01*
X186238095Y-100108390D02*
X185666667Y-100679819D01*
X185666667Y-100679819D02*
X186285714Y-100679819D01*
X186619048Y-99679819D02*
X187238095Y-99679819D01*
X187238095Y-99679819D02*
X186904762Y-100060771D01*
X186904762Y-100060771D02*
X187047619Y-100060771D01*
X187047619Y-100060771D02*
X187142857Y-100108390D01*
X187142857Y-100108390D02*
X187190476Y-100156009D01*
X187190476Y-100156009D02*
X187238095Y-100251247D01*
X187238095Y-100251247D02*
X187238095Y-100489342D01*
X187238095Y-100489342D02*
X187190476Y-100584580D01*
X187190476Y-100584580D02*
X187142857Y-100632200D01*
X187142857Y-100632200D02*
X187047619Y-100679819D01*
X187047619Y-100679819D02*
X186761905Y-100679819D01*
X186761905Y-100679819D02*
X186666667Y-100632200D01*
X186666667Y-100632200D02*
X186619048Y-100584580D01*
X168394819Y-84616666D02*
X167918628Y-84949999D01*
X168394819Y-85188094D02*
X167394819Y-85188094D01*
X167394819Y-85188094D02*
X167394819Y-84807142D01*
X167394819Y-84807142D02*
X167442438Y-84711904D01*
X167442438Y-84711904D02*
X167490057Y-84664285D01*
X167490057Y-84664285D02*
X167585295Y-84616666D01*
X167585295Y-84616666D02*
X167728152Y-84616666D01*
X167728152Y-84616666D02*
X167823390Y-84664285D01*
X167823390Y-84664285D02*
X167871009Y-84711904D01*
X167871009Y-84711904D02*
X167918628Y-84807142D01*
X167918628Y-84807142D02*
X167918628Y-85188094D01*
X167394819Y-83711904D02*
X167394819Y-84188094D01*
X167394819Y-84188094D02*
X167871009Y-84235713D01*
X167871009Y-84235713D02*
X167823390Y-84188094D01*
X167823390Y-84188094D02*
X167775771Y-84092856D01*
X167775771Y-84092856D02*
X167775771Y-83854761D01*
X167775771Y-83854761D02*
X167823390Y-83759523D01*
X167823390Y-83759523D02*
X167871009Y-83711904D01*
X167871009Y-83711904D02*
X167966247Y-83664285D01*
X167966247Y-83664285D02*
X168204342Y-83664285D01*
X168204342Y-83664285D02*
X168299580Y-83711904D01*
X168299580Y-83711904D02*
X168347200Y-83759523D01*
X168347200Y-83759523D02*
X168394819Y-83854761D01*
X168394819Y-83854761D02*
X168394819Y-84092856D01*
X168394819Y-84092856D02*
X168347200Y-84188094D01*
X168347200Y-84188094D02*
X168299580Y-84235713D01*
X159039580Y-85356666D02*
X159087200Y-85404285D01*
X159087200Y-85404285D02*
X159134819Y-85547142D01*
X159134819Y-85547142D02*
X159134819Y-85642380D01*
X159134819Y-85642380D02*
X159087200Y-85785237D01*
X159087200Y-85785237D02*
X158991961Y-85880475D01*
X158991961Y-85880475D02*
X158896723Y-85928094D01*
X158896723Y-85928094D02*
X158706247Y-85975713D01*
X158706247Y-85975713D02*
X158563390Y-85975713D01*
X158563390Y-85975713D02*
X158372914Y-85928094D01*
X158372914Y-85928094D02*
X158277676Y-85880475D01*
X158277676Y-85880475D02*
X158182438Y-85785237D01*
X158182438Y-85785237D02*
X158134819Y-85642380D01*
X158134819Y-85642380D02*
X158134819Y-85547142D01*
X158134819Y-85547142D02*
X158182438Y-85404285D01*
X158182438Y-85404285D02*
X158230057Y-85356666D01*
X158134819Y-84451904D02*
X158134819Y-84928094D01*
X158134819Y-84928094D02*
X158611009Y-84975713D01*
X158611009Y-84975713D02*
X158563390Y-84928094D01*
X158563390Y-84928094D02*
X158515771Y-84832856D01*
X158515771Y-84832856D02*
X158515771Y-84594761D01*
X158515771Y-84594761D02*
X158563390Y-84499523D01*
X158563390Y-84499523D02*
X158611009Y-84451904D01*
X158611009Y-84451904D02*
X158706247Y-84404285D01*
X158706247Y-84404285D02*
X158944342Y-84404285D01*
X158944342Y-84404285D02*
X159039580Y-84451904D01*
X159039580Y-84451904D02*
X159087200Y-84499523D01*
X159087200Y-84499523D02*
X159134819Y-84594761D01*
X159134819Y-84594761D02*
X159134819Y-84832856D01*
X159134819Y-84832856D02*
X159087200Y-84928094D01*
X159087200Y-84928094D02*
X159039580Y-84975713D01*
X188364819Y-76732857D02*
X187888628Y-77066190D01*
X188364819Y-77304285D02*
X187364819Y-77304285D01*
X187364819Y-77304285D02*
X187364819Y-76923333D01*
X187364819Y-76923333D02*
X187412438Y-76828095D01*
X187412438Y-76828095D02*
X187460057Y-76780476D01*
X187460057Y-76780476D02*
X187555295Y-76732857D01*
X187555295Y-76732857D02*
X187698152Y-76732857D01*
X187698152Y-76732857D02*
X187793390Y-76780476D01*
X187793390Y-76780476D02*
X187841009Y-76828095D01*
X187841009Y-76828095D02*
X187888628Y-76923333D01*
X187888628Y-76923333D02*
X187888628Y-77304285D01*
X188364819Y-75780476D02*
X188364819Y-76351904D01*
X188364819Y-76066190D02*
X187364819Y-76066190D01*
X187364819Y-76066190D02*
X187507676Y-76161428D01*
X187507676Y-76161428D02*
X187602914Y-76256666D01*
X187602914Y-76256666D02*
X187650533Y-76351904D01*
X187460057Y-75399523D02*
X187412438Y-75351904D01*
X187412438Y-75351904D02*
X187364819Y-75256666D01*
X187364819Y-75256666D02*
X187364819Y-75018571D01*
X187364819Y-75018571D02*
X187412438Y-74923333D01*
X187412438Y-74923333D02*
X187460057Y-74875714D01*
X187460057Y-74875714D02*
X187555295Y-74828095D01*
X187555295Y-74828095D02*
X187650533Y-74828095D01*
X187650533Y-74828095D02*
X187793390Y-74875714D01*
X187793390Y-74875714D02*
X188364819Y-75447142D01*
X188364819Y-75447142D02*
X188364819Y-74828095D01*
X151854819Y-72303333D02*
X152569104Y-72303333D01*
X152569104Y-72303333D02*
X152711961Y-72350952D01*
X152711961Y-72350952D02*
X152807200Y-72446190D01*
X152807200Y-72446190D02*
X152854819Y-72589047D01*
X152854819Y-72589047D02*
X152854819Y-72684285D01*
X151854819Y-71350952D02*
X151854819Y-71827142D01*
X151854819Y-71827142D02*
X152331009Y-71874761D01*
X152331009Y-71874761D02*
X152283390Y-71827142D01*
X152283390Y-71827142D02*
X152235771Y-71731904D01*
X152235771Y-71731904D02*
X152235771Y-71493809D01*
X152235771Y-71493809D02*
X152283390Y-71398571D01*
X152283390Y-71398571D02*
X152331009Y-71350952D01*
X152331009Y-71350952D02*
X152426247Y-71303333D01*
X152426247Y-71303333D02*
X152664342Y-71303333D01*
X152664342Y-71303333D02*
X152759580Y-71350952D01*
X152759580Y-71350952D02*
X152807200Y-71398571D01*
X152807200Y-71398571D02*
X152854819Y-71493809D01*
X152854819Y-71493809D02*
X152854819Y-71731904D01*
X152854819Y-71731904D02*
X152807200Y-71827142D01*
X152807200Y-71827142D02*
X152759580Y-71874761D01*
X157614819Y-93756666D02*
X157138628Y-94089999D01*
X157614819Y-94328094D02*
X156614819Y-94328094D01*
X156614819Y-94328094D02*
X156614819Y-93947142D01*
X156614819Y-93947142D02*
X156662438Y-93851904D01*
X156662438Y-93851904D02*
X156710057Y-93804285D01*
X156710057Y-93804285D02*
X156805295Y-93756666D01*
X156805295Y-93756666D02*
X156948152Y-93756666D01*
X156948152Y-93756666D02*
X157043390Y-93804285D01*
X157043390Y-93804285D02*
X157091009Y-93851904D01*
X157091009Y-93851904D02*
X157138628Y-93947142D01*
X157138628Y-93947142D02*
X157138628Y-94328094D01*
X157043390Y-93185237D02*
X156995771Y-93280475D01*
X156995771Y-93280475D02*
X156948152Y-93328094D01*
X156948152Y-93328094D02*
X156852914Y-93375713D01*
X156852914Y-93375713D02*
X156805295Y-93375713D01*
X156805295Y-93375713D02*
X156710057Y-93328094D01*
X156710057Y-93328094D02*
X156662438Y-93280475D01*
X156662438Y-93280475D02*
X156614819Y-93185237D01*
X156614819Y-93185237D02*
X156614819Y-92994761D01*
X156614819Y-92994761D02*
X156662438Y-92899523D01*
X156662438Y-92899523D02*
X156710057Y-92851904D01*
X156710057Y-92851904D02*
X156805295Y-92804285D01*
X156805295Y-92804285D02*
X156852914Y-92804285D01*
X156852914Y-92804285D02*
X156948152Y-92851904D01*
X156948152Y-92851904D02*
X156995771Y-92899523D01*
X156995771Y-92899523D02*
X157043390Y-92994761D01*
X157043390Y-92994761D02*
X157043390Y-93185237D01*
X157043390Y-93185237D02*
X157091009Y-93280475D01*
X157091009Y-93280475D02*
X157138628Y-93328094D01*
X157138628Y-93328094D02*
X157233866Y-93375713D01*
X157233866Y-93375713D02*
X157424342Y-93375713D01*
X157424342Y-93375713D02*
X157519580Y-93328094D01*
X157519580Y-93328094D02*
X157567200Y-93280475D01*
X157567200Y-93280475D02*
X157614819Y-93185237D01*
X157614819Y-93185237D02*
X157614819Y-92994761D01*
X157614819Y-92994761D02*
X157567200Y-92899523D01*
X157567200Y-92899523D02*
X157519580Y-92851904D01*
X157519580Y-92851904D02*
X157424342Y-92804285D01*
X157424342Y-92804285D02*
X157233866Y-92804285D01*
X157233866Y-92804285D02*
X157138628Y-92851904D01*
X157138628Y-92851904D02*
X157091009Y-92899523D01*
X157091009Y-92899523D02*
X157043390Y-92994761D01*
X156673333Y-86739580D02*
X156625714Y-86787200D01*
X156625714Y-86787200D02*
X156482857Y-86834819D01*
X156482857Y-86834819D02*
X156387619Y-86834819D01*
X156387619Y-86834819D02*
X156244762Y-86787200D01*
X156244762Y-86787200D02*
X156149524Y-86691961D01*
X156149524Y-86691961D02*
X156101905Y-86596723D01*
X156101905Y-86596723D02*
X156054286Y-86406247D01*
X156054286Y-86406247D02*
X156054286Y-86263390D01*
X156054286Y-86263390D02*
X156101905Y-86072914D01*
X156101905Y-86072914D02*
X156149524Y-85977676D01*
X156149524Y-85977676D02*
X156244762Y-85882438D01*
X156244762Y-85882438D02*
X156387619Y-85834819D01*
X156387619Y-85834819D02*
X156482857Y-85834819D01*
X156482857Y-85834819D02*
X156625714Y-85882438D01*
X156625714Y-85882438D02*
X156673333Y-85930057D01*
X157625714Y-86834819D02*
X157054286Y-86834819D01*
X157340000Y-86834819D02*
X157340000Y-85834819D01*
X157340000Y-85834819D02*
X157244762Y-85977676D01*
X157244762Y-85977676D02*
X157149524Y-86072914D01*
X157149524Y-86072914D02*
X157054286Y-86120533D01*
X162497142Y-99924819D02*
X162163809Y-99448628D01*
X161925714Y-99924819D02*
X161925714Y-98924819D01*
X161925714Y-98924819D02*
X162306666Y-98924819D01*
X162306666Y-98924819D02*
X162401904Y-98972438D01*
X162401904Y-98972438D02*
X162449523Y-99020057D01*
X162449523Y-99020057D02*
X162497142Y-99115295D01*
X162497142Y-99115295D02*
X162497142Y-99258152D01*
X162497142Y-99258152D02*
X162449523Y-99353390D01*
X162449523Y-99353390D02*
X162401904Y-99401009D01*
X162401904Y-99401009D02*
X162306666Y-99448628D01*
X162306666Y-99448628D02*
X161925714Y-99448628D01*
X163449523Y-99924819D02*
X162878095Y-99924819D01*
X163163809Y-99924819D02*
X163163809Y-98924819D01*
X163163809Y-98924819D02*
X163068571Y-99067676D01*
X163068571Y-99067676D02*
X162973333Y-99162914D01*
X162973333Y-99162914D02*
X162878095Y-99210533D01*
X164068571Y-98924819D02*
X164163809Y-98924819D01*
X164163809Y-98924819D02*
X164259047Y-98972438D01*
X164259047Y-98972438D02*
X164306666Y-99020057D01*
X164306666Y-99020057D02*
X164354285Y-99115295D01*
X164354285Y-99115295D02*
X164401904Y-99305771D01*
X164401904Y-99305771D02*
X164401904Y-99543866D01*
X164401904Y-99543866D02*
X164354285Y-99734342D01*
X164354285Y-99734342D02*
X164306666Y-99829580D01*
X164306666Y-99829580D02*
X164259047Y-99877200D01*
X164259047Y-99877200D02*
X164163809Y-99924819D01*
X164163809Y-99924819D02*
X164068571Y-99924819D01*
X164068571Y-99924819D02*
X163973333Y-99877200D01*
X163973333Y-99877200D02*
X163925714Y-99829580D01*
X163925714Y-99829580D02*
X163878095Y-99734342D01*
X163878095Y-99734342D02*
X163830476Y-99543866D01*
X163830476Y-99543866D02*
X163830476Y-99305771D01*
X163830476Y-99305771D02*
X163878095Y-99115295D01*
X163878095Y-99115295D02*
X163925714Y-99020057D01*
X163925714Y-99020057D02*
X163973333Y-98972438D01*
X163973333Y-98972438D02*
X164068571Y-98924819D01*
X162183809Y-82758628D02*
X162183809Y-83234819D01*
X161850476Y-82234819D02*
X162183809Y-82758628D01*
X162183809Y-82758628D02*
X162517142Y-82234819D01*
X163374285Y-83234819D02*
X162802857Y-83234819D01*
X163088571Y-83234819D02*
X163088571Y-82234819D01*
X163088571Y-82234819D02*
X162993333Y-82377676D01*
X162993333Y-82377676D02*
X162898095Y-82472914D01*
X162898095Y-82472914D02*
X162802857Y-82520533D01*
X189561009Y-77143333D02*
X189561009Y-77476666D01*
X190084819Y-77476666D02*
X189084819Y-77476666D01*
X189084819Y-77476666D02*
X189084819Y-77000476D01*
X190084819Y-76095714D02*
X190084819Y-76667142D01*
X190084819Y-76381428D02*
X189084819Y-76381428D01*
X189084819Y-76381428D02*
X189227676Y-76476666D01*
X189227676Y-76476666D02*
X189322914Y-76571904D01*
X189322914Y-76571904D02*
X189370533Y-76667142D01*
X185761905Y-82594819D02*
X185761905Y-81594819D01*
X185761905Y-81594819D02*
X186000000Y-81594819D01*
X186000000Y-81594819D02*
X186142857Y-81642438D01*
X186142857Y-81642438D02*
X186238095Y-81737676D01*
X186238095Y-81737676D02*
X186285714Y-81832914D01*
X186285714Y-81832914D02*
X186333333Y-82023390D01*
X186333333Y-82023390D02*
X186333333Y-82166247D01*
X186333333Y-82166247D02*
X186285714Y-82356723D01*
X186285714Y-82356723D02*
X186238095Y-82451961D01*
X186238095Y-82451961D02*
X186142857Y-82547200D01*
X186142857Y-82547200D02*
X186000000Y-82594819D01*
X186000000Y-82594819D02*
X185761905Y-82594819D01*
X187285714Y-82594819D02*
X186714286Y-82594819D01*
X187000000Y-82594819D02*
X187000000Y-81594819D01*
X187000000Y-81594819D02*
X186904762Y-81737676D01*
X186904762Y-81737676D02*
X186809524Y-81832914D01*
X186809524Y-81832914D02*
X186714286Y-81880533D01*
X160549580Y-71072857D02*
X160597200Y-71120476D01*
X160597200Y-71120476D02*
X160644819Y-71263333D01*
X160644819Y-71263333D02*
X160644819Y-71358571D01*
X160644819Y-71358571D02*
X160597200Y-71501428D01*
X160597200Y-71501428D02*
X160501961Y-71596666D01*
X160501961Y-71596666D02*
X160406723Y-71644285D01*
X160406723Y-71644285D02*
X160216247Y-71691904D01*
X160216247Y-71691904D02*
X160073390Y-71691904D01*
X160073390Y-71691904D02*
X159882914Y-71644285D01*
X159882914Y-71644285D02*
X159787676Y-71596666D01*
X159787676Y-71596666D02*
X159692438Y-71501428D01*
X159692438Y-71501428D02*
X159644819Y-71358571D01*
X159644819Y-71358571D02*
X159644819Y-71263333D01*
X159644819Y-71263333D02*
X159692438Y-71120476D01*
X159692438Y-71120476D02*
X159740057Y-71072857D01*
X160644819Y-70120476D02*
X160644819Y-70691904D01*
X160644819Y-70406190D02*
X159644819Y-70406190D01*
X159644819Y-70406190D02*
X159787676Y-70501428D01*
X159787676Y-70501428D02*
X159882914Y-70596666D01*
X159882914Y-70596666D02*
X159930533Y-70691904D01*
X159644819Y-69501428D02*
X159644819Y-69406190D01*
X159644819Y-69406190D02*
X159692438Y-69310952D01*
X159692438Y-69310952D02*
X159740057Y-69263333D01*
X159740057Y-69263333D02*
X159835295Y-69215714D01*
X159835295Y-69215714D02*
X160025771Y-69168095D01*
X160025771Y-69168095D02*
X160263866Y-69168095D01*
X160263866Y-69168095D02*
X160454342Y-69215714D01*
X160454342Y-69215714D02*
X160549580Y-69263333D01*
X160549580Y-69263333D02*
X160597200Y-69310952D01*
X160597200Y-69310952D02*
X160644819Y-69406190D01*
X160644819Y-69406190D02*
X160644819Y-69501428D01*
X160644819Y-69501428D02*
X160597200Y-69596666D01*
X160597200Y-69596666D02*
X160549580Y-69644285D01*
X160549580Y-69644285D02*
X160454342Y-69691904D01*
X160454342Y-69691904D02*
X160263866Y-69739523D01*
X160263866Y-69739523D02*
X160025771Y-69739523D01*
X160025771Y-69739523D02*
X159835295Y-69691904D01*
X159835295Y-69691904D02*
X159740057Y-69644285D01*
X159740057Y-69644285D02*
X159692438Y-69596666D01*
X159692438Y-69596666D02*
X159644819Y-69501428D01*
X170449580Y-89506666D02*
X170497200Y-89554285D01*
X170497200Y-89554285D02*
X170544819Y-89697142D01*
X170544819Y-89697142D02*
X170544819Y-89792380D01*
X170544819Y-89792380D02*
X170497200Y-89935237D01*
X170497200Y-89935237D02*
X170401961Y-90030475D01*
X170401961Y-90030475D02*
X170306723Y-90078094D01*
X170306723Y-90078094D02*
X170116247Y-90125713D01*
X170116247Y-90125713D02*
X169973390Y-90125713D01*
X169973390Y-90125713D02*
X169782914Y-90078094D01*
X169782914Y-90078094D02*
X169687676Y-90030475D01*
X169687676Y-90030475D02*
X169592438Y-89935237D01*
X169592438Y-89935237D02*
X169544819Y-89792380D01*
X169544819Y-89792380D02*
X169544819Y-89697142D01*
X169544819Y-89697142D02*
X169592438Y-89554285D01*
X169592438Y-89554285D02*
X169640057Y-89506666D01*
X169544819Y-89173332D02*
X169544819Y-88554285D01*
X169544819Y-88554285D02*
X169925771Y-88887618D01*
X169925771Y-88887618D02*
X169925771Y-88744761D01*
X169925771Y-88744761D02*
X169973390Y-88649523D01*
X169973390Y-88649523D02*
X170021009Y-88601904D01*
X170021009Y-88601904D02*
X170116247Y-88554285D01*
X170116247Y-88554285D02*
X170354342Y-88554285D01*
X170354342Y-88554285D02*
X170449580Y-88601904D01*
X170449580Y-88601904D02*
X170497200Y-88649523D01*
X170497200Y-88649523D02*
X170544819Y-88744761D01*
X170544819Y-88744761D02*
X170544819Y-89030475D01*
X170544819Y-89030475D02*
X170497200Y-89125713D01*
X170497200Y-89125713D02*
X170449580Y-89173332D01*
X187114819Y-76732857D02*
X186638628Y-77066190D01*
X187114819Y-77304285D02*
X186114819Y-77304285D01*
X186114819Y-77304285D02*
X186114819Y-76923333D01*
X186114819Y-76923333D02*
X186162438Y-76828095D01*
X186162438Y-76828095D02*
X186210057Y-76780476D01*
X186210057Y-76780476D02*
X186305295Y-76732857D01*
X186305295Y-76732857D02*
X186448152Y-76732857D01*
X186448152Y-76732857D02*
X186543390Y-76780476D01*
X186543390Y-76780476D02*
X186591009Y-76828095D01*
X186591009Y-76828095D02*
X186638628Y-76923333D01*
X186638628Y-76923333D02*
X186638628Y-77304285D01*
X187114819Y-75780476D02*
X187114819Y-76351904D01*
X187114819Y-76066190D02*
X186114819Y-76066190D01*
X186114819Y-76066190D02*
X186257676Y-76161428D01*
X186257676Y-76161428D02*
X186352914Y-76256666D01*
X186352914Y-76256666D02*
X186400533Y-76351904D01*
X186114819Y-75447142D02*
X186114819Y-74828095D01*
X186114819Y-74828095D02*
X186495771Y-75161428D01*
X186495771Y-75161428D02*
X186495771Y-75018571D01*
X186495771Y-75018571D02*
X186543390Y-74923333D01*
X186543390Y-74923333D02*
X186591009Y-74875714D01*
X186591009Y-74875714D02*
X186686247Y-74828095D01*
X186686247Y-74828095D02*
X186924342Y-74828095D01*
X186924342Y-74828095D02*
X187019580Y-74875714D01*
X187019580Y-74875714D02*
X187067200Y-74923333D01*
X187067200Y-74923333D02*
X187114819Y-75018571D01*
X187114819Y-75018571D02*
X187114819Y-75304285D01*
X187114819Y-75304285D02*
X187067200Y-75399523D01*
X187067200Y-75399523D02*
X187019580Y-75447142D01*
X167489819Y-94361904D02*
X168299342Y-94361904D01*
X168299342Y-94361904D02*
X168394580Y-94314285D01*
X168394580Y-94314285D02*
X168442200Y-94266666D01*
X168442200Y-94266666D02*
X168489819Y-94171428D01*
X168489819Y-94171428D02*
X168489819Y-93980952D01*
X168489819Y-93980952D02*
X168442200Y-93885714D01*
X168442200Y-93885714D02*
X168394580Y-93838095D01*
X168394580Y-93838095D02*
X168299342Y-93790476D01*
X168299342Y-93790476D02*
X167489819Y-93790476D01*
X167585057Y-93361904D02*
X167537438Y-93314285D01*
X167537438Y-93314285D02*
X167489819Y-93219047D01*
X167489819Y-93219047D02*
X167489819Y-92980952D01*
X167489819Y-92980952D02*
X167537438Y-92885714D01*
X167537438Y-92885714D02*
X167585057Y-92838095D01*
X167585057Y-92838095D02*
X167680295Y-92790476D01*
X167680295Y-92790476D02*
X167775533Y-92790476D01*
X167775533Y-92790476D02*
X167918390Y-92838095D01*
X167918390Y-92838095D02*
X168489819Y-93409523D01*
X168489819Y-93409523D02*
X168489819Y-92790476D01*
X156593333Y-88199580D02*
X156545714Y-88247200D01*
X156545714Y-88247200D02*
X156402857Y-88294819D01*
X156402857Y-88294819D02*
X156307619Y-88294819D01*
X156307619Y-88294819D02*
X156164762Y-88247200D01*
X156164762Y-88247200D02*
X156069524Y-88151961D01*
X156069524Y-88151961D02*
X156021905Y-88056723D01*
X156021905Y-88056723D02*
X155974286Y-87866247D01*
X155974286Y-87866247D02*
X155974286Y-87723390D01*
X155974286Y-87723390D02*
X156021905Y-87532914D01*
X156021905Y-87532914D02*
X156069524Y-87437676D01*
X156069524Y-87437676D02*
X156164762Y-87342438D01*
X156164762Y-87342438D02*
X156307619Y-87294819D01*
X156307619Y-87294819D02*
X156402857Y-87294819D01*
X156402857Y-87294819D02*
X156545714Y-87342438D01*
X156545714Y-87342438D02*
X156593333Y-87390057D01*
X156974286Y-87390057D02*
X157021905Y-87342438D01*
X157021905Y-87342438D02*
X157117143Y-87294819D01*
X157117143Y-87294819D02*
X157355238Y-87294819D01*
X157355238Y-87294819D02*
X157450476Y-87342438D01*
X157450476Y-87342438D02*
X157498095Y-87390057D01*
X157498095Y-87390057D02*
X157545714Y-87485295D01*
X157545714Y-87485295D02*
X157545714Y-87580533D01*
X157545714Y-87580533D02*
X157498095Y-87723390D01*
X157498095Y-87723390D02*
X156926667Y-88294819D01*
X156926667Y-88294819D02*
X157545714Y-88294819D01*
X154463333Y-100034819D02*
X154130000Y-99558628D01*
X153891905Y-100034819D02*
X153891905Y-99034819D01*
X153891905Y-99034819D02*
X154272857Y-99034819D01*
X154272857Y-99034819D02*
X154368095Y-99082438D01*
X154368095Y-99082438D02*
X154415714Y-99130057D01*
X154415714Y-99130057D02*
X154463333Y-99225295D01*
X154463333Y-99225295D02*
X154463333Y-99368152D01*
X154463333Y-99368152D02*
X154415714Y-99463390D01*
X154415714Y-99463390D02*
X154368095Y-99511009D01*
X154368095Y-99511009D02*
X154272857Y-99558628D01*
X154272857Y-99558628D02*
X153891905Y-99558628D01*
X154796667Y-99034819D02*
X155415714Y-99034819D01*
X155415714Y-99034819D02*
X155082381Y-99415771D01*
X155082381Y-99415771D02*
X155225238Y-99415771D01*
X155225238Y-99415771D02*
X155320476Y-99463390D01*
X155320476Y-99463390D02*
X155368095Y-99511009D01*
X155368095Y-99511009D02*
X155415714Y-99606247D01*
X155415714Y-99606247D02*
X155415714Y-99844342D01*
X155415714Y-99844342D02*
X155368095Y-99939580D01*
X155368095Y-99939580D02*
X155320476Y-99987200D01*
X155320476Y-99987200D02*
X155225238Y-100034819D01*
X155225238Y-100034819D02*
X154939524Y-100034819D01*
X154939524Y-100034819D02*
X154844286Y-99987200D01*
X154844286Y-99987200D02*
X154796667Y-99939580D01*
X153043333Y-98739580D02*
X152995714Y-98787200D01*
X152995714Y-98787200D02*
X152852857Y-98834819D01*
X152852857Y-98834819D02*
X152757619Y-98834819D01*
X152757619Y-98834819D02*
X152614762Y-98787200D01*
X152614762Y-98787200D02*
X152519524Y-98691961D01*
X152519524Y-98691961D02*
X152471905Y-98596723D01*
X152471905Y-98596723D02*
X152424286Y-98406247D01*
X152424286Y-98406247D02*
X152424286Y-98263390D01*
X152424286Y-98263390D02*
X152471905Y-98072914D01*
X152471905Y-98072914D02*
X152519524Y-97977676D01*
X152519524Y-97977676D02*
X152614762Y-97882438D01*
X152614762Y-97882438D02*
X152757619Y-97834819D01*
X152757619Y-97834819D02*
X152852857Y-97834819D01*
X152852857Y-97834819D02*
X152995714Y-97882438D01*
X152995714Y-97882438D02*
X153043333Y-97930057D01*
X153614762Y-98263390D02*
X153519524Y-98215771D01*
X153519524Y-98215771D02*
X153471905Y-98168152D01*
X153471905Y-98168152D02*
X153424286Y-98072914D01*
X153424286Y-98072914D02*
X153424286Y-98025295D01*
X153424286Y-98025295D02*
X153471905Y-97930057D01*
X153471905Y-97930057D02*
X153519524Y-97882438D01*
X153519524Y-97882438D02*
X153614762Y-97834819D01*
X153614762Y-97834819D02*
X153805238Y-97834819D01*
X153805238Y-97834819D02*
X153900476Y-97882438D01*
X153900476Y-97882438D02*
X153948095Y-97930057D01*
X153948095Y-97930057D02*
X153995714Y-98025295D01*
X153995714Y-98025295D02*
X153995714Y-98072914D01*
X153995714Y-98072914D02*
X153948095Y-98168152D01*
X153948095Y-98168152D02*
X153900476Y-98215771D01*
X153900476Y-98215771D02*
X153805238Y-98263390D01*
X153805238Y-98263390D02*
X153614762Y-98263390D01*
X153614762Y-98263390D02*
X153519524Y-98311009D01*
X153519524Y-98311009D02*
X153471905Y-98358628D01*
X153471905Y-98358628D02*
X153424286Y-98453866D01*
X153424286Y-98453866D02*
X153424286Y-98644342D01*
X153424286Y-98644342D02*
X153471905Y-98739580D01*
X153471905Y-98739580D02*
X153519524Y-98787200D01*
X153519524Y-98787200D02*
X153614762Y-98834819D01*
X153614762Y-98834819D02*
X153805238Y-98834819D01*
X153805238Y-98834819D02*
X153900476Y-98787200D01*
X153900476Y-98787200D02*
X153948095Y-98739580D01*
X153948095Y-98739580D02*
X153995714Y-98644342D01*
X153995714Y-98644342D02*
X153995714Y-98453866D01*
X153995714Y-98453866D02*
X153948095Y-98358628D01*
X153948095Y-98358628D02*
X153900476Y-98311009D01*
X153900476Y-98311009D02*
X153805238Y-98263390D01*
X152144819Y-90716666D02*
X152144819Y-91192856D01*
X152144819Y-91192856D02*
X151144819Y-91192856D01*
X152144819Y-89859523D02*
X152144819Y-90430951D01*
X152144819Y-90145237D02*
X151144819Y-90145237D01*
X151144819Y-90145237D02*
X151287676Y-90240475D01*
X151287676Y-90240475D02*
X151382914Y-90335713D01*
X151382914Y-90335713D02*
X151430533Y-90430951D01*
X164913333Y-83169580D02*
X164865714Y-83217200D01*
X164865714Y-83217200D02*
X164722857Y-83264819D01*
X164722857Y-83264819D02*
X164627619Y-83264819D01*
X164627619Y-83264819D02*
X164484762Y-83217200D01*
X164484762Y-83217200D02*
X164389524Y-83121961D01*
X164389524Y-83121961D02*
X164341905Y-83026723D01*
X164341905Y-83026723D02*
X164294286Y-82836247D01*
X164294286Y-82836247D02*
X164294286Y-82693390D01*
X164294286Y-82693390D02*
X164341905Y-82502914D01*
X164341905Y-82502914D02*
X164389524Y-82407676D01*
X164389524Y-82407676D02*
X164484762Y-82312438D01*
X164484762Y-82312438D02*
X164627619Y-82264819D01*
X164627619Y-82264819D02*
X164722857Y-82264819D01*
X164722857Y-82264819D02*
X164865714Y-82312438D01*
X164865714Y-82312438D02*
X164913333Y-82360057D01*
X165770476Y-82264819D02*
X165580000Y-82264819D01*
X165580000Y-82264819D02*
X165484762Y-82312438D01*
X165484762Y-82312438D02*
X165437143Y-82360057D01*
X165437143Y-82360057D02*
X165341905Y-82502914D01*
X165341905Y-82502914D02*
X165294286Y-82693390D01*
X165294286Y-82693390D02*
X165294286Y-83074342D01*
X165294286Y-83074342D02*
X165341905Y-83169580D01*
X165341905Y-83169580D02*
X165389524Y-83217200D01*
X165389524Y-83217200D02*
X165484762Y-83264819D01*
X165484762Y-83264819D02*
X165675238Y-83264819D01*
X165675238Y-83264819D02*
X165770476Y-83217200D01*
X165770476Y-83217200D02*
X165818095Y-83169580D01*
X165818095Y-83169580D02*
X165865714Y-83074342D01*
X165865714Y-83074342D02*
X165865714Y-82836247D01*
X165865714Y-82836247D02*
X165818095Y-82741009D01*
X165818095Y-82741009D02*
X165770476Y-82693390D01*
X165770476Y-82693390D02*
X165675238Y-82645771D01*
X165675238Y-82645771D02*
X165484762Y-82645771D01*
X165484762Y-82645771D02*
X165389524Y-82693390D01*
X165389524Y-82693390D02*
X165341905Y-82741009D01*
X165341905Y-82741009D02*
X165294286Y-82836247D01*
X170484819Y-72303333D02*
X171199104Y-72303333D01*
X171199104Y-72303333D02*
X171341961Y-72350952D01*
X171341961Y-72350952D02*
X171437200Y-72446190D01*
X171437200Y-72446190D02*
X171484819Y-72589047D01*
X171484819Y-72589047D02*
X171484819Y-72684285D01*
X171484819Y-71303333D02*
X171484819Y-71874761D01*
X171484819Y-71589047D02*
X170484819Y-71589047D01*
X170484819Y-71589047D02*
X170627676Y-71684285D01*
X170627676Y-71684285D02*
X170722914Y-71779523D01*
X170722914Y-71779523D02*
X170770533Y-71874761D01*
X172863333Y-91589580D02*
X172815714Y-91637200D01*
X172815714Y-91637200D02*
X172672857Y-91684819D01*
X172672857Y-91684819D02*
X172577619Y-91684819D01*
X172577619Y-91684819D02*
X172434762Y-91637200D01*
X172434762Y-91637200D02*
X172339524Y-91541961D01*
X172339524Y-91541961D02*
X172291905Y-91446723D01*
X172291905Y-91446723D02*
X172244286Y-91256247D01*
X172244286Y-91256247D02*
X172244286Y-91113390D01*
X172244286Y-91113390D02*
X172291905Y-90922914D01*
X172291905Y-90922914D02*
X172339524Y-90827676D01*
X172339524Y-90827676D02*
X172434762Y-90732438D01*
X172434762Y-90732438D02*
X172577619Y-90684819D01*
X172577619Y-90684819D02*
X172672857Y-90684819D01*
X172672857Y-90684819D02*
X172815714Y-90732438D01*
X172815714Y-90732438D02*
X172863333Y-90780057D01*
X173196667Y-90684819D02*
X173863333Y-90684819D01*
X173863333Y-90684819D02*
X173434762Y-91684819D01*
X150063333Y-98669580D02*
X150015714Y-98717200D01*
X150015714Y-98717200D02*
X149872857Y-98764819D01*
X149872857Y-98764819D02*
X149777619Y-98764819D01*
X149777619Y-98764819D02*
X149634762Y-98717200D01*
X149634762Y-98717200D02*
X149539524Y-98621961D01*
X149539524Y-98621961D02*
X149491905Y-98526723D01*
X149491905Y-98526723D02*
X149444286Y-98336247D01*
X149444286Y-98336247D02*
X149444286Y-98193390D01*
X149444286Y-98193390D02*
X149491905Y-98002914D01*
X149491905Y-98002914D02*
X149539524Y-97907676D01*
X149539524Y-97907676D02*
X149634762Y-97812438D01*
X149634762Y-97812438D02*
X149777619Y-97764819D01*
X149777619Y-97764819D02*
X149872857Y-97764819D01*
X149872857Y-97764819D02*
X150015714Y-97812438D01*
X150015714Y-97812438D02*
X150063333Y-97860057D01*
X150539524Y-98764819D02*
X150730000Y-98764819D01*
X150730000Y-98764819D02*
X150825238Y-98717200D01*
X150825238Y-98717200D02*
X150872857Y-98669580D01*
X150872857Y-98669580D02*
X150968095Y-98526723D01*
X150968095Y-98526723D02*
X151015714Y-98336247D01*
X151015714Y-98336247D02*
X151015714Y-97955295D01*
X151015714Y-97955295D02*
X150968095Y-97860057D01*
X150968095Y-97860057D02*
X150920476Y-97812438D01*
X150920476Y-97812438D02*
X150825238Y-97764819D01*
X150825238Y-97764819D02*
X150634762Y-97764819D01*
X150634762Y-97764819D02*
X150539524Y-97812438D01*
X150539524Y-97812438D02*
X150491905Y-97860057D01*
X150491905Y-97860057D02*
X150444286Y-97955295D01*
X150444286Y-97955295D02*
X150444286Y-98193390D01*
X150444286Y-98193390D02*
X150491905Y-98288628D01*
X150491905Y-98288628D02*
X150539524Y-98336247D01*
X150539524Y-98336247D02*
X150634762Y-98383866D01*
X150634762Y-98383866D02*
X150825238Y-98383866D01*
X150825238Y-98383866D02*
X150920476Y-98336247D01*
X150920476Y-98336247D02*
X150968095Y-98288628D01*
X150968095Y-98288628D02*
X151015714Y-98193390D01*
X152534819Y-94186666D02*
X152058628Y-94519999D01*
X152534819Y-94758094D02*
X151534819Y-94758094D01*
X151534819Y-94758094D02*
X151534819Y-94377142D01*
X151534819Y-94377142D02*
X151582438Y-94281904D01*
X151582438Y-94281904D02*
X151630057Y-94234285D01*
X151630057Y-94234285D02*
X151725295Y-94186666D01*
X151725295Y-94186666D02*
X151868152Y-94186666D01*
X151868152Y-94186666D02*
X151963390Y-94234285D01*
X151963390Y-94234285D02*
X152011009Y-94281904D01*
X152011009Y-94281904D02*
X152058628Y-94377142D01*
X152058628Y-94377142D02*
X152058628Y-94758094D01*
X152534819Y-93710475D02*
X152534819Y-93519999D01*
X152534819Y-93519999D02*
X152487200Y-93424761D01*
X152487200Y-93424761D02*
X152439580Y-93377142D01*
X152439580Y-93377142D02*
X152296723Y-93281904D01*
X152296723Y-93281904D02*
X152106247Y-93234285D01*
X152106247Y-93234285D02*
X151725295Y-93234285D01*
X151725295Y-93234285D02*
X151630057Y-93281904D01*
X151630057Y-93281904D02*
X151582438Y-93329523D01*
X151582438Y-93329523D02*
X151534819Y-93424761D01*
X151534819Y-93424761D02*
X151534819Y-93615237D01*
X151534819Y-93615237D02*
X151582438Y-93710475D01*
X151582438Y-93710475D02*
X151630057Y-93758094D01*
X151630057Y-93758094D02*
X151725295Y-93805713D01*
X151725295Y-93805713D02*
X151963390Y-93805713D01*
X151963390Y-93805713D02*
X152058628Y-93758094D01*
X152058628Y-93758094D02*
X152106247Y-93710475D01*
X152106247Y-93710475D02*
X152153866Y-93615237D01*
X152153866Y-93615237D02*
X152153866Y-93424761D01*
X152153866Y-93424761D02*
X152106247Y-93329523D01*
X152106247Y-93329523D02*
X152058628Y-93281904D01*
X152058628Y-93281904D02*
X151963390Y-93234285D01*
D11*
%TO.C,R5*%
X167222500Y-84212742D02*
X167222500Y-84687258D01*
X166177500Y-84212742D02*
X166177500Y-84687258D01*
%TO.C,C5*%
X159610000Y-85307836D02*
X159610000Y-85092164D01*
X160330000Y-85307836D02*
X160330000Y-85092164D01*
%TO.C,R12*%
X188050000Y-73476359D02*
X188050000Y-73783641D01*
X187290000Y-73476359D02*
X187290000Y-73783641D01*
%TO.C,J5*%
X145703946Y-64940000D02*
X145703946Y-71790000D01*
X158963946Y-71790000D02*
X158963946Y-64940000D01*
X159583946Y-76020000D02*
X159083946Y-76520000D01*
X159083946Y-76520000D02*
X159583946Y-77020000D01*
X159583946Y-77020000D02*
X159583946Y-76020000D01*
X147433946Y-80590000D02*
X157233946Y-80590000D01*
%TO.C,R8*%
X155872500Y-93337742D02*
X155872500Y-93812258D01*
X154827500Y-93337742D02*
X154827500Y-93812258D01*
%TO.C,C1*%
X154201252Y-87125000D02*
X153678748Y-87125000D01*
X154201252Y-85655000D02*
X153678748Y-85655000D01*
%TO.C,R10*%
X160362258Y-99952500D02*
X159887742Y-99952500D01*
X160362258Y-98907500D02*
X159887742Y-98907500D01*
%TO.C,J2*%
X175320000Y-97760000D02*
X183000000Y-97760000D01*
X175320000Y-97760000D02*
X175320000Y-95100000D01*
X183000000Y-97760000D02*
X183000000Y-95100000D01*
X172720000Y-96430000D02*
X172720000Y-95100000D01*
X172720000Y-95100000D02*
X174050000Y-95100000D01*
X175320000Y-95100000D02*
X183000000Y-95100000D01*
%TO.C,J7*%
X191930000Y-68960000D02*
X191930000Y-66960000D01*
X191930000Y-65060000D02*
X191930000Y-63160000D01*
X191930000Y-63160000D02*
X182530000Y-63160000D01*
X182530000Y-68960000D02*
X182530000Y-66960000D01*
X182530000Y-65060000D02*
X182530000Y-63160000D01*
%TO.C,Y1*%
X160660000Y-83580000D02*
X160660000Y-86880000D01*
X160660000Y-86880000D02*
X164660000Y-86880000D01*
%TO.C,F1*%
X190380000Y-74041422D02*
X190380000Y-74558578D01*
X188960000Y-74041422D02*
X188960000Y-74558578D01*
%TO.C,D1*%
X182990000Y-77950000D02*
X182990000Y-81250000D01*
X182990000Y-77950000D02*
X188500000Y-77950000D01*
X182990000Y-81250000D02*
X188500000Y-81250000D01*
%TO.C,C10*%
X161135000Y-70691252D02*
X161135000Y-70168748D01*
X162605000Y-70691252D02*
X162605000Y-70168748D01*
%TO.C,C3*%
X169145000Y-89078748D02*
X169145000Y-89601252D01*
X167675000Y-89078748D02*
X167675000Y-89601252D01*
%TO.C,R13*%
X186200000Y-73793641D02*
X186200000Y-73486359D01*
X186960000Y-73793641D02*
X186960000Y-73486359D01*
D10*
%TO.C,U2*%
X167110000Y-90725000D02*
X166535000Y-90725000D01*
X167110000Y-90725000D02*
X167110000Y-96475000D01*
X166535000Y-90725000D02*
X166535000Y-89125000D01*
X156460000Y-90725000D02*
X157110000Y-90725000D01*
X156460000Y-90725000D02*
X156460000Y-96475000D01*
X167110000Y-96475000D02*
X166460000Y-96475000D01*
X156460000Y-96475000D02*
X157110000Y-96475000D01*
D11*
%TO.C,C2*%
X154201252Y-89295000D02*
X153678748Y-89295000D01*
X154201252Y-87825000D02*
X153678748Y-87825000D01*
%TO.C,R3*%
X157322258Y-99952500D02*
X156847742Y-99952500D01*
X157322258Y-98907500D02*
X156847742Y-98907500D01*
%TO.C,C8*%
X155895000Y-96608748D02*
X155895000Y-97131252D01*
X154425000Y-96608748D02*
X154425000Y-97131252D01*
%TO.C,L1*%
X153790378Y-89970000D02*
X154589622Y-89970000D01*
X153790378Y-91090000D02*
X154589622Y-91090000D01*
%TO.C,C6*%
X165050000Y-84547836D02*
X165050000Y-84332164D01*
X165770000Y-84547836D02*
X165770000Y-84332164D01*
%TO.C,J1*%
X164400000Y-64940000D02*
X164400000Y-71790000D01*
X177660000Y-71790000D02*
X177660000Y-64940000D01*
X178280000Y-76020000D02*
X177780000Y-76520000D01*
X177780000Y-76520000D02*
X178280000Y-77020000D01*
X178280000Y-77020000D02*
X178280000Y-76020000D01*
X166130000Y-80590000D02*
X175930000Y-80590000D01*
%TO.C,C7*%
X173301252Y-94035000D02*
X172778748Y-94035000D01*
X173301252Y-92565000D02*
X172778748Y-92565000D01*
%TO.C,C9*%
X152426252Y-97220000D02*
X151003748Y-97220000D01*
X152426252Y-95400000D02*
X151003748Y-95400000D01*
%TO.C,R9*%
X153187500Y-93812258D02*
X153187500Y-93337742D01*
X154232500Y-93812258D02*
X154232500Y-93337742D01*
%TD*%
M02*
