%TF.GenerationSoftware,KiCad,Pcbnew,7.0.10-7.0.10~ubuntu22.04.1*%
%TF.CreationDate,2024-01-13T04:47:39-07:00*%
%TF.ProjectId,HIDHopper_Hub_Hat,48494448-6f70-4706-9572-5f4875625f48,rev?*%
%TF.SameCoordinates,Original*%
%TF.FileFunction,Copper,L1,Top*%
%TF.FilePolarity,Positive*%
%FSLAX46Y46*%
G04 Gerber Fmt 4.6, Leading zero omitted, Abs format (unit mm)*
G04 Created by KiCad (PCBNEW 7.0.10-7.0.10~ubuntu22.04.1) date 2024-01-13 04:47:39*
%MOMM*%
%LPD*%
G01*
G04 APERTURE LIST*
G04 Aperture macros list*
%AMRoundRect*
0 Rectangle with rounded corners*
0 $1 Rounding radius*
0 $2 $3 $4 $5 $6 $7 $8 $9 X,Y pos of 4 corners*
0 Add a 4 corners polygon primitive as box body*
4,1,4,$2,$3,$4,$5,$6,$7,$8,$9,$2,$3,0*
0 Add four circle primitives for the rounded corners*
1,1,$1+$1,$2,$3*
1,1,$1+$1,$4,$5*
1,1,$1+$1,$6,$7*
1,1,$1+$1,$8,$9*
0 Add four rect primitives between the rounded corners*
20,1,$1+$1,$2,$3,$4,$5,0*
20,1,$1+$1,$4,$5,$6,$7,0*
20,1,$1+$1,$6,$7,$8,$9,0*
20,1,$1+$1,$8,$9,$2,$3,0*%
G04 Aperture macros list end*
%TA.AperFunction,SMDPad,CuDef*%
%ADD10RoundRect,0.200000X-0.275000X0.200000X-0.275000X-0.200000X0.275000X-0.200000X0.275000X0.200000X0*%
%TD*%
%TA.AperFunction,SMDPad,CuDef*%
%ADD11RoundRect,0.140000X0.170000X-0.140000X0.170000X0.140000X-0.170000X0.140000X-0.170000X-0.140000X0*%
%TD*%
%TA.AperFunction,SMDPad,CuDef*%
%ADD12RoundRect,0.135000X-0.185000X0.135000X-0.185000X-0.135000X0.185000X-0.135000X0.185000X0.135000X0*%
%TD*%
%TA.AperFunction,ComponentPad*%
%ADD13R,1.500000X1.500000*%
%TD*%
%TA.AperFunction,ComponentPad*%
%ADD14C,1.500000*%
%TD*%
%TA.AperFunction,ComponentPad*%
%ADD15C,3.500000*%
%TD*%
%TA.AperFunction,SMDPad,CuDef*%
%ADD16RoundRect,0.250000X0.250000X0.475000X-0.250000X0.475000X-0.250000X-0.475000X0.250000X-0.475000X0*%
%TD*%
%TA.AperFunction,SMDPad,CuDef*%
%ADD17RoundRect,0.200000X0.200000X0.275000X-0.200000X0.275000X-0.200000X-0.275000X0.200000X-0.275000X0*%
%TD*%
%TA.AperFunction,ComponentPad*%
%ADD18R,1.700000X1.700000*%
%TD*%
%TA.AperFunction,ComponentPad*%
%ADD19O,1.700000X1.700000*%
%TD*%
%TA.AperFunction,SMDPad,CuDef*%
%ADD20R,0.600000X1.450000*%
%TD*%
%TA.AperFunction,SMDPad,CuDef*%
%ADD21R,0.300000X1.450000*%
%TD*%
%TA.AperFunction,ComponentPad*%
%ADD22O,1.000000X2.100000*%
%TD*%
%TA.AperFunction,ComponentPad*%
%ADD23O,1.000000X1.600000*%
%TD*%
%TA.AperFunction,SMDPad,CuDef*%
%ADD24R,1.400000X1.200000*%
%TD*%
%TA.AperFunction,SMDPad,CuDef*%
%ADD25RoundRect,0.243750X-0.456250X0.243750X-0.456250X-0.243750X0.456250X-0.243750X0.456250X0.243750X0*%
%TD*%
%TA.AperFunction,SMDPad,CuDef*%
%ADD26RoundRect,0.250000X-1.000000X-0.650000X1.000000X-0.650000X1.000000X0.650000X-1.000000X0.650000X0*%
%TD*%
%TA.AperFunction,SMDPad,CuDef*%
%ADD27RoundRect,0.250000X0.475000X-0.250000X0.475000X0.250000X-0.475000X0.250000X-0.475000X-0.250000X0*%
%TD*%
%TA.AperFunction,SMDPad,CuDef*%
%ADD28RoundRect,0.250000X-0.475000X0.250000X-0.475000X-0.250000X0.475000X-0.250000X0.475000X0.250000X0*%
%TD*%
%TA.AperFunction,SMDPad,CuDef*%
%ADD29RoundRect,0.135000X0.185000X-0.135000X0.185000X0.135000X-0.185000X0.135000X-0.185000X-0.135000X0*%
%TD*%
%TA.AperFunction,SMDPad,CuDef*%
%ADD30R,0.450000X1.750000*%
%TD*%
%TA.AperFunction,SMDPad,CuDef*%
%ADD31RoundRect,0.218750X-0.218750X-0.381250X0.218750X-0.381250X0.218750X0.381250X-0.218750X0.381250X0*%
%TD*%
%TA.AperFunction,SMDPad,CuDef*%
%ADD32RoundRect,0.250000X0.325000X0.650000X-0.325000X0.650000X-0.325000X-0.650000X0.325000X-0.650000X0*%
%TD*%
%TA.AperFunction,SMDPad,CuDef*%
%ADD33RoundRect,0.200000X0.275000X-0.200000X0.275000X0.200000X-0.275000X0.200000X-0.275000X-0.200000X0*%
%TD*%
%TA.AperFunction,ViaPad*%
%ADD34C,0.600000*%
%TD*%
%TA.AperFunction,ViaPad*%
%ADD35C,0.800000*%
%TD*%
%TA.AperFunction,Conductor*%
%ADD36C,0.200000*%
%TD*%
%TA.AperFunction,Conductor*%
%ADD37C,0.500000*%
%TD*%
%TA.AperFunction,Conductor*%
%ADD38C,0.330000*%
%TD*%
%TA.AperFunction,Conductor*%
%ADD39C,0.250000*%
%TD*%
%TA.AperFunction,Conductor*%
%ADD40C,0.750000*%
%TD*%
G04 APERTURE END LIST*
D10*
%TO.P,R5,1*%
%TO.N,GND*%
X166700000Y-83625000D03*
%TO.P,R5,2*%
%TO.N,Net-(U2-RREF)*%
X166700000Y-85275000D03*
%TD*%
D11*
%TO.P,C5,1*%
%TO.N,Net-(U2-X2)*%
X159970000Y-85680000D03*
%TO.P,C5,2*%
%TO.N,GND*%
X159970000Y-84720000D03*
%TD*%
D12*
%TO.P,R12,1*%
%TO.N,Net-(J7-CC1)*%
X187670000Y-73120000D03*
%TO.P,R12,2*%
%TO.N,GND*%
X187670000Y-74140000D03*
%TD*%
D13*
%TO.P,J5,1,VBUS1*%
%TO.N,HUB_5v*%
X155833946Y-76520000D03*
D14*
%TO.P,J5,2,D1-*%
%TO.N,P3-*%
X153333946Y-76520000D03*
%TO.P,J5,3,D1+*%
%TO.N,P3+*%
X151333946Y-76520000D03*
%TO.P,J5,4,GND1*%
%TO.N,GND*%
X148833946Y-76520000D03*
%TO.P,J5,5,VBUS2*%
%TO.N,HUB_5v*%
X155833946Y-79140000D03*
%TO.P,J5,6,D2-*%
%TO.N,P4-*%
X153333946Y-79140000D03*
%TO.P,J5,7,D2+*%
%TO.N,P4+*%
X151333946Y-79140000D03*
%TO.P,J5,8,GND2*%
%TO.N,GND*%
X148833946Y-79140000D03*
D15*
%TO.P,J5,9,Shield*%
X158903946Y-73810000D03*
X145763946Y-73810000D03*
X158903946Y-79490000D03*
X145763946Y-79490000D03*
%TD*%
D10*
%TO.P,R8,1*%
%TO.N,GND*%
X155350000Y-92750000D03*
%TO.P,R8,2*%
%TO.N,Net-(U2-PSELF)*%
X155350000Y-94400000D03*
%TD*%
D16*
%TO.P,C1,1*%
%TO.N,AVDD*%
X154890000Y-86390000D03*
%TO.P,C1,2*%
%TO.N,GND*%
X152990000Y-86390000D03*
%TD*%
D17*
%TO.P,R10,1*%
%TO.N,Net-(U2-OVCUR1#)*%
X160950000Y-99430000D03*
%TO.P,R10,2*%
%TO.N,+3.3V*%
X159300000Y-99430000D03*
%TD*%
D18*
%TO.P,J2,1,Pin_1*%
%TO.N,HUB_5v*%
X174050000Y-96430000D03*
D19*
%TO.P,J2,2,Pin_2*%
%TO.N,USB_M_-*%
X176590000Y-96430000D03*
%TO.P,J2,3,Pin_3*%
%TO.N,USB_M_+*%
X179130000Y-96430000D03*
%TO.P,J2,4,Pin_4*%
%TO.N,GND*%
X181670000Y-96430000D03*
%TD*%
D20*
%TO.P,J7,A1,GND*%
%TO.N,GND*%
X190480000Y-71105000D03*
%TO.P,J7,A4,VBUS*%
%TO.N,BPI*%
X189680000Y-71105000D03*
D21*
%TO.P,J7,A5,CC1*%
%TO.N,Net-(J7-CC1)*%
X188480000Y-71105000D03*
%TO.P,J7,A6,D+*%
%TO.N,unconnected-(J7-D+-PadA6)*%
X187480000Y-71105000D03*
%TO.P,J7,A7,D-*%
%TO.N,unconnected-(J7-D--PadA7)*%
X186980000Y-71105000D03*
%TO.P,J7,A8,SBU1*%
%TO.N,unconnected-(J7-SBU1-PadA8)*%
X185980000Y-71105000D03*
D20*
%TO.P,J7,A9,VBUS*%
%TO.N,BPI*%
X184780000Y-71105000D03*
%TO.P,J7,A12,GND*%
%TO.N,GND*%
X183980000Y-71105000D03*
%TO.P,J7,B1,GND*%
X183980000Y-71105000D03*
%TO.P,J7,B4,VBUS*%
%TO.N,BPI*%
X184780000Y-71105000D03*
D21*
%TO.P,J7,B5,CC2*%
%TO.N,Net-(J7-CC2)*%
X185480000Y-71105000D03*
%TO.P,J7,B6,D+*%
%TO.N,unconnected-(J7-D+-PadB6)*%
X186480000Y-71105000D03*
%TO.P,J7,B7,D-*%
%TO.N,unconnected-(J7-D--PadB7)*%
X187980000Y-71105000D03*
%TO.P,J7,B8,SBU2*%
%TO.N,unconnected-(J7-SBU2-PadB8)*%
X188980000Y-71105000D03*
D20*
%TO.P,J7,B9,VBUS*%
%TO.N,BPI*%
X189680000Y-71105000D03*
%TO.P,J7,B12,GND*%
%TO.N,GND*%
X190480000Y-71105000D03*
D22*
%TO.P,J7,S1,SHIELD*%
X191550000Y-70190000D03*
D23*
X191550000Y-66010000D03*
D22*
X182910000Y-70190000D03*
D23*
X182910000Y-66010000D03*
%TD*%
D24*
%TO.P,Y1,1,1*%
%TO.N,Net-(U2-X2)*%
X161560000Y-86080000D03*
%TO.P,Y1,2,2*%
%TO.N,GND*%
X163760000Y-86080000D03*
%TO.P,Y1,3,3*%
%TO.N,Net-(U2-X1)*%
X163760000Y-84380000D03*
%TO.P,Y1,4,4*%
%TO.N,GND*%
X161560000Y-84380000D03*
%TD*%
D25*
%TO.P,F1,1*%
%TO.N,BPI*%
X189670000Y-73362500D03*
%TO.P,F1,2*%
%TO.N,Net-(D1-A)*%
X189670000Y-75237500D03*
%TD*%
D26*
%TO.P,D1,1,K*%
%TO.N,HUB_5v*%
X184500000Y-79600000D03*
%TO.P,D1,2,A*%
%TO.N,Net-(D1-A)*%
X188500000Y-79600000D03*
%TD*%
D27*
%TO.P,C10,1*%
%TO.N,HUB_5v*%
X161870000Y-71380000D03*
%TO.P,C10,2*%
%TO.N,GND*%
X161870000Y-69480000D03*
%TD*%
D28*
%TO.P,C3,1*%
%TO.N,AVDD*%
X168410000Y-88390000D03*
%TO.P,C3,2*%
%TO.N,GND*%
X168410000Y-90290000D03*
%TD*%
D29*
%TO.P,R13,1*%
%TO.N,GND*%
X186580000Y-74150000D03*
%TO.P,R13,2*%
%TO.N,Net-(J7-CC2)*%
X186580000Y-73130000D03*
%TD*%
D30*
%TO.P,U2,1,AVDD*%
%TO.N,AVDD*%
X166010000Y-90000000D03*
%TO.P,U2,2,DM2*%
%TO.N,P2-*%
X165360000Y-90000000D03*
%TO.P,U2,3,DP2*%
%TO.N,P2+*%
X164710000Y-90000000D03*
%TO.P,U2,4,RREF*%
%TO.N,Net-(U2-RREF)*%
X164060000Y-90000000D03*
%TO.P,U2,5,AVDD*%
%TO.N,AVDD*%
X163410000Y-90000000D03*
%TO.P,U2,6,X1*%
%TO.N,Net-(U2-X1)*%
X162760000Y-90000000D03*
%TO.P,U2,7,X2*%
%TO.N,Net-(U2-X2)*%
X162110000Y-90000000D03*
%TO.P,U2,8,DM3*%
%TO.N,P3-*%
X161460000Y-90000000D03*
%TO.P,U2,9,DP3*%
%TO.N,P3+*%
X160810000Y-90000000D03*
%TO.P,U2,10,AVDD*%
%TO.N,AVDD*%
X160160000Y-90000000D03*
%TO.P,U2,11,DM4*%
%TO.N,P4-*%
X159510000Y-90000000D03*
%TO.P,U2,12,DP4*%
%TO.N,P4+*%
X158860000Y-90000000D03*
%TO.P,U2,13,RESET#*%
%TO.N,Net-(U2-RESET#)*%
X158210000Y-90000000D03*
%TO.P,U2,14,Test/SCL*%
%TO.N,GND*%
X157560000Y-90000000D03*
%TO.P,U2,15,GND*%
X157560000Y-97200000D03*
%TO.P,U2,16,DVDD*%
%TO.N,+3.3V*%
X158210000Y-97200000D03*
%TO.P,U2,17,PSELF*%
%TO.N,Net-(U2-PSELF)*%
X158860000Y-97200000D03*
%TO.P,U2,18,PGANG*%
%TO.N,Net-(U2-PGANG)*%
X159510000Y-97200000D03*
%TO.P,U2,19,OVCUR2#*%
%TO.N,unconnected-(U2-OVCUR2#-Pad19)*%
X160160000Y-97200000D03*
%TO.P,U2,20,PWREN2#*%
%TO.N,unconnected-(U2-PWREN2#-Pad20)*%
X160810000Y-97200000D03*
%TO.P,U2,21,OVCUR1#*%
%TO.N,Net-(U2-OVCUR1#)*%
X161460000Y-97200000D03*
%TO.P,U2,22,PWREN1#*%
%TO.N,unconnected-(U2-PWREN1#-Pad22)*%
X162110000Y-97200000D03*
%TO.P,U2,23,V5*%
%TO.N,HUB_5v*%
X162760000Y-97200000D03*
%TO.P,U2,24,V33*%
%TO.N,+3.3V*%
X163410000Y-97200000D03*
%TO.P,U2,25,DM0*%
%TO.N,USB_M_-*%
X164060000Y-97200000D03*
%TO.P,U2,26,DP0*%
%TO.N,USB_M_+*%
X164710000Y-97200000D03*
%TO.P,U2,27,DM1*%
%TO.N,P1-*%
X165360000Y-97200000D03*
%TO.P,U2,28,DP1*%
%TO.N,P1+*%
X166010000Y-97200000D03*
%TD*%
D16*
%TO.P,C2,1*%
%TO.N,AVDD*%
X154890000Y-88560000D03*
%TO.P,C2,2*%
%TO.N,GND*%
X152990000Y-88560000D03*
%TD*%
D17*
%TO.P,R3,1*%
%TO.N,Net-(U2-PGANG)*%
X157910000Y-99430000D03*
%TO.P,R3,2*%
%TO.N,+3.3V*%
X156260000Y-99430000D03*
%TD*%
D28*
%TO.P,C8,1*%
%TO.N,+3.3V*%
X155160000Y-95920000D03*
%TO.P,C8,2*%
%TO.N,GND*%
X155160000Y-97820000D03*
%TD*%
D31*
%TO.P,L1,1,1*%
%TO.N,+3.3V*%
X153127500Y-90530000D03*
%TO.P,L1,2,2*%
%TO.N,AVDD*%
X155252500Y-90530000D03*
%TD*%
D11*
%TO.P,C6,1*%
%TO.N,Net-(U2-X1)*%
X165410000Y-84920000D03*
%TO.P,C6,2*%
%TO.N,GND*%
X165410000Y-83960000D03*
%TD*%
D13*
%TO.P,J1,1,VBUS1*%
%TO.N,HUB_5v*%
X174530000Y-76520000D03*
D14*
%TO.P,J1,2,D1-*%
%TO.N,P1-*%
X172030000Y-76520000D03*
%TO.P,J1,3,D1+*%
%TO.N,P1+*%
X170030000Y-76520000D03*
%TO.P,J1,4,GND1*%
%TO.N,GND*%
X167530000Y-76520000D03*
%TO.P,J1,5,VBUS2*%
%TO.N,HUB_5v*%
X174530000Y-79140000D03*
%TO.P,J1,6,D2-*%
%TO.N,P2-*%
X172030000Y-79140000D03*
%TO.P,J1,7,D2+*%
%TO.N,P2+*%
X170030000Y-79140000D03*
%TO.P,J1,8,GND2*%
%TO.N,GND*%
X167530000Y-79140000D03*
D15*
%TO.P,J1,9,Shield*%
X177600000Y-73810000D03*
X164460000Y-73810000D03*
X177600000Y-79490000D03*
X164460000Y-79490000D03*
%TD*%
D16*
%TO.P,C7,1*%
%TO.N,HUB_5v*%
X173990000Y-93300000D03*
%TO.P,C7,2*%
%TO.N,GND*%
X172090000Y-93300000D03*
%TD*%
D32*
%TO.P,C9,1*%
%TO.N,+3.3V*%
X153190000Y-96310000D03*
%TO.P,C9,2*%
%TO.N,GND*%
X150240000Y-96310000D03*
%TD*%
D33*
%TO.P,R9,1*%
%TO.N,Net-(U2-PSELF)*%
X153710000Y-94400000D03*
%TO.P,R9,2*%
%TO.N,BPI*%
X153710000Y-92750000D03*
%TD*%
D34*
%TO.N,GND*%
X160510000Y-95420000D03*
X159950000Y-83420000D03*
X151560000Y-86350000D03*
X171740000Y-97760000D03*
X153010000Y-99250000D03*
X161520000Y-82850000D03*
X166750000Y-93550000D03*
X161860000Y-68090000D03*
X167280000Y-97850000D03*
X174760000Y-99630000D03*
X165270000Y-86090000D03*
X165420000Y-82890000D03*
X167080000Y-90250000D03*
X166760000Y-82280000D03*
X156830000Y-91290000D03*
X151520000Y-88530000D03*
X173630000Y-85130000D03*
X150230000Y-98110000D03*
X156350000Y-88920000D03*
D35*
X168830000Y-95490000D03*
D34*
X156410000Y-93540000D03*
X168380000Y-91430000D03*
X173950000Y-88850000D03*
X160330000Y-93520000D03*
%TO.N,Net-(U2-PSELF)*%
X154520000Y-94400000D03*
X158570000Y-95230000D03*
%TO.N,BPI*%
X152680000Y-92770000D03*
X191270000Y-75490000D03*
%TO.N,AVDD*%
X166555000Y-88400000D03*
X159790000Y-88350000D03*
X156260000Y-87510000D03*
X163385000Y-88290000D03*
X155480000Y-87500000D03*
D35*
%TO.N,P1-*%
X168400000Y-94360000D03*
%TO.N,P1+*%
X167645503Y-95059500D03*
D34*
%TO.N,USB_M_-*%
X173640000Y-99350000D03*
%TO.N,HUB_5v*%
X162750000Y-95470000D03*
%TD*%
D36*
%TO.N,GND*%
X157560000Y-91050000D02*
X158020000Y-91510000D01*
D37*
X173230000Y-78190000D02*
X172760000Y-77720000D01*
D38*
X190480000Y-72240000D02*
X191030000Y-72790000D01*
D37*
X173260000Y-75440000D02*
X173330000Y-75510000D01*
X169690000Y-74360000D02*
X172000000Y-74360000D01*
D39*
X150365000Y-96185000D02*
X150240000Y-96310000D01*
D37*
X167530000Y-79140000D02*
X166750000Y-79920000D01*
D38*
X175310000Y-95770000D02*
X175310000Y-95570000D01*
D36*
X157560000Y-90000000D02*
X157560000Y-91050000D01*
D38*
X190480000Y-71105000D02*
X190480000Y-72240000D01*
X175310000Y-95570000D02*
X176150000Y-94730000D01*
D36*
X158020000Y-91510000D02*
X166530000Y-91510000D01*
D37*
X173330000Y-77060000D02*
X173330000Y-80510000D01*
X173630000Y-85130000D02*
X173170000Y-84670000D01*
D38*
X175310000Y-97500000D02*
X175310000Y-96020000D01*
X183980000Y-72590000D02*
X183990000Y-72600000D01*
D37*
X173330000Y-75510000D02*
X173330000Y-77060000D01*
X173330000Y-80510000D02*
X173520000Y-80700000D01*
X148833946Y-79140000D02*
X148010000Y-79963946D01*
D38*
X183980000Y-71105000D02*
X183980000Y-72590000D01*
X157560000Y-90000000D02*
X157560000Y-90540000D01*
D37*
X148010000Y-79963946D02*
X148010000Y-80550000D01*
D38*
X157560000Y-90000000D02*
X157560000Y-88620000D01*
D37*
X172000000Y-74360000D02*
X172180000Y-74360000D01*
X172180000Y-74360000D02*
X173260000Y-75440000D01*
D38*
X155160000Y-97820000D02*
X156940000Y-97820000D01*
D37*
X173170000Y-81660000D02*
X173230000Y-81600000D01*
D38*
X175310000Y-95770000D02*
X175310000Y-95060000D01*
D37*
X173170000Y-84670000D02*
X173170000Y-81660000D01*
D36*
X157560000Y-91520000D02*
X157560000Y-91840000D01*
D38*
X156810000Y-91290000D02*
X155350000Y-92750000D01*
D40*
X152990000Y-87470000D02*
X152990000Y-88560000D01*
D37*
X172760000Y-77720000D02*
X169360000Y-77720000D01*
D38*
X171740000Y-97760000D02*
X175050000Y-97760000D01*
D40*
X152980000Y-87460000D02*
X152990000Y-87470000D01*
D38*
X156830000Y-91290000D02*
X156810000Y-91290000D01*
D37*
X173230000Y-81600000D02*
X173230000Y-78190000D01*
D40*
X152990000Y-86390000D02*
X152990000Y-87450000D01*
D38*
X157560000Y-90000000D02*
X157560000Y-91520000D01*
D40*
X152990000Y-87450000D02*
X152980000Y-87460000D01*
D37*
X167530000Y-76520000D02*
X169690000Y-74360000D01*
D38*
X175310000Y-96020000D02*
X175310000Y-95770000D01*
D37*
X169360000Y-77720000D02*
X169230000Y-77850000D01*
X166750000Y-79920000D02*
X166750000Y-80390000D01*
D38*
X157560000Y-90540000D02*
X156830000Y-91270000D01*
X175050000Y-97760000D02*
X175140000Y-97670000D01*
X157560000Y-88620000D02*
X157350000Y-88410000D01*
X156940000Y-97820000D02*
X157560000Y-97200000D01*
X175310000Y-95060000D02*
X175380000Y-94990000D01*
X156830000Y-91270000D02*
X156830000Y-91290000D01*
X175140000Y-97670000D02*
X175310000Y-97500000D01*
D37*
%TO.N,Net-(D1-A)*%
X189670000Y-78430000D02*
X188500000Y-79600000D01*
X189670000Y-75237500D02*
X189670000Y-78430000D01*
D36*
%TO.N,Net-(U2-PGANG)*%
X158690000Y-98650000D02*
X157910000Y-99430000D01*
X157560000Y-99670000D02*
X157560000Y-99430000D01*
X159135000Y-98650000D02*
X158690000Y-98650000D01*
X159510000Y-98275000D02*
X159135000Y-98650000D01*
X159510000Y-97200000D02*
X159510000Y-98275000D01*
D38*
%TO.N,+3.3V*%
X157790000Y-95790000D02*
X155720000Y-95790000D01*
D36*
X159300000Y-100310000D02*
X159320000Y-100330000D01*
D37*
X151930000Y-94210000D02*
X153640000Y-95920000D01*
D36*
X159300000Y-99430000D02*
X159300000Y-100310000D01*
X157885000Y-98600000D02*
X157090000Y-98600000D01*
X156260000Y-99430000D02*
X156260000Y-99840000D01*
D38*
X158210000Y-96210000D02*
X157790000Y-95790000D01*
D36*
X158210000Y-98275000D02*
X157885000Y-98600000D01*
D37*
X153640000Y-95920000D02*
X155160000Y-95920000D01*
D36*
X161740000Y-100330000D02*
X163410000Y-98660000D01*
D37*
X151930000Y-93020000D02*
X151930000Y-94210000D01*
D38*
X158210000Y-97200000D02*
X158210000Y-96210000D01*
X155720000Y-95790000D02*
X155700000Y-95770000D01*
D37*
X153127500Y-90530000D02*
X153127500Y-91092500D01*
D36*
X157090000Y-98600000D02*
X156260000Y-99430000D01*
X158210000Y-97200000D02*
X158210000Y-98275000D01*
D37*
X153127500Y-91092500D02*
X151930000Y-92290000D01*
D36*
X163410000Y-98660000D02*
X163410000Y-97200000D01*
X156260000Y-99840000D02*
X156750000Y-100330000D01*
D37*
X151930000Y-92290000D02*
X151930000Y-93020000D01*
D36*
X156750000Y-100330000D02*
X159320000Y-100330000D01*
X159320000Y-100330000D02*
X161740000Y-100330000D01*
%TO.N,Net-(U2-RREF)*%
X166700000Y-86023629D02*
X166700000Y-85275000D01*
X164060000Y-88663629D02*
X166700000Y-86023629D01*
X164060000Y-90000000D02*
X164060000Y-88663629D01*
D39*
%TO.N,Net-(U2-PSELF)*%
X158570000Y-95230000D02*
X158570000Y-95200000D01*
D36*
X154520000Y-94400000D02*
X155350000Y-94400000D01*
D39*
X158860000Y-95490000D02*
X158600000Y-95230000D01*
X158860000Y-97200000D02*
X158860000Y-95490000D01*
X158570000Y-95200000D02*
X158560000Y-95190000D01*
D36*
X153710000Y-94400000D02*
X154520000Y-94400000D01*
X158860000Y-96110000D02*
X158860000Y-97200000D01*
D39*
X158600000Y-95230000D02*
X158570000Y-95230000D01*
D38*
%TO.N,BPI*%
X185380000Y-69770000D02*
X184780000Y-70370000D01*
X189680000Y-71105000D02*
X189680000Y-70330000D01*
D39*
X191270000Y-74330000D02*
X190302500Y-73362500D01*
D38*
X189680000Y-73352500D02*
X189670000Y-73362500D01*
D36*
X153710000Y-92750000D02*
X152680000Y-92770000D01*
D38*
X189120000Y-69770000D02*
X185380000Y-69770000D01*
X184780000Y-70370000D02*
X184780000Y-71105000D01*
D39*
X191270000Y-75490000D02*
X191270000Y-74330000D01*
D36*
X152680000Y-92770000D02*
X152680000Y-92750000D01*
D38*
X189680000Y-70330000D02*
X189120000Y-69770000D01*
D39*
X190302500Y-73362500D02*
X189670000Y-73362500D01*
D37*
X189670000Y-73362500D02*
X189670000Y-71115000D01*
X189670000Y-71115000D02*
X189680000Y-71105000D01*
D36*
%TO.N,Net-(U2-OVCUR1#)*%
X161460000Y-97200000D02*
X161460000Y-98920000D01*
X161460000Y-98920000D02*
X160950000Y-99430000D01*
%TO.N,Net-(J7-CC1)*%
X188480000Y-72310000D02*
X187670000Y-73120000D01*
X188480000Y-71105000D02*
X188480000Y-72310000D01*
D40*
%TO.N,AVDD*%
X155480000Y-87500000D02*
X155490000Y-87510000D01*
X166715000Y-88340000D02*
X166257500Y-88797500D01*
D36*
X166010000Y-90000000D02*
X166010000Y-89045000D01*
D40*
X154890000Y-87510000D02*
X155470000Y-87510000D01*
X155470000Y-87510000D02*
X155480000Y-87500000D01*
X168190000Y-88340000D02*
X166715000Y-88340000D01*
D36*
X166655000Y-88400000D02*
X166695000Y-88360000D01*
D40*
X154890000Y-90167500D02*
X155252500Y-90530000D01*
D36*
X166257500Y-88797500D02*
X166555000Y-88500000D01*
X166555000Y-88400000D02*
X166655000Y-88400000D01*
D38*
X159790000Y-88350000D02*
X160160000Y-88720000D01*
X160160000Y-88720000D02*
X160160000Y-90000000D01*
X163385000Y-88290000D02*
X163385000Y-89975000D01*
X163385000Y-89975000D02*
X163410000Y-90000000D01*
D40*
X155490000Y-87510000D02*
X156260000Y-87510000D01*
X156260000Y-87510000D02*
X156290000Y-87510000D01*
X154890000Y-86390000D02*
X154890000Y-87510000D01*
D36*
X166695000Y-88360000D02*
X166905000Y-88360000D01*
X166555000Y-88500000D02*
X166555000Y-88400000D01*
X166010000Y-89045000D02*
X166257500Y-88797500D01*
D40*
X154890000Y-87510000D02*
X154890000Y-90167500D01*
D36*
X163385000Y-88290000D02*
X163410000Y-88265000D01*
%TO.N,P2-*%
X171190000Y-82665001D02*
X171190000Y-79980000D01*
X171190000Y-79980000D02*
X172030000Y-79140000D01*
X165360000Y-88495001D02*
X171190000Y-82665001D01*
X165360000Y-90000000D02*
X165360000Y-88495001D01*
%TO.N,P2+*%
X164710000Y-90000000D02*
X164710000Y-88579315D01*
X164710000Y-88579315D02*
X170790000Y-82499315D01*
X170790000Y-79900000D02*
X170030000Y-79140000D01*
X170790000Y-82499315D02*
X170790000Y-79900000D01*
%TO.N,Net-(U2-X1)*%
X162760000Y-90000000D02*
X162760000Y-85180000D01*
X163560000Y-84380000D02*
X163760000Y-84380000D01*
X165410000Y-84920000D02*
X164300000Y-84920000D01*
X162760000Y-85180000D02*
X163560000Y-84380000D01*
X164300000Y-84920000D02*
X163760000Y-84380000D01*
%TO.N,Net-(U2-X2)*%
X162110000Y-86630000D02*
X161560000Y-86080000D01*
X161160000Y-85680000D02*
X161560000Y-86080000D01*
X159970000Y-85680000D02*
X161160000Y-85680000D01*
X162110000Y-90000000D02*
X162110000Y-86630000D01*
%TO.N,P3-*%
X158465686Y-86260000D02*
X154800000Y-82594314D01*
X154783946Y-80498260D02*
X154783946Y-77273946D01*
X154030000Y-76520000D02*
X153333946Y-76520000D01*
X154800000Y-82594314D02*
X154800000Y-80514314D01*
X159620000Y-86260000D02*
X158465686Y-86260000D01*
X154800000Y-80514314D02*
X154783946Y-80498260D01*
X161460000Y-88100000D02*
X159620000Y-86260000D01*
X161460000Y-90000000D02*
X161460000Y-88100000D01*
X154783946Y-77273946D02*
X154030000Y-76520000D01*
%TO.N,P3+*%
X152980000Y-77670000D02*
X153380000Y-77670000D01*
X154383946Y-78673946D02*
X154383946Y-80663946D01*
X160810000Y-88015686D02*
X160810000Y-90000000D01*
X151333946Y-76520000D02*
X151830000Y-76520000D01*
X159454314Y-86660000D02*
X160810000Y-88015686D01*
X151830000Y-76520000D02*
X152980000Y-77670000D01*
X154383946Y-80663946D02*
X154400000Y-80680000D01*
X154383946Y-80663946D02*
X154383946Y-82743945D01*
X158300000Y-86660000D02*
X159454314Y-86660000D01*
X154383946Y-82743945D02*
X158300000Y-86660000D01*
X153380000Y-77670000D02*
X154383946Y-78673946D01*
%TO.N,P4-*%
X152833946Y-79140000D02*
X152833946Y-79346054D01*
X152530000Y-81944314D02*
X152530000Y-79943946D01*
X159510000Y-90000000D02*
X159510000Y-88924314D01*
X152530000Y-79943946D02*
X153333946Y-79140000D01*
X159510000Y-88924314D02*
X152530000Y-81944314D01*
%TO.N,P4+*%
X158860000Y-88840000D02*
X152130000Y-82109999D01*
X158860000Y-90000000D02*
X158860000Y-88840000D01*
X152130000Y-82109999D02*
X152130000Y-79936054D01*
X152130000Y-79936054D02*
X151333946Y-79140000D01*
%TO.N,P1-*%
X167110000Y-94360000D02*
X165360000Y-96110000D01*
X165360000Y-96110000D02*
X165360000Y-97200000D01*
X168400000Y-94360000D02*
X167110000Y-94360000D01*
%TO.N,P1+*%
X167645503Y-95059500D02*
X167090500Y-95059500D01*
X167090500Y-95059500D02*
X166010000Y-96140000D01*
X166010000Y-96140000D02*
X166010000Y-97200000D01*
%TO.N,Net-(J7-CC2)*%
X185480000Y-71105000D02*
X185480000Y-72030000D01*
X185480000Y-72030000D02*
X186580000Y-73130000D01*
%TO.N,USB_M_-*%
X173490000Y-99200000D02*
X165185000Y-99200000D01*
X165185000Y-99200000D02*
X164060000Y-98075000D01*
X164060000Y-98075000D02*
X164060000Y-97200000D01*
X173640000Y-99350000D02*
X173490000Y-99200000D01*
%TO.N,USB_M_+*%
X164710000Y-98075000D02*
X164710000Y-97200000D01*
X178510000Y-96430000D02*
X176290000Y-98650000D01*
X179080000Y-96430000D02*
X179130000Y-96430000D01*
X165285000Y-98650000D02*
X164710000Y-98075000D01*
X179130000Y-96430000D02*
X178510000Y-96430000D01*
X176290000Y-98650000D02*
X165285000Y-98650000D01*
D37*
%TO.N,HUB_5v*%
X161550000Y-72350000D02*
X162940000Y-70960000D01*
X161550000Y-75900000D02*
X161550000Y-72350000D01*
X184500000Y-86430000D02*
X177420000Y-93510000D01*
D38*
X162760000Y-97200000D02*
X162760000Y-95480000D01*
X162750000Y-95470000D02*
X162760000Y-95460000D01*
D37*
X174050000Y-93510000D02*
X174050000Y-96430000D01*
D38*
X162760000Y-95460000D02*
X162760000Y-95360000D01*
X162760000Y-95480000D02*
X162750000Y-95470000D01*
X162760000Y-95360000D02*
X162770000Y-95350000D01*
D37*
X160930000Y-76520000D02*
X161550000Y-75900000D01*
X171220000Y-70960000D02*
X174530000Y-74270000D01*
X184500000Y-79600000D02*
X184500000Y-86430000D01*
X177420000Y-93510000D02*
X174050000Y-93510000D01*
X155833946Y-76520000D02*
X155833946Y-79140000D01*
X174530000Y-76520000D02*
X174530000Y-79140000D01*
X162940000Y-70960000D02*
X171220000Y-70960000D01*
X174530000Y-74270000D02*
X174530000Y-76520000D01*
X174530000Y-76520000D02*
X181420000Y-76520000D01*
X181420000Y-76520000D02*
X184500000Y-79600000D01*
X155833946Y-76520000D02*
X160930000Y-76520000D01*
%TD*%
%TA.AperFunction,Conductor*%
%TO.N,GND*%
G36*
X192492539Y-64250185D02*
G01*
X192538294Y-64302989D01*
X192549500Y-64354500D01*
X192549500Y-65004248D01*
X192529815Y-65071287D01*
X192477011Y-65117042D01*
X192407853Y-65126986D01*
X192344297Y-65097961D01*
X192331414Y-65085018D01*
X192242521Y-64981469D01*
X192242520Y-64981468D01*
X192081695Y-64856981D01*
X191899093Y-64767411D01*
X191800000Y-64741753D01*
X191800000Y-65543889D01*
X191775543Y-65504390D01*
X191686038Y-65436799D01*
X191578160Y-65406105D01*
X191466479Y-65416454D01*
X191366078Y-65466448D01*
X191300000Y-65538930D01*
X191300000Y-64736633D01*
X191298053Y-64736931D01*
X191298047Y-64736933D01*
X191107342Y-64807562D01*
X191107335Y-64807565D01*
X190934732Y-64915149D01*
X190787331Y-65055264D01*
X190787330Y-65055266D01*
X190671143Y-65222195D01*
X190590940Y-65409092D01*
X190550000Y-65608309D01*
X190550000Y-65760000D01*
X191250000Y-65760000D01*
X191250000Y-66260000D01*
X190550000Y-66260000D01*
X190550000Y-66360713D01*
X190565418Y-66512338D01*
X190626299Y-66706381D01*
X190626304Y-66706391D01*
X190725005Y-66884215D01*
X190725005Y-66884216D01*
X190857478Y-67038530D01*
X190857479Y-67038531D01*
X191018304Y-67163018D01*
X191200907Y-67252589D01*
X191300000Y-67278244D01*
X191300000Y-66476110D01*
X191324457Y-66515610D01*
X191413962Y-66583201D01*
X191521840Y-66613895D01*
X191633521Y-66603546D01*
X191733922Y-66553552D01*
X191800000Y-66481069D01*
X191800000Y-67283365D01*
X191801944Y-67283069D01*
X191801945Y-67283069D01*
X191992660Y-67212436D01*
X191992664Y-67212434D01*
X192165267Y-67104850D01*
X192312668Y-66964735D01*
X192312669Y-66964733D01*
X192323725Y-66948850D01*
X192378179Y-66905071D01*
X192447657Y-66897683D01*
X192510100Y-66929029D01*
X192545683Y-66989159D01*
X192549500Y-67019687D01*
X192549500Y-68934248D01*
X192529815Y-69001287D01*
X192477011Y-69047042D01*
X192407853Y-69056986D01*
X192344297Y-69027961D01*
X192331414Y-69015018D01*
X192242521Y-68911469D01*
X192242520Y-68911468D01*
X192081695Y-68786981D01*
X191899093Y-68697411D01*
X191800000Y-68671753D01*
X191800000Y-69473889D01*
X191775543Y-69434390D01*
X191686038Y-69366799D01*
X191578160Y-69336105D01*
X191466479Y-69346454D01*
X191366078Y-69396448D01*
X191300000Y-69468930D01*
X191300000Y-68666633D01*
X191298053Y-68666931D01*
X191298047Y-68666933D01*
X191107342Y-68737562D01*
X191107335Y-68737565D01*
X190934732Y-68845149D01*
X190787331Y-68985264D01*
X190787330Y-68985266D01*
X190671142Y-69152197D01*
X190671140Y-69152200D01*
X190667760Y-69160078D01*
X190623232Y-69213921D01*
X190556663Y-69235142D01*
X190489189Y-69217005D01*
X190478332Y-69209556D01*
X190410233Y-69157302D01*
X190410232Y-69157301D01*
X190410230Y-69157300D01*
X190282309Y-69104314D01*
X190270236Y-69099313D01*
X190256171Y-69097461D01*
X190157727Y-69084500D01*
X190157720Y-69084500D01*
X190082280Y-69084500D01*
X190082272Y-69084500D01*
X189969764Y-69099313D01*
X189969763Y-69099313D01*
X189829769Y-69157300D01*
X189829766Y-69157302D01*
X189706376Y-69251983D01*
X189641207Y-69277177D01*
X189572762Y-69263139D01*
X189560457Y-69255661D01*
X189522428Y-69229412D01*
X189516401Y-69224977D01*
X189470987Y-69189397D01*
X189462495Y-69185575D01*
X189442953Y-69174554D01*
X189435290Y-69169265D01*
X189381360Y-69148812D01*
X189374442Y-69145946D01*
X189321842Y-69122273D01*
X189312680Y-69120594D01*
X189291073Y-69114570D01*
X189282362Y-69111266D01*
X189225097Y-69104313D01*
X189217694Y-69103186D01*
X189160964Y-69092790D01*
X189160960Y-69092790D01*
X189103371Y-69096274D01*
X189095883Y-69096500D01*
X185404116Y-69096500D01*
X185396630Y-69096274D01*
X185367054Y-69094484D01*
X185339037Y-69092790D01*
X185339031Y-69092790D01*
X185282296Y-69103187D01*
X185274894Y-69104314D01*
X185217638Y-69111266D01*
X185217628Y-69111269D01*
X185208918Y-69114572D01*
X185187321Y-69120593D01*
X185178159Y-69122272D01*
X185125572Y-69145940D01*
X185118655Y-69148805D01*
X185064712Y-69169264D01*
X185064706Y-69169267D01*
X185057043Y-69174556D01*
X185037509Y-69185574D01*
X185029010Y-69189399D01*
X184983598Y-69224976D01*
X184977570Y-69229412D01*
X184930102Y-69262177D01*
X184928516Y-69263583D01*
X184927108Y-69264244D01*
X184923935Y-69266435D01*
X184923570Y-69265907D01*
X184865281Y-69293300D01*
X184796018Y-69284112D01*
X184757616Y-69253884D01*
X184756202Y-69255299D01*
X184750457Y-69249554D01*
X184750451Y-69249549D01*
X184630233Y-69157302D01*
X184630229Y-69157300D01*
X184545666Y-69122273D01*
X184490236Y-69099313D01*
X184476171Y-69097461D01*
X184377727Y-69084500D01*
X184377720Y-69084500D01*
X184302280Y-69084500D01*
X184302272Y-69084500D01*
X184189764Y-69099313D01*
X184189763Y-69099313D01*
X184049769Y-69157300D01*
X184027821Y-69174142D01*
X183978743Y-69211800D01*
X183913575Y-69236994D01*
X183845131Y-69222956D01*
X183795141Y-69174142D01*
X183794839Y-69173602D01*
X183734994Y-69065784D01*
X183734994Y-69065783D01*
X183602521Y-68911469D01*
X183602520Y-68911468D01*
X183441695Y-68786981D01*
X183259093Y-68697411D01*
X183160000Y-68671753D01*
X183160000Y-69473889D01*
X183135543Y-69434390D01*
X183046038Y-69366799D01*
X182938160Y-69336105D01*
X182826479Y-69346454D01*
X182726078Y-69396448D01*
X182660000Y-69468930D01*
X182660000Y-68666633D01*
X182658053Y-68666931D01*
X182658047Y-68666933D01*
X182467342Y-68737562D01*
X182467335Y-68737565D01*
X182294732Y-68845149D01*
X182147331Y-68985264D01*
X182147330Y-68985266D01*
X182031143Y-69152195D01*
X181950940Y-69339092D01*
X181910000Y-69538309D01*
X181910000Y-69940000D01*
X182610000Y-69940000D01*
X182610000Y-70440000D01*
X181910000Y-70440000D01*
X181910000Y-70790713D01*
X181925418Y-70942338D01*
X181986299Y-71136381D01*
X181986304Y-71136391D01*
X182085005Y-71314215D01*
X182085005Y-71314216D01*
X182217478Y-71468530D01*
X182217479Y-71468531D01*
X182378304Y-71593018D01*
X182560907Y-71682589D01*
X182660000Y-71708244D01*
X182660000Y-70906110D01*
X182684457Y-70945610D01*
X182773962Y-71013201D01*
X182881840Y-71043895D01*
X182993521Y-71033546D01*
X183093922Y-70983552D01*
X183169484Y-70900666D01*
X183187175Y-70855000D01*
X183730000Y-70855000D01*
X183759819Y-70825181D01*
X183821142Y-70791696D01*
X183890834Y-70796680D01*
X183946767Y-70838552D01*
X183971184Y-70904016D01*
X183971500Y-70912862D01*
X183971500Y-71297138D01*
X183951815Y-71364177D01*
X183899011Y-71409932D01*
X183829853Y-71419876D01*
X183766297Y-71390851D01*
X183759819Y-71384819D01*
X183730000Y-71355000D01*
X183160000Y-71355000D01*
X183160000Y-71729200D01*
X183174824Y-71752047D01*
X183180000Y-71787500D01*
X183180000Y-71877844D01*
X183186401Y-71937372D01*
X183186403Y-71937379D01*
X183236645Y-72072086D01*
X183236649Y-72072093D01*
X183322809Y-72187187D01*
X183322812Y-72187190D01*
X183437906Y-72273350D01*
X183437913Y-72273354D01*
X183572620Y-72323596D01*
X183572627Y-72323598D01*
X183632155Y-72329999D01*
X183632172Y-72330000D01*
X183730000Y-72330000D01*
X183730000Y-71945742D01*
X183749685Y-71878703D01*
X183802489Y-71832948D01*
X183871647Y-71823004D01*
X183935203Y-71852029D01*
X183972977Y-71910807D01*
X183977289Y-71932487D01*
X183978010Y-71939201D01*
X183978011Y-71939204D01*
X184019488Y-72050405D01*
X184029111Y-72076204D01*
X184116739Y-72193261D01*
X184180313Y-72240852D01*
X184222182Y-72296782D01*
X184227773Y-72327773D01*
X184230000Y-72330000D01*
X184327822Y-72330000D01*
X184327823Y-72329999D01*
X184330452Y-72329717D01*
X184363022Y-72331753D01*
X184363086Y-72331160D01*
X184431345Y-72338499D01*
X184431362Y-72338500D01*
X184888573Y-72338500D01*
X184955612Y-72358185D01*
X184986946Y-72387012D01*
X185021523Y-72432072D01*
X185021525Y-72432074D01*
X185046013Y-72463987D01*
X185071481Y-72483529D01*
X185083673Y-72494222D01*
X185715181Y-73125729D01*
X185748666Y-73187052D01*
X185751500Y-73213409D01*
X185751500Y-73329976D01*
X185751501Y-73329999D01*
X185754371Y-73366466D01*
X185754371Y-73366467D01*
X185799729Y-73522591D01*
X185799732Y-73522598D01*
X185836771Y-73585229D01*
X185853954Y-73652953D01*
X185836772Y-73711469D01*
X185807594Y-73760806D01*
X185767156Y-73900000D01*
X186256511Y-73900000D01*
X186291106Y-73904924D01*
X186293527Y-73905627D01*
X186293534Y-73905629D01*
X186330011Y-73908500D01*
X186829988Y-73908499D01*
X186866466Y-73905629D01*
X186903313Y-73894924D01*
X186937908Y-73890000D01*
X187346511Y-73890000D01*
X187381106Y-73894924D01*
X187383527Y-73895627D01*
X187383534Y-73895629D01*
X187420011Y-73898500D01*
X187796000Y-73898499D01*
X187863039Y-73918183D01*
X187908794Y-73970987D01*
X187920000Y-74022499D01*
X187920000Y-74909930D01*
X187955122Y-74907167D01*
X187955128Y-74907166D01*
X188109188Y-74862407D01*
X188109191Y-74862406D01*
X188247285Y-74780738D01*
X188247288Y-74780735D01*
X188257942Y-74770082D01*
X188319264Y-74736596D01*
X188388956Y-74741578D01*
X188444891Y-74783448D01*
X188469310Y-74848911D01*
X188468984Y-74870363D01*
X188461500Y-74943615D01*
X188461500Y-75531367D01*
X188461501Y-75531383D01*
X188472026Y-75634405D01*
X188527338Y-75801326D01*
X188527340Y-75801331D01*
X188549477Y-75837220D01*
X188607853Y-75931863D01*
X188619657Y-75950999D01*
X188744001Y-76075343D01*
X188744005Y-76075346D01*
X188852597Y-76142327D01*
X188899322Y-76194275D01*
X188911500Y-76247865D01*
X188911500Y-78064455D01*
X188891815Y-78131494D01*
X188875181Y-78152136D01*
X188872136Y-78155181D01*
X188810813Y-78188666D01*
X188784455Y-78191500D01*
X187449462Y-78191500D01*
X187449446Y-78191501D01*
X187345572Y-78202113D01*
X187177264Y-78257884D01*
X187177259Y-78257886D01*
X187026346Y-78350971D01*
X186900971Y-78476346D01*
X186807886Y-78627259D01*
X186807884Y-78627264D01*
X186752113Y-78795572D01*
X186741500Y-78899447D01*
X186741500Y-80300537D01*
X186741501Y-80300553D01*
X186752113Y-80404427D01*
X186789871Y-80518375D01*
X186807885Y-80572738D01*
X186900970Y-80723652D01*
X187026348Y-80849030D01*
X187177262Y-80942115D01*
X187345574Y-80997887D01*
X187449455Y-81008500D01*
X189550544Y-81008499D01*
X189654426Y-80997887D01*
X189822738Y-80942115D01*
X189973652Y-80849030D01*
X190099030Y-80723652D01*
X190192115Y-80572738D01*
X190247887Y-80404426D01*
X190258500Y-80300545D01*
X190258499Y-78953802D01*
X190278184Y-78886764D01*
X190287503Y-78874105D01*
X190308032Y-78849640D01*
X190308033Y-78849636D01*
X190308036Y-78849634D01*
X190312003Y-78843603D01*
X190312044Y-78843630D01*
X190316219Y-78837076D01*
X190316176Y-78837050D01*
X190319961Y-78830912D01*
X190319967Y-78830905D01*
X190352021Y-78762163D01*
X190353579Y-78758946D01*
X190387605Y-78691196D01*
X190387605Y-78691195D01*
X190387609Y-78691188D01*
X190387611Y-78691179D01*
X190390077Y-78684405D01*
X190390124Y-78684422D01*
X190392675Y-78677083D01*
X190392629Y-78677068D01*
X190394900Y-78670210D01*
X190394903Y-78670206D01*
X190410244Y-78595905D01*
X190411021Y-78592401D01*
X190428500Y-78518656D01*
X190428500Y-78518653D01*
X190429339Y-78511483D01*
X190429386Y-78511488D01*
X190430177Y-78503757D01*
X190430130Y-78503753D01*
X190430759Y-78496562D01*
X190428552Y-78420707D01*
X190428500Y-78417101D01*
X190428500Y-76247865D01*
X190448185Y-76180826D01*
X190487403Y-76142327D01*
X190584267Y-76082580D01*
X190651659Y-76064139D01*
X190718323Y-76085061D01*
X190737045Y-76100437D01*
X190762719Y-76126111D01*
X190916985Y-76223043D01*
X191088953Y-76283217D01*
X191088958Y-76283218D01*
X191269996Y-76303616D01*
X191270000Y-76303616D01*
X191270004Y-76303616D01*
X191451041Y-76283218D01*
X191451044Y-76283217D01*
X191451047Y-76283217D01*
X191623015Y-76223043D01*
X191777281Y-76126111D01*
X191906111Y-75997281D01*
X192003043Y-75843015D01*
X192063217Y-75671047D01*
X192068985Y-75619853D01*
X192083616Y-75490003D01*
X192083616Y-75489996D01*
X192063218Y-75308958D01*
X192063217Y-75308953D01*
X192047916Y-75265225D01*
X192003043Y-75136985D01*
X191922506Y-75008811D01*
X191903500Y-74942839D01*
X191903500Y-74413632D01*
X191905239Y-74397880D01*
X191904968Y-74397855D01*
X191905700Y-74390099D01*
X191905702Y-74390092D01*
X191903561Y-74321968D01*
X191903500Y-74318073D01*
X191903500Y-74290147D01*
X191903500Y-74290144D01*
X191902982Y-74286047D01*
X191902065Y-74274398D01*
X191900674Y-74230113D01*
X191900674Y-74230111D01*
X191894974Y-74210492D01*
X191891031Y-74191446D01*
X191888474Y-74171204D01*
X191885445Y-74163553D01*
X191872156Y-74129990D01*
X191868386Y-74118975D01*
X191856019Y-74076407D01*
X191845620Y-74058824D01*
X191837066Y-74041363D01*
X191829552Y-74022383D01*
X191803508Y-73986537D01*
X191797098Y-73976778D01*
X191774543Y-73938640D01*
X191774542Y-73938638D01*
X191760108Y-73924204D01*
X191747471Y-73909409D01*
X191735472Y-73892893D01*
X191735469Y-73892891D01*
X191735469Y-73892890D01*
X191701325Y-73864643D01*
X191692685Y-73856781D01*
X191292350Y-73456446D01*
X190906728Y-73070823D01*
X190873245Y-73009503D01*
X190871054Y-72995753D01*
X190867974Y-72965596D01*
X190812661Y-72798671D01*
X190720344Y-72649002D01*
X190613023Y-72541681D01*
X190579538Y-72480358D01*
X190584522Y-72410666D01*
X190626394Y-72354733D01*
X190691858Y-72330316D01*
X190700704Y-72330000D01*
X190827828Y-72330000D01*
X190827844Y-72329999D01*
X190887372Y-72323598D01*
X190887379Y-72323596D01*
X191022086Y-72273354D01*
X191022093Y-72273350D01*
X191137187Y-72187190D01*
X191137190Y-72187187D01*
X191223350Y-72072093D01*
X191223354Y-72072086D01*
X191273596Y-71937379D01*
X191273598Y-71937372D01*
X191279999Y-71877844D01*
X191280000Y-71877827D01*
X191280000Y-71784550D01*
X191299685Y-71717511D01*
X191300000Y-71717167D01*
X191300000Y-70906110D01*
X191324457Y-70945610D01*
X191413962Y-71013201D01*
X191521840Y-71043895D01*
X191633521Y-71033546D01*
X191733922Y-70983552D01*
X191800000Y-70911069D01*
X191800000Y-71713365D01*
X191801944Y-71713069D01*
X191801945Y-71713069D01*
X191992660Y-71642436D01*
X191992664Y-71642434D01*
X192165267Y-71534850D01*
X192312668Y-71394735D01*
X192312669Y-71394733D01*
X192323725Y-71378850D01*
X192378179Y-71335071D01*
X192447657Y-71327683D01*
X192510100Y-71359029D01*
X192545683Y-71419159D01*
X192549500Y-71449687D01*
X192549500Y-101505500D01*
X192529815Y-101572539D01*
X192477011Y-101618294D01*
X192425500Y-101629500D01*
X137464500Y-101629500D01*
X137397461Y-101609815D01*
X137351706Y-101557011D01*
X137340500Y-101505500D01*
X137340500Y-98070000D01*
X153935001Y-98070000D01*
X153935001Y-98119986D01*
X153945494Y-98222697D01*
X154000641Y-98389119D01*
X154000643Y-98389124D01*
X154092684Y-98538345D01*
X154216654Y-98662315D01*
X154365875Y-98754356D01*
X154365880Y-98754358D01*
X154532302Y-98809505D01*
X154532309Y-98809506D01*
X154635019Y-98819999D01*
X154909999Y-98819999D01*
X154910000Y-98819998D01*
X154910000Y-98070000D01*
X153935001Y-98070000D01*
X137340500Y-98070000D01*
X137340500Y-96370001D01*
X138294532Y-96370001D01*
X138314364Y-96596686D01*
X138314366Y-96596697D01*
X138373258Y-96816488D01*
X138373261Y-96816497D01*
X138469431Y-97022732D01*
X138469432Y-97022734D01*
X138599954Y-97209141D01*
X138760858Y-97370045D01*
X138760861Y-97370047D01*
X138947266Y-97500568D01*
X139153504Y-97596739D01*
X139153509Y-97596740D01*
X139153511Y-97596741D01*
X139206415Y-97610916D01*
X139373308Y-97655635D01*
X139543214Y-97670499D01*
X139543215Y-97670500D01*
X139543216Y-97670500D01*
X139656785Y-97670500D01*
X139656785Y-97670499D01*
X139826692Y-97655635D01*
X140046496Y-97596739D01*
X140252734Y-97500568D01*
X140439139Y-97370047D01*
X140600047Y-97209139D01*
X140730568Y-97022734D01*
X140826739Y-96816496D01*
X140885635Y-96596692D01*
X140888845Y-96560000D01*
X149165001Y-96560000D01*
X149165001Y-97009986D01*
X149175494Y-97112697D01*
X149230641Y-97279119D01*
X149230643Y-97279124D01*
X149322684Y-97428345D01*
X149446654Y-97552315D01*
X149595875Y-97644356D01*
X149595880Y-97644358D01*
X149762302Y-97699505D01*
X149762309Y-97699506D01*
X149865019Y-97709999D01*
X149989999Y-97709999D01*
X149990000Y-97709998D01*
X149990000Y-96560000D01*
X150490000Y-96560000D01*
X150490000Y-97709999D01*
X150614972Y-97709999D01*
X150614986Y-97709998D01*
X150717697Y-97699505D01*
X150884119Y-97644358D01*
X150884124Y-97644356D01*
X151033345Y-97552315D01*
X151157315Y-97428345D01*
X151249356Y-97279124D01*
X151249358Y-97279119D01*
X151304505Y-97112697D01*
X151304506Y-97112690D01*
X151314999Y-97009986D01*
X151315000Y-97009973D01*
X151315000Y-96560000D01*
X150490000Y-96560000D01*
X149990000Y-96560000D01*
X149165001Y-96560000D01*
X140888845Y-96560000D01*
X140905468Y-96370000D01*
X140885635Y-96143308D01*
X140863313Y-96060000D01*
X149165000Y-96060000D01*
X149990000Y-96060000D01*
X149990000Y-94910000D01*
X150490000Y-94910000D01*
X150490000Y-96060000D01*
X151314999Y-96060000D01*
X151314999Y-95610028D01*
X151314998Y-95610013D01*
X151304505Y-95507302D01*
X151249358Y-95340880D01*
X151249356Y-95340875D01*
X151157315Y-95191654D01*
X151033345Y-95067684D01*
X150884124Y-94975643D01*
X150884119Y-94975641D01*
X150717697Y-94920494D01*
X150717690Y-94920493D01*
X150614986Y-94910000D01*
X150490000Y-94910000D01*
X149990000Y-94910000D01*
X149865027Y-94910000D01*
X149865012Y-94910001D01*
X149762302Y-94920494D01*
X149595880Y-94975641D01*
X149595875Y-94975643D01*
X149446654Y-95067684D01*
X149322684Y-95191654D01*
X149230643Y-95340875D01*
X149230641Y-95340880D01*
X149175494Y-95507302D01*
X149175493Y-95507309D01*
X149165000Y-95610013D01*
X149165000Y-96060000D01*
X140863313Y-96060000D01*
X140828480Y-95930000D01*
X140826741Y-95923511D01*
X140826738Y-95923502D01*
X140804775Y-95876402D01*
X140730568Y-95717266D01*
X140613513Y-95550092D01*
X140600045Y-95530858D01*
X140439141Y-95369954D01*
X140252734Y-95239432D01*
X140252732Y-95239431D01*
X140046497Y-95143261D01*
X140046488Y-95143258D01*
X139826697Y-95084366D01*
X139826687Y-95084364D01*
X139656785Y-95069500D01*
X139656784Y-95069500D01*
X139543216Y-95069500D01*
X139543215Y-95069500D01*
X139373312Y-95084364D01*
X139373302Y-95084366D01*
X139153511Y-95143258D01*
X139153502Y-95143261D01*
X138947267Y-95239431D01*
X138947265Y-95239432D01*
X138760858Y-95369954D01*
X138599954Y-95530858D01*
X138469432Y-95717265D01*
X138469431Y-95717267D01*
X138373261Y-95923502D01*
X138373258Y-95923511D01*
X138314366Y-96143302D01*
X138314364Y-96143313D01*
X138294532Y-96369998D01*
X138294532Y-96370001D01*
X137340500Y-96370001D01*
X137340500Y-93084500D01*
X137360185Y-93017461D01*
X137412989Y-92971706D01*
X137464500Y-92960500D01*
X143785240Y-92960500D01*
X143785383Y-92960528D01*
X143785384Y-92960524D01*
X143809997Y-92960539D01*
X143810000Y-92960541D01*
X143810383Y-92960383D01*
X143810500Y-92960099D01*
X143810541Y-92960000D01*
X143810540Y-92959997D01*
X143810583Y-92935889D01*
X143810500Y-92935467D01*
X143810500Y-88310000D01*
X151990000Y-88310000D01*
X152740000Y-88310000D01*
X152740000Y-86640000D01*
X151990001Y-86640000D01*
X151990001Y-86914986D01*
X152000494Y-87017697D01*
X152055641Y-87184119D01*
X152055643Y-87184124D01*
X152147684Y-87333345D01*
X152201658Y-87387320D01*
X152235142Y-87448643D01*
X152230157Y-87518335D01*
X152201658Y-87562680D01*
X152147684Y-87616654D01*
X152055643Y-87765875D01*
X152055641Y-87765880D01*
X152000494Y-87932302D01*
X152000493Y-87932309D01*
X151990000Y-88035013D01*
X151990000Y-88310000D01*
X143810500Y-88310000D01*
X143810500Y-86140000D01*
X151990000Y-86140000D01*
X152740000Y-86140000D01*
X152740000Y-85165000D01*
X152739999Y-85164999D01*
X152690029Y-85165000D01*
X152690011Y-85165001D01*
X152587302Y-85175494D01*
X152420880Y-85230641D01*
X152420875Y-85230643D01*
X152271654Y-85322684D01*
X152147684Y-85446654D01*
X152055643Y-85595875D01*
X152055641Y-85595880D01*
X152000494Y-85762302D01*
X152000493Y-85762309D01*
X151990000Y-85865013D01*
X151990000Y-86140000D01*
X143810500Y-86140000D01*
X143810500Y-81004456D01*
X143830185Y-80937417D01*
X143882989Y-80891662D01*
X143952147Y-80881718D01*
X143981898Y-80895304D01*
X144004351Y-80896040D01*
X144793384Y-80107007D01*
X144842294Y-80185999D01*
X144985877Y-80343501D01*
X145144334Y-80463163D01*
X144357904Y-81249593D01*
X144391296Y-81278876D01*
X144636526Y-81442734D01*
X144636539Y-81442741D01*
X144901057Y-81573187D01*
X145180346Y-81667994D01*
X145180361Y-81667998D01*
X145469621Y-81725535D01*
X145469633Y-81725537D01*
X145763946Y-81744827D01*
X146058258Y-81725537D01*
X146058270Y-81725535D01*
X146347530Y-81667998D01*
X146347545Y-81667994D01*
X146626834Y-81573187D01*
X146891352Y-81442741D01*
X146891365Y-81442734D01*
X147136594Y-81278877D01*
X147169985Y-81249593D01*
X146383557Y-80463163D01*
X146542015Y-80343501D01*
X146685598Y-80185999D01*
X146734507Y-80107007D01*
X147523539Y-80896039D01*
X147552823Y-80862648D01*
X147716680Y-80617419D01*
X147716687Y-80617406D01*
X147847133Y-80352888D01*
X147897642Y-80204096D01*
X147937831Y-80146942D01*
X148002540Y-80120589D01*
X148071224Y-80133403D01*
X148086185Y-80142380D01*
X148206558Y-80226666D01*
X148404786Y-80319101D01*
X148404795Y-80319105D01*
X148616051Y-80375710D01*
X148616061Y-80375712D01*
X148833945Y-80394775D01*
X148833947Y-80394775D01*
X149051830Y-80375712D01*
X149051840Y-80375710D01*
X149263096Y-80319105D01*
X149263110Y-80319100D01*
X149461329Y-80226669D01*
X149461331Y-80226668D01*
X149523517Y-80183124D01*
X148930965Y-79590572D01*
X148971065Y-79584529D01*
X149096000Y-79524363D01*
X149197651Y-79430045D01*
X149266985Y-79309955D01*
X149283796Y-79236297D01*
X149877070Y-79829570D01*
X149920614Y-79767385D01*
X149920615Y-79767383D01*
X149966875Y-79668179D01*
X150013047Y-79615739D01*
X150080240Y-79596587D01*
X150147121Y-79616802D01*
X150191639Y-79668179D01*
X150239890Y-79771654D01*
X150366197Y-79952038D01*
X150521908Y-80107749D01*
X150702292Y-80234056D01*
X150901870Y-80327120D01*
X151114575Y-80384115D01*
X151271268Y-80397823D01*
X151333944Y-80403307D01*
X151333946Y-80403307D01*
X151333947Y-80403307D01*
X151350645Y-80401846D01*
X151386692Y-80398692D01*
X151455192Y-80412458D01*
X151505375Y-80461073D01*
X151521500Y-80522220D01*
X151521500Y-82061994D01*
X151520439Y-82078178D01*
X151516250Y-82109999D01*
X151518036Y-82123562D01*
X151520969Y-82145846D01*
X151520988Y-82145999D01*
X151528957Y-82206524D01*
X151528957Y-82206525D01*
X151537161Y-82268848D01*
X151537163Y-82268853D01*
X151598474Y-82416874D01*
X151613969Y-82437065D01*
X151613971Y-82437069D01*
X151631532Y-82459954D01*
X151696013Y-82543986D01*
X151721485Y-82563531D01*
X151733677Y-82574224D01*
X154246620Y-85087168D01*
X154280105Y-85148491D01*
X154275121Y-85218183D01*
X154233249Y-85274116D01*
X154224036Y-85280387D01*
X154166351Y-85315967D01*
X154166347Y-85315970D01*
X154040970Y-85441347D01*
X154040968Y-85441350D01*
X154040541Y-85442043D01*
X154040123Y-85442418D01*
X154036489Y-85447015D01*
X154035703Y-85446393D01*
X153988591Y-85488764D01*
X153919627Y-85499983D01*
X153855547Y-85472136D01*
X153837739Y-85451578D01*
X153836798Y-85452323D01*
X153832316Y-85446655D01*
X153708345Y-85322684D01*
X153559124Y-85230643D01*
X153559119Y-85230641D01*
X153392697Y-85175494D01*
X153392690Y-85175493D01*
X153289986Y-85165000D01*
X153240000Y-85165000D01*
X153240000Y-88686000D01*
X153220315Y-88753039D01*
X153167511Y-88798794D01*
X153116000Y-88810000D01*
X151990001Y-88810000D01*
X151990001Y-89084986D01*
X152000494Y-89187697D01*
X152055641Y-89354119D01*
X152055643Y-89354124D01*
X152147684Y-89503345D01*
X152266807Y-89622468D01*
X152300292Y-89683791D01*
X152295308Y-89753483D01*
X152284665Y-89775245D01*
X152245154Y-89839301D01*
X152245150Y-89839310D01*
X152191675Y-90000689D01*
X152181500Y-90100281D01*
X152181500Y-90914455D01*
X152161815Y-90981494D01*
X152145181Y-91002136D01*
X151439122Y-91708195D01*
X151425495Y-91719973D01*
X151405941Y-91734531D01*
X151373713Y-91772938D01*
X151366421Y-91780897D01*
X151362420Y-91784898D01*
X151342983Y-91809479D01*
X151340710Y-91812269D01*
X151291967Y-91870360D01*
X151288001Y-91876391D01*
X151287963Y-91876366D01*
X151283782Y-91882928D01*
X151283821Y-91882952D01*
X151280035Y-91889088D01*
X151261168Y-91929547D01*
X151247967Y-91957855D01*
X151246412Y-91961068D01*
X151212391Y-92028810D01*
X151209923Y-92035593D01*
X151209878Y-92035576D01*
X151207322Y-92042932D01*
X151207366Y-92042947D01*
X151205096Y-92049794D01*
X151189758Y-92124073D01*
X151188978Y-92127589D01*
X151171499Y-92201344D01*
X151170661Y-92208519D01*
X151170613Y-92208513D01*
X151169823Y-92216244D01*
X151169870Y-92216249D01*
X151169240Y-92223438D01*
X151171448Y-92299290D01*
X151171500Y-92302897D01*
X151171500Y-94145706D01*
X151170191Y-94163676D01*
X151166658Y-94187791D01*
X151171028Y-94237724D01*
X151171500Y-94248533D01*
X151171500Y-94254183D01*
X151175139Y-94285322D01*
X151175505Y-94288905D01*
X151182112Y-94364426D01*
X151183572Y-94371494D01*
X151183526Y-94371503D01*
X151185209Y-94379094D01*
X151185254Y-94379084D01*
X151186919Y-94386110D01*
X151212854Y-94457367D01*
X151214037Y-94460770D01*
X151237884Y-94532732D01*
X151237886Y-94532738D01*
X151237889Y-94532743D01*
X151240940Y-94539286D01*
X151240896Y-94539306D01*
X151244284Y-94546304D01*
X151244327Y-94546283D01*
X151247568Y-94552737D01*
X151289245Y-94616103D01*
X151291167Y-94619120D01*
X151330970Y-94683651D01*
X151330971Y-94683652D01*
X151330973Y-94683655D01*
X151335451Y-94689318D01*
X151335413Y-94689347D01*
X151340320Y-94695372D01*
X151340357Y-94695342D01*
X151345002Y-94700877D01*
X151400172Y-94752927D01*
X151402760Y-94755441D01*
X152078763Y-95431444D01*
X152112248Y-95492767D01*
X152114440Y-95531727D01*
X152106500Y-95609445D01*
X152106500Y-97010537D01*
X152106501Y-97010553D01*
X152117113Y-97114427D01*
X152167761Y-97267276D01*
X152172885Y-97282738D01*
X152265970Y-97433652D01*
X152391348Y-97559030D01*
X152542262Y-97652115D01*
X152710574Y-97707887D01*
X152814455Y-97718500D01*
X153565544Y-97718499D01*
X153669426Y-97707887D01*
X153782258Y-97670499D01*
X153837733Y-97652117D01*
X153837734Y-97652116D01*
X153837738Y-97652115D01*
X153940937Y-97588460D01*
X154006034Y-97570000D01*
X156384999Y-97570000D01*
X156384999Y-97520028D01*
X156384998Y-97520013D01*
X156374505Y-97417302D01*
X156319358Y-97250880D01*
X156319356Y-97250875D01*
X156227315Y-97101654D01*
X156103344Y-96977683D01*
X156097677Y-96973202D01*
X156099404Y-96971016D01*
X156061240Y-96928589D01*
X156050015Y-96859627D01*
X156077855Y-96795543D01*
X156103106Y-96773664D01*
X156102985Y-96773511D01*
X156106401Y-96770809D01*
X156107969Y-96769451D01*
X156108652Y-96769030D01*
X156234030Y-96643652D01*
X156268665Y-96587500D01*
X156308818Y-96522403D01*
X156360766Y-96475678D01*
X156414356Y-96463500D01*
X156711000Y-96463500D01*
X156778039Y-96483185D01*
X156823794Y-96535989D01*
X156835000Y-96587500D01*
X156835000Y-96975000D01*
X157352500Y-96975000D01*
X157419539Y-96994685D01*
X157465294Y-97047489D01*
X157476500Y-97099000D01*
X157476500Y-97301000D01*
X157456815Y-97368039D01*
X157404011Y-97413794D01*
X157352500Y-97425000D01*
X156835000Y-97425000D01*
X156835000Y-97967520D01*
X156815315Y-98034559D01*
X156786487Y-98065896D01*
X156783125Y-98068475D01*
X156783124Y-98068476D01*
X156689560Y-98140271D01*
X156689559Y-98140270D01*
X156656010Y-98166015D01*
X156636467Y-98191483D01*
X156625775Y-98203674D01*
X156594543Y-98234906D01*
X156533220Y-98268391D01*
X156463528Y-98263407D01*
X156407595Y-98221535D01*
X156383178Y-98156071D01*
X156383504Y-98134621D01*
X156384999Y-98119983D01*
X156385000Y-98119973D01*
X156385000Y-98070000D01*
X155410000Y-98070000D01*
X155410000Y-98840562D01*
X155404386Y-98877446D01*
X155361257Y-99015854D01*
X155357986Y-99026354D01*
X155351500Y-99097737D01*
X155351500Y-99762272D01*
X155357985Y-99833645D01*
X155357988Y-99833655D01*
X155409171Y-99997909D01*
X155409172Y-99997911D01*
X155409173Y-99997913D01*
X155497013Y-100143218D01*
X155498186Y-100145158D01*
X155619841Y-100266813D01*
X155619843Y-100266814D01*
X155619845Y-100266816D01*
X155767087Y-100355827D01*
X155767090Y-100355828D01*
X155767089Y-100355828D01*
X155889125Y-100393855D01*
X155931351Y-100407013D01*
X155931358Y-100407013D01*
X155937786Y-100408293D01*
X155937209Y-100411192D01*
X155990189Y-100432087D01*
X156001721Y-100442270D01*
X156285777Y-100726326D01*
X156296472Y-100738521D01*
X156316010Y-100763984D01*
X156316011Y-100763985D01*
X156316013Y-100763987D01*
X156339828Y-100782261D01*
X156344702Y-100786001D01*
X156344728Y-100786022D01*
X156347929Y-100788478D01*
X156443124Y-100861524D01*
X156443126Y-100861524D01*
X156443128Y-100861526D01*
X156517136Y-100892181D01*
X156591149Y-100922838D01*
X156610549Y-100925392D01*
X156749999Y-100943751D01*
X156750000Y-100943751D01*
X156750001Y-100943751D01*
X156781828Y-100939561D01*
X156798013Y-100938500D01*
X159271996Y-100938500D01*
X159288180Y-100939560D01*
X159302764Y-100941480D01*
X159319999Y-100943750D01*
X159320000Y-100943750D01*
X159320001Y-100943750D01*
X159351820Y-100939561D01*
X159368005Y-100938500D01*
X161691995Y-100938500D01*
X161708180Y-100939561D01*
X161739999Y-100943750D01*
X161740000Y-100943750D01*
X161740001Y-100943750D01*
X161754795Y-100941802D01*
X161775852Y-100939030D01*
X161775873Y-100939028D01*
X161779884Y-100938500D01*
X161779885Y-100938500D01*
X161879456Y-100925391D01*
X161879456Y-100925392D01*
X161879460Y-100925390D01*
X161898851Y-100922838D01*
X162046876Y-100861524D01*
X162142072Y-100788477D01*
X162142073Y-100788475D01*
X162150164Y-100782267D01*
X162150171Y-100782261D01*
X162173984Y-100763989D01*
X162173983Y-100763989D01*
X162173987Y-100763987D01*
X162193535Y-100738510D01*
X162204216Y-100726331D01*
X163806331Y-99124216D01*
X163818521Y-99113527D01*
X163843987Y-99093987D01*
X163863319Y-99068792D01*
X163863323Y-99068788D01*
X163868475Y-99062072D01*
X163868478Y-99062071D01*
X163920490Y-98994287D01*
X163976915Y-98953086D01*
X164046661Y-98948931D01*
X164106545Y-98982094D01*
X164720777Y-99596326D01*
X164731472Y-99608521D01*
X164751013Y-99633987D01*
X164763952Y-99643915D01*
X164779704Y-99656003D01*
X164779718Y-99656014D01*
X164782928Y-99658477D01*
X164840974Y-99703017D01*
X164849924Y-99709884D01*
X164849926Y-99709886D01*
X164878123Y-99731523D01*
X164878129Y-99731526D01*
X164952137Y-99762181D01*
X165026150Y-99792838D01*
X165145115Y-99808500D01*
X165145120Y-99808500D01*
X165149123Y-99809027D01*
X165149141Y-99809029D01*
X165171345Y-99811952D01*
X165184999Y-99813750D01*
X165185000Y-99813750D01*
X165185001Y-99813750D01*
X165216820Y-99809561D01*
X165233005Y-99808500D01*
X172905272Y-99808500D01*
X172972311Y-99828185D01*
X173002215Y-99855182D01*
X173003889Y-99857281D01*
X173132719Y-99986111D01*
X173286985Y-100083043D01*
X173458953Y-100143217D01*
X173458958Y-100143218D01*
X173639996Y-100163616D01*
X173640000Y-100163616D01*
X173640004Y-100163616D01*
X173821041Y-100143218D01*
X173821044Y-100143217D01*
X173821047Y-100143217D01*
X173993015Y-100083043D01*
X174147281Y-99986111D01*
X174276111Y-99857281D01*
X174373043Y-99703015D01*
X174433217Y-99531047D01*
X174433218Y-99531041D01*
X174451519Y-99368617D01*
X174478585Y-99304203D01*
X174536180Y-99264647D01*
X174574739Y-99258500D01*
X176241995Y-99258500D01*
X176258180Y-99259561D01*
X176289999Y-99263750D01*
X176290000Y-99263750D01*
X176290001Y-99263750D01*
X176304795Y-99261802D01*
X176325852Y-99259030D01*
X176325873Y-99259028D01*
X176329884Y-99258500D01*
X176329885Y-99258500D01*
X176429456Y-99245391D01*
X176429456Y-99245392D01*
X176429460Y-99245390D01*
X176448851Y-99242838D01*
X176596876Y-99181524D01*
X176692072Y-99108477D01*
X176692073Y-99108475D01*
X176700164Y-99102267D01*
X176700171Y-99102261D01*
X176723984Y-99083989D01*
X176723983Y-99083989D01*
X176723987Y-99083987D01*
X176743535Y-99058510D01*
X176754216Y-99046331D01*
X178219798Y-97580749D01*
X178281119Y-97547266D01*
X178350811Y-97552250D01*
X178380018Y-97568556D01*
X178380131Y-97568384D01*
X178382603Y-97569999D01*
X178383638Y-97570577D01*
X178384424Y-97571189D01*
X178384427Y-97571191D01*
X178431636Y-97596739D01*
X178582426Y-97678342D01*
X178795365Y-97751444D01*
X179017431Y-97788500D01*
X179242569Y-97788500D01*
X179464635Y-97751444D01*
X179677574Y-97678342D01*
X179875576Y-97571189D01*
X180053240Y-97432906D01*
X180174594Y-97301082D01*
X180205715Y-97267276D01*
X180205715Y-97267275D01*
X180205722Y-97267268D01*
X180299749Y-97123347D01*
X180352894Y-97077994D01*
X180422125Y-97068570D01*
X180485461Y-97098072D01*
X180505130Y-97120048D01*
X180631890Y-97301078D01*
X180798917Y-97468105D01*
X180992421Y-97603600D01*
X181206507Y-97703429D01*
X181206516Y-97703433D01*
X181420000Y-97760634D01*
X181420000Y-96865501D01*
X181527685Y-96914680D01*
X181634237Y-96930000D01*
X181705763Y-96930000D01*
X181812315Y-96914680D01*
X181920000Y-96865501D01*
X181920000Y-97760633D01*
X182133483Y-97703433D01*
X182133492Y-97703429D01*
X182347578Y-97603600D01*
X182541082Y-97468105D01*
X182708105Y-97301082D01*
X182843600Y-97107578D01*
X182943429Y-96893492D01*
X182943432Y-96893486D01*
X183000636Y-96680000D01*
X182103686Y-96680000D01*
X182129493Y-96639844D01*
X182170000Y-96501889D01*
X182170000Y-96358111D01*
X182129493Y-96220156D01*
X182103686Y-96180000D01*
X183000636Y-96180000D01*
X183000635Y-96179999D01*
X182943432Y-95966513D01*
X182943429Y-95966507D01*
X182843600Y-95752422D01*
X182843599Y-95752420D01*
X182708113Y-95558926D01*
X182708108Y-95558920D01*
X182541082Y-95391894D01*
X182347578Y-95256399D01*
X182133492Y-95156570D01*
X182133486Y-95156567D01*
X181920000Y-95099364D01*
X181920000Y-95994498D01*
X181812315Y-95945320D01*
X181705763Y-95930000D01*
X181634237Y-95930000D01*
X181527685Y-95945320D01*
X181420000Y-95994498D01*
X181420000Y-95099364D01*
X181419999Y-95099364D01*
X181206513Y-95156567D01*
X181206507Y-95156570D01*
X180992422Y-95256399D01*
X180992420Y-95256400D01*
X180798926Y-95391886D01*
X180798920Y-95391891D01*
X180631891Y-95558920D01*
X180631890Y-95558922D01*
X180505131Y-95739952D01*
X180450554Y-95783577D01*
X180381055Y-95790769D01*
X180318701Y-95759247D01*
X180299752Y-95736656D01*
X180205722Y-95592732D01*
X180205715Y-95592725D01*
X180205715Y-95592723D01*
X180053243Y-95427097D01*
X180053238Y-95427092D01*
X179875577Y-95288812D01*
X179875572Y-95288808D01*
X179677580Y-95181661D01*
X179677577Y-95181659D01*
X179677574Y-95181658D01*
X179677571Y-95181657D01*
X179677569Y-95181656D01*
X179464637Y-95108556D01*
X179242569Y-95071500D01*
X179017431Y-95071500D01*
X178795362Y-95108556D01*
X178582430Y-95181656D01*
X178582419Y-95181661D01*
X178384427Y-95288808D01*
X178384422Y-95288812D01*
X178206761Y-95427092D01*
X178206756Y-95427097D01*
X178054284Y-95592723D01*
X178054276Y-95592734D01*
X177963808Y-95731206D01*
X177910662Y-95776562D01*
X177841431Y-95785986D01*
X177778095Y-95756484D01*
X177756192Y-95731206D01*
X177677012Y-95610013D01*
X177665722Y-95592732D01*
X177665719Y-95592729D01*
X177665715Y-95592723D01*
X177513243Y-95427097D01*
X177513238Y-95427092D01*
X177335577Y-95288812D01*
X177335572Y-95288808D01*
X177137580Y-95181661D01*
X177137577Y-95181659D01*
X177137574Y-95181658D01*
X177137571Y-95181657D01*
X177137569Y-95181656D01*
X176924637Y-95108556D01*
X176702569Y-95071500D01*
X176477431Y-95071500D01*
X176255362Y-95108556D01*
X176042430Y-95181656D01*
X176042419Y-95181661D01*
X175844427Y-95288808D01*
X175844422Y-95288812D01*
X175666761Y-95427092D01*
X175603548Y-95495760D01*
X175543661Y-95531750D01*
X175473823Y-95529649D01*
X175416207Y-95490124D01*
X175396138Y-95455110D01*
X175350889Y-95333796D01*
X175318116Y-95290017D01*
X175263261Y-95216739D01*
X175146204Y-95129111D01*
X175009203Y-95078011D01*
X174948654Y-95071500D01*
X174948638Y-95071500D01*
X174932500Y-95071500D01*
X174865461Y-95051815D01*
X174819706Y-94999011D01*
X174808500Y-94947500D01*
X174808500Y-94392500D01*
X174828185Y-94325461D01*
X174880989Y-94279706D01*
X174932500Y-94268500D01*
X177355706Y-94268500D01*
X177373676Y-94269809D01*
X177376174Y-94270174D01*
X177397789Y-94273341D01*
X177447727Y-94268971D01*
X177458534Y-94268500D01*
X177464175Y-94268500D01*
X177464180Y-94268500D01*
X177495370Y-94264853D01*
X177498851Y-94264498D01*
X177549822Y-94260039D01*
X177574418Y-94257888D01*
X177574420Y-94257887D01*
X177574426Y-94257887D01*
X177574431Y-94257885D01*
X177581493Y-94256427D01*
X177581502Y-94256474D01*
X177589097Y-94254790D01*
X177589087Y-94254744D01*
X177596108Y-94253079D01*
X177596113Y-94253079D01*
X177667414Y-94227126D01*
X177670708Y-94225981D01*
X177742738Y-94202114D01*
X177742744Y-94202110D01*
X177749284Y-94199061D01*
X177749305Y-94199106D01*
X177756302Y-94195719D01*
X177756280Y-94195675D01*
X177762728Y-94192436D01*
X177762732Y-94192435D01*
X177826103Y-94150753D01*
X177829110Y-94148837D01*
X177893651Y-94109030D01*
X177893656Y-94109024D01*
X177899319Y-94104548D01*
X177899350Y-94104587D01*
X177905374Y-94099680D01*
X177905342Y-94099642D01*
X177910864Y-94095006D01*
X177910874Y-94095001D01*
X177962962Y-94039789D01*
X177965409Y-94037270D01*
X184990880Y-87011799D01*
X185004506Y-87000023D01*
X185024058Y-86985469D01*
X185024060Y-86985467D01*
X185056274Y-86947075D01*
X185063590Y-86939090D01*
X185067580Y-86935101D01*
X185087043Y-86910485D01*
X185089245Y-86907781D01*
X185138032Y-86849640D01*
X185138033Y-86849636D01*
X185138036Y-86849634D01*
X185142003Y-86843603D01*
X185142043Y-86843629D01*
X185146214Y-86837082D01*
X185146173Y-86837057D01*
X185149965Y-86830908D01*
X185149967Y-86830906D01*
X185182057Y-86762086D01*
X185183559Y-86758985D01*
X185217609Y-86691188D01*
X185217610Y-86691181D01*
X185220078Y-86684402D01*
X185220125Y-86684419D01*
X185222675Y-86677083D01*
X185222629Y-86677068D01*
X185224901Y-86670211D01*
X185224901Y-86670209D01*
X185224903Y-86670206D01*
X185240262Y-86595817D01*
X185240998Y-86592499D01*
X185258500Y-86518656D01*
X185258500Y-86518653D01*
X185258501Y-86518649D01*
X185259339Y-86511482D01*
X185259386Y-86511487D01*
X185260176Y-86503757D01*
X185260129Y-86503753D01*
X185260758Y-86496562D01*
X185258552Y-86420726D01*
X185258500Y-86417120D01*
X185258500Y-81132499D01*
X185278185Y-81065460D01*
X185330989Y-81019705D01*
X185382500Y-81008499D01*
X185550537Y-81008499D01*
X185550544Y-81008499D01*
X185654426Y-80997887D01*
X185822738Y-80942115D01*
X185973652Y-80849030D01*
X186099030Y-80723652D01*
X186192115Y-80572738D01*
X186247887Y-80404426D01*
X186258500Y-80300545D01*
X186258499Y-78899456D01*
X186247887Y-78795574D01*
X186192115Y-78627262D01*
X186099030Y-78476348D01*
X185973652Y-78350970D01*
X185879898Y-78293142D01*
X185822740Y-78257886D01*
X185822735Y-78257884D01*
X185654427Y-78202113D01*
X185550552Y-78191500D01*
X185550545Y-78191500D01*
X184215543Y-78191500D01*
X184148504Y-78171815D01*
X184127862Y-78155181D01*
X182001804Y-76029123D01*
X181990022Y-76015490D01*
X181975472Y-75995946D01*
X181975471Y-75995945D01*
X181975469Y-75995942D01*
X181966786Y-75988656D01*
X181937059Y-75963711D01*
X181929085Y-75956404D01*
X181925102Y-75952421D01*
X181925096Y-75952416D01*
X181900512Y-75932976D01*
X181897719Y-75930701D01*
X181853010Y-75893187D01*
X181839640Y-75881968D01*
X181839635Y-75881965D01*
X181833605Y-75877999D01*
X181833630Y-75877959D01*
X181827069Y-75873779D01*
X181827045Y-75873820D01*
X181820907Y-75870034D01*
X181820906Y-75870033D01*
X181820903Y-75870032D01*
X181820899Y-75870029D01*
X181752160Y-75837974D01*
X181748916Y-75836404D01*
X181681185Y-75802389D01*
X181674401Y-75799920D01*
X181674416Y-75799876D01*
X181667071Y-75797322D01*
X181667057Y-75797367D01*
X181660205Y-75795096D01*
X181585926Y-75779758D01*
X181582408Y-75778978D01*
X181508653Y-75761499D01*
X181501482Y-75760661D01*
X181501487Y-75760612D01*
X181493757Y-75759822D01*
X181493753Y-75759870D01*
X181486562Y-75759240D01*
X181410707Y-75761448D01*
X181407101Y-75761500D01*
X179116673Y-75761500D01*
X179049634Y-75741815D01*
X179003879Y-75689011D01*
X178993935Y-75619853D01*
X179005202Y-75595181D01*
X179006039Y-75569593D01*
X178219611Y-74783163D01*
X178378069Y-74663501D01*
X178521652Y-74505999D01*
X178570561Y-74427007D01*
X179359593Y-75216039D01*
X179388877Y-75182648D01*
X179552734Y-74937419D01*
X179552741Y-74937406D01*
X179683187Y-74672888D01*
X179775821Y-74400000D01*
X185767156Y-74400000D01*
X185807595Y-74539194D01*
X185889261Y-74677285D01*
X185889268Y-74677294D01*
X186002705Y-74790731D01*
X186002714Y-74790738D01*
X186140808Y-74872406D01*
X186140811Y-74872407D01*
X186294871Y-74917166D01*
X186294877Y-74917167D01*
X186330000Y-74919931D01*
X186330000Y-74400000D01*
X186830000Y-74400000D01*
X186830000Y-74919930D01*
X186865122Y-74917167D01*
X186865128Y-74917166D01*
X187019189Y-74872407D01*
X187019192Y-74872406D01*
X187070331Y-74842162D01*
X187138055Y-74824978D01*
X187196576Y-74842162D01*
X187230803Y-74862404D01*
X187230810Y-74862407D01*
X187384871Y-74907166D01*
X187384877Y-74907167D01*
X187420000Y-74909931D01*
X187420000Y-74400000D01*
X186830000Y-74400000D01*
X186330000Y-74400000D01*
X185767156Y-74400000D01*
X179775821Y-74400000D01*
X179777994Y-74393599D01*
X179777998Y-74393584D01*
X179835535Y-74104324D01*
X179835537Y-74104312D01*
X179854827Y-73810000D01*
X179835537Y-73515687D01*
X179835535Y-73515675D01*
X179777998Y-73226415D01*
X179777994Y-73226400D01*
X179683187Y-72947111D01*
X179552741Y-72682593D01*
X179552734Y-72682580D01*
X179388876Y-72437350D01*
X179359593Y-72403958D01*
X178570560Y-73192991D01*
X178521652Y-73114001D01*
X178378069Y-72956499D01*
X178219610Y-72836835D01*
X179006040Y-72050405D01*
X178972649Y-72021123D01*
X178727419Y-71857265D01*
X178727406Y-71857258D01*
X178462888Y-71726812D01*
X178183599Y-71632005D01*
X178183584Y-71632001D01*
X177894324Y-71574464D01*
X177894312Y-71574462D01*
X177600000Y-71555172D01*
X177305687Y-71574462D01*
X177305675Y-71574464D01*
X177016415Y-71632001D01*
X177016400Y-71632005D01*
X176737111Y-71726812D01*
X176472593Y-71857258D01*
X176472580Y-71857265D01*
X176227346Y-72021126D01*
X176227339Y-72021131D01*
X176193959Y-72050403D01*
X176193959Y-72050405D01*
X176980389Y-72836835D01*
X176821931Y-72956499D01*
X176678348Y-73114001D01*
X176629438Y-73192992D01*
X175840405Y-72403959D01*
X175840403Y-72403959D01*
X175811131Y-72437339D01*
X175811126Y-72437346D01*
X175647265Y-72682580D01*
X175647258Y-72682593D01*
X175516812Y-72947111D01*
X175422005Y-73226400D01*
X175422001Y-73226415D01*
X175364464Y-73515675D01*
X175364460Y-73515702D01*
X175350533Y-73728185D01*
X175326506Y-73793794D01*
X175270823Y-73835997D01*
X175201162Y-73841396D01*
X175139641Y-73808276D01*
X175129528Y-73796980D01*
X175129033Y-73796354D01*
X175129030Y-73796349D01*
X175129025Y-73796344D01*
X175124547Y-73790680D01*
X175124585Y-73790649D01*
X175119681Y-73784629D01*
X175119645Y-73784660D01*
X175115002Y-73779127D01*
X175059825Y-73727070D01*
X175057238Y-73724557D01*
X171801804Y-70469123D01*
X171790022Y-70455490D01*
X171775472Y-70435946D01*
X171775471Y-70435945D01*
X171775469Y-70435942D01*
X171774380Y-70435028D01*
X171737059Y-70403711D01*
X171729085Y-70396404D01*
X171725102Y-70392421D01*
X171725096Y-70392416D01*
X171700512Y-70372976D01*
X171697719Y-70370701D01*
X171645396Y-70326798D01*
X171639640Y-70321968D01*
X171639635Y-70321965D01*
X171633605Y-70317999D01*
X171633630Y-70317959D01*
X171627069Y-70313779D01*
X171627045Y-70313820D01*
X171620907Y-70310034D01*
X171620906Y-70310033D01*
X171620903Y-70310032D01*
X171620899Y-70310029D01*
X171552160Y-70277974D01*
X171548916Y-70276404D01*
X171481185Y-70242389D01*
X171474401Y-70239920D01*
X171474416Y-70239876D01*
X171467071Y-70237322D01*
X171467057Y-70237367D01*
X171460205Y-70235096D01*
X171385926Y-70219758D01*
X171382408Y-70218978D01*
X171308653Y-70201499D01*
X171301482Y-70200661D01*
X171301487Y-70200612D01*
X171293757Y-70199822D01*
X171293753Y-70199870D01*
X171286562Y-70199240D01*
X171210707Y-70201448D01*
X171207101Y-70201500D01*
X163150585Y-70201500D01*
X163083546Y-70181815D01*
X163037791Y-70129011D01*
X163027847Y-70059853D01*
X163032879Y-70038496D01*
X163084505Y-69882697D01*
X163084506Y-69882690D01*
X163094999Y-69779986D01*
X163095000Y-69779973D01*
X163095000Y-69730000D01*
X160645001Y-69730000D01*
X160645001Y-69779986D01*
X160655494Y-69882697D01*
X160710641Y-70049119D01*
X160710643Y-70049124D01*
X160802684Y-70198345D01*
X160926655Y-70322316D01*
X160932323Y-70326798D01*
X160930592Y-70328986D01*
X160968749Y-70371390D01*
X160979987Y-70440350D01*
X160952158Y-70504438D01*
X160926894Y-70526336D01*
X160927015Y-70526489D01*
X160923627Y-70529167D01*
X160922043Y-70530541D01*
X160921350Y-70530968D01*
X160921347Y-70530970D01*
X160795971Y-70656346D01*
X160702886Y-70807259D01*
X160702884Y-70807264D01*
X160647113Y-70975572D01*
X160636500Y-71079447D01*
X160636500Y-71680537D01*
X160636501Y-71680553D01*
X160647113Y-71784427D01*
X160671249Y-71857265D01*
X160702885Y-71952738D01*
X160763127Y-72050406D01*
X160792776Y-72098473D01*
X160811216Y-72165865D01*
X160807895Y-72192165D01*
X160791499Y-72261348D01*
X160790661Y-72268519D01*
X160790613Y-72268513D01*
X160789823Y-72276244D01*
X160789870Y-72276249D01*
X160788611Y-72290638D01*
X160785405Y-72290357D01*
X160771159Y-72344164D01*
X160719599Y-72391317D01*
X160664329Y-72403168D01*
X159874506Y-73192991D01*
X159825598Y-73114001D01*
X159682015Y-72956499D01*
X159523556Y-72836835D01*
X160309986Y-72050405D01*
X160276595Y-72021123D01*
X160031365Y-71857265D01*
X160031352Y-71857258D01*
X159766834Y-71726812D01*
X159487545Y-71632005D01*
X159487530Y-71632001D01*
X159198270Y-71574464D01*
X159198258Y-71574462D01*
X158903946Y-71555172D01*
X158609633Y-71574462D01*
X158609621Y-71574464D01*
X158320361Y-71632001D01*
X158320346Y-71632005D01*
X158041057Y-71726812D01*
X157776539Y-71857258D01*
X157776526Y-71857265D01*
X157531292Y-72021126D01*
X157531285Y-72021131D01*
X157497905Y-72050403D01*
X157497905Y-72050405D01*
X158284335Y-72836835D01*
X158125877Y-72956499D01*
X157982294Y-73114001D01*
X157933384Y-73192992D01*
X157144351Y-72403959D01*
X157144349Y-72403959D01*
X157115077Y-72437339D01*
X157115072Y-72437346D01*
X156951211Y-72682580D01*
X156951204Y-72682593D01*
X156820758Y-72947111D01*
X156725951Y-73226400D01*
X156725947Y-73226415D01*
X156668410Y-73515675D01*
X156668408Y-73515687D01*
X156649118Y-73810000D01*
X156668408Y-74104312D01*
X156668410Y-74104324D01*
X156725947Y-74393584D01*
X156725951Y-74393599D01*
X156820758Y-74672888D01*
X156951204Y-74937406D01*
X156951211Y-74937419D01*
X157115069Y-75182649D01*
X157144351Y-75216040D01*
X157933384Y-74427007D01*
X157982294Y-74505999D01*
X158125877Y-74663501D01*
X158284334Y-74783163D01*
X157497904Y-75569593D01*
X157498602Y-75590894D01*
X157506454Y-75603273D01*
X157506038Y-75673141D01*
X157467916Y-75731694D01*
X157404189Y-75760341D01*
X157387271Y-75761500D01*
X157207844Y-75761500D01*
X157140805Y-75741815D01*
X157095050Y-75689011D01*
X157087166Y-75666008D01*
X157085935Y-75660803D01*
X157085935Y-75660799D01*
X157034835Y-75523796D01*
X156947207Y-75406739D01*
X156830150Y-75319111D01*
X156802916Y-75308953D01*
X156693149Y-75268011D01*
X156632600Y-75261500D01*
X156632584Y-75261500D01*
X155035308Y-75261500D01*
X155035291Y-75261500D01*
X154974743Y-75268011D01*
X154974741Y-75268011D01*
X154837741Y-75319111D01*
X154720685Y-75406739D01*
X154633057Y-75523795D01*
X154581957Y-75660795D01*
X154581957Y-75660797D01*
X154575580Y-75720105D01*
X154548841Y-75784656D01*
X154491448Y-75824503D01*
X154421623Y-75826996D01*
X154361535Y-75791342D01*
X154350716Y-75777971D01*
X154301698Y-75707966D01*
X154301693Y-75707960D01*
X154145984Y-75552251D01*
X154120572Y-75534457D01*
X153965600Y-75425944D01*
X153965596Y-75425942D01*
X153766027Y-75332882D01*
X153766025Y-75332881D01*
X153766022Y-75332880D01*
X153614723Y-75292339D01*
X153553318Y-75275885D01*
X153553311Y-75275884D01*
X153333948Y-75256693D01*
X153333944Y-75256693D01*
X153114580Y-75275884D01*
X153114573Y-75275885D01*
X152901866Y-75332881D01*
X152702292Y-75425944D01*
X152702288Y-75425946D01*
X152521913Y-75552247D01*
X152521906Y-75552252D01*
X152421627Y-75652532D01*
X152360304Y-75686017D01*
X152290612Y-75681033D01*
X152246265Y-75652532D01*
X152145984Y-75552251D01*
X152120572Y-75534457D01*
X151965600Y-75425944D01*
X151965596Y-75425942D01*
X151766027Y-75332882D01*
X151766025Y-75332881D01*
X151766022Y-75332880D01*
X151614723Y-75292339D01*
X151553318Y-75275885D01*
X151553311Y-75275884D01*
X151333948Y-75256693D01*
X151333944Y-75256693D01*
X151114580Y-75275884D01*
X151114573Y-75275885D01*
X150901866Y-75332881D01*
X150702292Y-75425944D01*
X150702288Y-75425946D01*
X150521913Y-75552247D01*
X150521906Y-75552252D01*
X150366198Y-75707960D01*
X150366193Y-75707967D01*
X150239892Y-75888342D01*
X150239890Y-75888346D01*
X150191639Y-75991822D01*
X150145467Y-76044261D01*
X150078273Y-76063413D01*
X150011392Y-76043197D01*
X149966875Y-75991822D01*
X149920613Y-75892614D01*
X149920612Y-75892612D01*
X149877070Y-75830428D01*
X149877070Y-75830427D01*
X149287725Y-76419772D01*
X149287479Y-76416484D01*
X149236818Y-76287402D01*
X149150360Y-76178987D01*
X149035787Y-76100873D01*
X148931643Y-76068749D01*
X149523517Y-75476874D01*
X149461333Y-75433333D01*
X149263105Y-75340898D01*
X149263096Y-75340894D01*
X149051840Y-75284289D01*
X149051830Y-75284287D01*
X148833947Y-75265225D01*
X148833945Y-75265225D01*
X148616061Y-75284287D01*
X148616051Y-75284289D01*
X148404795Y-75340894D01*
X148404786Y-75340898D01*
X148206559Y-75433333D01*
X148144374Y-75476874D01*
X148736926Y-76069426D01*
X148696827Y-76075471D01*
X148571892Y-76135637D01*
X148470241Y-76229955D01*
X148400907Y-76350045D01*
X148384095Y-76423703D01*
X147790820Y-75830428D01*
X147747279Y-75892613D01*
X147654844Y-76090840D01*
X147654840Y-76090849D01*
X147598235Y-76302105D01*
X147598233Y-76302115D01*
X147579171Y-76519999D01*
X147579171Y-76520000D01*
X147598233Y-76737884D01*
X147598235Y-76737894D01*
X147654840Y-76949150D01*
X147654844Y-76949159D01*
X147747279Y-77147387D01*
X147790820Y-77209571D01*
X148380166Y-76620225D01*
X148380413Y-76623516D01*
X148431074Y-76752598D01*
X148517532Y-76861013D01*
X148632105Y-76939127D01*
X148736247Y-76971250D01*
X148144373Y-77563124D01*
X148206558Y-77606666D01*
X148404786Y-77699101D01*
X148404795Y-77699105D01*
X148446295Y-77710225D01*
X148505956Y-77746590D01*
X148536485Y-77809437D01*
X148528190Y-77878812D01*
X148483705Y-77932690D01*
X148446295Y-77949775D01*
X148404795Y-77960894D01*
X148404786Y-77960898D01*
X148206559Y-78053333D01*
X148144374Y-78096874D01*
X148736926Y-78689426D01*
X148696827Y-78695471D01*
X148571892Y-78755637D01*
X148470241Y-78849955D01*
X148400907Y-78970045D01*
X148384095Y-79043702D01*
X147749933Y-78409541D01*
X147752056Y-78407417D01*
X147727093Y-78383231D01*
X147723759Y-78376934D01*
X147716684Y-78362587D01*
X147552822Y-78117350D01*
X147523539Y-78083958D01*
X146734506Y-78872991D01*
X146685598Y-78794001D01*
X146542015Y-78636499D01*
X146383556Y-78516835D01*
X147169986Y-77730405D01*
X147136595Y-77701123D01*
X146891365Y-77537265D01*
X146891352Y-77537258D01*
X146626834Y-77406812D01*
X146347545Y-77312005D01*
X146347530Y-77312001D01*
X146058270Y-77254464D01*
X146058258Y-77254462D01*
X145763946Y-77235172D01*
X145469633Y-77254462D01*
X145469621Y-77254464D01*
X145180361Y-77312001D01*
X145180346Y-77312005D01*
X144901057Y-77406812D01*
X144636539Y-77537258D01*
X144636526Y-77537265D01*
X144391292Y-77701126D01*
X144391285Y-77701131D01*
X144357905Y-77730403D01*
X144357905Y-77730405D01*
X145144335Y-78516835D01*
X144985877Y-78636499D01*
X144842294Y-78794001D01*
X144793384Y-78872992D01*
X144004351Y-78083959D01*
X143984684Y-78084603D01*
X143968729Y-78094724D01*
X143898861Y-78094310D01*
X143840307Y-78056188D01*
X143811660Y-77992461D01*
X143810500Y-77975542D01*
X143810500Y-75324456D01*
X143830185Y-75257417D01*
X143882989Y-75211662D01*
X143952147Y-75201718D01*
X143981898Y-75215304D01*
X144004351Y-75216040D01*
X144793384Y-74427007D01*
X144842294Y-74505999D01*
X144985877Y-74663501D01*
X145144334Y-74783163D01*
X144357904Y-75569593D01*
X144391296Y-75598876D01*
X144636526Y-75762734D01*
X144636539Y-75762741D01*
X144901057Y-75893187D01*
X145180346Y-75987994D01*
X145180361Y-75987998D01*
X145469621Y-76045535D01*
X145469633Y-76045537D01*
X145763946Y-76064827D01*
X146058258Y-76045537D01*
X146058270Y-76045535D01*
X146347530Y-75987998D01*
X146347545Y-75987994D01*
X146626834Y-75893187D01*
X146891352Y-75762741D01*
X146891365Y-75762734D01*
X147136594Y-75598877D01*
X147169985Y-75569593D01*
X146383557Y-74783163D01*
X146542015Y-74663501D01*
X146685598Y-74505999D01*
X146734507Y-74427007D01*
X147523539Y-75216039D01*
X147552823Y-75182648D01*
X147716680Y-74937419D01*
X147716687Y-74937406D01*
X147847133Y-74672888D01*
X147941940Y-74393599D01*
X147941944Y-74393584D01*
X147999481Y-74104324D01*
X147999483Y-74104312D01*
X148018773Y-73810000D01*
X147999483Y-73515687D01*
X147999481Y-73515675D01*
X147941944Y-73226415D01*
X147941940Y-73226400D01*
X147847133Y-72947111D01*
X147716687Y-72682593D01*
X147716680Y-72682580D01*
X147552822Y-72437350D01*
X147523539Y-72403958D01*
X146734506Y-73192991D01*
X146685598Y-73114001D01*
X146542015Y-72956499D01*
X146383556Y-72836835D01*
X147169986Y-72050405D01*
X147136595Y-72021123D01*
X146891365Y-71857265D01*
X146891352Y-71857258D01*
X146626834Y-71726812D01*
X146347545Y-71632005D01*
X146347530Y-71632001D01*
X146058270Y-71574464D01*
X146058258Y-71574462D01*
X145763946Y-71555172D01*
X145469633Y-71574462D01*
X145469621Y-71574464D01*
X145180361Y-71632001D01*
X145180346Y-71632005D01*
X144901057Y-71726812D01*
X144636539Y-71857258D01*
X144636526Y-71857265D01*
X144391292Y-72021126D01*
X144391285Y-72021131D01*
X144357905Y-72050403D01*
X144357905Y-72050405D01*
X145144335Y-72836835D01*
X144985877Y-72956499D01*
X144842294Y-73114001D01*
X144793384Y-73192992D01*
X144004351Y-72403959D01*
X143984684Y-72404603D01*
X143968729Y-72414724D01*
X143898861Y-72414310D01*
X143840307Y-72376188D01*
X143811660Y-72312461D01*
X143810500Y-72295542D01*
X143810500Y-69230000D01*
X160645000Y-69230000D01*
X161620000Y-69230000D01*
X161620000Y-68480000D01*
X162120000Y-68480000D01*
X162120000Y-69230000D01*
X163094999Y-69230000D01*
X163094999Y-69180028D01*
X163094998Y-69180013D01*
X163084505Y-69077302D01*
X163029358Y-68910880D01*
X163029356Y-68910875D01*
X162937315Y-68761654D01*
X162813345Y-68637684D01*
X162664124Y-68545643D01*
X162664119Y-68545641D01*
X162497697Y-68490494D01*
X162497690Y-68490493D01*
X162394986Y-68480000D01*
X162120000Y-68480000D01*
X161620000Y-68480000D01*
X161345029Y-68480000D01*
X161345012Y-68480001D01*
X161242302Y-68490494D01*
X161075880Y-68545641D01*
X161075875Y-68545643D01*
X160926654Y-68637684D01*
X160802684Y-68761654D01*
X160710643Y-68910875D01*
X160710641Y-68910880D01*
X160655494Y-69077302D01*
X160655493Y-69077309D01*
X160645000Y-69180013D01*
X160645000Y-69230000D01*
X143810500Y-69230000D01*
X143810500Y-64364500D01*
X143830185Y-64297461D01*
X143882989Y-64251706D01*
X143934500Y-64240500D01*
X178425500Y-64240500D01*
X178492539Y-64260185D01*
X178538294Y-64312989D01*
X178549500Y-64364500D01*
X178549500Y-70255467D01*
X178549416Y-70255889D01*
X178549459Y-70280000D01*
X178549500Y-70280099D01*
X178549617Y-70280383D01*
X178549618Y-70280384D01*
X178549808Y-70280462D01*
X178550000Y-70280541D01*
X178550002Y-70280539D01*
X178574616Y-70280524D01*
X178574616Y-70280528D01*
X178574760Y-70280500D01*
X181525240Y-70280500D01*
X181525383Y-70280528D01*
X181525384Y-70280524D01*
X181549997Y-70280539D01*
X181550000Y-70280541D01*
X181550383Y-70280383D01*
X181550500Y-70280099D01*
X181550541Y-70280000D01*
X181550540Y-70279997D01*
X181550583Y-70255889D01*
X181550500Y-70255467D01*
X181550500Y-66360713D01*
X181910000Y-66360713D01*
X181925418Y-66512338D01*
X181986299Y-66706381D01*
X181986304Y-66706391D01*
X182085005Y-66884215D01*
X182085005Y-66884216D01*
X182217478Y-67038530D01*
X182217479Y-67038531D01*
X182378304Y-67163018D01*
X182560907Y-67252589D01*
X182660000Y-67278244D01*
X182660000Y-66476110D01*
X182684457Y-66515610D01*
X182773962Y-66583201D01*
X182881840Y-66613895D01*
X182993521Y-66603546D01*
X183093922Y-66553552D01*
X183160000Y-66481069D01*
X183160000Y-67283366D01*
X183161944Y-67283069D01*
X183161945Y-67283069D01*
X183352660Y-67212436D01*
X183352664Y-67212434D01*
X183525267Y-67104850D01*
X183672668Y-66964735D01*
X183672669Y-66964733D01*
X183788856Y-66797804D01*
X183869059Y-66610907D01*
X183910000Y-66411690D01*
X183910000Y-66260000D01*
X183210000Y-66260000D01*
X183210000Y-65760000D01*
X183910000Y-65760000D01*
X183910000Y-65659286D01*
X183894581Y-65507661D01*
X183833700Y-65313618D01*
X183833695Y-65313608D01*
X183734994Y-65135784D01*
X183734994Y-65135783D01*
X183602521Y-64981469D01*
X183602520Y-64981468D01*
X183441695Y-64856981D01*
X183259093Y-64767411D01*
X183160000Y-64741753D01*
X183160000Y-65543889D01*
X183135543Y-65504390D01*
X183046038Y-65436799D01*
X182938160Y-65406105D01*
X182826479Y-65416454D01*
X182726078Y-65466448D01*
X182660000Y-65538930D01*
X182660000Y-64736633D01*
X182658053Y-64736931D01*
X182658047Y-64736933D01*
X182467342Y-64807562D01*
X182467335Y-64807565D01*
X182294732Y-64915149D01*
X182147331Y-65055264D01*
X182147330Y-65055266D01*
X182031143Y-65222195D01*
X181950940Y-65409092D01*
X181910000Y-65608309D01*
X181910000Y-65760000D01*
X182610000Y-65760000D01*
X182610000Y-66260000D01*
X181910000Y-66260000D01*
X181910000Y-66360713D01*
X181550500Y-66360713D01*
X181550500Y-64354500D01*
X181570185Y-64287461D01*
X181622989Y-64241706D01*
X181674500Y-64230500D01*
X192425500Y-64230500D01*
X192492539Y-64250185D01*
G37*
%TD.AperFunction*%
%TA.AperFunction,Conductor*%
G36*
X181121496Y-77298185D02*
G01*
X181142138Y-77314819D01*
X182705181Y-78877862D01*
X182738666Y-78939185D01*
X182741500Y-78965543D01*
X182741500Y-80300537D01*
X182741501Y-80300553D01*
X182752113Y-80404427D01*
X182789871Y-80518375D01*
X182807885Y-80572738D01*
X182900970Y-80723652D01*
X183026348Y-80849030D01*
X183177262Y-80942115D01*
X183345574Y-80997887D01*
X183449455Y-81008500D01*
X183617500Y-81008499D01*
X183684539Y-81028183D01*
X183730294Y-81080987D01*
X183741500Y-81132499D01*
X183741500Y-86064457D01*
X183721815Y-86131496D01*
X183705181Y-86152138D01*
X177142138Y-92715181D01*
X177080815Y-92748666D01*
X177054457Y-92751500D01*
X175104245Y-92751500D01*
X175037206Y-92731815D01*
X174991451Y-92679011D01*
X174986539Y-92666504D01*
X174950240Y-92556961D01*
X174932115Y-92502262D01*
X174839030Y-92351348D01*
X174713652Y-92225970D01*
X174575316Y-92140643D01*
X174562740Y-92132886D01*
X174562735Y-92132884D01*
X174394427Y-92077113D01*
X174290546Y-92066500D01*
X173689462Y-92066500D01*
X173689446Y-92066501D01*
X173585572Y-92077113D01*
X173417264Y-92132884D01*
X173417259Y-92132886D01*
X173266346Y-92225971D01*
X173140970Y-92351347D01*
X173140968Y-92351350D01*
X173140541Y-92352043D01*
X173140123Y-92352418D01*
X173136489Y-92357015D01*
X173135703Y-92356393D01*
X173088591Y-92398764D01*
X173019627Y-92409983D01*
X172955547Y-92382136D01*
X172937739Y-92361578D01*
X172936798Y-92362323D01*
X172932316Y-92356655D01*
X172808345Y-92232684D01*
X172659124Y-92140643D01*
X172659119Y-92140641D01*
X172492697Y-92085494D01*
X172492690Y-92085493D01*
X172389986Y-92075000D01*
X172340000Y-92075000D01*
X172340000Y-94524999D01*
X172389972Y-94524999D01*
X172389986Y-94524998D01*
X172492697Y-94514505D01*
X172659119Y-94459358D01*
X172659124Y-94459356D01*
X172808345Y-94367315D01*
X172932316Y-94243344D01*
X172936798Y-94237677D01*
X172938991Y-94239411D01*
X172981357Y-94201265D01*
X173050314Y-94190008D01*
X173114410Y-94217818D01*
X173136334Y-94243106D01*
X173136489Y-94242985D01*
X173139183Y-94246392D01*
X173140545Y-94247963D01*
X173140969Y-94248651D01*
X173255181Y-94362863D01*
X173288666Y-94424186D01*
X173291500Y-94450544D01*
X173291500Y-94947500D01*
X173271815Y-95014539D01*
X173219011Y-95060294D01*
X173167500Y-95071500D01*
X173151345Y-95071500D01*
X173090797Y-95078011D01*
X173090795Y-95078011D01*
X172953795Y-95129111D01*
X172836739Y-95216739D01*
X172749111Y-95333795D01*
X172698011Y-95470795D01*
X172698011Y-95470797D01*
X172691500Y-95531345D01*
X172691500Y-97328654D01*
X172698011Y-97389202D01*
X172698011Y-97389204D01*
X172746802Y-97520013D01*
X172749111Y-97526204D01*
X172836739Y-97643261D01*
X172953796Y-97730889D01*
X173090799Y-97781989D01*
X173118050Y-97784918D01*
X173151345Y-97788499D01*
X173151362Y-97788500D01*
X174948638Y-97788500D01*
X174948654Y-97788499D01*
X174975692Y-97785591D01*
X175009201Y-97781989D01*
X175146204Y-97730889D01*
X175263261Y-97643261D01*
X175350889Y-97526204D01*
X175396138Y-97404887D01*
X175438009Y-97348956D01*
X175503474Y-97324539D01*
X175571746Y-97339391D01*
X175603545Y-97364236D01*
X175666760Y-97432906D01*
X175844424Y-97571189D01*
X175844425Y-97571189D01*
X175844427Y-97571191D01*
X175891636Y-97596739D01*
X176042426Y-97678342D01*
X176042429Y-97678343D01*
X176121561Y-97705509D01*
X176178576Y-97745894D01*
X176204707Y-97810694D01*
X176191656Y-97879334D01*
X176168981Y-97910469D01*
X176074268Y-98005182D01*
X176012948Y-98038666D01*
X175986589Y-98041500D01*
X166867500Y-98041500D01*
X166800461Y-98021815D01*
X166754706Y-97969011D01*
X166743500Y-97917500D01*
X166743500Y-96318410D01*
X166763185Y-96251371D01*
X166779819Y-96230729D01*
X166911346Y-96099202D01*
X167108548Y-95901999D01*
X167169869Y-95868516D01*
X167239560Y-95873500D01*
X167246662Y-95876402D01*
X167287862Y-95894745D01*
X167363215Y-95928294D01*
X167550016Y-95968000D01*
X167740990Y-95968000D01*
X167927791Y-95928294D01*
X168102255Y-95850618D01*
X168256756Y-95738366D01*
X168384543Y-95596444D01*
X168480030Y-95431056D01*
X168513496Y-95328056D01*
X168552933Y-95270381D01*
X168605642Y-95245085D01*
X168682288Y-95228794D01*
X168856752Y-95151118D01*
X169011253Y-95038866D01*
X169139040Y-94896944D01*
X169234527Y-94731556D01*
X169293542Y-94549928D01*
X169313504Y-94360000D01*
X169293542Y-94170072D01*
X169234527Y-93988444D01*
X169139040Y-93823056D01*
X169011253Y-93681134D01*
X168856752Y-93568882D01*
X168814342Y-93550000D01*
X171090001Y-93550000D01*
X171090001Y-93824986D01*
X171100494Y-93927697D01*
X171155641Y-94094119D01*
X171155643Y-94094124D01*
X171247684Y-94243345D01*
X171371654Y-94367315D01*
X171520875Y-94459356D01*
X171520880Y-94459358D01*
X171687302Y-94514505D01*
X171687309Y-94514506D01*
X171790019Y-94524999D01*
X171839999Y-94524998D01*
X171840000Y-94524998D01*
X171840000Y-93550000D01*
X171090001Y-93550000D01*
X168814342Y-93550000D01*
X168682288Y-93491206D01*
X168682286Y-93491205D01*
X168495487Y-93451500D01*
X168304513Y-93451500D01*
X168117714Y-93491205D01*
X167943246Y-93568883D01*
X167788744Y-93681136D01*
X167788741Y-93681138D01*
X167762330Y-93710472D01*
X167702843Y-93747121D01*
X167670180Y-93751500D01*
X167158005Y-93751500D01*
X167141820Y-93750439D01*
X167110001Y-93746250D01*
X167110000Y-93746250D01*
X167103384Y-93747121D01*
X167074151Y-93750969D01*
X167074150Y-93750968D01*
X167074139Y-93750970D01*
X166976011Y-93763889D01*
X166951150Y-93767161D01*
X166951145Y-93767163D01*
X166803128Y-93828473D01*
X166803123Y-93828476D01*
X166708467Y-93901107D01*
X166708468Y-93901108D01*
X166676011Y-93926014D01*
X166656467Y-93951483D01*
X166645775Y-93963674D01*
X164963670Y-95645779D01*
X164951479Y-95656471D01*
X164926013Y-95676013D01*
X164901522Y-95707927D01*
X164901523Y-95707928D01*
X164864265Y-95756484D01*
X164855438Y-95767987D01*
X164799010Y-95809189D01*
X164757062Y-95816500D01*
X164436355Y-95816500D01*
X164398252Y-95820596D01*
X164371748Y-95820596D01*
X164333644Y-95816500D01*
X164333638Y-95816500D01*
X163786362Y-95816500D01*
X163786355Y-95816500D01*
X163748252Y-95820596D01*
X163721748Y-95820596D01*
X163683644Y-95816500D01*
X163683638Y-95816500D01*
X163660084Y-95816500D01*
X163593045Y-95796815D01*
X163547290Y-95744011D01*
X163537346Y-95674853D01*
X163543045Y-95651539D01*
X163543067Y-95651474D01*
X163543217Y-95651047D01*
X163553482Y-95559943D01*
X163563616Y-95470003D01*
X163563616Y-95469996D01*
X163543218Y-95288958D01*
X163543217Y-95288953D01*
X163525889Y-95239432D01*
X163483043Y-95116985D01*
X163386111Y-94962719D01*
X163257281Y-94833889D01*
X163103015Y-94736957D01*
X163048693Y-94717949D01*
X162931046Y-94676782D01*
X162931041Y-94676781D01*
X162750004Y-94656384D01*
X162749996Y-94656384D01*
X162568958Y-94676781D01*
X162568953Y-94676782D01*
X162396982Y-94736958D01*
X162242718Y-94833889D01*
X162113889Y-94962718D01*
X162016958Y-95116982D01*
X161956782Y-95288953D01*
X161956781Y-95288958D01*
X161936384Y-95469996D01*
X161936384Y-95470003D01*
X161956782Y-95651044D01*
X161956955Y-95651539D01*
X161956972Y-95651878D01*
X161958332Y-95657836D01*
X161957288Y-95658074D01*
X161960521Y-95721318D01*
X161925795Y-95781947D01*
X161863803Y-95814177D01*
X161839916Y-95816500D01*
X161836355Y-95816500D01*
X161798252Y-95820596D01*
X161771748Y-95820596D01*
X161733644Y-95816500D01*
X161733638Y-95816500D01*
X161186362Y-95816500D01*
X161186355Y-95816500D01*
X161148252Y-95820596D01*
X161121748Y-95820596D01*
X161083644Y-95816500D01*
X161083638Y-95816500D01*
X160536362Y-95816500D01*
X160536355Y-95816500D01*
X160498252Y-95820596D01*
X160471748Y-95820596D01*
X160433644Y-95816500D01*
X160433638Y-95816500D01*
X159886362Y-95816500D01*
X159886355Y-95816500D01*
X159848252Y-95820596D01*
X159821748Y-95820596D01*
X159783644Y-95816500D01*
X159783638Y-95816500D01*
X159617500Y-95816500D01*
X159550461Y-95796815D01*
X159504706Y-95744011D01*
X159493500Y-95692500D01*
X159493500Y-95573632D01*
X159495239Y-95557880D01*
X159494968Y-95557855D01*
X159495700Y-95550099D01*
X159495702Y-95550092D01*
X159493561Y-95481968D01*
X159493500Y-95478073D01*
X159493500Y-95450147D01*
X159493500Y-95450144D01*
X159492982Y-95446047D01*
X159492065Y-95434398D01*
X159490674Y-95390113D01*
X159490674Y-95390111D01*
X159484974Y-95370492D01*
X159481031Y-95351446D01*
X159479696Y-95340880D01*
X159478474Y-95331203D01*
X159462156Y-95289990D01*
X159458386Y-95278975D01*
X159446019Y-95236407D01*
X159435620Y-95218824D01*
X159427066Y-95201363D01*
X159419552Y-95182383D01*
X159393504Y-95146532D01*
X159387099Y-95136780D01*
X159383338Y-95130420D01*
X159366847Y-95081180D01*
X159363217Y-95048953D01*
X159303043Y-94876985D01*
X159206111Y-94722719D01*
X159077281Y-94593889D01*
X159011780Y-94552732D01*
X158923017Y-94496958D01*
X158923016Y-94496957D01*
X158923015Y-94496957D01*
X158868693Y-94477949D01*
X158751046Y-94436782D01*
X158751041Y-94436781D01*
X158570004Y-94416384D01*
X158569996Y-94416384D01*
X158388958Y-94436781D01*
X158388953Y-94436782D01*
X158216982Y-94496958D01*
X158062718Y-94593889D01*
X157933889Y-94722718D01*
X157836957Y-94876983D01*
X157812283Y-94947500D01*
X157782205Y-95033455D01*
X157741485Y-95090230D01*
X157676533Y-95115978D01*
X157665165Y-95116500D01*
X156360521Y-95116500D01*
X156293482Y-95096815D01*
X156247727Y-95044011D01*
X156237783Y-94974853D01*
X156254403Y-94928352D01*
X156275827Y-94892913D01*
X156327013Y-94728649D01*
X156333500Y-94657265D01*
X156333499Y-94142736D01*
X156333499Y-94142727D01*
X156327014Y-94071354D01*
X156327011Y-94071344D01*
X156275828Y-93907090D01*
X156275827Y-93907089D01*
X156275827Y-93907087D01*
X156186816Y-93759845D01*
X156186814Y-93759843D01*
X156186813Y-93759841D01*
X156083641Y-93656669D01*
X156050156Y-93595346D01*
X156055140Y-93525654D01*
X156083642Y-93481306D01*
X156180071Y-93384878D01*
X156180072Y-93384877D01*
X156268019Y-93239395D01*
X156318590Y-93077106D01*
X156321053Y-93050000D01*
X171090000Y-93050000D01*
X171840000Y-93050000D01*
X171840000Y-92075000D01*
X171839999Y-92074999D01*
X171790029Y-92075000D01*
X171790011Y-92075001D01*
X171687302Y-92085494D01*
X171520880Y-92140641D01*
X171520875Y-92140643D01*
X171371654Y-92232684D01*
X171247684Y-92356654D01*
X171155643Y-92505875D01*
X171155641Y-92505880D01*
X171100494Y-92672302D01*
X171100493Y-92672309D01*
X171090000Y-92775013D01*
X171090000Y-93050000D01*
X156321053Y-93050000D01*
X156325000Y-93006572D01*
X156325000Y-93000000D01*
X155224000Y-93000000D01*
X155156961Y-92980315D01*
X155111206Y-92927511D01*
X155100000Y-92876000D01*
X155100000Y-92624000D01*
X155119685Y-92556961D01*
X155172489Y-92511206D01*
X155224000Y-92500000D01*
X156324999Y-92500000D01*
X156324999Y-92493417D01*
X156318591Y-92422897D01*
X156318590Y-92422892D01*
X156268018Y-92260603D01*
X156180072Y-92115122D01*
X156059877Y-91994927D01*
X155914395Y-91906980D01*
X155914396Y-91906980D01*
X155752105Y-91856409D01*
X155752107Y-91856409D01*
X155700747Y-91851742D01*
X155635765Y-91826071D01*
X155594977Y-91769343D01*
X155591333Y-91699568D01*
X155625991Y-91638900D01*
X155672963Y-91610546D01*
X155780692Y-91574849D01*
X155925387Y-91485600D01*
X156045600Y-91365387D01*
X156134849Y-91220692D01*
X156188324Y-91059314D01*
X156198500Y-90959711D01*
X156198499Y-90100290D01*
X156188324Y-90000686D01*
X156134849Y-89839308D01*
X156045600Y-89694613D01*
X155925387Y-89574400D01*
X155866549Y-89538108D01*
X155819827Y-89486162D01*
X155808605Y-89417199D01*
X155826110Y-89367473D01*
X155827545Y-89365147D01*
X155832115Y-89357738D01*
X155887887Y-89189426D01*
X155898500Y-89085545D01*
X155898499Y-88517499D01*
X155918183Y-88450461D01*
X155970987Y-88404706D01*
X156022499Y-88393500D01*
X156336301Y-88393500D01*
X156336306Y-88393500D01*
X156474702Y-88378954D01*
X156651331Y-88321564D01*
X156812169Y-88228704D01*
X156920282Y-88131358D01*
X156950180Y-88104439D01*
X156950180Y-88104437D01*
X156950185Y-88104434D01*
X156996855Y-88040197D01*
X157052184Y-87997532D01*
X157121798Y-87991553D01*
X157183593Y-88024158D01*
X157184854Y-88025402D01*
X157691802Y-88532350D01*
X157725287Y-88593673D01*
X157720303Y-88663365D01*
X157678433Y-88719297D01*
X157621737Y-88761740D01*
X157558266Y-88846527D01*
X157502333Y-88888398D01*
X157432641Y-88893382D01*
X157371318Y-88859896D01*
X157337834Y-88798573D01*
X157335000Y-88772216D01*
X157335000Y-88625000D01*
X157287155Y-88625000D01*
X157227627Y-88631401D01*
X157227620Y-88631403D01*
X157092913Y-88681645D01*
X157092906Y-88681649D01*
X156977812Y-88767809D01*
X156977809Y-88767812D01*
X156891649Y-88882906D01*
X156891645Y-88882913D01*
X156841403Y-89017620D01*
X156841401Y-89017627D01*
X156835000Y-89077155D01*
X156835000Y-89775000D01*
X157352500Y-89775000D01*
X157419539Y-89794685D01*
X157465294Y-89847489D01*
X157476500Y-89899000D01*
X157476500Y-90101000D01*
X157456815Y-90168039D01*
X157404011Y-90213794D01*
X157352500Y-90225000D01*
X156835000Y-90225000D01*
X156835000Y-90922844D01*
X156841401Y-90982372D01*
X156841403Y-90982379D01*
X156891645Y-91117086D01*
X156891649Y-91117093D01*
X156977809Y-91232187D01*
X156977812Y-91232190D01*
X157092906Y-91318350D01*
X157092913Y-91318354D01*
X157227620Y-91368596D01*
X157227627Y-91368598D01*
X157287155Y-91374999D01*
X157287172Y-91375000D01*
X157335000Y-91375000D01*
X157335000Y-91227783D01*
X157354685Y-91160744D01*
X157407489Y-91114989D01*
X157476647Y-91105045D01*
X157540203Y-91134070D01*
X157558264Y-91153469D01*
X157621739Y-91238261D01*
X157735311Y-91323280D01*
X157747628Y-91339733D01*
X157748681Y-91338681D01*
X157785000Y-91375000D01*
X157832822Y-91375000D01*
X157832823Y-91374999D01*
X157835452Y-91374717D01*
X157868022Y-91376753D01*
X157868086Y-91376160D01*
X157936345Y-91383499D01*
X157936362Y-91383500D01*
X158483638Y-91383500D01*
X158486120Y-91383233D01*
X158521745Y-91379404D01*
X158548255Y-91379404D01*
X158586343Y-91383498D01*
X158586362Y-91383500D01*
X159133638Y-91383500D01*
X159136120Y-91383233D01*
X159171745Y-91379404D01*
X159198255Y-91379404D01*
X159236343Y-91383498D01*
X159236362Y-91383500D01*
X159783638Y-91383500D01*
X159786120Y-91383233D01*
X159821745Y-91379404D01*
X159848255Y-91379404D01*
X159886343Y-91383498D01*
X159886362Y-91383500D01*
X160433638Y-91383500D01*
X160436120Y-91383233D01*
X160471745Y-91379404D01*
X160498255Y-91379404D01*
X160536343Y-91383498D01*
X160536362Y-91383500D01*
X161083638Y-91383500D01*
X161086120Y-91383233D01*
X161121745Y-91379404D01*
X161148255Y-91379404D01*
X161186343Y-91383498D01*
X161186362Y-91383500D01*
X161733638Y-91383500D01*
X161736120Y-91383233D01*
X161771745Y-91379404D01*
X161798255Y-91379404D01*
X161836343Y-91383498D01*
X161836362Y-91383500D01*
X162383638Y-91383500D01*
X162386120Y-91383233D01*
X162421745Y-91379404D01*
X162448255Y-91379404D01*
X162486343Y-91383498D01*
X162486362Y-91383500D01*
X163033638Y-91383500D01*
X163036120Y-91383233D01*
X163071745Y-91379404D01*
X163098255Y-91379404D01*
X163136343Y-91383498D01*
X163136362Y-91383500D01*
X163683638Y-91383500D01*
X163686120Y-91383233D01*
X163721745Y-91379404D01*
X163748255Y-91379404D01*
X163786343Y-91383498D01*
X163786362Y-91383500D01*
X164333638Y-91383500D01*
X164336120Y-91383233D01*
X164371745Y-91379404D01*
X164398255Y-91379404D01*
X164436343Y-91383498D01*
X164436362Y-91383500D01*
X164983638Y-91383500D01*
X164986120Y-91383233D01*
X165021745Y-91379404D01*
X165048255Y-91379404D01*
X165086343Y-91383498D01*
X165086362Y-91383500D01*
X165633638Y-91383500D01*
X165636120Y-91383233D01*
X165671745Y-91379404D01*
X165698255Y-91379404D01*
X165736343Y-91383498D01*
X165736362Y-91383500D01*
X166283638Y-91383500D01*
X166283654Y-91383499D01*
X166310692Y-91380591D01*
X166344201Y-91376989D01*
X166349537Y-91374999D01*
X166375304Y-91365388D01*
X166481204Y-91325889D01*
X166598261Y-91238261D01*
X166685889Y-91121204D01*
X166736989Y-90984201D01*
X166740591Y-90950692D01*
X166743499Y-90923654D01*
X166743500Y-90923637D01*
X166743500Y-90540000D01*
X167185001Y-90540000D01*
X167185001Y-90589986D01*
X167195494Y-90692697D01*
X167250641Y-90859119D01*
X167250643Y-90859124D01*
X167342684Y-91008345D01*
X167466654Y-91132315D01*
X167615875Y-91224356D01*
X167615880Y-91224358D01*
X167782302Y-91279505D01*
X167782309Y-91279506D01*
X167885019Y-91289999D01*
X168159999Y-91289999D01*
X168160000Y-91289998D01*
X168160000Y-90540000D01*
X168660000Y-90540000D01*
X168660000Y-91289999D01*
X168934972Y-91289999D01*
X168934986Y-91289998D01*
X169037697Y-91279505D01*
X169204119Y-91224358D01*
X169204124Y-91224356D01*
X169353345Y-91132315D01*
X169477315Y-91008345D01*
X169569356Y-90859124D01*
X169569358Y-90859119D01*
X169624505Y-90692697D01*
X169624506Y-90692690D01*
X169634999Y-90589986D01*
X169635000Y-90589973D01*
X169635000Y-90540000D01*
X168660000Y-90540000D01*
X168160000Y-90540000D01*
X167185001Y-90540000D01*
X166743500Y-90540000D01*
X166743500Y-89599941D01*
X166763185Y-89532902D01*
X166789460Y-89503579D01*
X166849486Y-89454972D01*
X167044639Y-89259819D01*
X167105962Y-89226334D01*
X167132320Y-89223500D01*
X167393434Y-89223500D01*
X167460473Y-89243185D01*
X167506228Y-89295989D01*
X167516172Y-89365147D01*
X167487147Y-89428703D01*
X167470346Y-89444766D01*
X167466652Y-89447686D01*
X167342684Y-89571654D01*
X167250643Y-89720875D01*
X167250641Y-89720880D01*
X167195494Y-89887302D01*
X167195493Y-89887309D01*
X167185000Y-89990013D01*
X167185000Y-90040000D01*
X169634999Y-90040000D01*
X169634999Y-89990028D01*
X169634998Y-89990013D01*
X169624505Y-89887302D01*
X169569358Y-89720880D01*
X169569356Y-89720875D01*
X169477315Y-89571654D01*
X169353344Y-89447683D01*
X169347677Y-89443202D01*
X169349404Y-89441016D01*
X169311240Y-89398589D01*
X169300015Y-89329627D01*
X169327855Y-89265543D01*
X169353106Y-89243664D01*
X169352985Y-89243511D01*
X169356401Y-89240809D01*
X169357969Y-89239451D01*
X169358652Y-89239030D01*
X169484030Y-89113652D01*
X169577115Y-88962738D01*
X169632887Y-88794426D01*
X169643500Y-88690545D01*
X169643499Y-88089456D01*
X169632887Y-87985574D01*
X169577115Y-87817262D01*
X169484030Y-87666348D01*
X169358652Y-87540970D01*
X169253942Y-87476384D01*
X169207740Y-87447886D01*
X169207735Y-87447884D01*
X169039427Y-87392113D01*
X168935546Y-87381500D01*
X167884462Y-87381500D01*
X167884446Y-87381501D01*
X167780572Y-87392113D01*
X167705046Y-87417140D01*
X167612262Y-87447885D01*
X167612260Y-87447886D01*
X167605407Y-87450157D01*
X167604686Y-87447983D01*
X167566298Y-87456500D01*
X167558412Y-87456500D01*
X167491373Y-87436815D01*
X167445618Y-87384011D01*
X167435674Y-87314853D01*
X167464699Y-87251297D01*
X167470731Y-87244819D01*
X168385550Y-86330000D01*
X171255547Y-83460001D01*
X174114532Y-83460001D01*
X174134364Y-83686686D01*
X174134366Y-83686697D01*
X174193258Y-83906488D01*
X174193261Y-83906497D01*
X174289431Y-84112732D01*
X174289432Y-84112734D01*
X174419954Y-84299141D01*
X174580858Y-84460045D01*
X174580861Y-84460047D01*
X174767266Y-84590568D01*
X174973504Y-84686739D01*
X175193308Y-84745635D01*
X175363214Y-84760499D01*
X175363215Y-84760500D01*
X175363216Y-84760500D01*
X175476785Y-84760500D01*
X175476785Y-84760499D01*
X175646692Y-84745635D01*
X175866496Y-84686739D01*
X176072734Y-84590568D01*
X176259139Y-84460047D01*
X176420047Y-84299139D01*
X176550568Y-84112734D01*
X176646739Y-83906496D01*
X176705635Y-83686692D01*
X176725468Y-83460000D01*
X176722214Y-83422812D01*
X176718031Y-83375000D01*
X176705635Y-83233308D01*
X176646739Y-83013504D01*
X176550568Y-82807266D01*
X176450952Y-82664999D01*
X176420045Y-82620858D01*
X176259141Y-82459954D01*
X176072734Y-82329432D01*
X176072732Y-82329431D01*
X175866497Y-82233261D01*
X175866488Y-82233258D01*
X175646697Y-82174366D01*
X175646687Y-82174364D01*
X175476785Y-82159500D01*
X175476784Y-82159500D01*
X175363216Y-82159500D01*
X175363215Y-82159500D01*
X175193312Y-82174364D01*
X175193302Y-82174366D01*
X174973511Y-82233258D01*
X174973502Y-82233261D01*
X174767267Y-82329431D01*
X174767265Y-82329432D01*
X174580858Y-82459954D01*
X174419954Y-82620858D01*
X174289432Y-82807265D01*
X174289431Y-82807267D01*
X174193261Y-83013502D01*
X174193258Y-83013511D01*
X174134366Y-83233302D01*
X174134364Y-83233313D01*
X174114532Y-83459998D01*
X174114532Y-83460001D01*
X171255547Y-83460001D01*
X171586331Y-83129217D01*
X171598521Y-83118528D01*
X171623987Y-83098988D01*
X171642261Y-83075172D01*
X171642267Y-83075165D01*
X171648475Y-83067074D01*
X171648477Y-83067073D01*
X171721524Y-82971877D01*
X171782838Y-82823852D01*
X171792144Y-82753164D01*
X171798500Y-82704886D01*
X171799030Y-82700861D01*
X171799031Y-82700846D01*
X171803750Y-82665002D01*
X171803750Y-82664999D01*
X171799561Y-82633181D01*
X171798500Y-82616996D01*
X171798500Y-80518375D01*
X171818185Y-80451336D01*
X171870989Y-80405581D01*
X171933305Y-80394847D01*
X172019967Y-80402429D01*
X172029999Y-80403307D01*
X172030000Y-80403307D01*
X172030002Y-80403307D01*
X172090649Y-80398001D01*
X172249371Y-80384115D01*
X172462076Y-80327120D01*
X172661654Y-80234056D01*
X172842038Y-80107749D01*
X172997749Y-79952038D01*
X173124056Y-79771654D01*
X173167618Y-79678233D01*
X173213790Y-79625794D01*
X173280983Y-79606642D01*
X173347864Y-79626857D01*
X173392381Y-79678233D01*
X173435944Y-79771654D01*
X173562251Y-79952038D01*
X173717962Y-80107749D01*
X173898346Y-80234056D01*
X174097924Y-80327120D01*
X174310629Y-80384115D01*
X174467322Y-80397823D01*
X174529998Y-80403307D01*
X174530000Y-80403307D01*
X174530002Y-80403307D01*
X174590649Y-80398001D01*
X174749371Y-80384115D01*
X174962076Y-80327120D01*
X175161654Y-80234056D01*
X175280607Y-80150763D01*
X175346812Y-80128436D01*
X175414579Y-80145446D01*
X175462392Y-80196393D01*
X175469149Y-80212479D01*
X175516812Y-80352888D01*
X175647258Y-80617406D01*
X175647265Y-80617419D01*
X175811123Y-80862649D01*
X175840405Y-80896040D01*
X176629438Y-80107007D01*
X176678348Y-80185999D01*
X176821931Y-80343501D01*
X176980388Y-80463163D01*
X176193958Y-81249593D01*
X176227350Y-81278876D01*
X176472580Y-81442734D01*
X176472593Y-81442741D01*
X176737111Y-81573187D01*
X177016400Y-81667994D01*
X177016415Y-81667998D01*
X177305675Y-81725535D01*
X177305687Y-81725537D01*
X177600000Y-81744827D01*
X177894312Y-81725537D01*
X177894324Y-81725535D01*
X178183584Y-81667998D01*
X178183599Y-81667994D01*
X178462888Y-81573187D01*
X178727406Y-81442741D01*
X178727419Y-81442734D01*
X178972648Y-81278877D01*
X179006039Y-81249593D01*
X178219611Y-80463163D01*
X178378069Y-80343501D01*
X178521652Y-80185999D01*
X178570561Y-80107007D01*
X179359593Y-80896039D01*
X179388877Y-80862648D01*
X179552734Y-80617419D01*
X179552741Y-80617406D01*
X179683187Y-80352888D01*
X179777994Y-80073599D01*
X179777998Y-80073584D01*
X179835535Y-79784324D01*
X179835537Y-79784312D01*
X179854827Y-79490000D01*
X179835537Y-79195687D01*
X179835535Y-79195675D01*
X179777998Y-78906415D01*
X179777994Y-78906400D01*
X179683187Y-78627111D01*
X179552741Y-78362593D01*
X179552734Y-78362580D01*
X179388876Y-78117350D01*
X179359593Y-78083958D01*
X178570560Y-78872991D01*
X178521652Y-78794001D01*
X178378069Y-78636499D01*
X178219610Y-78516835D01*
X179006040Y-77730405D01*
X178972649Y-77701123D01*
X178727419Y-77537265D01*
X178727400Y-77537255D01*
X178679660Y-77513712D01*
X178628240Y-77466407D01*
X178610558Y-77398812D01*
X178632228Y-77332388D01*
X178686369Y-77288223D01*
X178734503Y-77278500D01*
X181054457Y-77278500D01*
X181121496Y-77298185D01*
G37*
%TD.AperFunction*%
%TA.AperFunction,Conductor*%
G36*
X165118586Y-85700039D02*
G01*
X165137746Y-85705606D01*
X165174516Y-85708500D01*
X165174522Y-85708500D01*
X165645478Y-85708500D01*
X165645484Y-85708500D01*
X165645492Y-85708499D01*
X165645500Y-85708499D01*
X165654272Y-85707808D01*
X165657769Y-85707533D01*
X165726147Y-85721894D01*
X165773620Y-85766999D01*
X165774173Y-85767913D01*
X165844852Y-85884831D01*
X165862689Y-85952384D01*
X165841172Y-86018858D01*
X165826417Y-86036661D01*
X165171681Y-86691398D01*
X165110358Y-86724883D01*
X165040667Y-86719899D01*
X164984733Y-86678028D01*
X164960316Y-86612563D01*
X164960000Y-86603717D01*
X164960000Y-86330000D01*
X164010000Y-86330000D01*
X164010000Y-87180000D01*
X164383717Y-87180000D01*
X164450756Y-87199685D01*
X164496511Y-87252489D01*
X164506455Y-87321647D01*
X164477430Y-87385203D01*
X164471398Y-87391681D01*
X164138416Y-87724662D01*
X164077093Y-87758147D01*
X164007401Y-87753163D01*
X163963054Y-87724662D01*
X163892281Y-87653889D01*
X163738017Y-87556958D01*
X163738016Y-87556957D01*
X163738015Y-87556957D01*
X163683693Y-87537949D01*
X163566046Y-87496782D01*
X163566042Y-87496781D01*
X163478616Y-87486931D01*
X163414202Y-87459864D01*
X163374647Y-87402269D01*
X163368500Y-87363711D01*
X163368500Y-87304000D01*
X163388185Y-87236961D01*
X163440989Y-87191206D01*
X163492500Y-87180000D01*
X163510000Y-87180000D01*
X163510000Y-85954000D01*
X163529685Y-85886961D01*
X163582489Y-85841206D01*
X163634000Y-85830000D01*
X164960000Y-85830000D01*
X164960000Y-85819118D01*
X164979685Y-85752079D01*
X165032489Y-85706324D01*
X165101647Y-85696380D01*
X165118586Y-85700039D01*
G37*
%TD.AperFunction*%
%TA.AperFunction,Conductor*%
G36*
X170921496Y-71738185D02*
G01*
X170942138Y-71754819D01*
X173735181Y-74547862D01*
X173768666Y-74609185D01*
X173771500Y-74635543D01*
X173771500Y-75146101D01*
X173751815Y-75213140D01*
X173699011Y-75258895D01*
X173676017Y-75266777D01*
X173670800Y-75268009D01*
X173533795Y-75319111D01*
X173416739Y-75406739D01*
X173329111Y-75523795D01*
X173278011Y-75660795D01*
X173278011Y-75660797D01*
X173271634Y-75720105D01*
X173244895Y-75784656D01*
X173187502Y-75824503D01*
X173117677Y-75826996D01*
X173057589Y-75791342D01*
X173046770Y-75777971D01*
X172997752Y-75707966D01*
X172997747Y-75707960D01*
X172842038Y-75552251D01*
X172816626Y-75534457D01*
X172661654Y-75425944D01*
X172661650Y-75425942D01*
X172462081Y-75332882D01*
X172462079Y-75332881D01*
X172462076Y-75332880D01*
X172310777Y-75292339D01*
X172249372Y-75275885D01*
X172249365Y-75275884D01*
X172030002Y-75256693D01*
X172029998Y-75256693D01*
X171810634Y-75275884D01*
X171810627Y-75275885D01*
X171597920Y-75332881D01*
X171398346Y-75425944D01*
X171398342Y-75425946D01*
X171217967Y-75552247D01*
X171217960Y-75552252D01*
X171117681Y-75652532D01*
X171056358Y-75686017D01*
X170986666Y-75681033D01*
X170942319Y-75652532D01*
X170842038Y-75552251D01*
X170816626Y-75534457D01*
X170661654Y-75425944D01*
X170661650Y-75425942D01*
X170462081Y-75332882D01*
X170462079Y-75332881D01*
X170462076Y-75332880D01*
X170310777Y-75292339D01*
X170249372Y-75275885D01*
X170249365Y-75275884D01*
X170030002Y-75256693D01*
X170029998Y-75256693D01*
X169810634Y-75275884D01*
X169810627Y-75275885D01*
X169597920Y-75332881D01*
X169398346Y-75425944D01*
X169398342Y-75425946D01*
X169217967Y-75552247D01*
X169217960Y-75552252D01*
X169062252Y-75707960D01*
X169062247Y-75707967D01*
X168935946Y-75888342D01*
X168935944Y-75888346D01*
X168887693Y-75991822D01*
X168841521Y-76044261D01*
X168774327Y-76063413D01*
X168707446Y-76043197D01*
X168662929Y-75991822D01*
X168616667Y-75892614D01*
X168616666Y-75892612D01*
X168573124Y-75830428D01*
X168573124Y-75830427D01*
X167983779Y-76419772D01*
X167983533Y-76416484D01*
X167932872Y-76287402D01*
X167846414Y-76178987D01*
X167731841Y-76100873D01*
X167627697Y-76068749D01*
X168219571Y-75476874D01*
X168157387Y-75433333D01*
X167959159Y-75340898D01*
X167959150Y-75340894D01*
X167747894Y-75284289D01*
X167747884Y-75284287D01*
X167530001Y-75265225D01*
X167529999Y-75265225D01*
X167312115Y-75284287D01*
X167312105Y-75284289D01*
X167100849Y-75340894D01*
X167100840Y-75340898D01*
X166902613Y-75433333D01*
X166840428Y-75476874D01*
X167432980Y-76069426D01*
X167392881Y-76075471D01*
X167267946Y-76135637D01*
X167166295Y-76229955D01*
X167096961Y-76350045D01*
X167080149Y-76423703D01*
X166486874Y-75830428D01*
X166443333Y-75892613D01*
X166350898Y-76090840D01*
X166350894Y-76090849D01*
X166294289Y-76302105D01*
X166294287Y-76302115D01*
X166275225Y-76519999D01*
X166275225Y-76520000D01*
X166294287Y-76737884D01*
X166294289Y-76737894D01*
X166350894Y-76949150D01*
X166350898Y-76949159D01*
X166443333Y-77147387D01*
X166486874Y-77209571D01*
X167076220Y-76620225D01*
X167076467Y-76623516D01*
X167127128Y-76752598D01*
X167213586Y-76861013D01*
X167328159Y-76939127D01*
X167432301Y-76971250D01*
X166840427Y-77563124D01*
X166902612Y-77606666D01*
X167100840Y-77699101D01*
X167100849Y-77699105D01*
X167142349Y-77710225D01*
X167202010Y-77746590D01*
X167232539Y-77809437D01*
X167224244Y-77878812D01*
X167179759Y-77932690D01*
X167142349Y-77949775D01*
X167100849Y-77960894D01*
X167100840Y-77960898D01*
X166902613Y-78053333D01*
X166840428Y-78096874D01*
X167432980Y-78689426D01*
X167392881Y-78695471D01*
X167267946Y-78755637D01*
X167166295Y-78849955D01*
X167096961Y-78970045D01*
X167080149Y-79043702D01*
X166445987Y-78409541D01*
X166448110Y-78407417D01*
X166423147Y-78383231D01*
X166419813Y-78376934D01*
X166412738Y-78362587D01*
X166248876Y-78117350D01*
X166219593Y-78083958D01*
X165430560Y-78872991D01*
X165381652Y-78794001D01*
X165238069Y-78636499D01*
X165079610Y-78516835D01*
X165866040Y-77730405D01*
X165832649Y-77701123D01*
X165587419Y-77537265D01*
X165587406Y-77537258D01*
X165322888Y-77406812D01*
X165043599Y-77312005D01*
X165043584Y-77312001D01*
X164754324Y-77254464D01*
X164754312Y-77254462D01*
X164460000Y-77235172D01*
X164165687Y-77254462D01*
X164165675Y-77254464D01*
X163876415Y-77312001D01*
X163876400Y-77312005D01*
X163597111Y-77406812D01*
X163332593Y-77537258D01*
X163332580Y-77537265D01*
X163087346Y-77701126D01*
X163087339Y-77701131D01*
X163053959Y-77730403D01*
X163053959Y-77730405D01*
X163840389Y-78516835D01*
X163681931Y-78636499D01*
X163538348Y-78794001D01*
X163489438Y-78872992D01*
X162700405Y-78083959D01*
X162700403Y-78083959D01*
X162671131Y-78117339D01*
X162671126Y-78117346D01*
X162507265Y-78362580D01*
X162507258Y-78362593D01*
X162376812Y-78627111D01*
X162282005Y-78906400D01*
X162282001Y-78906415D01*
X162224464Y-79195675D01*
X162224462Y-79195687D01*
X162205172Y-79490000D01*
X162224462Y-79784312D01*
X162224464Y-79784324D01*
X162282001Y-80073584D01*
X162282005Y-80073599D01*
X162376812Y-80352888D01*
X162507258Y-80617406D01*
X162507265Y-80617419D01*
X162671123Y-80862649D01*
X162700405Y-80896040D01*
X163489438Y-80107007D01*
X163538348Y-80185999D01*
X163681931Y-80343501D01*
X163840388Y-80463163D01*
X163053958Y-81249593D01*
X163087350Y-81278876D01*
X163332580Y-81442734D01*
X163332593Y-81442741D01*
X163597111Y-81573187D01*
X163876400Y-81667994D01*
X163876415Y-81667998D01*
X164165675Y-81725535D01*
X164165687Y-81725537D01*
X164460000Y-81744827D01*
X164754312Y-81725537D01*
X164754324Y-81725535D01*
X165043584Y-81667998D01*
X165043599Y-81667994D01*
X165322888Y-81573187D01*
X165587406Y-81442741D01*
X165587419Y-81442734D01*
X165832648Y-81278877D01*
X165866039Y-81249593D01*
X165079611Y-80463163D01*
X165238069Y-80343501D01*
X165381652Y-80185999D01*
X165430561Y-80107007D01*
X166219593Y-80896039D01*
X166248877Y-80862648D01*
X166412734Y-80617419D01*
X166412741Y-80617406D01*
X166543187Y-80352888D01*
X166593696Y-80204096D01*
X166633885Y-80146942D01*
X166698594Y-80120589D01*
X166767278Y-80133403D01*
X166782239Y-80142380D01*
X166902612Y-80226666D01*
X167100840Y-80319101D01*
X167100849Y-80319105D01*
X167312105Y-80375710D01*
X167312115Y-80375712D01*
X167529999Y-80394775D01*
X167530001Y-80394775D01*
X167747884Y-80375712D01*
X167747894Y-80375710D01*
X167959150Y-80319105D01*
X167959164Y-80319100D01*
X168157383Y-80226669D01*
X168157385Y-80226668D01*
X168219571Y-80183124D01*
X167627019Y-79590572D01*
X167667119Y-79584529D01*
X167792054Y-79524363D01*
X167893705Y-79430045D01*
X167963039Y-79309955D01*
X167979850Y-79236297D01*
X168573124Y-79829570D01*
X168616668Y-79767385D01*
X168616669Y-79767383D01*
X168662929Y-79668179D01*
X168709101Y-79615739D01*
X168776294Y-79596587D01*
X168843175Y-79616802D01*
X168887693Y-79668179D01*
X168935944Y-79771654D01*
X169062251Y-79952038D01*
X169217962Y-80107749D01*
X169398346Y-80234056D01*
X169597924Y-80327120D01*
X169810629Y-80384115D01*
X170030000Y-80403307D01*
X170046691Y-80401846D01*
X170115189Y-80415611D01*
X170165374Y-80464224D01*
X170181500Y-80525374D01*
X170181500Y-82195903D01*
X170161815Y-82262942D01*
X170145181Y-82283584D01*
X167745599Y-84683165D01*
X167684276Y-84716650D01*
X167614584Y-84711666D01*
X167558651Y-84669794D01*
X167551801Y-84659634D01*
X167536816Y-84634845D01*
X167536814Y-84634843D01*
X167536813Y-84634841D01*
X167433641Y-84531669D01*
X167400156Y-84470346D01*
X167405140Y-84400654D01*
X167433642Y-84356306D01*
X167530071Y-84259878D01*
X167530072Y-84259877D01*
X167618019Y-84114395D01*
X167668590Y-83952106D01*
X167675000Y-83881572D01*
X167675000Y-83875000D01*
X166574000Y-83875000D01*
X166506961Y-83855315D01*
X166461206Y-83802511D01*
X166450000Y-83751000D01*
X166450000Y-82725000D01*
X166950000Y-82725000D01*
X166950000Y-83375000D01*
X167674999Y-83375000D01*
X167674999Y-83368417D01*
X167668591Y-83297897D01*
X167668590Y-83297892D01*
X167618018Y-83135603D01*
X167530072Y-82990122D01*
X167409877Y-82869927D01*
X167264395Y-82781980D01*
X167264396Y-82781980D01*
X167102105Y-82731409D01*
X167102106Y-82731409D01*
X167031572Y-82725000D01*
X166950000Y-82725000D01*
X166450000Y-82725000D01*
X166449999Y-82724999D01*
X166368417Y-82725000D01*
X166297897Y-82731408D01*
X166297892Y-82731409D01*
X166135603Y-82781981D01*
X165990122Y-82869927D01*
X165869928Y-82990121D01*
X165869925Y-82990125D01*
X165789700Y-83122832D01*
X165738172Y-83170019D01*
X165673857Y-83182299D01*
X165660001Y-83181208D01*
X165660000Y-83181210D01*
X165660000Y-84007500D01*
X165640315Y-84074539D01*
X165587511Y-84120294D01*
X165536000Y-84131500D01*
X165284000Y-84131500D01*
X165216961Y-84111815D01*
X165171206Y-84059011D01*
X165160000Y-84007500D01*
X165160000Y-83181210D01*
X165159999Y-83181209D01*
X165139087Y-83182854D01*
X165139081Y-83182855D01*
X164983809Y-83227966D01*
X164983804Y-83227968D01*
X164844627Y-83310277D01*
X164838461Y-83315061D01*
X164836565Y-83312617D01*
X164787805Y-83339209D01*
X164718116Y-83334188D01*
X164710564Y-83330737D01*
X164569203Y-83278011D01*
X164508654Y-83271500D01*
X164508638Y-83271500D01*
X163011362Y-83271500D01*
X163011345Y-83271500D01*
X162950797Y-83278011D01*
X162950795Y-83278011D01*
X162813793Y-83329111D01*
X162813792Y-83329112D01*
X162727218Y-83393921D01*
X162661753Y-83418338D01*
X162593481Y-83403486D01*
X162578597Y-83393921D01*
X162502088Y-83336646D01*
X162502086Y-83336645D01*
X162367379Y-83286403D01*
X162367372Y-83286401D01*
X162307844Y-83280000D01*
X161810000Y-83280000D01*
X161810000Y-84506000D01*
X161790315Y-84573039D01*
X161737511Y-84618794D01*
X161686000Y-84630000D01*
X161434000Y-84630000D01*
X161366961Y-84610315D01*
X161321206Y-84557511D01*
X161310000Y-84506000D01*
X161310000Y-83280000D01*
X160812155Y-83280000D01*
X160752627Y-83286401D01*
X160752620Y-83286403D01*
X160617913Y-83336645D01*
X160617906Y-83336649D01*
X160502812Y-83422809D01*
X160502809Y-83422812D01*
X160416649Y-83537906D01*
X160416645Y-83537913D01*
X160366403Y-83672620D01*
X160366401Y-83672627D01*
X160360000Y-83732155D01*
X160360000Y-83818084D01*
X160340315Y-83885123D01*
X160287511Y-83930878D01*
X160226273Y-83941702D01*
X160220001Y-83941208D01*
X160220000Y-83941210D01*
X160220000Y-84767500D01*
X160200315Y-84834539D01*
X160147511Y-84880294D01*
X160096000Y-84891500D01*
X159734510Y-84891500D01*
X159697747Y-84894393D01*
X159697741Y-84894394D01*
X159540407Y-84940104D01*
X159540402Y-84940106D01*
X159519054Y-84952732D01*
X159455933Y-84970000D01*
X159165496Y-84970000D01*
X159207968Y-85116195D01*
X159207968Y-85116196D01*
X159215263Y-85128530D01*
X159232446Y-85196254D01*
X159215264Y-85254771D01*
X159200106Y-85280401D01*
X159200105Y-85280404D01*
X159154394Y-85437741D01*
X159154393Y-85437747D01*
X159151500Y-85474510D01*
X159151500Y-85527500D01*
X159131815Y-85594539D01*
X159079011Y-85640294D01*
X159027500Y-85651500D01*
X158769097Y-85651500D01*
X158702058Y-85631815D01*
X158681416Y-85615181D01*
X157536235Y-84470000D01*
X159165496Y-84470000D01*
X159720000Y-84470000D01*
X159720000Y-83941210D01*
X159719999Y-83941209D01*
X159699087Y-83942854D01*
X159699081Y-83942855D01*
X159543809Y-83987966D01*
X159543804Y-83987968D01*
X159404625Y-84070278D01*
X159404616Y-84070285D01*
X159290285Y-84184616D01*
X159290278Y-84184625D01*
X159207968Y-84323804D01*
X159165496Y-84470000D01*
X157536235Y-84470000D01*
X155444819Y-82378584D01*
X155411334Y-82317261D01*
X155408500Y-82290903D01*
X155408500Y-80562318D01*
X155409561Y-80546132D01*
X155413750Y-80514314D01*
X155412862Y-80507570D01*
X155423624Y-80438537D01*
X155470001Y-80386278D01*
X155537269Y-80367390D01*
X155567887Y-80371605D01*
X155614575Y-80384115D01*
X155771268Y-80397823D01*
X155833944Y-80403307D01*
X155833946Y-80403307D01*
X155833948Y-80403307D01*
X155894595Y-80398001D01*
X156053317Y-80384115D01*
X156266022Y-80327120D01*
X156465600Y-80234056D01*
X156584553Y-80150763D01*
X156650758Y-80128436D01*
X156718525Y-80145446D01*
X156766338Y-80196393D01*
X156773095Y-80212479D01*
X156820758Y-80352888D01*
X156951204Y-80617406D01*
X156951211Y-80617419D01*
X157115069Y-80862649D01*
X157144351Y-80896040D01*
X157933384Y-80107007D01*
X157982294Y-80185999D01*
X158125877Y-80343501D01*
X158284334Y-80463163D01*
X157497904Y-81249593D01*
X157531296Y-81278876D01*
X157776526Y-81442734D01*
X157776539Y-81442741D01*
X158041057Y-81573187D01*
X158320346Y-81667994D01*
X158320361Y-81667998D01*
X158609621Y-81725535D01*
X158609633Y-81725537D01*
X158903946Y-81744827D01*
X159198258Y-81725537D01*
X159198270Y-81725535D01*
X159487530Y-81667998D01*
X159487545Y-81667994D01*
X159766834Y-81573187D01*
X160031352Y-81442741D01*
X160031365Y-81442734D01*
X160276594Y-81278877D01*
X160309985Y-81249593D01*
X159523557Y-80463163D01*
X159682015Y-80343501D01*
X159825598Y-80185999D01*
X159874507Y-80107007D01*
X160663539Y-80896039D01*
X160692823Y-80862648D01*
X160856680Y-80617419D01*
X160856687Y-80617406D01*
X160987133Y-80352888D01*
X161081940Y-80073599D01*
X161081944Y-80073584D01*
X161139481Y-79784324D01*
X161139483Y-79784312D01*
X161158773Y-79490000D01*
X161139483Y-79195687D01*
X161139481Y-79195675D01*
X161081944Y-78906415D01*
X161081940Y-78906400D01*
X160987133Y-78627111D01*
X160856687Y-78362593D01*
X160856680Y-78362580D01*
X160692822Y-78117350D01*
X160663539Y-78083958D01*
X159874506Y-78872991D01*
X159825598Y-78794001D01*
X159682015Y-78636499D01*
X159523556Y-78516835D01*
X160309986Y-77730405D01*
X160276595Y-77701123D01*
X160031365Y-77537265D01*
X160031346Y-77537255D01*
X159983606Y-77513712D01*
X159932186Y-77466407D01*
X159914504Y-77398812D01*
X159936174Y-77332388D01*
X159990315Y-77288223D01*
X160038449Y-77278500D01*
X160865706Y-77278500D01*
X160883676Y-77279809D01*
X160886174Y-77280174D01*
X160907789Y-77283341D01*
X160957727Y-77278971D01*
X160968534Y-77278500D01*
X160974175Y-77278500D01*
X160974180Y-77278500D01*
X161005370Y-77274853D01*
X161008851Y-77274498D01*
X161059822Y-77270039D01*
X161084418Y-77267888D01*
X161084420Y-77267887D01*
X161084426Y-77267887D01*
X161084431Y-77267885D01*
X161091493Y-77266427D01*
X161091502Y-77266474D01*
X161099097Y-77264790D01*
X161099087Y-77264744D01*
X161106108Y-77263079D01*
X161106113Y-77263079D01*
X161177414Y-77237126D01*
X161180708Y-77235981D01*
X161252738Y-77212114D01*
X161252744Y-77212110D01*
X161259284Y-77209061D01*
X161259305Y-77209106D01*
X161266302Y-77205719D01*
X161266280Y-77205675D01*
X161272728Y-77202436D01*
X161272732Y-77202435D01*
X161336103Y-77160753D01*
X161339110Y-77158837D01*
X161403651Y-77119030D01*
X161403656Y-77119024D01*
X161409319Y-77114548D01*
X161409350Y-77114587D01*
X161415374Y-77109680D01*
X161415342Y-77109642D01*
X161420864Y-77105006D01*
X161420874Y-77105001D01*
X161472962Y-77049789D01*
X161475409Y-77047270D01*
X162040880Y-76481799D01*
X162054506Y-76470023D01*
X162074058Y-76455469D01*
X162074060Y-76455467D01*
X162106274Y-76417075D01*
X162113590Y-76409090D01*
X162117580Y-76405101D01*
X162137043Y-76380485D01*
X162139245Y-76377781D01*
X162188032Y-76319640D01*
X162188033Y-76319636D01*
X162188036Y-76319634D01*
X162192003Y-76313603D01*
X162192044Y-76313630D01*
X162196219Y-76307076D01*
X162196177Y-76307050D01*
X162199963Y-76300910D01*
X162199967Y-76300906D01*
X162232008Y-76232189D01*
X162233563Y-76228975D01*
X162267609Y-76161188D01*
X162267611Y-76161179D01*
X162270080Y-76154399D01*
X162270126Y-76154416D01*
X162272678Y-76147075D01*
X162272631Y-76147060D01*
X162274898Y-76140214D01*
X162274902Y-76140207D01*
X162290252Y-76065861D01*
X162290997Y-76062499D01*
X162308500Y-75988656D01*
X162308500Y-75988652D01*
X162308501Y-75988648D01*
X162309339Y-75981483D01*
X162309386Y-75981488D01*
X162310176Y-75973757D01*
X162310129Y-75973753D01*
X162310758Y-75966562D01*
X162310462Y-75956404D01*
X162308552Y-75890741D01*
X162308500Y-75887135D01*
X162308500Y-75048718D01*
X162328185Y-74981679D01*
X162380989Y-74935924D01*
X162450147Y-74925980D01*
X162513703Y-74955005D01*
X162535602Y-74979827D01*
X162671123Y-75182649D01*
X162700405Y-75216039D01*
X162700406Y-75216039D01*
X163489438Y-74427007D01*
X163538348Y-74505999D01*
X163681931Y-74663501D01*
X163840388Y-74783163D01*
X163053958Y-75569593D01*
X163087350Y-75598876D01*
X163332580Y-75762734D01*
X163332593Y-75762741D01*
X163597111Y-75893187D01*
X163876400Y-75987994D01*
X163876415Y-75987998D01*
X164165675Y-76045535D01*
X164165687Y-76045537D01*
X164460000Y-76064827D01*
X164754312Y-76045537D01*
X164754324Y-76045535D01*
X165043584Y-75987998D01*
X165043599Y-75987994D01*
X165322888Y-75893187D01*
X165587406Y-75762741D01*
X165587419Y-75762734D01*
X165832648Y-75598877D01*
X165866039Y-75569593D01*
X165079611Y-74783163D01*
X165238069Y-74663501D01*
X165381652Y-74505999D01*
X165430561Y-74427007D01*
X166219593Y-75216039D01*
X166248877Y-75182648D01*
X166412734Y-74937419D01*
X166412741Y-74937406D01*
X166543187Y-74672888D01*
X166637994Y-74393599D01*
X166637998Y-74393584D01*
X166695535Y-74104324D01*
X166695537Y-74104312D01*
X166714827Y-73810000D01*
X166695537Y-73515687D01*
X166695535Y-73515675D01*
X166637998Y-73226415D01*
X166637994Y-73226400D01*
X166543187Y-72947111D01*
X166412741Y-72682593D01*
X166412734Y-72682580D01*
X166248876Y-72437350D01*
X166219593Y-72403958D01*
X165430560Y-73192991D01*
X165381652Y-73114001D01*
X165238069Y-72956499D01*
X165079610Y-72836835D01*
X165866039Y-72050406D01*
X165866039Y-72050405D01*
X165832649Y-72021122D01*
X165719624Y-71945602D01*
X165674819Y-71891990D01*
X165666112Y-71822665D01*
X165696266Y-71759638D01*
X165755709Y-71722918D01*
X165788515Y-71718500D01*
X170854457Y-71718500D01*
X170921496Y-71738185D01*
G37*
%TD.AperFunction*%
%TA.AperFunction,Conductor*%
G36*
X149877070Y-77209570D02*
G01*
X149920614Y-77147385D01*
X149920615Y-77147383D01*
X149966875Y-77048179D01*
X150013047Y-76995739D01*
X150080240Y-76976587D01*
X150147121Y-76996802D01*
X150191639Y-77048179D01*
X150224676Y-77119028D01*
X150239890Y-77151654D01*
X150366197Y-77332038D01*
X150521908Y-77487749D01*
X150702292Y-77614056D01*
X150901870Y-77707120D01*
X150913458Y-77710225D01*
X150913462Y-77710226D01*
X150973122Y-77746592D01*
X151003650Y-77809440D01*
X150995353Y-77878815D01*
X150950867Y-77932692D01*
X150913462Y-77949774D01*
X150901869Y-77952880D01*
X150702292Y-78045944D01*
X150702288Y-78045946D01*
X150521913Y-78172247D01*
X150521906Y-78172252D01*
X150366198Y-78327960D01*
X150366193Y-78327967D01*
X150239892Y-78508342D01*
X150239890Y-78508346D01*
X150191639Y-78611822D01*
X150145467Y-78664261D01*
X150078273Y-78683413D01*
X150011392Y-78663197D01*
X149966875Y-78611822D01*
X149920613Y-78512614D01*
X149920612Y-78512612D01*
X149877070Y-78450428D01*
X149877070Y-78450427D01*
X149287725Y-79039772D01*
X149287479Y-79036484D01*
X149236818Y-78907402D01*
X149150360Y-78798987D01*
X149035787Y-78720873D01*
X148931643Y-78688749D01*
X149523517Y-78096874D01*
X149461333Y-78053333D01*
X149263105Y-77960898D01*
X149263096Y-77960894D01*
X149221596Y-77949775D01*
X149161936Y-77913411D01*
X149131406Y-77850564D01*
X149139700Y-77781188D01*
X149184185Y-77727310D01*
X149221596Y-77710225D01*
X149263096Y-77699105D01*
X149263110Y-77699100D01*
X149461329Y-77606669D01*
X149461331Y-77606668D01*
X149523517Y-77563124D01*
X148930966Y-76970572D01*
X148971065Y-76964529D01*
X149096000Y-76904363D01*
X149197651Y-76810045D01*
X149266985Y-76689955D01*
X149283796Y-76616297D01*
X149877070Y-77209570D01*
G37*
%TD.AperFunction*%
%TA.AperFunction,Conductor*%
G36*
X168573124Y-77209570D02*
G01*
X168616668Y-77147385D01*
X168616669Y-77147383D01*
X168662929Y-77048179D01*
X168709101Y-76995739D01*
X168776294Y-76976587D01*
X168843175Y-76996802D01*
X168887693Y-77048179D01*
X168920730Y-77119028D01*
X168935944Y-77151654D01*
X169062251Y-77332038D01*
X169217962Y-77487749D01*
X169398346Y-77614056D01*
X169597924Y-77707120D01*
X169609512Y-77710225D01*
X169609516Y-77710226D01*
X169669176Y-77746592D01*
X169699704Y-77809440D01*
X169691407Y-77878815D01*
X169646921Y-77932692D01*
X169609516Y-77949774D01*
X169597923Y-77952880D01*
X169398346Y-78045944D01*
X169398342Y-78045946D01*
X169217967Y-78172247D01*
X169217960Y-78172252D01*
X169062252Y-78327960D01*
X169062247Y-78327967D01*
X168935946Y-78508342D01*
X168935944Y-78508346D01*
X168887693Y-78611822D01*
X168841521Y-78664261D01*
X168774327Y-78683413D01*
X168707446Y-78663197D01*
X168662929Y-78611822D01*
X168616667Y-78512614D01*
X168616666Y-78512612D01*
X168573124Y-78450428D01*
X168573124Y-78450427D01*
X167983779Y-79039772D01*
X167983533Y-79036484D01*
X167932872Y-78907402D01*
X167846414Y-78798987D01*
X167731841Y-78720873D01*
X167627697Y-78688749D01*
X168219571Y-78096874D01*
X168157387Y-78053333D01*
X167959159Y-77960898D01*
X167959150Y-77960894D01*
X167917650Y-77949775D01*
X167857990Y-77913411D01*
X167827460Y-77850564D01*
X167835754Y-77781188D01*
X167880239Y-77727310D01*
X167917650Y-77710225D01*
X167959150Y-77699105D01*
X167959164Y-77699100D01*
X168157383Y-77606669D01*
X168157385Y-77606668D01*
X168219571Y-77563124D01*
X167627020Y-76970572D01*
X167667119Y-76964529D01*
X167792054Y-76904363D01*
X167893705Y-76810045D01*
X167963039Y-76689955D01*
X167979850Y-76616297D01*
X168573124Y-77209570D01*
G37*
%TD.AperFunction*%
%TA.AperFunction,Conductor*%
G36*
X157836482Y-77298185D02*
G01*
X157882237Y-77350989D01*
X157892181Y-77420147D01*
X157863156Y-77483703D01*
X157824286Y-77513712D01*
X157776545Y-77537255D01*
X157776526Y-77537265D01*
X157531292Y-77701126D01*
X157531285Y-77701131D01*
X157497905Y-77730403D01*
X157497905Y-77730405D01*
X158284335Y-78516835D01*
X158125877Y-78636499D01*
X157982294Y-78794001D01*
X157933384Y-78872992D01*
X157144351Y-78083959D01*
X157144349Y-78083959D01*
X157115077Y-78117339D01*
X157115072Y-78117346D01*
X156989133Y-78305826D01*
X156935520Y-78350631D01*
X156866195Y-78359338D01*
X156803168Y-78329183D01*
X156798350Y-78324617D01*
X156731617Y-78257884D01*
X156645984Y-78172251D01*
X156645980Y-78172248D01*
X156645971Y-78172240D01*
X156645309Y-78171777D01*
X156645086Y-78171497D01*
X156641834Y-78168769D01*
X156642382Y-78168115D01*
X156601691Y-78117194D01*
X156592446Y-78070212D01*
X156592446Y-77893898D01*
X156612131Y-77826859D01*
X156664935Y-77781104D01*
X156687938Y-77773220D01*
X156693141Y-77771989D01*
X156693147Y-77771989D01*
X156830150Y-77720889D01*
X156947207Y-77633261D01*
X157034835Y-77516204D01*
X157085935Y-77379201D01*
X157085935Y-77379195D01*
X157087166Y-77373992D01*
X157121736Y-77313274D01*
X157183644Y-77280884D01*
X157207844Y-77278500D01*
X157769443Y-77278500D01*
X157836482Y-77298185D01*
G37*
%TD.AperFunction*%
%TA.AperFunction,Conductor*%
G36*
X176532536Y-77298185D02*
G01*
X176578291Y-77350989D01*
X176588235Y-77420147D01*
X176559210Y-77483703D01*
X176520340Y-77513712D01*
X176472599Y-77537255D01*
X176472580Y-77537265D01*
X176227346Y-77701126D01*
X176227339Y-77701131D01*
X176193959Y-77730403D01*
X176193959Y-77730405D01*
X176980389Y-78516835D01*
X176821931Y-78636499D01*
X176678348Y-78794001D01*
X176629438Y-78872992D01*
X175840405Y-78083959D01*
X175840403Y-78083959D01*
X175811131Y-78117339D01*
X175811126Y-78117346D01*
X175685187Y-78305826D01*
X175631574Y-78350631D01*
X175562249Y-78359338D01*
X175499222Y-78329183D01*
X175494404Y-78324617D01*
X175427671Y-78257884D01*
X175342038Y-78172251D01*
X175342034Y-78172248D01*
X175342025Y-78172240D01*
X175341363Y-78171777D01*
X175341140Y-78171497D01*
X175337888Y-78168769D01*
X175338436Y-78168115D01*
X175297745Y-78117194D01*
X175288500Y-78070212D01*
X175288500Y-77893898D01*
X175308185Y-77826859D01*
X175360989Y-77781104D01*
X175383992Y-77773220D01*
X175389195Y-77771989D01*
X175389201Y-77771989D01*
X175526204Y-77720889D01*
X175643261Y-77633261D01*
X175730889Y-77516204D01*
X175781989Y-77379201D01*
X175781989Y-77379195D01*
X175783220Y-77373992D01*
X175817790Y-77313274D01*
X175879698Y-77280884D01*
X175903898Y-77278500D01*
X176465497Y-77278500D01*
X176532536Y-77298185D01*
G37*
%TD.AperFunction*%
%TA.AperFunction,Conductor*%
G36*
X173233200Y-77242731D02*
G01*
X173268614Y-77302961D01*
X173271634Y-77319894D01*
X173278011Y-77379202D01*
X173278011Y-77379204D01*
X173319847Y-77491366D01*
X173329111Y-77516204D01*
X173416739Y-77633261D01*
X173533796Y-77720889D01*
X173670799Y-77771989D01*
X173670803Y-77771989D01*
X173676008Y-77773220D01*
X173736726Y-77807790D01*
X173769116Y-77869698D01*
X173771500Y-77893898D01*
X173771500Y-78070212D01*
X173751815Y-78137251D01*
X173721839Y-78168444D01*
X173722112Y-78168769D01*
X173719093Y-78171302D01*
X173718637Y-78171777D01*
X173717974Y-78172240D01*
X173717958Y-78172254D01*
X173562252Y-78327960D01*
X173562247Y-78327967D01*
X173435946Y-78508342D01*
X173435944Y-78508346D01*
X173392382Y-78601766D01*
X173346210Y-78654205D01*
X173279016Y-78673357D01*
X173212135Y-78653141D01*
X173167618Y-78601766D01*
X173128863Y-78518656D01*
X173124056Y-78508347D01*
X173124054Y-78508344D01*
X173124053Y-78508342D01*
X173036449Y-78383231D01*
X172997749Y-78327962D01*
X172842038Y-78172251D01*
X172661654Y-78045944D01*
X172637483Y-78034673D01*
X172462081Y-77952882D01*
X172462079Y-77952881D01*
X172462076Y-77952880D01*
X172450482Y-77949773D01*
X172390825Y-77913409D01*
X172360296Y-77850562D01*
X172368591Y-77781187D01*
X172413077Y-77727309D01*
X172450480Y-77710227D01*
X172462076Y-77707120D01*
X172661654Y-77614056D01*
X172842038Y-77487749D01*
X172997749Y-77332038D01*
X173046771Y-77262026D01*
X173101346Y-77218403D01*
X173170845Y-77211209D01*
X173233200Y-77242731D01*
G37*
%TD.AperFunction*%
%TA.AperFunction,Conductor*%
G36*
X171073334Y-77358967D02*
G01*
X171117681Y-77387468D01*
X171217962Y-77487749D01*
X171398346Y-77614056D01*
X171597924Y-77707120D01*
X171609512Y-77710225D01*
X171609516Y-77710226D01*
X171669176Y-77746592D01*
X171699704Y-77809440D01*
X171691407Y-77878815D01*
X171646921Y-77932692D01*
X171609516Y-77949774D01*
X171597923Y-77952880D01*
X171398346Y-78045944D01*
X171398342Y-78045946D01*
X171217967Y-78172247D01*
X171217960Y-78172252D01*
X171117681Y-78272532D01*
X171056358Y-78306017D01*
X170986666Y-78301033D01*
X170942319Y-78272532D01*
X170842038Y-78172251D01*
X170779518Y-78128474D01*
X170661654Y-78045944D01*
X170637483Y-78034673D01*
X170462081Y-77952882D01*
X170462079Y-77952881D01*
X170462076Y-77952880D01*
X170450482Y-77949773D01*
X170390825Y-77913409D01*
X170360296Y-77850562D01*
X170368591Y-77781187D01*
X170413077Y-77727309D01*
X170450480Y-77710227D01*
X170462076Y-77707120D01*
X170661654Y-77614056D01*
X170842038Y-77487749D01*
X170942319Y-77387468D01*
X171003642Y-77353983D01*
X171073334Y-77358967D01*
G37*
%TD.AperFunction*%
%TA.AperFunction,Conductor*%
G36*
X160663576Y-75216076D02*
G01*
X160731090Y-75233523D01*
X160778548Y-75284801D01*
X160791500Y-75339976D01*
X160791500Y-75534457D01*
X160771815Y-75601496D01*
X160755181Y-75622138D01*
X160652138Y-75725181D01*
X160590815Y-75758666D01*
X160564457Y-75761500D01*
X160420619Y-75761500D01*
X160353580Y-75741815D01*
X160307825Y-75689011D01*
X160297881Y-75619853D01*
X160309148Y-75595181D01*
X160309985Y-75569593D01*
X159523557Y-74783163D01*
X159682015Y-74663501D01*
X159825598Y-74505999D01*
X159874507Y-74427007D01*
X160663576Y-75216076D01*
G37*
%TD.AperFunction*%
%TA.AperFunction,Conductor*%
G36*
X176678348Y-74505999D02*
G01*
X176821931Y-74663501D01*
X176980388Y-74783163D01*
X176193958Y-75569593D01*
X176194656Y-75590894D01*
X176202508Y-75603273D01*
X176202092Y-75673141D01*
X176163970Y-75731694D01*
X176100243Y-75760341D01*
X176083325Y-75761500D01*
X175903898Y-75761500D01*
X175836859Y-75741815D01*
X175791104Y-75689011D01*
X175783220Y-75666008D01*
X175781989Y-75660803D01*
X175781989Y-75660799D01*
X175730889Y-75523796D01*
X175643261Y-75406739D01*
X175526204Y-75319111D01*
X175389199Y-75268009D01*
X175383983Y-75266777D01*
X175323267Y-75232203D01*
X175290882Y-75170291D01*
X175288500Y-75146101D01*
X175288500Y-74741723D01*
X175308185Y-74674684D01*
X175360989Y-74628929D01*
X175430147Y-74618985D01*
X175493703Y-74648010D01*
X175523712Y-74686879D01*
X175647258Y-74937406D01*
X175647265Y-74937419D01*
X175811123Y-75182649D01*
X175840405Y-75216040D01*
X176629438Y-74427007D01*
X176678348Y-74505999D01*
G37*
%TD.AperFunction*%
%TD*%
M02*
